<svg width="131" height="47" viewBox="0 0 131 47" fill="none" xmlns="http://www.w3.org/2000/svg">
<path fill-rule="evenodd" clip-rule="evenodd" d="M27.7878 24.1617C27.7878 27.7368 23.734 27.1944 23.734 27.1944H7.57376C5.05287 27.1944 4.47269 25.2689 4.47269 23.5081V20.9125L0.239746 24.1749V25.0984C0.239746 29.5562 2.53061 31.1703 7.65791 31.1703H25.4854C28.9359 31.1703 32.0065 28.8835 32.0065 25.6132V17.0518L27.7878 20.9665V24.1617Z" fill="#1C1C1C"/>
<path fill-rule="evenodd" clip-rule="evenodd" d="M34.6543 32.0526H38.1839V12.6396L34.6543 16.6036V32.0526Z" fill="#1C1C1C"/>
<path fill-rule="evenodd" clip-rule="evenodd" d="M42.5929 28.3088C42.5929 30.9373 41.0749 32.4157 38.1836 32.4157L41.0116 36.4644C42.6193 36.4644 47.0077 35.3701 47.0077 27.9584V16.1689L42.5929 20.3818V28.3088Z" fill="#1C1C1C"/>
<path fill-rule="evenodd" clip-rule="evenodd" d="M54.7946 32.0532H57.7509H58.8056H61.7915C63.5935 32.0532 64.9951 31.4227 65.9952 30.163C66.8665 29.0941 67.3025 27.7329 67.3025 26.0787V18.0178L63.0388 22.0417V24.8684C63.0388 26.8958 62.3212 27.9092 60.8851 27.9092H53.8721C53.8721 27.9092 53.9179 25.8365 53.9179 24.688V11.7578L49.6543 15.8373V26.9411C49.6543 30.3496 51.3673 32.0532 54.7946 32.0532Z" fill="#1C1C1C"/>
<path fill-rule="evenodd" clip-rule="evenodd" d="M69.0649 32.0526H72.5946V12.6396L69.0649 16.3364V32.0526Z" fill="#1C1C1C"/>
<path fill-rule="evenodd" clip-rule="evenodd" d="M70.7685 5.58008C64.538 5.58008 62.8906 10.0051 62.8906 11.6252L67.0795 14.4042C67.0795 11.4892 67.7789 10.031 70.4168 10.031H74.5452L78.774 5.58008H70.7685Z" fill="#1C1C1C"/>
<path fill-rule="evenodd" clip-rule="evenodd" d="M14.8112 17.0518H4.65381V20.5814H18.7724L14.8112 17.0518Z" fill="#1C1C1C"/>
<path fill-rule="evenodd" clip-rule="evenodd" d="M62.8813 38.23L66.4219 34.924C66.3846 34.8734 66.3525 34.8168 66.3132 34.7689C65.3223 33.5464 63.9343 32.9355 62.15 32.9355C62.15 32.9355 50.6674 32.9429 50.5386 32.9475L54.8319 36.9543H60.754C61.6162 36.9543 62.3975 37.478 62.8813 38.23Z" fill="#1C1C1C"/>
<path fill-rule="evenodd" clip-rule="evenodd" d="M58.4795 38.2305H60.5933C61.5235 38.2305 62.0091 39.2937 62.0091 39.2937L60.7199 40.8777L58.4795 38.2305Z" fill="#1C1C1C"/>
<path fill-rule="evenodd" clip-rule="evenodd" d="M104.363 1.58457L100.092 0.515447C96.2607 -0.443693 92.3295 1.7067 91.3126 5.31818L90.2441 9.11126C93.6829 5.0963 98.6765 2.31799 104.363 1.58457Z" fill="#1C1C1C"/>
<path fill-rule="evenodd" clip-rule="evenodd" d="M86.155 26.7578L85.1765 30.7846C84.224 34.7039 86.3589 38.7245 89.9454 39.7654L93.7738 40.8764C89.7917 37.4539 86.9913 32.4667 86.155 26.7578Z" fill="#1C1C1C"/>
<path fill-rule="evenodd" clip-rule="evenodd" d="M125.61 6.74594L121.132 5.58203C125.582 8.94235 128.65 13.9643 129.371 19.7006L130.601 15.1659C131.598 11.4914 129.363 7.72184 125.61 6.74594Z" fill="#1C1C1C"/>
<path fill-rule="evenodd" clip-rule="evenodd" d="M110.539 44.806L114.832 45.937C118.592 46.9266 122.45 44.707 123.449 40.9782L124.657 36.4658C121.316 40.8779 116.297 43.9669 110.539 44.806Z" fill="#1C1C1C"/>
<path fill-rule="evenodd" clip-rule="evenodd" d="M114.943 22.2238C111.867 21.6314 109.853 18.6579 110.446 15.5811C111.038 12.505 114.012 10.4911 117.089 11.0836C120.165 11.676 122.179 14.6502 121.586 17.7263C120.994 20.8031 118.019 22.8169 114.943 22.2238ZM118.696 32.7355C118.104 35.8116 115.13 37.8248 112.053 37.233C108.977 36.6406 106.963 33.6664 107.556 30.5896C108.148 27.5142 111.122 25.5003 114.199 26.0921C117.275 26.6845 119.289 29.6594 118.696 32.7355ZM106.87 25.4031C105.502 25.1404 104.607 23.8182 104.87 22.451C105.134 21.0839 106.455 20.1885 107.823 20.4512C109.19 20.7153 110.085 22.0369 109.822 23.4047C109.558 24.7718 108.237 25.6665 106.87 25.4031ZM104.461 29.9945C103.869 33.0706 100.894 35.0838 97.8174 34.492C94.7413 33.8996 92.728 30.9247 93.3198 27.8493C93.9129 24.7725 96.8865 22.7586 99.9627 23.3511C103.039 23.9435 105.053 26.9177 104.461 29.9945ZM96.2103 12.8401C96.8028 9.76332 99.777 7.74945 102.853 8.34256C105.93 8.93499 107.944 11.9085 107.351 14.9853C106.759 18.0614 103.785 20.0753 100.708 19.4828C97.6318 18.8904 95.6179 15.9162 96.2103 12.8401ZM107.453 2.93359C96.4878 2.93359 87.5991 11.8221 87.5991 22.7875C87.5991 33.7528 96.4878 42.642 107.453 42.642C118.419 42.642 127.308 33.7528 127.308 22.7875C127.308 11.8221 118.419 2.93359 107.453 2.93359Z" fill="#1C1C1C"/>
</svg>
