<svg width="403" height="156" viewBox="0 0 403 156" fill="none" xmlns="http://www.w3.org/2000/svg">
<g filter="url(#filter0_d_11125_45016)">
<path d="M322 20C322 17.2386 319.761 15 317 15H25C22.2386 15 20 17.2386 20 20V55V65.5C20 68.2614 22.2386 70.5 25 70.5H94.7755C96.474 70.5 98.0562 69.6378 98.977 68.2106L106.023 57.2894C106.944 55.8622 108.526 55 110.224 55H317C319.761 55 322 52.7614 322 50V20Z" fill="white"/>
<mask id="mask0_11125_45016" style="mask-type:alpha" maskUnits="userSpaceOnUse" x="20" y="15" width="302" height="56">
<path d="M322 20C322 17.2386 319.761 15 317 15H25C22.2386 15 20 17.2386 20 20V55V65.5C20 68.2614 22.2386 70.5 25 70.5H94.7755C96.474 70.5 98.0562 69.6378 98.977 68.2106L106.023 57.2894C106.944 55.8622 108.526 55 110.224 55H317C319.761 55 322 52.7614 322 50V20Z" fill="white"/>
</mask>
<g mask="url(#mask0_11125_45016)">
<path d="M33.8085 56L35.5156 59.4589L39.3327 60.0136L36.5706 62.706L37.2227 66.5077L33.8085 64.7128L30.3944 66.5077L31.0464 62.706L28.2843 60.0136L32.1014 59.4589L33.8085 56Z" fill="#0EA960"/>
<path d="M47.0854 56L48.7924 59.4589L52.6096 60.0136L49.8475 62.706L50.4995 66.5077L47.0854 64.7128L43.6712 66.5077L44.3233 62.706L41.5611 60.0136L45.3783 59.4589L47.0854 56Z" fill="#0EA960"/>
<path d="M60.3617 57.1298L61.6204 59.6802L61.7368 59.9159L61.9969 59.9537L64.8115 60.3627L62.7748 62.3479L62.5866 62.5314L62.631 62.7905L63.1118 65.5937L60.5944 64.2702L60.3617 64.1479L60.1291 64.2702L57.6116 65.5937L58.0924 62.7905L58.1369 62.5314L57.9486 62.3479L55.912 60.3627L58.7266 59.9537L58.9867 59.9159L59.103 59.6802L60.3617 57.1298Z" stroke="#0EA960"/>
<path d="M73.6386 57.1298L74.8973 59.6802L75.0136 59.9159L75.2738 59.9537L78.0883 60.3627L76.0517 62.3479L75.8635 62.5314L75.9079 62.7905L76.3887 65.5937L73.8713 64.2702L73.6386 64.1479L73.4059 64.2702L70.8885 65.5937L71.3693 62.7905L71.4137 62.5314L71.2255 62.3479L69.1888 60.3627L72.0034 59.9537L72.2635 59.9159L72.3799 59.6802L73.6386 57.1298Z" stroke="#0EA960"/>
<path d="M86.915 57.1298L88.1737 59.6802L88.29 59.9159L88.5501 59.9537L91.3647 60.3627L89.3281 62.3479L89.1398 62.5314L89.1843 62.7905L89.665 65.5937L87.1476 64.2702L86.915 64.1479L86.6823 64.2702L84.1649 65.5937L84.6456 62.7905L84.6901 62.5314L84.5019 62.3479L82.4652 60.3627L85.2798 59.9537L85.5399 59.9159L85.6562 59.6802L86.915 57.1298Z" stroke="#0EA960"/>
<path d="M47.7242 37.9691V39H47.5224C46.9806 39 46.4806 38.7745 46.0224 38.3236C45.7497 38.6909 45.2715 38.9236 44.5879 39.0218C44.4606 39.04 44.326 39.0545 44.1842 39.0655C44.0424 39.0764 43.8951 39.0818 43.7424 39.0818C43.5569 39.0818 43.3697 39.0727 43.1806 39.0545C42.9915 39.04 42.806 39.0164 42.6242 38.9836C42.446 38.9473 42.2733 38.9018 42.106 38.8473C41.9388 38.7891 41.7879 38.7218 41.6533 38.6455L41.206 38.3836L41.7188 37.4836L42.1715 37.7455C42.2988 37.8182 42.4533 37.8782 42.6351 37.9255C42.8206 37.9691 43.0169 38 43.2242 38.0182C43.3806 38.0327 43.5369 38.04 43.6933 38.04C43.7479 38.04 43.8406 38.04 43.9715 38.04C44.1024 38.0364 44.2588 38.0218 44.4406 37.9964C44.6515 37.9636 44.8242 37.9182 44.9588 37.86C45.0969 37.7982 45.1842 37.7291 45.2206 37.6527C45.2533 37.6164 45.2697 37.5709 45.2697 37.5164C45.2697 37.48 45.2569 37.4218 45.2315 37.3418C45.206 37.2582 45.1497 37.1491 45.0624 37.0145L43.0169 33.9L43.8842 33.3327L46.0006 36.5618C46.1097 36.7182 46.2188 36.88 46.3279 37.0473C46.4406 37.2109 46.5588 37.3618 46.6824 37.5C46.806 37.6345 46.9351 37.7473 47.0697 37.8382C47.2079 37.9255 47.3588 37.9691 47.5224 37.9691H47.7242ZM53.4566 37.9691V39H52.5021C52.1712 39 51.8785 38.9527 51.6239 38.8582C51.373 38.7636 51.1712 38.6218 51.0185 38.4327C50.6403 38.8109 50.0803 39 49.3385 39H47.4839V37.9691H49.3385C49.6003 37.9691 49.8076 37.9436 49.9603 37.8927C50.113 37.8382 50.2276 37.7727 50.3039 37.6964C50.3839 37.6164 50.4348 37.5291 50.4566 37.4345C50.4821 37.3364 50.4948 37.2436 50.4948 37.1564V35.3127H51.5203V37.1182C51.5203 37.2527 51.5403 37.3673 51.5803 37.4618C51.6239 37.5564 51.6766 37.6364 51.7385 37.7018C51.8003 37.7636 51.8694 37.8127 51.9457 37.8491C52.0257 37.8855 52.1021 37.9127 52.1748 37.9309C52.2476 37.9491 52.313 37.96 52.3712 37.9636C52.4294 37.9673 52.473 37.9691 52.5021 37.9691H53.4566ZM51.9512 41.1109L51.0676 41.9945L50.2166 41.1109L51.0785 40.2382L51.9512 41.1109ZM49.8621 41.1218L48.9785 42.0055L48.1276 41.1218L48.9894 40.2491L49.8621 41.1218ZM57.8554 37.9691V39H57.4299C57.099 39 56.8063 38.9527 56.5518 38.8582C56.3009 38.7636 56.099 38.6218 55.9463 38.4327C55.5681 38.8109 55.0081 39 54.2663 39H53.219V37.9691H54.2663C54.5281 37.9691 54.7354 37.9436 54.8881 37.8927C55.0409 37.8382 55.1554 37.7727 55.2318 37.6964C55.3118 37.6164 55.3627 37.5291 55.3845 37.4345C55.4099 37.3364 55.4227 37.2436 55.4227 37.1564V35.3127H56.4481V37.1182C56.4481 37.2527 56.4681 37.3673 56.5081 37.4618C56.5481 37.5564 56.599 37.6364 56.6609 37.7018C56.7263 37.7636 56.7972 37.8127 56.8736 37.8491C56.9536 37.8855 57.0299 37.9127 57.1027 37.9309C57.1754 37.9491 57.2409 37.96 57.299 37.9636C57.3572 37.9673 57.4009 37.9691 57.4299 37.9691H57.8554ZM54.6099 32.7982L55.5372 31.86L56.4863 32.8091L55.5481 33.7473L54.6099 32.7982ZM57.6206 39V37.9691H60.817C61.0788 37.9691 61.2952 37.94 61.4661 37.8818C61.6406 37.82 61.7534 37.7364 61.8043 37.6309C61.8297 37.5764 61.8425 37.5145 61.8425 37.4455C61.8425 37.3836 61.8243 37.2964 61.7879 37.1836C61.7552 37.0673 61.6825 36.9164 61.5697 36.7309C61.457 36.5418 61.3188 36.3436 61.1552 36.1364C60.9915 35.9291 60.8152 35.7218 60.6261 35.5145C60.437 35.3073 60.2425 35.1055 60.0425 34.9091C59.8425 34.7091 59.6497 34.5255 59.4643 34.3582C59.2788 34.1873 59.1097 34.0382 58.957 33.9109C58.8043 33.78 58.6788 33.68 58.5806 33.6109L58.6843 32.4491L63.6752 30.2564L64.0897 31.1945L59.7206 33.1036C59.8297 33.2127 59.9697 33.3509 60.1406 33.5182C60.3115 33.6818 60.497 33.8655 60.697 34.0691C60.897 34.2691 61.1006 34.4836 61.3079 34.7127C61.5152 34.9382 61.7115 35.1655 61.897 35.3945C62.0825 35.6236 62.2461 35.8491 62.3879 36.0709C62.5334 36.2891 62.6406 36.4909 62.7097 36.6764C62.7715 36.8364 62.8152 36.9855 62.8406 37.1236C62.8588 37.2436 62.8679 37.3527 62.8679 37.4509C62.8679 37.4691 62.8661 37.5109 62.8625 37.5764C62.8625 37.6418 62.8497 37.72 62.8243 37.8109C62.8025 37.9018 62.777 37.98 62.7479 38.0455C62.7079 38.1364 62.6461 38.2382 62.5625 38.3509C62.4788 38.46 62.3606 38.5636 62.2079 38.6618C62.0588 38.7564 61.8715 38.8364 61.6461 38.9018C61.4206 38.9673 61.1443 39 60.817 39H57.6206ZM76.141 39C76.2937 39.2982 76.3774 39.58 76.3919 39.8455L76.3974 39.9218C76.3974 40.1582 76.3501 40.3818 76.2555 40.5927C76.161 40.8036 76.0137 40.9982 75.8137 41.1764C75.6137 41.3545 75.3774 41.5036 75.1046 41.6236C74.8319 41.7473 74.5283 41.8418 74.1937 41.9073C73.8592 41.9764 73.5064 42.0109 73.1355 42.0109H71.581C71.0064 42.0109 70.4901 41.8855 70.0319 41.6345C69.5737 41.3836 69.1992 41.0364 68.9083 40.5927C68.7119 40.28 68.5719 39.9327 68.4883 39.5509C68.4228 39.2564 68.3901 38.9473 68.3901 38.6236C68.3901 38.5291 68.3974 38.3509 68.4119 38.0891C68.4264 37.8236 68.501 37.4527 68.6355 36.9764C68.7737 36.5 68.9664 36.0073 69.2137 35.4982L70.1301 35.9455C69.7228 36.8036 69.4919 37.58 69.4374 38.2745C69.4301 38.3909 69.4264 38.5036 69.4264 38.6127C69.4264 39.1655 69.5483 39.64 69.7919 40.0364C69.9774 40.3382 70.2246 40.5691 70.5337 40.7291C70.8464 40.8891 71.1955 40.9691 71.581 40.9691H73.1355C73.3392 40.9691 73.5392 40.9527 73.7355 40.92C73.9319 40.8909 74.1155 40.8491 74.2864 40.7945C74.4574 40.74 74.6119 40.6745 74.7501 40.5982C74.8883 40.5255 75.0028 40.4436 75.0937 40.3527C75.1883 40.2618 75.2537 40.1636 75.2901 40.0582C75.3119 40.0036 75.3228 39.9491 75.3228 39.8945C75.3228 39.8436 75.3137 39.7927 75.2955 39.7418C75.2519 39.6 75.1501 39.48 74.9901 39.3818C74.8301 39.2873 74.6374 39.2109 74.4119 39.1527C74.1864 39.0982 73.9428 39.0582 73.681 39.0327C73.4192 39.0109 73.1664 39 72.9228 39L72.961 37.9691H77.6628V39H76.141ZM75.7964 39V37.9691H78.9928C79.2546 37.9691 79.471 37.94 79.6419 37.8818C79.8164 37.82 79.9291 37.7364 79.9801 37.6309C80.0055 37.5764 80.0182 37.5145 80.0182 37.4455C80.0182 37.3836 80.0001 37.2964 79.9637 37.1836C79.931 37.0673 79.8582 36.9164 79.7455 36.7309C79.6328 36.5418 79.4946 36.3436 79.331 36.1364C79.1673 35.9291 78.991 35.7218 78.8019 35.5145C78.6128 35.3073 78.4182 35.1055 78.2182 34.9091C78.0182 34.7091 77.8255 34.5255 77.6401 34.3582C77.4546 34.1873 77.2855 34.0382 77.1328 33.9109C76.9801 33.78 76.8546 33.68 76.7564 33.6109L76.8601 32.4491L81.851 30.2564L82.2655 31.1945L77.8964 33.1036C78.0055 33.2127 78.1455 33.3509 78.3164 33.5182C78.4873 33.6818 78.6728 33.8655 78.8728 34.0691C79.0728 34.2691 79.2764 34.4836 79.4837 34.7127C79.691 34.9382 79.8873 35.1655 80.0728 35.3945C80.2582 35.6236 80.4219 35.8491 80.5637 36.0709C80.7091 36.2891 80.8164 36.4909 80.8855 36.6764C80.9473 36.8364 80.991 36.9855 81.0164 37.1236C81.0346 37.2436 81.0437 37.3527 81.0437 37.4509C81.0437 37.4691 81.0419 37.5109 81.0382 37.5764C81.0382 37.6418 81.0255 37.72 81.0001 37.8109C80.9782 37.9018 80.9528 37.98 80.9237 38.0455C80.8837 38.1364 80.8219 38.2382 80.7382 38.3509C80.6546 38.46 80.5364 38.5636 80.3837 38.6618C80.2346 38.7564 80.0473 38.8364 79.8219 38.9018C79.5964 38.9673 79.3201 39 78.9928 39H75.7964ZM77.0401 30.8891L81.1801 29.1055L81.4091 29.5964L76.9801 31.5164L77.0401 30.8891ZM89.2555 37.9691V39H89.0537C88.5118 39 88.0118 38.7745 87.5537 38.3236C87.2809 38.6909 86.8027 38.9236 86.1191 39.0218C85.9918 39.04 85.8573 39.0545 85.7155 39.0655C85.5737 39.0764 85.4264 39.0818 85.2737 39.0818C85.0882 39.0818 84.9009 39.0727 84.7118 39.0545C84.5227 39.04 84.3373 39.0164 84.1555 38.9836C83.9773 38.9473 83.8046 38.9018 83.6373 38.8473C83.47 38.7891 83.3191 38.7218 83.1846 38.6455L82.7373 38.3836L83.25 37.4836L83.7027 37.7455C83.83 37.8182 83.9846 37.8782 84.1664 37.9255C84.3518 37.9691 84.5482 38 84.7555 38.0182C84.9118 38.0327 85.0682 38.04 85.2246 38.04C85.2791 38.04 85.3718 38.04 85.5027 38.04C85.6337 38.0364 85.79 38.0218 85.9718 37.9964C86.1827 37.9636 86.3555 37.9182 86.49 37.86C86.6282 37.7982 86.7155 37.7291 86.7518 37.6527C86.7846 37.6164 86.8009 37.5709 86.8009 37.5164C86.8009 37.48 86.7882 37.4218 86.7627 37.3418C86.7373 37.2582 86.6809 37.1491 86.5937 37.0145L84.5482 33.9L85.4155 33.3327L87.5318 36.5618C87.6409 36.7182 87.75 36.88 87.8591 37.0473C87.9718 37.2109 88.09 37.3618 88.2137 37.5C88.3373 37.6345 88.4664 37.7473 88.6009 37.8382C88.7391 37.9255 88.89 37.9691 89.0537 37.9691H89.2555ZM94.9879 37.9691V39H94.0334C93.7024 39 93.4097 38.9527 93.1552 38.8582C92.9043 38.7636 92.7024 38.6218 92.5497 38.4327C92.1715 38.8109 91.6115 39 90.8697 39H89.0152V37.9691H90.8697C91.1315 37.9691 91.3388 37.9436 91.4915 37.8927C91.6443 37.8382 91.7588 37.7727 91.8352 37.6964C91.9152 37.6164 91.9661 37.5291 91.9879 37.4345C92.0134 37.3364 92.0261 37.2436 92.0261 37.1564V35.3127H93.0515V37.1182C93.0515 37.2527 93.0715 37.3673 93.1115 37.4618C93.1552 37.5564 93.2079 37.6364 93.2697 37.7018C93.3315 37.7636 93.4006 37.8127 93.477 37.8491C93.557 37.8855 93.6334 37.9127 93.7061 37.9309C93.7788 37.9491 93.8443 37.96 93.9024 37.9636C93.9606 37.9673 94.0043 37.9691 94.0334 37.9691H94.9879ZM93.4824 41.1109L92.5988 41.9945L91.7479 41.1109L92.6097 40.2382L93.4824 41.1109ZM91.3934 41.1218L90.5097 42.0055L89.6588 41.1218L90.5206 40.2491L91.3934 41.1218ZM99.0048 38.9891C98.663 38.9891 98.3594 38.94 98.0939 38.8418C97.8285 38.74 97.6048 38.5945 97.423 38.4055C97.2339 38.6091 97.0139 38.76 96.763 38.8582C96.5121 38.9527 96.2594 39 96.0048 39H94.7503V37.9691H96.0048C96.0594 37.9691 96.1376 37.9618 96.2394 37.9473C96.3412 37.9291 96.4412 37.8873 96.5394 37.8218C96.6376 37.7527 96.723 37.6509 96.7957 37.5164C96.8721 37.3818 96.9103 37.1982 96.9103 36.9655V35.3127H97.9412V36.9436C97.9412 37.2964 98.023 37.5545 98.1866 37.7182C98.3539 37.8818 98.6266 37.9636 99.0048 37.9636C99.0594 37.9636 99.1357 37.9545 99.2339 37.9364C99.3357 37.9145 99.4357 37.8691 99.5339 37.8C99.6357 37.7309 99.723 37.6291 99.7957 37.4945C99.8721 37.36 99.9103 37.1764 99.9103 36.9436V35.3127H100.936V36.9436C100.936 37.2964 101.021 37.5564 101.192 37.7236C101.363 37.8909 101.638 37.9745 102.016 37.9745C102.074 37.9745 102.152 37.9636 102.25 37.9418C102.348 37.9164 102.445 37.8673 102.539 37.7945C102.638 37.7218 102.721 37.6182 102.79 37.4836C102.859 37.3491 102.894 37.1691 102.894 36.9436C102.894 36.8636 102.887 36.7636 102.872 36.6436C102.861 36.5236 102.845 36.3945 102.823 36.2564C102.805 36.1182 102.783 35.9782 102.758 35.8364C102.732 35.6909 102.707 35.5564 102.681 35.4327C102.656 35.3055 102.632 35.1927 102.61 35.0945C102.588 34.9927 102.57 34.9182 102.556 34.8709L103.532 34.56C103.539 34.5818 103.554 34.64 103.576 34.7345C103.598 34.8255 103.623 34.94 103.652 35.0782C103.681 35.2127 103.71 35.3636 103.739 35.5309C103.772 35.6982 103.801 35.8673 103.827 36.0382C103.856 36.2055 103.879 36.3691 103.898 36.5291C103.916 36.6855 103.925 36.8236 103.925 36.9436C103.925 37.2891 103.868 37.5909 103.756 37.8491C103.643 38.1036 103.496 38.3164 103.314 38.4873C103.136 38.6545 102.932 38.7818 102.703 38.8691C102.474 38.9527 102.245 38.9964 102.016 39C101.667 39 101.358 38.9491 101.088 38.8473C100.823 38.7418 100.598 38.5909 100.412 38.3945C100.223 38.5945 100.003 38.7436 99.7521 38.8418C99.5048 38.94 99.2557 38.9891 99.0048 38.9891ZM103.531 42.0273V40.9964H104.284C104.659 40.9964 104.982 40.9509 105.255 40.86C105.531 40.7727 105.759 40.6364 105.937 40.4509C106.119 40.2655 106.251 40.0291 106.335 39.7418C106.422 39.4545 106.466 39.1127 106.466 38.7164V35.3127H107.497V38.7164C107.497 39.2364 107.428 39.7 107.289 40.1073C107.155 40.5182 106.953 40.8655 106.684 41.1491C106.415 41.4327 106.079 41.6491 105.675 41.7982C105.275 41.9509 104.811 42.0273 104.284 42.0273H103.531ZM115.297 39C114.915 38.9964 114.599 38.9709 114.348 38.9236C114.101 38.8727 113.89 38.8018 113.715 38.7109C113.544 38.6164 113.406 38.5 113.301 38.3618C113.199 38.22 113.119 38.0564 113.061 37.8709C113.003 37.6818 112.964 37.4709 112.946 37.2382C112.928 37.0055 112.919 36.7473 112.919 36.4636V31.2164H113.95V36.4636C113.95 36.78 113.959 37.0364 113.977 37.2327C113.999 37.4291 114.052 37.5818 114.135 37.6909C114.223 37.7964 114.352 37.8691 114.523 37.9091C114.697 37.9455 114.955 37.9655 115.297 37.9691V39ZM118.262 37.6582C118.426 37.6 118.573 37.5273 118.704 37.44C118.835 37.3527 118.946 37.2509 119.037 37.1345C119.131 37.0182 119.204 36.8855 119.255 36.7364C119.306 36.5873 119.331 36.4182 119.331 36.2291C119.331 36.12 119.302 36.0109 119.244 35.9018C119.19 35.7927 119.113 35.6945 119.015 35.6073C118.92 35.52 118.811 35.4491 118.688 35.3945C118.564 35.34 118.435 35.3127 118.3 35.3127C118.148 35.3127 118 35.3382 117.859 35.3891C117.72 35.4364 117.597 35.5018 117.488 35.5855C117.382 35.6655 117.299 35.7618 117.237 35.8745C117.175 35.9873 117.144 36.1055 117.144 36.2291V36.2945C117.144 36.4509 117.168 36.6 117.215 36.7418C117.266 36.88 117.34 37.0073 117.439 37.1236C117.537 37.24 117.655 37.3436 117.793 37.4345C117.935 37.5218 118.091 37.5964 118.262 37.6582ZM118.3 34.2818C118.613 34.2818 118.893 34.3364 119.14 34.4455C119.388 34.5545 119.597 34.7 119.768 34.8818C119.939 35.06 120.07 35.2673 120.16 35.5036C120.251 35.7364 120.297 35.9782 120.297 36.2291C120.297 36.5818 120.246 36.9 120.144 37.1836C120.046 37.4673 119.895 37.7182 119.691 37.9364C119.968 37.9582 120.266 37.9691 120.586 37.9691H121.219V39H120.586C119.655 39 118.877 38.9127 118.251 38.7382C117.931 38.8255 117.564 38.8909 117.15 38.9345C116.735 38.9782 116.262 39 115.731 39H115.082V37.9691H115.731C116.128 37.9691 116.482 37.9582 116.795 37.9364C116.58 37.7145 116.42 37.4618 116.315 37.1782C116.21 36.8909 116.157 36.5745 116.157 36.2291C116.157 35.9636 116.211 35.7127 116.32 35.4764C116.433 35.24 116.586 35.0327 116.779 34.8545C116.975 34.6764 117.202 34.5364 117.46 34.4345C117.722 34.3327 118.002 34.2818 118.3 34.2818ZM117.34 31.9855L118.268 31.0473L119.217 31.9964L118.279 32.9345L117.34 31.9855ZM129.188 39H121V37.9691H122.222C122.313 37.8309 122.402 37.6855 122.489 37.5327C122.577 37.38 122.668 37.2327 122.762 37.0909V31.2164H123.788V35.6182C123.944 35.4327 124.106 35.26 124.273 35.1C124.444 34.9364 124.622 34.7964 124.808 34.68C124.997 34.5636 125.193 34.4727 125.397 34.4073C125.604 34.3382 125.82 34.3036 126.046 34.3036C126.311 34.3036 126.573 34.3527 126.831 34.4509C127.089 34.5491 127.318 34.7 127.518 34.9036C127.722 35.1073 127.886 35.3655 128.009 35.6782C128.133 35.9909 128.195 36.3618 128.195 36.7909C128.195 37.0345 128.169 37.2527 128.118 37.4455C128.071 37.6382 128.004 37.8127 127.917 37.9691H129.188V39ZM125.986 37.9691C126.153 37.9691 126.308 37.9455 126.449 37.8982C126.595 37.8509 126.72 37.78 126.826 37.6855C126.931 37.5873 127.013 37.4655 127.071 37.32C127.133 37.1709 127.164 36.9945 127.164 36.7909C127.164 36.3291 127.066 35.9709 126.869 35.7164C126.673 35.4582 126.398 35.3291 126.046 35.3291C125.878 35.3291 125.715 35.3673 125.555 35.4436C125.395 35.5164 125.237 35.6182 125.08 35.7491C124.928 35.8764 124.778 36.0273 124.633 36.2018C124.488 36.3727 124.346 36.5564 124.208 36.7527C124.073 36.9455 123.942 37.1455 123.815 37.3527C123.688 37.5564 123.566 37.7545 123.449 37.9473C123.442 37.9545 123.438 37.9618 123.438 37.9691H125.986ZM128.969 37.9691H129.154C129.489 37.9691 129.749 37.9455 129.934 37.8982C130.124 37.8473 130.269 37.7709 130.371 37.6691C130.444 37.6 130.496 37.5036 130.529 37.38C130.565 37.2527 130.584 37.0855 130.584 36.8782V31.2109H131.609V36.8782C131.609 37.0018 131.604 37.1309 131.593 37.2655C131.582 37.3964 131.558 37.5291 131.522 37.6636C131.485 37.7982 131.433 37.9309 131.364 38.0618C131.294 38.1891 131.202 38.3091 131.085 38.4218C130.98 38.52 130.865 38.6055 130.742 38.6782C130.622 38.7473 130.484 38.8073 130.327 38.8582C130.171 38.9055 129.996 38.9418 129.804 38.9673C129.611 38.9891 129.394 39 129.154 39H128.969V37.9691ZM137.696 42.6H136.67V36.9491L137.663 36.3709C137.768 36.4291 137.877 36.4891 137.99 36.5509C138.085 36.6018 138.187 36.6582 138.296 36.72C138.408 36.7818 138.517 36.8382 138.623 36.8891C138.677 36.5618 138.739 36.2673 138.808 36.0055C138.881 35.74 138.97 35.5018 139.076 35.2909C139.428 34.5818 139.985 34.2273 140.745 34.2273C141.076 34.2273 141.377 34.2964 141.65 34.4345C141.927 34.5691 142.159 34.7673 142.348 35.0291C142.508 35.2473 142.628 35.4982 142.708 35.7818C142.792 36.0655 142.834 36.3673 142.834 36.6873C142.834 37.04 142.803 37.3436 142.741 37.5982C142.683 37.8527 142.605 38.0673 142.507 38.2418C142.412 38.4164 142.303 38.5564 142.179 38.6618C142.059 38.7636 141.937 38.8436 141.814 38.9018C141.69 38.9564 141.57 38.9927 141.454 39.0109C141.337 39.0291 141.237 39.0382 141.154 39.0382C141.092 39.0382 141.012 39.0291 140.914 39.0109C140.816 38.9927 140.683 38.9545 140.516 38.8964C140.348 38.8382 140.137 38.7545 139.883 38.6455C139.628 38.5364 139.314 38.3891 138.939 38.2036C138.688 38.08 138.452 37.9618 138.23 37.8491C138.012 37.7327 137.834 37.6364 137.696 37.56V42.6ZM139.588 37.3745C139.897 37.5273 140.152 37.6455 140.352 37.7291C140.552 37.8127 140.71 37.8764 140.827 37.92C140.943 37.96 141.025 37.9855 141.072 37.9964C141.119 38.0036 141.147 38.0073 141.154 38.0073C141.194 38.0073 141.25 38 141.323 37.9855C141.399 37.9709 141.472 37.9236 141.541 37.8436C141.614 37.76 141.676 37.6291 141.727 37.4509C141.781 37.2727 141.808 37.0182 141.808 36.6873C141.808 36.6473 141.805 36.5836 141.797 36.4964C141.794 36.4091 141.779 36.3127 141.754 36.2073C141.732 36.1018 141.697 35.9927 141.65 35.88C141.607 35.7673 141.545 35.6655 141.465 35.5745C141.388 35.48 141.29 35.4036 141.17 35.3455C141.054 35.2836 140.912 35.2527 140.745 35.2527C140.603 35.2527 140.476 35.2782 140.363 35.3291C140.25 35.38 140.147 35.4818 140.052 35.6345C139.961 35.7873 139.877 36.0036 139.801 36.2836C139.728 36.56 139.657 36.9236 139.588 37.3745ZM145.509 38.9945H144.478V31.2164H145.509V38.9945ZM150.404 39H150.169C149.82 39 149.498 38.9309 149.204 38.7927C149.204 39.3018 149.133 39.7564 148.991 40.1564C148.849 40.5564 148.642 40.8945 148.369 41.1709C148.096 41.4509 147.76 41.6636 147.36 41.8091C146.964 41.9545 146.507 42.0273 145.991 42.0273H145.238V40.9964H145.991C146.366 40.9964 146.689 40.9509 146.962 40.86C147.238 40.7727 147.466 40.6364 147.644 40.4509C147.826 40.2655 147.958 40.0291 148.042 39.7418C148.129 39.4545 148.173 39.1127 148.173 38.7164V35.3127H149.204V37.1182C149.204 37.3218 149.246 37.4818 149.329 37.5982C149.416 37.7109 149.516 37.7945 149.629 37.8491C149.742 37.9036 149.849 37.9382 149.951 37.9527C150.056 37.9636 150.129 37.9691 150.169 37.9691H150.404V39ZM153.115 34.56C153.122 34.5818 153.136 34.64 153.158 34.7345C153.18 34.8291 153.204 34.9473 153.229 35.0891C153.258 35.2273 153.289 35.3818 153.322 35.5527C153.355 35.72 153.384 35.8909 153.409 36.0655C153.435 36.2364 153.456 36.4018 153.475 36.5618C153.493 36.7218 153.502 36.8618 153.502 36.9818C153.502 37.3309 153.444 37.6327 153.327 37.8873C153.215 38.1382 153.065 38.3473 152.88 38.5145C152.698 38.6782 152.493 38.8 152.264 38.88C152.035 38.96 151.804 39 151.571 39H150.18V37.9691H151.571C151.625 37.9691 151.702 37.9618 151.8 37.9473C151.902 37.9291 152.002 37.8873 152.1 37.8218C152.202 37.7564 152.289 37.6582 152.362 37.5273C152.438 37.3964 152.476 37.2145 152.476 36.9818C152.476 36.9018 152.469 36.8018 152.455 36.6818C152.444 36.5582 152.427 36.4273 152.405 36.2891C152.387 36.1473 152.365 36.0036 152.34 35.8582C152.315 35.7091 152.289 35.5691 152.264 35.4382C152.238 35.3073 152.215 35.1909 152.193 35.0891C152.171 34.9873 152.153 34.9109 152.138 34.86L153.115 34.56ZM151.227 40.98L152.155 40.0418L153.104 40.9909L152.165 41.9291L151.227 40.98ZM160.681 39.0818C160.495 39.0818 160.308 39.0727 160.119 39.0545C159.93 39.04 159.744 39.0164 159.562 38.9836C159.384 38.9473 159.211 38.9018 159.044 38.8473C158.881 38.7891 158.731 38.72 158.597 38.64L158.144 38.3836L158.657 37.4836L159.11 37.74C159.237 37.8127 159.393 37.8727 159.579 37.92C159.764 37.9636 159.961 37.9945 160.168 38.0127C160.346 38.0309 160.524 38.04 160.702 38.04C160.735 38.04 160.811 38.04 160.931 38.04C161.051 38.0364 161.201 38.0218 161.379 37.9964C161.59 37.9636 161.762 37.9182 161.897 37.86C162.035 37.7982 162.122 37.7291 162.159 37.6527C162.173 37.6164 162.181 37.5764 162.181 37.5327C162.181 37.4709 162.162 37.3855 162.126 37.2764C162.09 37.1636 162.013 37.02 161.897 36.8455L159.922 33.8618L160.795 33.2945C160.842 33.3673 160.891 33.4436 160.942 33.5236C160.993 33.6 161.053 33.6909 161.122 33.7964C161.191 33.8982 161.271 34.02 161.362 34.1618C161.453 34.3 161.564 34.4673 161.695 34.6636C161.826 34.86 161.979 35.0891 162.153 35.3509C162.328 35.6127 162.531 35.9182 162.764 36.2673C162.855 36.4055 162.937 36.5509 163.01 36.7036C163.082 36.8527 163.137 37.0036 163.173 37.1564C163.206 37.2945 163.222 37.4327 163.222 37.5709C163.222 37.5855 163.221 37.6364 163.217 37.7236C163.213 37.8073 163.177 37.9236 163.108 38.0727C162.879 38.5855 162.351 38.9018 161.526 39.0218C161.399 39.04 161.264 39.0545 161.122 39.0655C160.981 39.0764 160.833 39.0818 160.681 39.0818ZM167.082 39C166.701 38.9964 166.384 38.9709 166.133 38.9236C165.886 38.8727 165.675 38.8018 165.501 38.7109C165.33 38.6164 165.191 38.5 165.086 38.3618C164.984 38.22 164.904 38.0564 164.846 37.8709C164.788 37.6818 164.75 37.4709 164.731 37.2382C164.713 37.0055 164.704 36.7473 164.704 36.4636V31.2164H165.735V36.4636C165.735 36.78 165.744 37.0364 165.762 37.2327C165.784 37.4291 165.837 37.5818 165.921 37.6909C166.008 37.7964 166.137 37.8691 166.308 37.9091C166.482 37.9455 166.741 37.9655 167.082 37.9691V39ZM172.824 37.9691V39H171.869C171.538 39 171.246 38.9527 170.991 38.8582C170.74 38.7636 170.538 38.6218 170.386 38.4327C170.007 38.8109 169.447 39 168.706 39H166.851V37.9691H168.706C168.967 37.9691 169.175 37.9436 169.327 37.8927C169.48 37.8382 169.595 37.7727 169.671 37.6964C169.751 37.6164 169.802 37.5291 169.824 37.4345C169.849 37.3364 169.862 37.2436 169.862 37.1564V35.3127H170.887V37.1182C170.887 37.2527 170.907 37.3673 170.947 37.4618C170.991 37.5564 171.044 37.6364 171.106 37.7018C171.167 37.7636 171.237 37.8127 171.313 37.8491C171.393 37.8855 171.469 37.9127 171.542 37.9309C171.615 37.9491 171.68 37.96 171.738 37.9636C171.797 37.9673 171.84 37.9691 171.869 37.9691H172.824ZM171.318 41.1109L170.435 41.9945L169.584 41.1109L170.446 40.2382L171.318 41.1109ZM169.229 41.1218L168.346 42.0055L167.495 41.1218L168.357 40.2491L169.229 41.1218ZM178.995 39C178.733 39 178.488 38.9618 178.259 38.8855C178.03 38.8091 177.823 38.7 177.637 38.5582C177.539 38.7109 177.43 38.8345 177.31 38.9291C177.193 39.02 177.075 39.0891 176.955 39.1364C176.839 39.1873 176.726 39.22 176.617 39.2345C176.508 39.2527 176.413 39.2618 176.333 39.2618C176.155 39.2618 175.984 39.2436 175.821 39.2073C175.657 39.1709 175.49 39.1182 175.319 39.0491C175.148 38.9836 174.968 38.9018 174.779 38.8036C174.593 38.7055 174.388 38.5945 174.163 38.4709C173.864 38.8236 173.481 39 173.012 39H172.586V37.9691H173.012C173.15 37.9691 173.263 37.9182 173.35 37.8164C173.441 37.7145 173.519 37.5818 173.584 37.4182C173.65 37.2545 173.71 37.0673 173.764 36.8564C173.819 36.6455 173.881 36.4291 173.95 36.2073C174.023 35.9855 174.108 35.7691 174.206 35.5582C174.304 35.3473 174.428 35.16 174.577 34.9964C174.73 34.8327 174.913 34.7 175.128 34.5982C175.346 34.4964 175.61 34.4455 175.919 34.4455C176.275 34.4455 176.584 34.5145 176.846 34.6527C177.112 34.7873 177.332 34.9691 177.506 35.1982C177.681 35.4273 177.81 35.6909 177.893 35.9891C177.981 36.2873 178.024 36.5964 178.024 36.9164C178.024 37.1564 178.066 37.3473 178.15 37.4891C178.237 37.6273 178.335 37.7327 178.444 37.8055C178.557 37.8745 178.666 37.92 178.772 37.9418C178.881 37.96 178.955 37.9691 178.995 37.9691H179.186V39H178.995ZM176.333 38.2309C176.363 38.2309 176.399 38.2291 176.443 38.2255C176.486 38.2218 176.533 38.2073 176.584 38.1818C176.639 38.1564 176.692 38.1182 176.743 38.0673C176.797 38.0127 176.844 37.9382 176.884 37.8436C176.928 37.7455 176.963 37.6218 176.988 37.4727C177.017 37.32 177.032 37.1345 177.032 36.9164C177.032 36.8764 177.028 36.8127 177.021 36.7255C177.013 36.6382 176.997 36.5418 176.972 36.4364C176.946 36.3273 176.908 36.2164 176.857 36.1036C176.81 35.9909 176.744 35.8873 176.661 35.7927C176.577 35.6982 176.475 35.6218 176.355 35.5636C176.235 35.5018 176.09 35.4709 175.919 35.4709C175.759 35.4709 175.623 35.5 175.51 35.5582C175.401 35.6127 175.308 35.6891 175.232 35.7873C175.155 35.8855 175.092 36.0018 175.041 36.1364C174.99 36.2673 174.943 36.4109 174.899 36.5673C174.855 36.72 174.812 36.8818 174.768 37.0527C174.724 37.22 174.673 37.3873 174.615 37.5545C174.804 37.6491 174.979 37.7382 175.139 37.8218C175.299 37.9055 175.448 37.9782 175.586 38.04C175.724 38.0982 175.853 38.1455 175.973 38.1818C176.097 38.2145 176.217 38.2309 176.333 38.2309ZM181.907 34.56C181.915 34.5818 181.929 34.64 181.951 34.7345C181.973 34.8291 181.997 34.9473 182.022 35.0891C182.051 35.2273 182.082 35.3818 182.115 35.5527C182.147 35.72 182.177 35.8909 182.202 36.0655C182.227 36.2364 182.249 36.4018 182.267 36.5618C182.286 36.7218 182.295 36.8618 182.295 36.9818C182.295 37.3309 182.237 37.6327 182.12 37.8873C182.007 38.1382 181.858 38.3473 181.673 38.5145C181.491 38.6782 181.286 38.8 181.057 38.88C180.827 38.96 180.597 39 180.364 39H178.973V37.9691H180.364C180.418 37.9691 180.495 37.9618 180.593 37.9473C180.695 37.9291 180.795 37.8873 180.893 37.8218C180.995 37.7564 181.082 37.6582 181.155 37.5273C181.231 37.3964 181.269 37.2145 181.269 36.9818C181.269 36.9018 181.262 36.8018 181.247 36.6818C181.237 36.5582 181.22 36.4273 181.198 36.2891C181.18 36.1473 181.158 36.0036 181.133 35.8582C181.107 35.7091 181.082 35.5691 181.057 35.4382C181.031 35.3073 181.007 35.1909 180.986 35.0891C180.964 34.9873 180.946 34.9109 180.931 34.86L181.907 34.56ZM180.107 32.3073L181.035 31.3691L181.984 32.3182L181.046 33.2564L180.107 32.3073ZM193.412 37.9691V39H193.21C192.668 39 192.168 38.7745 191.71 38.3236C191.437 38.6909 190.959 38.9236 190.275 39.0218C190.148 39.04 190.014 39.0545 189.872 39.0655C189.73 39.0764 189.583 39.0818 189.43 39.0818C189.244 39.0818 189.057 39.0727 188.868 39.0545C188.679 39.04 188.494 39.0164 188.312 38.9836C188.134 38.9473 187.961 38.9018 187.794 38.8473C187.626 38.7891 187.475 38.7218 187.341 38.6455L186.894 38.3836L187.406 37.4836L187.859 37.7455C187.986 37.8182 188.141 37.8782 188.323 37.9255C188.508 37.9691 188.704 38 188.912 38.0182C189.068 38.0327 189.224 38.04 189.381 38.04C189.435 38.04 189.528 38.04 189.659 38.04C189.79 38.0364 189.946 38.0218 190.128 37.9964C190.339 37.9636 190.512 37.9182 190.646 37.86C190.784 37.7982 190.872 37.7291 190.908 37.6527C190.941 37.6164 190.957 37.5709 190.957 37.5164C190.957 37.48 190.944 37.4218 190.919 37.3418C190.894 37.2582 190.837 37.1491 190.75 37.0145L188.704 33.9L189.572 33.3327L191.688 36.5618C191.797 36.7182 191.906 36.88 192.015 37.0473C192.128 37.2109 192.246 37.3618 192.37 37.5C192.494 37.6345 192.623 37.7473 192.757 37.8382C192.895 37.9255 193.046 37.9691 193.21 37.9691H193.412ZM193.171 39V37.9691H196.368C196.63 37.9691 196.846 37.94 197.017 37.8818C197.191 37.82 197.304 37.7364 197.355 37.6309C197.381 37.5764 197.393 37.5145 197.393 37.4455C197.393 37.3836 197.375 37.2964 197.339 37.1836C197.306 37.0673 197.233 36.9164 197.121 36.7309C197.008 36.5418 196.87 36.3436 196.706 36.1364C196.542 35.9291 196.366 35.7218 196.177 35.5145C195.988 35.3073 195.793 35.1055 195.593 34.9091C195.393 34.7091 195.201 34.5255 195.015 34.3582C194.83 34.1873 194.661 34.0382 194.508 33.9109C194.355 33.78 194.23 33.68 194.131 33.6109L194.235 32.4491L199.226 30.2564L199.641 31.1945L195.271 33.1036C195.381 33.2127 195.521 33.3509 195.691 33.5182C195.862 33.6818 196.048 33.8655 196.248 34.0691C196.448 34.2691 196.651 34.4836 196.859 34.7127C197.066 34.9382 197.262 35.1655 197.448 35.3945C197.633 35.6236 197.797 35.8491 197.939 36.0709C198.084 36.2891 198.191 36.4909 198.261 36.6764C198.322 36.8364 198.366 36.9855 198.391 37.1236C198.41 37.2436 198.419 37.3527 198.419 37.4509C198.419 37.4691 198.417 37.5109 198.413 37.5764C198.413 37.6418 198.401 37.72 198.375 37.8109C198.353 37.9018 198.328 37.98 198.299 38.0455C198.259 38.1364 198.197 38.2382 198.113 38.3509C198.03 38.46 197.911 38.5636 197.759 38.6618C197.61 38.7564 197.422 38.8364 197.197 38.9018C196.971 38.9673 196.695 39 196.368 39H193.171ZM211.561 39C211.252 39 210.979 38.9545 210.743 38.8636C210.51 38.7727 210.299 38.64 210.11 38.4655C210.012 38.5891 209.908 38.6891 209.799 38.7655C209.69 38.8382 209.581 38.8964 209.472 38.94C209.363 38.98 209.257 39.0055 209.155 39.0164C209.057 39.0309 208.972 39.0382 208.899 39.0382C208.837 39.0382 208.757 39.0291 208.659 39.0109C208.561 38.9927 208.428 38.9545 208.261 38.8964C208.094 38.8382 207.883 38.7545 207.628 38.6455C207.374 38.5364 207.059 38.3891 206.685 38.2036C206.434 38.08 206.197 37.9618 205.975 37.8491C205.757 37.7327 205.579 37.6364 205.441 37.56V42.6H204.415V36.9491L205.408 36.3709C205.514 36.4291 205.623 36.4891 205.735 36.5509C205.83 36.6018 205.932 36.6582 206.041 36.72C206.154 36.7818 206.263 36.8382 206.368 36.8891C206.423 36.5618 206.485 36.2673 206.554 36.0055C206.626 35.74 206.715 35.5018 206.821 35.2909C207.174 34.5818 207.73 34.2273 208.49 34.2273C208.828 34.2273 209.126 34.2964 209.385 34.4345C209.646 34.5691 209.865 34.7491 210.039 34.9745C210.217 35.2 210.352 35.4618 210.443 35.76C210.534 36.0582 210.579 36.3673 210.579 36.6873C210.579 36.7491 210.577 36.8091 210.574 36.8673C210.574 36.9218 210.572 36.9745 210.568 37.0255C210.568 37.2255 210.608 37.3873 210.688 37.5109C210.772 37.6345 210.868 37.7309 210.977 37.8C211.086 37.8655 211.195 37.9109 211.305 37.9364C211.417 37.9582 211.503 37.9691 211.561 37.9691H211.741V39H211.561ZM207.279 37.32C207.588 37.4727 207.845 37.5945 208.048 37.6855C208.255 37.7727 208.421 37.8418 208.545 37.8927C208.668 37.94 208.755 37.9709 208.806 37.9855C208.861 38 208.892 38.0073 208.899 38.0073C208.939 38.0073 208.997 38 209.074 37.9855C209.154 37.9709 209.232 37.9236 209.308 37.8436C209.388 37.76 209.457 37.6291 209.515 37.4509C209.574 37.2727 209.603 37.0182 209.603 36.6873C209.603 36.6473 209.597 36.5836 209.586 36.4964C209.579 36.4091 209.563 36.3127 209.537 36.2073C209.512 36.1018 209.474 35.9927 209.423 35.88C209.375 35.7673 209.31 35.6655 209.226 35.5745C209.143 35.48 209.041 35.4036 208.921 35.3455C208.801 35.2836 208.657 35.2527 208.49 35.2527C208.348 35.2527 208.217 35.2764 208.097 35.3236C207.981 35.3673 207.874 35.4618 207.775 35.6073C207.677 35.7527 207.586 35.9618 207.503 36.2345C207.423 36.5073 207.348 36.8691 207.279 37.32ZM214.462 34.56C214.469 34.5818 214.484 34.64 214.506 34.7345C214.528 34.8291 214.551 34.9473 214.577 35.0891C214.606 35.2273 214.637 35.3818 214.669 35.5527C214.702 35.72 214.731 35.8909 214.757 36.0655C214.782 36.2364 214.804 36.4018 214.822 36.5618C214.84 36.7218 214.849 36.8618 214.849 36.9818C214.849 37.3309 214.791 37.6327 214.675 37.8873C214.562 38.1382 214.413 38.3473 214.228 38.5145C214.046 38.6782 213.84 38.8 213.611 38.88C213.382 38.96 213.151 39 212.919 39H211.528V37.9691H212.919C212.973 37.9691 213.049 37.9618 213.148 37.9473C213.249 37.9291 213.349 37.8873 213.448 37.8218C213.549 37.7564 213.637 37.6582 213.709 37.5273C213.786 37.3964 213.824 37.2145 213.824 36.9818C213.824 36.9018 213.817 36.8018 213.802 36.6818C213.791 36.5582 213.775 36.4273 213.753 36.2891C213.735 36.1473 213.713 36.0036 213.688 35.8582C213.662 35.7091 213.637 35.5691 213.611 35.4382C213.586 35.3073 213.562 35.1909 213.54 35.0891C213.519 34.9873 213.5 34.9109 213.486 34.86L214.462 34.56ZM212.662 32.3073L213.589 31.3691L214.539 32.3182L213.6 33.2564L212.662 32.3073ZM219.404 39H219.169C218.82 39 218.498 38.9309 218.204 38.7927C218.204 39.3018 218.133 39.7564 217.991 40.1564C217.849 40.5564 217.642 40.8945 217.369 41.1709C217.096 41.4509 216.76 41.6636 216.36 41.8091C215.964 41.9545 215.507 42.0273 214.991 42.0273H214.238V40.9964H214.991C215.366 40.9964 215.689 40.9509 215.962 40.86C216.238 40.7727 216.466 40.6364 216.644 40.4509C216.826 40.2655 216.958 40.0291 217.042 39.7418C217.129 39.4545 217.173 39.1127 217.173 38.7164V35.3127H218.204V37.1182C218.204 37.3218 218.246 37.4818 218.329 37.5982C218.416 37.7109 218.516 37.7945 218.629 37.8491C218.742 37.9036 218.849 37.9382 218.951 37.9527C219.056 37.9636 219.129 37.9691 219.169 37.9691H219.404V39ZM216.704 33.1036L217.631 32.1655L218.58 33.1145L217.642 34.0527L216.704 33.1036ZM225.136 37.9691V39H224.182C223.851 39 223.558 38.9527 223.304 38.8582C223.053 38.7636 222.851 38.6218 222.698 38.4327C222.32 38.8109 221.76 39 221.018 39H219.164V37.9691H221.018C221.28 37.9691 221.487 37.9436 221.64 37.8927C221.793 37.8382 221.907 37.7727 221.984 37.6964C222.064 37.6164 222.115 37.5291 222.136 37.4345C222.162 37.3364 222.175 37.2436 222.175 37.1564V35.3127H223.2V37.1182C223.2 37.2527 223.22 37.3673 223.26 37.4618C223.304 37.5564 223.356 37.6364 223.418 37.7018C223.48 37.7636 223.549 37.8127 223.625 37.8491C223.705 37.8855 223.782 37.9127 223.855 37.9309C223.927 37.9491 223.993 37.96 224.051 37.9636C224.109 37.9673 224.153 37.9691 224.182 37.9691H225.136ZM223.631 41.1109L222.747 41.9945L221.896 41.1109L222.758 40.2382L223.631 41.1109ZM221.542 41.1218L220.658 42.0055L219.807 41.1218L220.669 40.2491L221.542 41.1218ZM228.853 38.2309C228.879 38.2309 228.913 38.2291 228.957 38.2255C229.004 38.2218 229.053 38.2073 229.104 38.1818C229.159 38.1564 229.211 38.1182 229.262 38.0673C229.317 38.0127 229.364 37.9382 229.404 37.8436C229.448 37.7455 229.482 37.6218 229.508 37.4727C229.537 37.32 229.551 37.1345 229.551 36.9164C229.551 36.8764 229.548 36.8127 229.541 36.7255C229.533 36.6382 229.517 36.5418 229.491 36.4364C229.466 36.3273 229.428 36.2164 229.377 36.1036C229.33 35.9909 229.264 35.8873 229.181 35.7927C229.097 35.6982 228.995 35.6218 228.875 35.5636C228.755 35.5018 228.61 35.4709 228.439 35.4709C228.279 35.4709 228.142 35.5 228.03 35.5582C227.921 35.6127 227.828 35.6891 227.751 35.7873C227.675 35.8855 227.611 36.0018 227.561 36.1364C227.51 36.2673 227.462 36.4109 227.419 36.5673C227.375 36.72 227.331 36.8818 227.288 37.0527C227.244 37.22 227.193 37.3873 227.135 37.5545C227.324 37.6491 227.499 37.7382 227.659 37.8218C227.819 37.9055 227.968 37.9782 228.106 38.04C228.244 38.0982 228.373 38.1455 228.493 38.1818C228.617 38.2145 228.737 38.2309 228.853 38.2309ZM228.439 34.4455C228.795 34.4455 229.104 34.5145 229.366 34.6527C229.631 34.7873 229.851 34.9691 230.026 35.1982C230.201 35.4273 230.33 35.6909 230.413 35.9891C230.501 36.2873 230.544 36.5964 230.544 36.9164C230.544 37.2691 230.513 37.5727 230.451 37.8273C230.393 38.0818 230.315 38.2964 230.217 38.4709C230.119 38.6418 230.008 38.78 229.884 38.8855C229.764 38.9909 229.641 39.0709 229.513 39.1255C229.39 39.18 229.27 39.2164 229.153 39.2345C229.037 39.2527 228.937 39.2618 228.853 39.2618C228.675 39.2618 228.504 39.2436 228.341 39.2073C228.177 39.1709 228.01 39.1182 227.839 39.0491C227.668 38.9836 227.488 38.9018 227.299 38.8036C227.113 38.7055 226.908 38.5945 226.682 38.4709C226.384 38.8236 226.001 39 225.531 39H224.904V37.9691H225.531C225.67 37.9691 225.782 37.9182 225.87 37.8164C225.961 37.7145 226.039 37.5818 226.104 37.4182C226.17 37.2545 226.23 37.0673 226.284 36.8564C226.339 36.6455 226.401 36.4291 226.47 36.2073C226.542 35.9855 226.628 35.7691 226.726 35.5582C226.824 35.3473 226.948 35.16 227.097 34.9964C227.25 34.8327 227.433 34.7 227.648 34.5982C227.866 34.4964 228.13 34.4455 228.439 34.4455ZM236.175 40.98C236.724 40.98 237.186 40.9382 237.561 40.8545C237.935 40.7709 238.232 40.6418 238.45 40.4673C238.639 40.3145 238.777 40.12 238.864 39.8836C238.955 39.6473 239.001 39.3527 239.001 39H237.997C237.743 39 237.484 38.9618 237.223 38.8855C236.961 38.8091 236.722 38.6836 236.508 38.5091C236.297 38.3345 236.124 38.1073 235.99 37.8273C235.855 37.5436 235.788 37.1982 235.788 36.7909C235.788 36.5509 235.808 36.3345 235.848 36.1418C235.892 35.9455 235.944 35.7709 236.006 35.6182C236.072 35.4655 236.142 35.3327 236.219 35.22C236.295 35.1073 236.37 35.0109 236.443 34.9309C236.643 34.7309 236.872 34.5764 237.13 34.4673C237.388 34.3582 237.664 34.3036 237.959 34.3036C238.217 34.3036 238.459 34.3436 238.684 34.4236C238.91 34.5036 239.112 34.6236 239.29 34.7836C239.781 35.2418 240.026 35.96 240.026 36.9382V37.9691H240.844V39H240.026C240.026 39.5164 239.95 39.96 239.797 40.3309C239.648 40.7055 239.415 41.0182 239.099 41.2691C238.779 41.52 238.381 41.7055 237.904 41.8255C237.432 41.9491 236.855 42.0109 236.175 42.0109V40.98ZM237.904 35.3345C237.544 35.3345 237.264 35.4618 237.064 35.7164C236.864 35.9709 236.764 36.3291 236.764 36.7909C236.764 37.26 236.906 37.5855 237.19 37.7673C237.259 37.8109 237.33 37.8473 237.403 37.8764C237.475 37.9018 237.546 37.9218 237.615 37.9364C237.684 37.9473 237.746 37.9564 237.801 37.9636C237.859 37.9673 237.906 37.9691 237.942 37.9691H238.946V36.9382C238.946 36.6727 238.926 36.4491 238.886 36.2673C238.846 36.0818 238.795 35.9291 238.733 35.8091C238.672 35.6891 238.601 35.5982 238.521 35.5364C238.444 35.4709 238.368 35.4236 238.292 35.3945C238.215 35.3655 238.142 35.3491 238.073 35.3455C238.004 35.3382 237.948 35.3345 237.904 35.3345ZM244.58 38.2309C244.605 38.2309 244.64 38.2291 244.683 38.2255C244.731 38.2218 244.78 38.2073 244.831 38.1818C244.885 38.1564 244.938 38.1182 244.989 38.0673C245.043 38.0127 245.091 37.9382 245.131 37.8436C245.174 37.7455 245.209 37.6218 245.234 37.4727C245.263 37.32 245.278 37.1345 245.278 36.9164C245.278 36.8764 245.274 36.8127 245.267 36.7255C245.26 36.6382 245.243 36.5418 245.218 36.4364C245.193 36.3273 245.154 36.2164 245.103 36.1036C245.056 35.9909 244.991 35.8873 244.907 35.7927C244.823 35.6982 244.722 35.6218 244.602 35.5636C244.482 35.5018 244.336 35.4709 244.165 35.4709C244.005 35.4709 243.869 35.5 243.756 35.5582C243.647 35.6127 243.554 35.6891 243.478 35.7873C243.402 35.8855 243.338 36.0018 243.287 36.1364C243.236 36.2673 243.189 36.4109 243.145 36.5673C243.102 36.72 243.058 36.8818 243.014 37.0527C242.971 37.22 242.92 37.3873 242.862 37.5545C243.051 37.6491 243.225 37.7382 243.385 37.8218C243.545 37.9055 243.694 37.9782 243.833 38.04C243.971 38.0982 244.1 38.1455 244.22 38.1818C244.343 38.2145 244.463 38.2309 244.58 38.2309ZM244.165 34.4455C244.522 34.4455 244.831 34.5145 245.093 34.6527C245.358 34.7873 245.578 34.9691 245.753 35.1982C245.927 35.4273 246.056 35.6909 246.14 35.9891C246.227 36.2873 246.271 36.5964 246.271 36.9164C246.271 37.2691 246.24 37.5727 246.178 37.8273C246.12 38.0818 246.042 38.2964 245.943 38.4709C245.845 38.6418 245.734 38.78 245.611 38.8855C245.491 38.9909 245.367 39.0709 245.24 39.1255C245.116 39.18 244.996 39.2164 244.88 39.2345C244.763 39.2527 244.663 39.2618 244.58 39.2618C244.402 39.2618 244.231 39.2436 244.067 39.2073C243.903 39.1709 243.736 39.1182 243.565 39.0491C243.394 38.9836 243.214 38.9018 243.025 38.8036C242.84 38.7055 242.634 38.5945 242.409 38.4709C242.111 38.8236 241.727 39 241.258 39H240.631V37.9691H241.258C241.396 37.9691 241.509 37.9182 241.596 37.8164C241.687 37.7145 241.765 37.5818 241.831 37.4182C241.896 37.2545 241.956 37.0673 242.011 36.8564C242.065 36.6455 242.127 36.4291 242.196 36.2073C242.269 35.9855 242.354 35.7691 242.453 35.5582C242.551 35.3473 242.674 35.16 242.823 34.9964C242.976 34.8327 243.16 34.7 243.374 34.5982C243.593 34.4964 243.856 34.4455 244.165 34.4455ZM245.961 42.0273V40.9964H246.714C247.088 40.9964 247.412 40.9509 247.685 40.86C247.961 40.7727 248.188 40.6364 248.366 40.4509C248.548 40.2655 248.681 40.0291 248.765 39.7418C248.852 39.4545 248.895 39.1127 248.895 38.7164V35.3127H249.926V38.7164C249.926 39.2364 249.857 39.7 249.719 40.1073C249.585 40.5182 249.383 40.8655 249.114 41.1491C248.845 41.4327 248.508 41.6491 248.105 41.7982C247.705 41.9509 247.241 42.0273 246.714 42.0273H245.961ZM253.93 39C253.548 38.9964 253.232 38.9709 252.981 38.9236C252.734 38.8727 252.523 38.8018 252.348 38.7109C252.177 38.6164 252.039 38.5 251.934 38.3618C251.832 38.22 251.752 38.0564 251.694 37.8709C251.635 37.6818 251.597 37.4709 251.579 37.2382C251.561 37.0055 251.552 36.7473 251.552 36.4636V31.2164H252.583V36.4636C252.583 36.78 252.592 37.0364 252.61 37.2327C252.632 37.4291 252.685 37.5818 252.768 37.6909C252.855 37.7964 252.985 37.8691 253.155 37.9091C253.33 37.9455 253.588 37.9655 253.93 37.9691V39ZM260.124 39C259.862 39 259.617 38.9618 259.388 38.8855C259.159 38.8091 258.951 38.7 258.766 38.5582C258.668 38.7109 258.559 38.8345 258.439 38.9291C258.322 39.02 258.204 39.0891 258.084 39.1364C257.968 39.1873 257.855 39.22 257.746 39.2345C257.637 39.2527 257.542 39.2618 257.462 39.2618C257.284 39.2618 257.113 39.2436 256.95 39.2073C256.786 39.1709 256.619 39.1182 256.448 39.0491C256.277 38.9836 256.097 38.9018 255.908 38.8036C255.722 38.7055 255.517 38.5945 255.291 38.4709C254.993 38.8236 254.61 39 254.141 39H253.715V37.9691H254.141C254.279 37.9691 254.391 37.9182 254.479 37.8164C254.57 37.7145 254.648 37.5818 254.713 37.4182C254.779 37.2545 254.839 37.0673 254.893 36.8564C254.948 36.6455 255.01 36.4291 255.079 36.2073C255.151 35.9855 255.237 35.7691 255.335 35.5582C255.433 35.3473 255.557 35.16 255.706 34.9964C255.859 34.8327 256.042 34.7 256.257 34.5982C256.475 34.4964 256.739 34.4455 257.048 34.4455C257.404 34.4455 257.713 34.5145 257.975 34.6527C258.241 34.7873 258.461 34.9691 258.635 35.1982C258.81 35.4273 258.939 35.6909 259.022 35.9891C259.11 36.2873 259.153 36.5964 259.153 36.9164C259.153 37.1564 259.195 37.3473 259.279 37.4891C259.366 37.6273 259.464 37.7327 259.573 37.8055C259.686 37.8745 259.795 37.92 259.901 37.9418C260.01 37.96 260.084 37.9691 260.124 37.9691H260.315V39H260.124ZM257.462 38.2309C257.491 38.2309 257.528 38.2291 257.571 38.2255C257.615 38.2218 257.662 38.2073 257.713 38.1818C257.768 38.1564 257.821 38.1182 257.871 38.0673C257.926 38.0127 257.973 37.9382 258.013 37.8436C258.057 37.7455 258.091 37.6218 258.117 37.4727C258.146 37.32 258.161 37.1345 258.161 36.9164C258.161 36.8764 258.157 36.8127 258.15 36.7255C258.142 36.6382 258.126 36.5418 258.101 36.4364C258.075 36.3273 258.037 36.2164 257.986 36.1036C257.939 35.9909 257.873 35.8873 257.79 35.7927C257.706 35.6982 257.604 35.6218 257.484 35.5636C257.364 35.5018 257.219 35.4709 257.048 35.4709C256.888 35.4709 256.751 35.5 256.639 35.5582C256.53 35.6127 256.437 35.6891 256.361 35.7873C256.284 35.8855 256.221 36.0018 256.17 36.1364C256.119 36.2673 256.071 36.4109 256.028 36.5673C255.984 36.72 255.941 36.8818 255.897 37.0527C255.853 37.22 255.802 37.3873 255.744 37.5545C255.933 37.6491 256.108 37.7382 256.268 37.8218C256.428 37.9055 256.577 37.9782 256.715 38.04C256.853 38.0982 256.982 38.1455 257.102 38.1818C257.226 38.2145 257.346 38.2309 257.462 38.2309ZM264.356 38.9891C264.015 38.9891 263.711 38.94 263.445 38.8418C263.18 38.74 262.956 38.5945 262.775 38.4055C262.585 38.6091 262.365 38.76 262.115 38.8582C261.864 38.9527 261.611 39 261.356 39H260.102V37.9691H261.356C261.411 37.9691 261.489 37.9618 261.591 37.9473C261.693 37.9291 261.793 37.8873 261.891 37.8218C261.989 37.7527 262.075 37.6509 262.147 37.5164C262.224 37.3818 262.262 37.1982 262.262 36.9655V35.3127H263.293V36.9436C263.293 37.2964 263.375 37.5545 263.538 37.7182C263.705 37.8818 263.978 37.9636 264.356 37.9636C264.411 37.9636 264.487 37.9545 264.585 37.9364C264.687 37.9145 264.787 37.8691 264.885 37.8C264.987 37.7309 265.075 37.6291 265.147 37.4945C265.224 37.36 265.262 37.1764 265.262 36.9436V35.3127H266.287V36.9436C266.287 37.2964 266.373 37.5564 266.544 37.7236C266.715 37.8909 266.989 37.9745 267.367 37.9745C267.425 37.9745 267.504 37.9636 267.602 37.9418C267.7 37.9164 267.796 37.8673 267.891 37.7945C267.989 37.7218 268.073 37.6182 268.142 37.4836C268.211 37.3491 268.245 37.1691 268.245 36.9436C268.245 36.8636 268.238 36.7636 268.224 36.6436C268.213 36.5236 268.196 36.3945 268.175 36.2564C268.156 36.1182 268.135 35.9782 268.109 35.8364C268.084 35.6909 268.058 35.5564 268.033 35.4327C268.007 35.3055 267.984 35.1927 267.962 35.0945C267.94 34.9927 267.922 34.9182 267.907 34.8709L268.884 34.56C268.891 34.5818 268.905 34.64 268.927 34.7345C268.949 34.8255 268.975 34.94 269.004 35.0782C269.033 35.2127 269.062 35.3636 269.091 35.5309C269.124 35.6982 269.153 35.8673 269.178 36.0382C269.207 36.2055 269.231 36.3691 269.249 36.5291C269.267 36.6855 269.276 36.8236 269.276 36.9436C269.276 37.2891 269.22 37.5909 269.107 37.8491C268.995 38.1036 268.847 38.3164 268.665 38.4873C268.487 38.6545 268.284 38.7818 268.055 38.8691C267.825 38.9527 267.596 38.9964 267.367 39C267.018 39 266.709 38.9491 266.44 38.8473C266.175 38.7418 265.949 38.5909 265.764 38.3945C265.575 38.5945 265.355 38.7436 265.104 38.8418C264.856 38.94 264.607 38.9891 264.356 38.9891ZM266.598 31.3582L265.824 32.1164L265.06 31.3582L265.845 30.5782L266.598 31.3582ZM266.865 33.8236L266.004 32.9509L266.855 32.0673L267.738 32.9509L266.865 33.8236ZM264.776 33.8127L263.915 32.94L264.765 32.0564L265.649 32.94L264.776 33.8127ZM281.969 39C282.122 39.2982 282.205 39.58 282.22 39.8455L282.225 39.9218C282.225 40.1582 282.178 40.3818 282.084 40.5927C281.989 40.8036 281.842 40.9982 281.642 41.1764C281.442 41.3545 281.205 41.5036 280.933 41.6236C280.66 41.7473 280.356 41.8418 280.022 41.9073C279.687 41.9764 279.335 42.0109 278.964 42.0109H277.409C276.835 42.0109 276.318 41.8855 275.86 41.6345C275.402 41.3836 275.027 41.0364 274.736 40.5927C274.54 40.28 274.4 39.9327 274.316 39.5509C274.251 39.2564 274.218 38.9473 274.218 38.6236C274.218 38.5291 274.225 38.3509 274.24 38.0891C274.255 37.8236 274.329 37.4527 274.464 36.9764C274.602 36.5 274.795 36.0073 275.042 35.4982L275.958 35.9455C275.551 36.8036 275.32 37.58 275.265 38.2745C275.258 38.3909 275.255 38.5036 275.255 38.6127C275.255 39.1655 275.376 39.64 275.62 40.0364C275.805 40.3382 276.053 40.5691 276.362 40.7291C276.675 40.8891 277.024 40.9691 277.409 40.9691H278.964C279.167 40.9691 279.367 40.9527 279.564 40.92C279.76 40.8909 279.944 40.8491 280.115 40.7945C280.285 40.74 280.44 40.6745 280.578 40.5982C280.716 40.5255 280.831 40.4436 280.922 40.3527C281.016 40.2618 281.082 40.1636 281.118 40.0582C281.14 40.0036 281.151 39.9491 281.151 39.8945C281.151 39.8436 281.142 39.7927 281.124 39.7418C281.08 39.6 280.978 39.48 280.818 39.3818C280.658 39.2873 280.465 39.2109 280.24 39.1527C280.015 39.0982 279.771 39.0582 279.509 39.0327C279.247 39.0109 278.995 39 278.751 39L278.789 37.9691H283.491V39H281.969ZM289.439 36.8182C289.417 36.8327 289.323 36.8964 289.155 37.0091C288.988 37.1218 288.764 37.26 288.484 37.4236C288.208 37.5836 287.884 37.7564 287.513 37.9418C287.143 38.1273 286.743 38.2982 286.313 38.4545C285.888 38.6109 285.443 38.7418 284.977 38.8473C284.512 38.9491 284.046 39 283.581 39H282.086V37.9691H283.581C283.988 37.9691 284.399 37.9218 284.813 37.8273C285.232 37.7291 285.633 37.6091 286.019 37.4673C286.404 37.3218 286.766 37.1655 287.104 36.9982C287.443 36.8273 287.739 36.6673 287.993 36.5182C287.641 36.3764 287.288 36.2382 286.935 36.1036C286.586 35.9691 286.266 35.8509 285.975 35.7491C285.684 35.6436 285.433 35.5582 285.223 35.4927C285.015 35.4273 284.877 35.3891 284.808 35.3782C284.746 35.3782 284.681 35.3836 284.612 35.3945C284.546 35.4055 284.481 35.4382 284.415 35.4927C284.35 35.5473 284.286 35.6327 284.224 35.7491C284.163 35.8618 284.104 36.0218 284.05 36.2291L283.052 35.9673C283.332 34.8909 283.921 34.3527 284.819 34.3527C284.841 34.3527 284.87 34.3545 284.906 34.3582C284.943 34.3582 284.995 34.3673 285.064 34.3855C285.133 34.4 285.226 34.4255 285.343 34.4618C285.459 34.4945 285.606 34.5418 285.784 34.6036C285.966 34.6655 286.186 34.7455 286.444 34.8436C286.703 34.9382 287.012 35.0564 287.372 35.1982L289.303 35.9127L289.439 36.8182ZM285.932 43.3582L285.146 42.5782L285.91 41.82L286.684 42.5782L285.932 43.3582ZM287.824 40.9855L286.941 41.8691L286.09 40.9855L286.952 40.1127L287.824 40.9855ZM285.735 40.9964L284.852 41.88L284.001 40.9964L284.863 40.1236L285.735 40.9964ZM293.958 39H293.724C293.375 39 293.053 38.9309 292.758 38.7927C292.758 39.3018 292.688 39.7564 292.546 40.1564C292.404 40.5564 292.197 40.8945 291.924 41.1709C291.651 41.4509 291.315 41.6636 290.915 41.8091C290.518 41.9545 290.062 42.0273 289.546 42.0273H288.793V40.9964H289.546C289.92 40.9964 290.244 40.9509 290.517 40.86C290.793 40.7727 291.02 40.6364 291.198 40.4509C291.38 40.2655 291.513 40.0291 291.597 39.7418C291.684 39.4545 291.728 39.1127 291.728 38.7164V35.3127H292.758V37.1182C292.758 37.3218 292.8 37.4818 292.884 37.5982C292.971 37.7109 293.071 37.7945 293.184 37.8491C293.297 37.9036 293.404 37.9382 293.506 37.9527C293.611 37.9636 293.684 37.9691 293.724 37.9691H293.958V39ZM297.275 37.5927C297.409 37.5345 297.533 37.4618 297.646 37.3745C297.762 37.2873 297.862 37.1891 297.946 37.08C298.033 36.9673 298.1 36.8455 298.147 36.7145C298.195 36.5836 298.218 36.4418 298.218 36.2891C298.218 36.1073 298.18 35.9545 298.104 35.8309C298.027 35.7036 297.936 35.6018 297.831 35.5255C297.726 35.4455 297.615 35.3891 297.498 35.3564C297.386 35.32 297.289 35.3018 297.209 35.3018C297.06 35.3018 296.922 35.3255 296.795 35.3727C296.671 35.4164 296.562 35.4782 296.467 35.5582C296.376 35.6382 296.304 35.7345 296.249 35.8473C296.198 35.96 296.173 36.0818 296.173 36.2127C296.173 36.3691 296.193 36.5109 296.233 36.6382C296.276 36.7618 296.342 36.8782 296.429 36.9873C296.52 37.0927 296.635 37.1945 296.773 37.2927C296.911 37.3909 297.078 37.4909 297.275 37.5927ZM298.666 33.2618C299.066 33.68 299.435 34.0709 299.773 34.4345C299.918 34.5909 300.064 34.7491 300.209 34.9091C300.355 35.0655 300.489 35.2164 300.613 35.3618C300.74 35.5036 300.851 35.6345 300.946 35.7545C301.044 35.8709 301.116 35.9655 301.164 36.0382C301.262 36.1982 301.342 36.3527 301.404 36.5018C301.469 36.6509 301.515 36.8018 301.54 36.9545C301.555 37.0455 301.562 37.1382 301.562 37.2327C301.562 37.2945 301.556 37.3818 301.546 37.4945C301.535 37.6073 301.502 37.7564 301.447 37.9418C301.389 38.1527 301.296 38.3455 301.169 38.52C301.046 38.6909 300.895 38.8382 300.716 38.9618C300.538 39.0855 300.336 39.18 300.111 39.2455C299.886 39.3145 299.642 39.3491 299.38 39.3491C299.133 39.3491 298.876 39.3164 298.611 39.2509C298.346 39.1855 298.071 39.0836 297.787 38.9455C297.707 38.9127 297.633 38.88 297.564 38.8473C297.502 38.8182 297.438 38.7891 297.373 38.76C297.311 38.7309 297.26 38.7055 297.22 38.6836C296.878 38.7891 296.478 38.8691 296.02 38.9236C295.562 38.9745 295.067 39 294.536 39H293.735V37.9691H294.536C294.773 37.9691 295.016 37.9655 295.267 37.9582C295.522 37.9509 295.747 37.9345 295.944 37.9091C295.682 37.68 295.491 37.4291 295.371 37.1564C295.251 36.88 295.191 36.5655 295.191 36.2127C295.191 35.9364 295.242 35.6818 295.344 35.4491C295.446 35.2127 295.586 35.0091 295.764 34.8382C295.946 34.6673 296.158 34.5345 296.402 34.44C296.649 34.3418 296.918 34.2927 297.209 34.2927C297.427 34.2927 297.627 34.3236 297.809 34.3855C297.991 34.4473 298.156 34.5309 298.306 34.6364C298.455 34.7382 298.584 34.8582 298.693 34.9964C298.806 35.1309 298.9 35.2727 298.976 35.4218C299.053 35.5673 299.109 35.7164 299.146 35.8691C299.186 36.0182 299.206 36.1582 299.206 36.2891C299.206 36.6636 299.135 37.0018 298.993 37.3036C298.855 37.6018 298.649 37.8655 298.376 38.0945C298.529 38.1564 298.691 38.2073 298.862 38.2473C299.036 38.2873 299.209 38.3073 299.38 38.3073C299.489 38.3073 299.596 38.3 299.702 38.2855C299.811 38.2709 299.913 38.2418 300.007 38.1982C300.106 38.1545 300.195 38.0964 300.275 38.0236C300.355 37.9473 300.424 37.8491 300.482 37.7291C300.529 37.6309 300.553 37.5236 300.553 37.4073C300.553 37.3527 300.54 37.2655 300.515 37.1455C300.493 37.0255 300.424 36.8636 300.307 36.66C300.191 36.4564 300.044 36.2455 299.866 36.0273C299.687 35.8055 299.491 35.58 299.276 35.3509C299.062 35.1218 298.838 34.8927 298.606 34.6636C298.373 34.4345 298.146 34.2073 297.924 33.9818L298.666 33.2618Z" fill="#303030"/>
<rect width="6" height="40" transform="matrix(-1 0 0 1 322 15)" fill="#FDCC7C"/>
</g>
</g>
<g filter="url(#filter1_d_11125_45016)">
<path d="M352 80C352 77.2386 349.761 75 347 75H138C135.239 75 133 77.2386 133 80V115V125.5C133 128.261 135.239 130.5 138 130.5H207.776C209.474 130.5 211.056 129.638 211.977 128.211L219.023 117.289C219.944 115.862 221.526 115 223.224 115H347C349.761 115 352 112.761 352 110V80Z" fill="white"/>
<mask id="mask1_11125_45016" style="mask-type:alpha" maskUnits="userSpaceOnUse" x="133" y="75" width="219" height="56">
<path d="M352 80C352 77.2386 349.761 75 347 75H138C135.239 75 133 77.2386 133 80V115V125.5C133 128.261 135.239 130.5 138 130.5H207.776C209.474 130.5 211.056 129.638 211.977 128.211L219.023 117.289C219.944 115.862 221.526 115 223.224 115H347C349.761 115 352 112.761 352 110V80Z" fill="white"/>
</mask>
<g mask="url(#mask1_11125_45016)">
<path d="M146.809 116L148.516 119.459L152.333 120.014L149.571 122.706L150.223 126.508L146.809 124.713L143.394 126.508L144.046 122.706L141.284 120.014L145.101 119.459L146.809 116Z" fill="#0EA960"/>
<path d="M160.085 116L161.792 119.459L165.61 120.014L162.847 122.706L163.5 126.508L160.085 124.713L156.671 126.508L157.323 122.706L154.561 120.014L158.378 119.459L160.085 116Z" fill="#0EA960"/>
<path d="M173.362 116L175.069 119.459L178.886 120.014L176.124 122.706L176.776 126.508L173.362 124.713L169.948 126.508L170.6 122.706L167.838 120.014L171.655 119.459L173.362 116Z" fill="#0EA960"/>
<path d="M186.639 117.13L187.897 119.68L188.014 119.916L188.274 119.954L191.088 120.363L189.052 122.348L188.863 122.531L188.908 122.79L189.389 125.594L186.871 124.27L186.639 124.148L186.406 124.27L183.888 125.594L184.369 122.79L184.414 122.531L184.225 122.348L182.189 120.363L185.003 119.954L185.264 119.916L185.38 119.68L186.639 117.13Z" fill="#0EA960" stroke="#0EA960"/>
<path d="M199.915 117.13L201.174 119.68L201.29 119.916L201.55 119.954L204.365 120.363L202.328 122.348L202.14 122.531L202.184 122.79L202.665 125.594L200.148 124.27L199.915 124.148L199.682 124.27L197.165 125.594L197.646 122.79L197.69 122.531L197.502 122.348L195.465 120.363L198.28 119.954L198.54 119.916L198.656 119.68L199.915 117.13Z" fill="#0EA960" stroke="#0EA960"/>
<path d="M160.384 99H160.248C159.666 99 159.157 98.8764 158.721 98.6291C158.288 98.3782 157.955 98.0291 157.722 97.5818C157.606 97.7418 157.466 97.8818 157.302 98.0018C157.142 98.1182 156.961 98.2218 156.757 98.3127C156.641 98.36 156.506 98.3982 156.353 98.4273C156.201 98.4564 156.039 98.4709 155.868 98.4709C155.697 98.4709 155.521 98.4509 155.339 98.4109C155.161 98.3709 154.986 98.3036 154.815 98.2091C154.553 98.0709 154.342 97.8891 154.182 97.6636C154.026 97.4345 153.922 97.1655 153.872 96.8564C153.846 96.7145 153.833 96.5745 153.833 96.4364C153.833 96.2036 153.879 95.9436 153.97 95.6564C154.064 95.3691 154.253 95.0782 154.537 94.7836C155.035 94.2745 155.739 93.8855 156.648 93.6164L156.544 93.0273L157.548 92.8145C157.635 93.1782 157.712 93.5018 157.777 93.7855C157.842 94.0655 157.901 94.3182 157.952 94.5436C157.962 94.5873 157.979 94.66 158.001 94.7618C158.026 94.8636 158.055 94.9818 158.088 95.1164C158.121 95.2473 158.155 95.3891 158.192 95.5418C158.228 95.6945 158.264 95.8436 158.301 95.9891C158.337 96.1345 158.372 96.2709 158.404 96.3982C158.437 96.5255 158.466 96.6309 158.492 96.7145C158.564 96.9873 158.672 97.2073 158.813 97.3745C158.955 97.5382 159.11 97.6655 159.277 97.7564C159.444 97.8436 159.613 97.9018 159.784 97.9309C159.959 97.9564 160.113 97.9691 160.248 97.9691H160.384V99ZM156.921 94.6091C156.561 94.7145 156.242 94.84 155.966 94.9855C155.69 95.1309 155.461 95.2927 155.279 95.4709C155.101 95.6455 154.973 95.8345 154.897 96.0382C154.846 96.1727 154.821 96.3109 154.821 96.4527C154.821 96.5255 154.828 96.6 154.842 96.6764C154.868 96.8291 154.922 96.9582 155.006 97.0636C155.09 97.1655 155.188 97.2473 155.301 97.3091C155.381 97.3564 155.468 97.3909 155.562 97.4127C155.657 97.4309 155.752 97.44 155.846 97.44H155.901C155.977 97.44 156.055 97.4345 156.135 97.4236C156.215 97.4091 156.29 97.3873 156.359 97.3582C156.817 97.1691 157.084 96.8255 157.161 96.3273C157.175 96.2109 157.182 96.1018 157.182 96C157.182 95.9455 157.177 95.8691 157.166 95.7709C157.155 95.6727 157.144 95.5982 157.133 95.5473L156.921 94.6091ZM164.419 98.9891C164.077 98.9891 163.773 98.94 163.508 98.8418C163.243 98.74 163.019 98.5945 162.837 98.4055C162.648 98.6091 162.428 98.76 162.177 98.8582C161.926 98.9527 161.673 99 161.419 99H160.164V97.9691H161.419C161.473 97.9691 161.552 97.9618 161.653 97.9473C161.755 97.9291 161.855 97.8873 161.953 97.8218C162.052 97.7527 162.137 97.6509 162.21 97.5164C162.286 97.3818 162.324 97.1982 162.324 96.9655V95.3127H163.355V96.9436C163.355 97.2964 163.437 97.5545 163.601 97.7182C163.768 97.8818 164.041 97.9636 164.419 97.9636C164.473 97.9636 164.55 97.9545 164.648 97.9364C164.75 97.9145 164.85 97.8691 164.948 97.8C165.05 97.7309 165.137 97.6291 165.21 97.4945C165.286 97.36 165.324 97.1764 165.324 96.9436V95.3127H166.35V96.9436C166.35 97.2964 166.435 97.5564 166.606 97.7236C166.777 97.8909 167.052 97.9745 167.43 97.9745C167.488 97.9745 167.566 97.9636 167.664 97.9418C167.763 97.9164 167.859 97.8673 167.953 97.7945C168.052 97.7218 168.135 97.6182 168.204 97.4836C168.273 97.3491 168.308 97.1691 168.308 96.9436C168.308 96.8636 168.301 96.7636 168.286 96.6436C168.275 96.5236 168.259 96.3945 168.237 96.2564C168.219 96.1182 168.197 95.9782 168.172 95.8364C168.146 95.6909 168.121 95.5564 168.095 95.4327C168.07 95.3055 168.046 95.1927 168.024 95.0945C168.003 94.9927 167.984 94.9182 167.97 94.8709L168.946 94.56C168.953 94.5818 168.968 94.64 168.99 94.7345C169.012 94.8255 169.037 94.94 169.066 95.0782C169.095 95.2127 169.124 95.3636 169.153 95.5309C169.186 95.6982 169.215 95.8673 169.241 96.0382C169.27 96.2055 169.293 96.3691 169.312 96.5291C169.33 96.6855 169.339 96.8236 169.339 96.9436C169.339 97.2891 169.283 97.5909 169.17 97.8491C169.057 98.1036 168.91 98.3164 168.728 98.4873C168.55 98.6545 168.346 98.7818 168.117 98.8691C167.888 98.9527 167.659 98.9964 167.43 99C167.081 99 166.772 98.9491 166.503 98.8473C166.237 98.7418 166.012 98.5909 165.826 98.3945C165.637 98.5945 165.417 98.7436 165.166 98.8418C164.919 98.94 164.67 98.9891 164.419 98.9891ZM166.661 91.3582L165.886 92.1164L165.123 91.3582L165.908 90.5782L166.661 91.3582ZM166.928 93.8236L166.066 92.9509L166.917 92.0673L167.801 92.9509L166.928 93.8236ZM164.839 93.8127L163.977 92.94L164.828 92.0564L165.712 92.94L164.839 93.8127ZM171.029 100.98C171.578 100.98 172.04 100.938 172.415 100.855C172.789 100.771 173.086 100.642 173.304 100.467C173.493 100.315 173.631 100.12 173.718 99.8836C173.809 99.6473 173.855 99.3527 173.855 99H172.851C172.597 99 172.338 98.9618 172.077 98.8855C171.815 98.8091 171.577 98.6836 171.362 98.5091C171.151 98.3345 170.978 98.1073 170.844 97.8273C170.709 97.5436 170.642 97.1982 170.642 96.7909C170.642 96.5509 170.662 96.3345 170.702 96.1418C170.746 95.9455 170.798 95.7709 170.86 95.6182C170.926 95.4655 170.997 95.3327 171.073 95.22C171.149 95.1073 171.224 95.0109 171.297 94.9309C171.497 94.7309 171.726 94.5764 171.984 94.4673C172.242 94.3582 172.518 94.3036 172.813 94.3036C173.071 94.3036 173.313 94.3436 173.538 94.4236C173.764 94.5036 173.966 94.6236 174.144 94.7836C174.635 95.2418 174.88 95.96 174.88 96.9382V99C174.88 99.5164 174.804 99.96 174.651 100.331C174.502 100.705 174.269 101.018 173.953 101.269C173.633 101.52 173.235 101.705 172.758 101.825C172.286 101.949 171.709 102.011 171.029 102.011V100.98ZM172.813 95.3345C172.453 95.3345 172.173 95.4618 171.973 95.7164C171.773 95.9709 171.673 96.3291 171.673 96.7909C171.673 97.26 171.815 97.5855 172.098 97.7673C172.167 97.8109 172.238 97.8473 172.311 97.8764C172.384 97.9018 172.455 97.9218 172.524 97.9364C172.593 97.9473 172.655 97.9564 172.709 97.9636C172.767 97.9673 172.815 97.9691 172.851 97.9691H173.855V96.9382C173.855 96.6727 173.835 96.4491 173.795 96.2673C173.755 96.0818 173.704 95.9291 173.642 95.8091C173.58 95.6891 173.509 95.5982 173.429 95.5364C173.353 95.4709 173.277 95.4236 173.2 95.3945C173.124 95.3655 173.051 95.3491 172.982 95.3455C172.913 95.3382 172.857 95.3345 172.813 95.3345ZM180.732 99H180.497C180.148 99 179.826 98.9309 179.532 98.7927C179.532 99.3018 179.461 99.7564 179.319 100.156C179.177 100.556 178.97 100.895 178.697 101.171C178.425 101.451 178.088 101.664 177.688 101.809C177.292 101.955 176.835 102.027 176.319 102.027H175.566V100.996H176.319C176.694 100.996 177.017 100.951 177.29 100.86C177.566 100.773 177.794 100.636 177.972 100.451C178.154 100.265 178.286 100.029 178.37 99.7418C178.457 99.4545 178.501 99.1127 178.501 98.7164V95.3127H179.532V97.1182C179.532 97.3218 179.574 97.4818 179.657 97.5982C179.745 97.7109 179.845 97.7945 179.957 97.8491C180.07 97.9036 180.177 97.9382 180.279 97.9527C180.385 97.9636 180.457 97.9691 180.497 97.9691H180.732V99ZM180.497 99V97.9691H182.919C183.326 97.9691 183.654 97.94 183.901 97.8818C184.152 97.8236 184.346 97.7509 184.484 97.6636C184.623 97.5764 184.715 97.4818 184.763 97.38C184.814 97.2745 184.844 97.1745 184.855 97.08H184.026C183.932 97.08 183.826 97.0764 183.71 97.0691C183.594 97.0618 183.472 97.0491 183.344 97.0309C183.221 97.0091 183.095 96.9782 182.968 96.9382C182.841 96.8982 182.717 96.8455 182.597 96.78C182.499 96.7218 182.399 96.6491 182.297 96.5618C182.195 96.4745 182.103 96.3673 182.019 96.24C181.939 96.1091 181.872 95.9564 181.817 95.7818C181.766 95.6036 181.741 95.3964 181.741 95.16C181.741 94.8655 181.792 94.5873 181.894 94.3255C181.995 94.06 182.141 93.8327 182.33 93.6436C182.519 93.4545 182.735 93.3109 182.979 93.2127C183.223 93.1145 183.483 93.0655 183.759 93.0655C184.075 93.0655 184.366 93.1327 184.632 93.2673C184.897 93.4018 185.121 93.5945 185.303 93.8455C185.499 94.1073 185.644 94.4309 185.739 94.8164C185.834 95.2018 185.881 95.6436 185.881 96.1418V96.8945C185.881 97.2545 185.808 97.5745 185.663 97.8545C185.521 98.1345 185.304 98.3618 185.014 98.5364C184.53 98.8455 183.832 99 182.919 99H180.497ZM183.759 94.0964C183.639 94.0964 183.515 94.1182 183.388 94.1618C183.264 94.2018 183.152 94.2655 183.05 94.3527C182.952 94.4364 182.87 94.5455 182.804 94.68C182.743 94.8145 182.712 94.9745 182.712 95.16C182.712 95.28 182.724 95.3818 182.75 95.4655C182.775 95.5455 182.808 95.6127 182.848 95.6673C182.888 95.7182 182.93 95.76 182.974 95.7927C183.017 95.8255 183.059 95.8527 183.099 95.8745C183.204 95.9364 183.334 95.9818 183.486 96.0109C183.639 96.0364 183.819 96.0491 184.026 96.0491H184.866C184.859 95.6891 184.821 95.3745 184.752 95.1055C184.686 94.8364 184.595 94.6164 184.479 94.4455C184.304 94.2127 184.064 94.0964 183.759 94.0964ZM182.924 90.8836L183.852 89.9455L184.801 90.8945L183.863 91.8327L182.924 90.8836ZM191.115 100.98C191.664 100.98 192.126 100.938 192.501 100.855C192.875 100.771 193.172 100.642 193.39 100.467C193.579 100.315 193.717 100.12 193.804 99.8836C193.895 99.6473 193.941 99.3527 193.941 99H192.937C192.682 99 192.424 98.9618 192.162 98.8855C191.901 98.8091 191.662 98.6836 191.448 98.5091C191.237 98.3345 191.064 98.1073 190.93 97.8273C190.795 97.5436 190.728 97.1982 190.728 96.7909C190.728 96.5509 190.748 96.3345 190.788 96.1418C190.832 95.9455 190.884 95.7709 190.946 95.6182C191.012 95.4655 191.083 95.3327 191.159 95.22C191.235 95.1073 191.31 95.0109 191.382 94.9309C191.583 94.7309 191.812 94.5764 192.07 94.4673C192.328 94.3582 192.604 94.3036 192.899 94.3036C193.157 94.3036 193.399 94.3436 193.624 94.4236C193.85 94.5036 194.052 94.6236 194.23 94.7836C194.721 95.2418 194.966 95.96 194.966 96.9382V99C194.966 99.5164 194.89 99.96 194.737 100.331C194.588 100.705 194.355 101.018 194.039 101.269C193.719 101.52 193.321 101.705 192.844 101.825C192.372 101.949 191.795 102.011 191.115 102.011V100.98ZM192.899 95.3345C192.539 95.3345 192.259 95.4618 192.059 95.7164C191.859 95.9709 191.759 96.3291 191.759 96.7909C191.759 97.26 191.901 97.5855 192.184 97.7673C192.253 97.8109 192.324 97.8473 192.397 97.8764C192.47 97.9018 192.541 97.9218 192.61 97.9364C192.679 97.9473 192.741 97.9564 192.795 97.9636C192.853 97.9673 192.901 97.9691 192.937 97.9691H193.941V96.9382C193.941 96.6727 193.921 96.4491 193.881 96.2673C193.841 96.0818 193.79 95.9291 193.728 95.8091C193.666 95.6891 193.595 95.5982 193.515 95.5364C193.439 95.4709 193.363 95.4236 193.286 95.3945C193.21 95.3655 193.137 95.3491 193.068 95.3455C192.999 95.3382 192.943 95.3345 192.899 95.3345ZM206.349 97.9691V99H206.147C205.606 99 205.106 98.7745 204.647 98.3236C204.375 98.6909 203.896 98.9236 203.213 99.0218C203.086 99.04 202.951 99.0545 202.809 99.0655C202.667 99.0764 202.52 99.0818 202.367 99.0818C202.182 99.0818 201.995 99.0727 201.806 99.0545C201.616 99.04 201.431 99.0164 201.249 98.9836C201.071 98.9473 200.898 98.9018 200.731 98.8473C200.564 98.7891 200.413 98.7218 200.278 98.6455L199.831 98.3836L200.344 97.4836L200.796 97.7455C200.924 97.8182 201.078 97.8782 201.26 97.9255C201.446 97.9691 201.642 98 201.849 98.0182C202.006 98.0327 202.162 98.04 202.318 98.04C202.373 98.04 202.466 98.04 202.596 98.04C202.727 98.0364 202.884 98.0218 203.066 97.9964C203.276 97.9636 203.449 97.9182 203.584 97.86C203.722 97.7982 203.809 97.7291 203.846 97.6527C203.878 97.6164 203.895 97.5709 203.895 97.5164C203.895 97.48 203.882 97.4218 203.856 97.3418C203.831 97.2582 203.775 97.1491 203.687 97.0145L201.642 93.9L202.509 93.3327L204.626 96.5618C204.735 96.7182 204.844 96.88 204.953 97.0473C205.066 97.2109 205.184 97.3618 205.307 97.5C205.431 97.6345 205.56 97.7473 205.695 97.8382C205.833 97.9255 205.984 97.9691 206.147 97.9691H206.349ZM209.916 94.56C209.923 94.5818 209.938 94.64 209.96 94.7345C209.982 94.8291 210.005 94.9473 210.031 95.0891C210.06 95.2273 210.091 95.3818 210.123 95.5527C210.156 95.72 210.185 95.8909 210.211 96.0655C210.236 96.2364 210.258 96.4018 210.276 96.5618C210.294 96.7218 210.303 96.8618 210.303 96.9818C210.303 97.3309 210.245 97.6327 210.129 97.8873C210.016 98.1382 209.867 98.3473 209.682 98.5145C209.5 98.6782 209.294 98.8 209.065 98.88C208.836 98.96 208.605 99 208.373 99H206.114V97.9691H208.373C208.427 97.9691 208.503 97.9618 208.602 97.9473C208.703 97.9291 208.803 97.8873 208.902 97.8218C209.003 97.7564 209.091 97.6582 209.163 97.5273C209.24 97.3964 209.278 97.2145 209.278 96.9818C209.278 96.9018 209.271 96.8018 209.256 96.6818C209.245 96.5582 209.229 96.4273 209.207 96.2891C209.189 96.1473 209.167 96.0036 209.142 95.8582C209.116 95.7091 209.091 95.5691 209.065 95.4382C209.04 95.3073 209.016 95.1909 208.994 95.0891C208.973 94.9873 208.954 94.9109 208.94 94.86L209.916 94.56ZM210.374 101.078L209.491 101.962L208.64 101.078L209.502 100.205L210.374 101.078ZM208.285 101.089L207.402 101.973L206.551 101.089L207.413 100.216L208.285 101.089ZM216.298 99H216.064C215.715 99 215.393 98.9309 215.098 98.7927C215.098 99.3018 215.027 99.7564 214.886 100.156C214.744 100.556 214.536 100.895 214.264 101.171C213.991 101.451 213.655 101.664 213.255 101.809C212.858 101.955 212.402 102.027 211.886 102.027H211.133V100.996H211.886C212.26 100.996 212.584 100.951 212.856 100.86C213.133 100.773 213.36 100.636 213.538 100.451C213.72 100.265 213.853 100.029 213.936 99.7418C214.024 99.4545 214.067 99.1127 214.067 98.7164V95.3127H215.098V97.1182C215.098 97.3218 215.14 97.4818 215.224 97.5982C215.311 97.7109 215.411 97.7945 215.524 97.8491C215.636 97.9036 215.744 97.9382 215.846 97.9527C215.951 97.9636 216.024 97.9691 216.064 97.9691H216.298V99ZM223.427 96.8182C223.405 96.8327 223.311 96.8964 223.144 97.0091C222.976 97.1218 222.753 97.26 222.473 97.4236C222.196 97.5836 221.873 97.7564 221.502 97.9418C221.131 98.1273 220.731 98.2982 220.302 98.4545C219.876 98.6109 219.431 98.7418 218.965 98.8473C218.5 98.9491 218.035 99 217.569 99H216.075V97.9691H217.569C217.976 97.9691 218.387 97.9218 218.802 97.8273C219.22 97.7291 219.622 97.6091 220.007 97.4673C220.393 97.3218 220.755 97.1655 221.093 96.9982C221.431 96.8273 221.727 96.6673 221.982 96.5182C221.629 96.3764 221.276 96.2382 220.924 96.1036C220.575 95.9691 220.255 95.8509 219.964 95.7491C219.673 95.6436 219.422 95.5582 219.211 95.4927C219.004 95.4273 218.865 95.3891 218.796 95.3782C218.735 95.3782 218.669 95.3836 218.6 95.3945C218.535 95.4055 218.469 95.4382 218.404 95.4927C218.338 95.5473 218.275 95.6327 218.213 95.7491C218.151 95.8618 218.093 96.0218 218.038 96.2291L217.04 95.9673C217.32 94.8909 217.909 94.3527 218.807 94.3527C218.829 94.3527 218.858 94.3545 218.895 94.3582C218.931 94.3582 218.984 94.3673 219.053 94.3855C219.122 94.4 219.215 94.4255 219.331 94.4618C219.447 94.4945 219.595 94.5418 219.773 94.6036C219.955 94.6655 220.175 94.7455 220.433 94.8436C220.691 94.9382 221 95.0564 221.36 95.1982L223.291 95.9127L223.427 96.8182ZM217.635 92.1218L218.562 91.1836L219.511 92.1327L218.573 93.0709L217.635 92.1218ZM232.698 100.969C233.062 100.969 233.377 100.936 233.642 100.871C233.911 100.809 234.133 100.709 234.308 100.571C234.482 100.433 234.611 100.253 234.695 100.031C234.778 99.8091 234.82 99.54 234.82 99.2236C234.471 99.1327 234.129 99.0418 233.795 98.9509C233.653 98.9145 233.504 98.8764 233.348 98.8364C233.191 98.7927 233.035 98.7509 232.878 98.7109C232.726 98.6673 232.575 98.6273 232.426 98.5909C232.28 98.5545 232.146 98.52 232.022 98.4873C231.862 98.0982 231.782 97.7145 231.782 97.3364C231.782 97.3145 231.784 97.1982 231.788 96.9873C231.795 96.7764 231.873 96.4982 232.022 96.1527C232.171 95.8073 232.382 95.4982 232.655 95.2255C232.928 94.9491 233.242 94.7291 233.598 94.5655C233.955 94.4018 234.344 94.3018 234.766 94.2655C234.849 94.2582 234.935 94.2545 235.022 94.2545C235.364 94.2545 235.715 94.3073 236.075 94.4127L235.818 95.4C235.571 95.3236 235.32 95.2873 235.066 95.2909C234.811 95.2909 234.566 95.3273 234.329 95.4C234.097 95.4691 233.88 95.5709 233.68 95.7055C233.48 95.84 233.309 96.0018 233.168 96.1909C233.029 96.3764 232.929 96.5855 232.868 96.8182C232.824 96.9709 232.802 97.1291 232.802 97.2927C232.802 97.3873 232.809 97.4818 232.824 97.5764L234.913 98.0945C235.204 98.1745 235.422 98.3055 235.568 98.4873C235.713 98.6691 235.786 98.8909 235.786 99.1527C235.786 99.6291 235.729 100.045 235.617 100.402C235.504 100.762 235.324 101.06 235.077 101.296C234.829 101.533 234.509 101.711 234.117 101.831C233.728 101.951 233.255 102.011 232.698 102.011H231.493C231.217 102.011 230.949 101.976 230.691 101.907C230.433 101.838 230.189 101.742 229.96 101.618C229.731 101.495 229.52 101.345 229.328 101.171C229.135 100.996 228.966 100.804 228.82 100.593C228.649 100.316 228.52 100.013 228.433 99.6818C228.346 99.3509 228.302 99.0018 228.302 98.6345C228.302 98.18 228.373 97.6909 228.515 97.1673C228.66 96.64 228.871 96.0836 229.148 95.4982C229.311 95.5745 229.464 95.6491 229.606 95.7218C229.748 95.7909 229.897 95.8636 230.053 95.94C229.573 96.9655 229.333 97.8545 229.333 98.6073C229.333 98.8764 229.366 99.1327 229.431 99.3764C229.497 99.62 229.588 99.84 229.704 100.036C229.889 100.327 230.14 100.555 230.457 100.718C230.773 100.885 231.118 100.969 231.493 100.969H232.698ZM238.848 98.9945H237.817V91.2164H238.848V98.9945ZM243.744 99H243.509C243.16 99 242.838 98.9309 242.544 98.7927C242.544 99.3018 242.473 99.7564 242.331 100.156C242.189 100.556 241.982 100.895 241.709 101.171C241.436 101.451 241.1 101.664 240.7 101.809C240.304 101.955 239.847 102.027 239.331 102.027H238.578V100.996H239.331C239.705 100.996 240.029 100.951 240.302 100.86C240.578 100.773 240.805 100.636 240.984 100.451C241.165 100.265 241.298 100.029 241.382 99.7418C241.469 99.4545 241.513 99.1127 241.513 98.7164V95.3127H242.544V97.1182C242.544 97.3218 242.585 97.4818 242.669 97.5982C242.756 97.7109 242.856 97.7945 242.969 97.8491C243.082 97.9036 243.189 97.9382 243.291 97.9527C243.396 97.9636 243.469 97.9691 243.509 97.9691H243.744V99ZM246.454 94.56C246.462 94.5818 246.476 94.64 246.498 94.7345C246.52 94.8291 246.543 94.9473 246.569 95.0891C246.598 95.2273 246.629 95.3818 246.662 95.5527C246.694 95.72 246.723 95.8909 246.749 96.0655C246.774 96.2364 246.796 96.4018 246.814 96.5618C246.833 96.7218 246.842 96.8618 246.842 96.9818C246.842 97.3309 246.783 97.6327 246.667 97.8873C246.554 98.1382 246.405 98.3473 246.22 98.5145C246.038 98.6782 245.833 98.8 245.603 98.88C245.374 98.96 245.143 99 244.911 99H243.52V97.9691H244.911C244.965 97.9691 245.042 97.9618 245.14 97.9473C245.242 97.9291 245.342 97.8873 245.44 97.8218C245.542 97.7564 245.629 97.6582 245.702 97.5273C245.778 97.3964 245.816 97.2145 245.816 96.9818C245.816 96.9018 245.809 96.8018 245.794 96.6818C245.783 96.5582 245.767 96.4273 245.745 96.2891C245.727 96.1473 245.705 96.0036 245.68 95.8582C245.654 95.7091 245.629 95.5691 245.603 95.4382C245.578 95.3073 245.554 95.1909 245.533 95.0891C245.511 94.9873 245.493 94.9109 245.478 94.86L246.454 94.56ZM244.567 100.98L245.494 100.042L246.443 100.991L245.505 101.929L244.567 100.98ZM259.317 99C259.47 99.2982 259.553 99.58 259.568 99.8455L259.573 99.9218C259.573 100.158 259.526 100.382 259.431 100.593C259.337 100.804 259.19 100.998 258.99 101.176C258.79 101.355 258.553 101.504 258.28 101.624C258.008 101.747 257.704 101.842 257.37 101.907C257.035 101.976 256.682 102.011 256.311 102.011H254.757C254.182 102.011 253.666 101.885 253.208 101.635C252.75 101.384 252.375 101.036 252.084 100.593C251.888 100.28 251.748 99.9327 251.664 99.5509C251.599 99.2564 251.566 98.9473 251.566 98.6236C251.566 98.5291 251.573 98.3509 251.588 98.0891C251.602 97.8236 251.677 97.4527 251.811 96.9764C251.95 96.5 252.142 96.0073 252.39 95.4982L253.306 95.9455C252.899 96.8036 252.668 97.58 252.613 98.2745C252.606 98.3909 252.602 98.5036 252.602 98.6127C252.602 99.1655 252.724 99.64 252.968 100.036C253.153 100.338 253.4 100.569 253.71 100.729C254.022 100.889 254.371 100.969 254.757 100.969H256.311C256.515 100.969 256.715 100.953 256.911 100.92C257.108 100.891 257.291 100.849 257.462 100.795C257.633 100.74 257.788 100.675 257.926 100.598C258.064 100.525 258.179 100.444 258.27 100.353C258.364 100.262 258.43 100.164 258.466 100.058C258.488 100.004 258.499 99.9491 258.499 99.8945C258.499 99.8436 258.49 99.7927 258.471 99.7418C258.428 99.6 258.326 99.48 258.166 99.3818C258.006 99.2873 257.813 99.2109 257.588 99.1527C257.362 99.0982 257.119 99.0582 256.857 99.0327C256.595 99.0109 256.342 99 256.099 99L256.137 97.9691H260.839V99H259.317ZM262.368 94.56C262.376 94.5818 262.39 94.64 262.412 94.7345C262.434 94.8291 262.458 94.9473 262.483 95.0891C262.512 95.2273 262.543 95.3818 262.576 95.5527C262.608 95.72 262.638 95.8909 262.663 96.0655C262.688 96.2364 262.71 96.4018 262.728 96.5618C262.747 96.7218 262.756 96.8618 262.756 96.9818C262.756 97.3309 262.698 97.6327 262.581 97.8873C262.468 98.1382 262.319 98.3473 262.134 98.5145C261.952 98.6782 261.747 98.8 261.518 98.88C261.288 98.96 261.058 99 260.825 99H259.434V97.9691H260.825C260.879 97.9691 260.956 97.9618 261.054 97.9473C261.156 97.9291 261.256 97.8873 261.354 97.8218C261.456 97.7564 261.543 97.6582 261.616 97.5273C261.692 97.3964 261.73 97.2145 261.73 96.9818C261.73 96.9018 261.723 96.8018 261.708 96.6818C261.698 96.5582 261.681 96.4273 261.659 96.2891C261.641 96.1473 261.619 96.0036 261.594 95.8582C261.568 95.7091 261.543 95.5691 261.518 95.4382C261.492 95.3073 261.468 95.1909 261.447 95.0891C261.425 94.9873 261.407 94.9109 261.392 94.86L262.368 94.56ZM260.481 100.98L261.408 100.042L262.358 100.991L261.419 101.929L260.481 100.98ZM264.558 100.98C265.107 100.98 265.569 100.938 265.943 100.855C266.318 100.771 266.614 100.642 266.833 100.467C267.022 100.315 267.16 100.12 267.247 99.8836C267.338 99.6473 267.383 99.3527 267.383 99H266.38C266.125 99 265.867 98.9618 265.605 98.8855C265.343 98.8091 265.105 98.6836 264.891 98.5091C264.68 98.3345 264.507 98.1073 264.373 97.8273C264.238 97.5436 264.171 97.1982 264.171 96.7909C264.171 96.5509 264.191 96.3345 264.231 96.1418C264.274 95.9455 264.327 95.7709 264.389 95.6182C264.454 95.4655 264.525 95.3327 264.602 95.22C264.678 95.1073 264.753 95.0109 264.825 94.9309C265.025 94.7309 265.254 94.5764 265.513 94.4673C265.771 94.3582 266.047 94.3036 266.342 94.3036C266.6 94.3036 266.842 94.3436 267.067 94.4236C267.293 94.5036 267.494 94.6236 267.673 94.7836C268.163 95.2418 268.409 95.96 268.409 96.9382V97.9691H269.227V99H268.409C268.409 99.5164 268.333 99.96 268.18 100.331C268.031 100.705 267.798 101.018 267.482 101.269C267.162 101.52 266.763 101.705 266.287 101.825C265.814 101.949 265.238 102.011 264.558 102.011V100.98ZM266.287 95.3345C265.927 95.3345 265.647 95.4618 265.447 95.7164C265.247 95.9709 265.147 96.3291 265.147 96.7909C265.147 97.26 265.289 97.5855 265.573 97.7673C265.642 97.8109 265.713 97.8473 265.785 97.8764C265.858 97.9018 265.929 97.9218 265.998 97.9364C266.067 97.9473 266.129 97.9564 266.183 97.9636C266.242 97.9673 266.289 97.9691 266.325 97.9691H267.329V96.9382C267.329 96.6727 267.309 96.4491 267.269 96.2673C267.229 96.0818 267.178 95.9291 267.116 95.8091C267.054 95.6891 266.983 95.5982 266.903 95.5364C266.827 95.4709 266.751 95.4236 266.674 95.3945C266.598 95.3655 266.525 95.3491 266.456 95.3455C266.387 95.3382 266.331 95.3345 266.287 95.3345ZM276.361 96.8182C276.339 96.8327 276.244 96.8964 276.077 97.0091C275.91 97.1218 275.686 97.26 275.406 97.4236C275.13 97.5836 274.806 97.7564 274.435 97.9418C274.064 98.1273 273.664 98.2982 273.235 98.4545C272.81 98.6109 272.364 98.7418 271.899 98.8473C271.434 98.9491 270.968 99 270.503 99H269.008V97.9691H270.503C270.91 97.9691 271.321 97.9218 271.735 97.8273C272.154 97.7291 272.555 97.6091 272.941 97.4673C273.326 97.3218 273.688 97.1655 274.026 96.9982C274.364 96.8273 274.661 96.6673 274.915 96.5182C274.563 96.3764 274.21 96.2382 273.857 96.1036C273.508 95.9691 273.188 95.8509 272.897 95.7491C272.606 95.6436 272.355 95.5582 272.144 95.4927C271.937 95.4273 271.799 95.3891 271.73 95.3782C271.668 95.3782 271.603 95.3836 271.534 95.3945C271.468 95.4055 271.403 95.4382 271.337 95.4927C271.272 95.5473 271.208 95.6327 271.146 95.7491C271.084 95.8618 271.026 96.0218 270.972 96.2291L269.974 95.9673C270.254 94.8909 270.843 94.3527 271.741 94.3527C271.763 94.3527 271.792 94.3545 271.828 94.3582C271.864 94.3582 271.917 94.3673 271.986 94.3855C272.055 94.4 272.148 94.4255 272.264 94.4618C272.381 94.4945 272.528 94.5418 272.706 94.6036C272.888 94.6655 273.108 94.7455 273.366 94.8436C273.624 94.9382 273.934 95.0564 274.294 95.1982L276.224 95.9127L276.361 96.8182ZM270.568 92.1218L271.495 91.1836L272.444 92.1327L271.506 93.0709L270.568 92.1218ZM285.632 100.969C285.996 100.969 286.31 100.936 286.576 100.871C286.845 100.809 287.067 100.709 287.241 100.571C287.416 100.433 287.545 100.253 287.628 100.031C287.712 99.8091 287.754 99.54 287.754 99.2236C287.405 99.1327 287.063 99.0418 286.728 98.9509C286.587 98.9145 286.438 98.8764 286.281 98.8364C286.125 98.7927 285.968 98.7509 285.812 98.7109C285.659 98.6673 285.508 98.6273 285.359 98.5909C285.214 98.5545 285.079 98.52 284.956 98.4873C284.796 98.0982 284.716 97.7145 284.716 97.3364C284.716 97.3145 284.718 97.1982 284.721 96.9873C284.728 96.7764 284.807 96.4982 284.956 96.1527C285.105 95.8073 285.316 95.4982 285.588 95.2255C285.861 94.9491 286.176 94.7291 286.532 94.5655C286.888 94.4018 287.278 94.3018 287.699 94.2655C287.783 94.2582 287.868 94.2545 287.956 94.2545C288.298 94.2545 288.648 94.3073 289.008 94.4127L288.752 95.4C288.505 95.3236 288.254 95.2873 287.999 95.2909C287.745 95.2909 287.499 95.3273 287.263 95.4C287.03 95.4691 286.814 95.5709 286.614 95.7055C286.414 95.84 286.243 96.0018 286.101 96.1909C285.963 96.3764 285.863 96.5855 285.801 96.8182C285.758 96.9709 285.736 97.1291 285.736 97.2927C285.736 97.3873 285.743 97.4818 285.758 97.5764L287.847 98.0945C288.138 98.1745 288.356 98.3055 288.501 98.4873C288.647 98.6691 288.719 98.8909 288.719 99.1527C288.719 99.6291 288.663 100.045 288.55 100.402C288.438 100.762 288.258 101.06 288.01 101.296C287.763 101.533 287.443 101.711 287.05 101.831C286.661 101.951 286.188 102.011 285.632 102.011H284.427C284.15 102.011 283.883 101.976 283.625 101.907C283.367 101.838 283.123 101.742 282.894 101.618C282.665 101.495 282.454 101.345 282.261 101.171C282.068 100.996 281.899 100.804 281.754 100.593C281.583 100.316 281.454 100.013 281.367 99.6818C281.279 99.3509 281.236 99.0018 281.236 98.6345C281.236 98.18 281.307 97.6909 281.448 97.1673C281.594 96.64 281.805 96.0836 282.081 95.4982C282.245 95.5745 282.398 95.6491 282.539 95.7218C282.681 95.7909 282.83 95.8636 282.987 95.94C282.507 96.9655 282.267 97.8545 282.267 98.6073C282.267 98.8764 282.299 99.1327 282.365 99.3764C282.43 99.62 282.521 99.84 282.638 100.036C282.823 100.327 283.074 100.555 283.39 100.718C283.707 100.885 284.052 100.969 284.427 100.969H285.632ZM293.129 99C292.747 98.9964 292.431 98.9709 292.18 98.9236C291.933 98.8727 291.722 98.8018 291.547 98.7109C291.377 98.6164 291.238 98.5 291.133 98.3618C291.031 98.22 290.951 98.0564 290.893 97.8709C290.835 97.6818 290.797 97.4709 290.778 97.2382C290.76 97.0055 290.751 96.7473 290.751 96.4636V91.2164H291.782V96.4636C291.782 96.78 291.791 97.0364 291.809 97.2327C291.831 97.4291 291.884 97.5818 291.967 97.6909C292.055 97.7964 292.184 97.8691 292.355 97.9091C292.529 97.9455 292.787 97.9655 293.129 97.9691V99ZM300.267 96.8182C300.245 96.8327 300.151 96.8964 299.983 97.0091C299.816 97.1218 299.593 97.26 299.313 97.4236C299.036 97.5836 298.713 97.7564 298.342 97.9418C297.971 98.1273 297.571 98.2982 297.142 98.4545C296.716 98.6109 296.271 98.7418 295.805 98.8473C295.34 98.9491 294.874 99 294.409 99H292.914V97.9691H294.409C294.816 97.9691 295.227 97.9218 295.642 97.8273C296.06 97.7291 296.462 97.6091 296.847 97.4673C297.233 97.3218 297.594 97.1655 297.933 96.9982C298.271 96.8273 298.567 96.6673 298.822 96.5182C298.469 96.3764 298.116 96.2382 297.763 96.1036C297.414 95.9691 297.094 95.8509 296.803 95.7491C296.513 95.6436 296.262 95.5582 296.051 95.4927C295.843 95.4273 295.705 95.3891 295.636 95.3782C295.574 95.3782 295.509 95.3836 295.44 95.3945C295.374 95.4055 295.309 95.4382 295.243 95.4927C295.178 95.5473 295.114 95.6327 295.053 95.7491C294.991 95.8618 294.933 96.0218 294.878 96.2291L293.88 95.9673C294.16 94.8909 294.749 94.3527 295.647 94.3527C295.669 94.3527 295.698 94.3545 295.734 94.3582C295.771 94.3582 295.823 94.3673 295.893 94.3855C295.962 94.4 296.054 94.4255 296.171 94.4618C296.287 94.4945 296.434 94.5418 296.613 94.6036C296.794 94.6655 297.014 94.7455 297.273 94.8436C297.531 94.9382 297.84 95.0564 298.2 95.1982L300.131 95.9127L300.267 96.8182ZM295.767 100.953L296.694 100.015L297.643 100.964L296.705 101.902L295.767 100.953ZM307.018 98.1873C307.018 98.3545 306.947 98.52 306.806 98.6836C306.62 98.8909 306.38 98.9945 306.086 98.9945C305.751 98.9945 305.489 98.8691 305.3 98.6182C305.126 98.3891 305.038 98.1018 305.038 97.7564C305.038 96.9018 305.471 96.1673 306.336 95.5527C306.409 95.6036 306.486 95.6618 306.566 95.7273C306.649 95.7927 306.738 95.8636 306.833 95.94C306.146 96.4382 305.802 96.9491 305.802 97.4727C305.896 97.4 306.053 97.3636 306.271 97.3636C306.733 97.4291 306.982 97.7036 307.018 98.1873ZM309.293 102.6H308.268V96.9491L309.261 96.3709C309.366 96.4291 309.475 96.4891 309.588 96.5509C309.682 96.6018 309.784 96.6582 309.893 96.72C310.006 96.7818 310.115 96.8382 310.221 96.8891C310.275 96.5618 310.337 96.2673 310.406 96.0055C310.479 95.74 310.568 95.5018 310.673 95.2909C311.026 94.5818 311.582 94.2273 312.342 94.2273C312.673 94.2273 312.975 94.2964 313.248 94.4345C313.524 94.5691 313.757 94.7673 313.946 95.0291C314.106 95.2473 314.226 95.4982 314.306 95.7818C314.39 96.0655 314.431 96.3673 314.431 96.6873C314.431 97.04 314.401 97.3436 314.339 97.5982C314.281 97.8527 314.202 98.0673 314.104 98.2418C314.01 98.4164 313.901 98.5564 313.777 98.6618C313.657 98.7636 313.535 98.8436 313.411 98.9018C313.288 98.9564 313.168 98.9927 313.051 99.0109C312.935 99.0291 312.835 99.0382 312.751 99.0382C312.69 99.0382 312.61 99.0291 312.511 99.0109C312.413 98.9927 312.281 98.9545 312.113 98.8964C311.946 98.8382 311.735 98.7545 311.481 98.6455C311.226 98.5364 310.911 98.3891 310.537 98.2036C310.286 98.08 310.05 97.9618 309.828 97.8491C309.61 97.7327 309.431 97.6364 309.293 97.56V102.6ZM311.186 97.3745C311.495 97.5273 311.75 97.6455 311.95 97.7291C312.15 97.8127 312.308 97.8764 312.424 97.92C312.541 97.96 312.622 97.9855 312.67 97.9964C312.717 98.0036 312.744 98.0073 312.751 98.0073C312.791 98.0073 312.848 98 312.921 97.9855C312.997 97.9709 313.07 97.9236 313.139 97.8436C313.211 97.76 313.273 97.6291 313.324 97.4509C313.379 97.2727 313.406 97.0182 313.406 96.6873C313.406 96.6473 313.402 96.5836 313.395 96.4964C313.391 96.4091 313.377 96.3127 313.351 96.2073C313.33 96.1018 313.295 95.9927 313.248 95.88C313.204 95.7673 313.142 95.6655 313.062 95.5745C312.986 95.48 312.888 95.4036 312.768 95.3455C312.651 95.2836 312.51 95.2527 312.342 95.2527C312.201 95.2527 312.073 95.2782 311.961 95.3291C311.848 95.38 311.744 95.4818 311.65 95.6345C311.559 95.7873 311.475 96.0036 311.399 96.2836C311.326 96.56 311.255 96.9236 311.186 97.3745ZM316.446 97.0036L316.119 91.4345L317.139 91.32L317.472 97.0036H316.446ZM322.43 97.9691V99H322.152C321.821 99 321.528 98.9527 321.273 98.8582C321.023 98.7636 320.821 98.6218 320.668 98.4327C320.29 98.8109 319.73 99 318.988 99H315.77V97.9691H318.988C319.25 97.9691 319.457 97.9436 319.61 97.8927C319.763 97.8382 319.877 97.7727 319.953 97.6964C320.033 97.6164 320.084 97.5291 320.106 97.4345C320.132 97.3364 320.144 97.2436 320.144 97.1564V91.2109H321.17V97.1182C321.17 97.2527 321.19 97.3673 321.23 97.4618C321.27 97.5564 321.321 97.6364 321.383 97.7018C321.448 97.7636 321.519 97.8127 321.595 97.8491C321.675 97.8855 321.752 97.9127 321.824 97.9309C321.897 97.9491 321.963 97.96 322.021 97.9636C322.079 97.9673 322.123 97.9691 322.152 97.9691H322.43ZM326.442 98.9891C326.101 98.9891 325.797 98.94 325.531 98.8418C325.266 98.74 325.042 98.5945 324.861 98.4055C324.671 98.6091 324.451 98.76 324.201 98.8582C323.95 98.9527 323.697 99 323.442 99H322.188V97.9691H323.442C323.497 97.9691 323.575 97.9618 323.677 97.9473C323.779 97.9291 323.879 97.8873 323.977 97.8218C324.075 97.7527 324.161 97.6509 324.233 97.5164C324.31 97.3818 324.348 97.1982 324.348 96.9655V95.3127H325.379V96.9436C325.379 97.2964 325.461 97.5545 325.624 97.7182C325.791 97.8818 326.064 97.9636 326.442 97.9636C326.497 97.9636 326.573 97.9545 326.671 97.9364C326.773 97.9145 326.873 97.8691 326.971 97.8C327.073 97.7309 327.161 97.6291 327.233 97.4945C327.31 97.36 327.348 97.1764 327.348 96.9436V95.3127H328.373V96.9436C328.373 97.2964 328.459 97.5564 328.63 97.7236C328.801 97.8909 329.075 97.9745 329.453 97.9745C329.511 97.9745 329.59 97.9636 329.688 97.9418C329.786 97.9164 329.882 97.8673 329.977 97.7945C330.075 97.7218 330.159 97.6182 330.228 97.4836C330.297 97.3491 330.331 97.1691 330.331 96.9436C330.331 96.8636 330.324 96.7636 330.31 96.6436C330.299 96.5236 330.282 96.3945 330.261 96.2564C330.242 96.1182 330.221 95.9782 330.195 95.8364C330.17 95.6909 330.144 95.5564 330.119 95.4327C330.093 95.3055 330.07 95.1927 330.048 95.0945C330.026 94.9927 330.008 94.9182 329.993 94.8709L330.97 94.56C330.977 94.5818 330.991 94.64 331.013 94.7345C331.035 94.8255 331.061 94.94 331.09 95.0782C331.119 95.2127 331.148 95.3636 331.177 95.5309C331.21 95.6982 331.239 95.8673 331.264 96.0382C331.293 96.2055 331.317 96.3691 331.335 96.5291C331.353 96.6855 331.362 96.8236 331.362 96.9436C331.362 97.2891 331.306 97.5909 331.193 97.8491C331.081 98.1036 330.933 98.3164 330.751 98.4873C330.573 98.6545 330.37 98.7818 330.141 98.8691C329.911 98.9527 329.682 98.9964 329.453 99C329.104 99 328.795 98.9491 328.526 98.8473C328.261 98.7418 328.035 98.5909 327.85 98.3945C327.661 98.5945 327.441 98.7436 327.19 98.8418C326.942 98.94 326.693 98.9891 326.442 98.9891Z" fill="#303030"/>
<rect width="6" height="40" transform="matrix(-1 0 0 1 352 75)" fill="#4ECDC4"/>
</g>
</g>
<path d="M371.746 27.9709C371.255 27.6153 370.302 27.1312 368.47 26.6944C367.922 26.5637 367.293 26.4383 366.577 26.326C365.675 26.1788 364.628 26.0481 363.419 25.9393L363.249 25.9243C363.004 25.3403 362.75 24.7437 362.482 24.1154C362.34 23.7784 362.202 23.4397 362.058 23.0804C362.042 23.0379 362.023 22.9937 362.005 22.9513C361.477 21.6308 360.909 20.2748 359.952 19.0703C358.882 17.7348 357.475 17 355.994 17C354.512 17 353.108 17.7366 352.035 19.0703C351.071 20.273 350.512 21.6287 349.984 22.9476L349.929 23.0804C349.787 23.4397 349.65 23.7784 349.506 24.1154C349.237 24.7437 348.985 25.3403 348.739 25.9243L348.57 25.9393C347.358 26.0479 346.311 26.1788 345.407 26.3279C344.691 26.442 344.066 26.569 343.52 26.6964C341.693 27.1328 340.732 27.6173 340.243 27.9728C340.156 28.0361 340.089 28.1223 340.047 28.2213C340.005 28.3207 339.991 28.4294 340.006 28.5362L340.165 29.7279C340.406 31.5111 340.663 33.6053 341.087 35.7643C341.399 37.4261 341.837 39.0618 342.397 40.6565C342.621 41.2845 342.871 41.9016 343.151 42.4985C344.346 44.9289 346.196 46.9716 348.487 48.3926C350.779 49.8139 353.421 50.5567 356.111 50.5358C358.802 50.5151 361.432 49.7318 363.702 48.2753C365.972 46.8188 367.79 44.7481 368.948 42.2995C369.164 41.8204 369.363 41.3305 369.546 40.8258C370.85 37.2891 371.352 33.386 371.767 30.2862L371.997 28.5198C372.008 28.414 371.99 28.3073 371.946 28.2106C371.903 28.1141 371.834 28.0312 371.747 27.9707L371.746 27.9709ZM355.983 25.6464C354.496 25.6464 353.142 25.674 351.913 25.7235C351.979 25.5671 352.046 25.4104 352.116 25.2485C352.271 24.8801 352.421 24.5116 352.565 24.1432C352.865 23.3406 353.217 22.5584 353.619 21.802C353.801 21.4737 354.01 21.1608 354.244 20.8665C354.543 20.498 355.17 19.8624 355.982 19.8624C356.795 19.8624 357.422 20.4907 357.723 20.8665C357.956 21.1606 358.165 21.4737 358.348 21.802C358.749 22.5588 359.101 23.341 359.402 24.1432C359.546 24.5116 359.694 24.8801 359.851 25.2485C359.921 25.4104 359.987 25.5671 360.054 25.7235C358.824 25.674 357.471 25.6464 355.982 25.6464H355.983Z" fill="url(#paint0_linear_11125_45016)"/>
<path fill-rule="evenodd" clip-rule="evenodd" d="M374.561 79.4859C374.205 79.869 374 80.4587 374 81.225V108.48C374 109.246 374.205 109.836 374.575 110.206L374.671 110.287L389.943 95.0156V94.6725L374.658 79.4043L374.561 79.4859Z" fill="url(#paint1_linear_11125_45016)"/>
<path fill-rule="evenodd" clip-rule="evenodd" d="M395.024 100.127L389.93 95.0311V94.6746L395.025 89.5791L395.135 89.6474L401.162 93.0722C402.887 94.045 402.887 95.6474 401.162 96.6335L395.135 100.058C395.133 100.058 395.024 100.127 395.024 100.127Z" fill="url(#paint2_linear_11125_45016)"/>
<path fill-rule="evenodd" clip-rule="evenodd" d="M395.133 100.059L389.93 94.8535L374.562 110.222C375.123 110.825 376.067 110.893 377.123 110.303L395.133 100.059Z" fill="url(#paint3_linear_11125_45016)"/>
<path fill-rule="evenodd" clip-rule="evenodd" d="M395.133 89.6494L377.123 79.4184C376.069 78.8154 375.123 78.897 374.562 79.5L389.928 94.8532L395.133 89.6494Z" fill="url(#paint4_linear_11125_45016)"/>
<path opacity="0.2" fill-rule="evenodd" clip-rule="evenodd" d="M395.024 99.9473L377.137 110.11C376.138 110.685 375.246 110.645 374.672 110.123L374.575 110.22L374.672 110.302C375.246 110.821 376.138 110.863 377.137 110.288L395.147 100.057L395.024 99.9473Z" fill="#404040"/>
<path opacity="0.12" fill-rule="evenodd" clip-rule="evenodd" d="M401.161 96.456L395.011 99.949L395.121 100.059L401.147 96.6342C402.01 96.1411 402.435 95.4982 402.435 94.8535C402.38 95.4432 401.942 96.0045 401.161 96.456Z" fill="#404040"/>
<path opacity="0.25" fill-rule="evenodd" clip-rule="evenodd" d="M377.123 79.5962L401.16 93.2519C401.941 93.69 402.379 94.2647 402.448 94.8544C402.448 94.2114 402.023 93.5668 401.16 93.0737L377.123 79.418C375.398 78.4318 374 79.2531 374 81.2253V81.4035C374 79.4313 375.398 78.6234 377.123 79.5962Z" fill="white"/>
<defs>
<filter id="filter0_d_11125_45016" x="0" y="0" width="342" height="95.5" filterUnits="userSpaceOnUse" color-interpolation-filters="sRGB">
<feFlood flood-opacity="0" result="BackgroundImageFix"/>
<feColorMatrix in="SourceAlpha" type="matrix" values="0 0 0 0 0 0 0 0 0 0 0 0 0 0 0 0 0 0 127 0" result="hardAlpha"/>
<feOffset dy="5"/>
<feGaussianBlur stdDeviation="10"/>
<feComposite in2="hardAlpha" operator="out"/>
<feColorMatrix type="matrix" values="0 0 0 0 0 0 0 0 0 0 0 0 0 0 0 0 0 0 0.1 0"/>
<feBlend mode="normal" in2="BackgroundImageFix" result="effect1_dropShadow_11125_45016"/>
<feBlend mode="normal" in="SourceGraphic" in2="effect1_dropShadow_11125_45016" result="shape"/>
</filter>
<filter id="filter1_d_11125_45016" x="113" y="60" width="259" height="95.5" filterUnits="userSpaceOnUse" color-interpolation-filters="sRGB">
<feFlood flood-opacity="0" result="BackgroundImageFix"/>
<feColorMatrix in="SourceAlpha" type="matrix" values="0 0 0 0 0 0 0 0 0 0 0 0 0 0 0 0 0 0 127 0" result="hardAlpha"/>
<feOffset dy="5"/>
<feGaussianBlur stdDeviation="10"/>
<feComposite in2="hardAlpha" operator="out"/>
<feColorMatrix type="matrix" values="0 0 0 0 0 0 0 0 0 0 0 0 0 0 0 0 0 0 0.1 0"/>
<feBlend mode="normal" in2="BackgroundImageFix" result="effect1_dropShadow_11125_45016"/>
<feBlend mode="normal" in="SourceGraphic" in2="effect1_dropShadow_11125_45016" result="shape"/>
</filter>
<linearGradient id="paint0_linear_11125_45016" x1="356.001" y1="17.0002" x2="356.001" y2="50.5161" gradientUnits="userSpaceOnUse">
<stop stop-color="#97D700"/>
<stop offset="0.631" stop-color="#50BC25"/>
<stop offset="1" stop-color="#009F64"/>
</linearGradient>
<linearGradient id="paint1_linear_11125_45016" x1="388.571" y1="80.932" x2="364.109" y2="87.45" gradientUnits="userSpaceOnUse">
<stop stop-color="#00A0FF"/>
<stop offset="0.007" stop-color="#00A1FF"/>
<stop offset="0.26" stop-color="#00BEFF"/>
<stop offset="0.512" stop-color="#00D2FF"/>
<stop offset="0.76" stop-color="#00DFFF"/>
<stop offset="1" stop-color="#00E3FF"/>
</linearGradient>
<linearGradient id="paint2_linear_11125_45016" x1="403.407" y1="94.8536" x2="373.581" y2="94.8536" gradientUnits="userSpaceOnUse">
<stop stop-color="#FFE000"/>
<stop offset="0.409" stop-color="#FFBD00"/>
<stop offset="0.775" stop-color="#FFA500"/>
<stop offset="1" stop-color="#FF9C00"/>
</linearGradient>
<linearGradient id="paint3_linear_11125_45016" x1="392.304" y1="97.6853" x2="372.665" y2="130.738" gradientUnits="userSpaceOnUse">
<stop stop-color="#FF3A44"/>
<stop offset="1" stop-color="#C31162"/>
</linearGradient>
<linearGradient id="paint4_linear_11125_45016" x1="370.693" y1="70.4204" x2="379.454" y2="85.1823" gradientUnits="userSpaceOnUse">
<stop stop-color="#32A071"/>
<stop offset="0.069" stop-color="#2DA771"/>
<stop offset="0.476" stop-color="#15CF74"/>
<stop offset="0.801" stop-color="#06E775"/>
<stop offset="1" stop-color="#00F076"/>
</linearGradient>
</defs>
</svg>
