<svg width="132" height="41" viewBox="0 0 132 41" fill="none" xmlns="http://www.w3.org/2000/svg">
<path d="M127.406 20.2988L127.529 20.4182C128.724 21.8501 129.602 23.5075 130.108 25.286C130.587 26.9578 130.629 28.7197 130.231 30.4114C130.181 30.6613 130.063 30.8935 129.889 31.0835C129.701 31.3033 129.501 31.513 129.289 31.7116C128.773 32.1492 128.231 32.5562 127.664 32.9301C126.078 34.0167 124.44 35.0154 122.763 35.9764C120.615 37.2326 118.442 38.3946 116.204 39.4687C115.398 39.8519 114.591 40.2224 113.753 40.5365C113.409 40.6687 113.056 40.7758 112.695 40.8568C112.424 40.9196 112.141 40.9196 111.87 40.8568C111.279 40.7132 110.703 40.5177 110.148 40.2727C108.929 39.7576 107.736 39.1798 106.562 38.5705C103.705 37.1007 100.912 35.5179 98.178 33.7906L97.3267 33.2316L97.1074 33.0746C97.1631 33.0683 97.2194 33.0683 97.2751 33.0746C97.4621 33.1562 97.6427 33.2504 97.8297 33.3258C98.8345 33.7349 99.8872 34.0219 100.964 34.18C101.757 34.3065 102.56 34.3611 103.363 34.3433C104.808 34.3176 106.231 33.9989 107.542 33.4075C108.774 32.8484 110 32.2769 111.199 31.6676C113.633 30.4114 116.027 29.1112 118.384 27.767C120.441 26.5799 122.479 25.3614 124.452 24.0424C124.977 23.6906 125.493 23.3263 126 22.9494C126.294 22.7314 126.572 22.4942 126.832 22.2397C127.192 21.9074 127.42 21.4628 127.477 20.9835C127.49 20.8582 127.49 20.7319 127.477 20.6066C127.49 20.5312 127.464 20.4559 127.406 20.2988Z" fill="#1C1C1C"/>
<path d="M127.559 20.4182L127.437 20.2988C127.449 20.4072 127.47 20.5144 127.501 20.6192C127.514 20.7445 127.514 20.8707 127.501 20.996C127.444 21.4754 127.216 21.92 126.856 22.2522C126.608 22.5071 126.343 22.7463 126.063 22.9683C125.56 23.3452 125.044 23.7095 124.515 24.0612C123.071 25.0285 121.587 25.9455 120.084 26.8312C127.411 25.5749 129.617 28.5647 130.281 30.4867V30.4302C130.679 28.7385 130.637 26.9767 130.158 25.3049C129.65 23.5176 128.765 21.8532 127.559 20.4182Z" fill="#1C1C1C"/>
<path d="M130.845 27.5978C130.755 27.5413 130.761 27.4659 130.761 27.3906C130.74 26.9321 130.68 26.4762 130.581 26.0276C130.193 24.0261 129.307 22.1478 128.001 20.5567C127.419 19.8354 126.733 19.2006 125.963 18.6724C125.009 18.0443 124.028 17.3848 123.074 16.7881C120.7 15.2806 118.256 13.8737 115.792 12.5107C113.793 11.4052 111.775 10.3374 109.704 9.37013C108.911 8.98698 108.111 8.6164 107.279 8.30863C106.983 8.19557 106.673 8.09507 106.364 8.00713C105.97 7.89424 105.551 7.89424 105.158 8.00713C104.935 8.07183 104.731 8.18334 104.558 8.33375L104.39 8.46565V8.33375C105.223 6.10761 106.674 4.15052 108.582 2.68077C109.591 1.9515 110.724 1.40084 111.929 1.05397C112.269 0.959875 112.628 0.959875 112.968 1.05397C113.425 1.16263 113.872 1.30974 114.303 1.49365C115.399 1.93332 116.457 2.44209 117.527 2.9697C120.77 4.59628 123.92 6.39323 126.963 8.35259C127.691 8.82367 128.414 9.3136 129.104 9.84749C129.415 10.0887 129.71 10.3488 129.987 10.6263C130.193 10.8354 130.343 11.0897 130.426 11.3675C130.594 11.9659 130.709 12.5775 130.768 13.1953C131.001 15.506 131.115 17.8266 131.11 20.1485C131.11 21.7941 131.11 23.4398 131.032 25.0854C130.993 25.8957 130.935 26.6996 130.884 27.5099C130.858 27.5225 130.852 27.5476 130.845 27.5978Z" fill="#1C1C1C"/>
<path d="M105.177 8.02015C105.571 7.90725 105.989 7.90725 106.383 8.02015C106.692 8.10808 107.028 8.20858 107.299 8.32164C108.124 8.62941 108.924 9.00628 109.724 9.38314C111.207 10.0929 112.665 10.8404 114.109 11.6192C108.305 5.4449 111.407 1.7579 112.174 1.0293H111.955C110.761 1.38923 109.641 1.95048 108.647 2.6875C106.739 4.15725 105.287 6.11434 104.455 8.34048V8.52263L104.622 8.39073C104.779 8.23103 104.968 8.10482 105.177 8.02015Z" fill="#1C1C1C"/>
<path d="M109.18 2.01549C109.148 2.12855 109.058 2.15368 108.993 2.19764C107.255 3.34616 105.828 4.88693 104.833 6.68862C104.278 7.68762 103.898 8.77049 103.711 9.89198C103.66 10.1935 103.627 10.5201 103.602 10.8027C103.453 12.4609 103.344 14.1191 103.292 15.7836C103.202 18.4845 103.17 21.1791 103.24 23.88C103.24 24.7907 103.279 25.6952 103.318 26.606C103.363 27.7805 103.428 28.9614 103.544 30.1359C103.593 30.7686 103.681 31.3979 103.808 32.0203C103.857 32.3126 103.951 32.5963 104.085 32.8619C104.189 33.0522 104.319 33.2276 104.472 33.3832C104.652 33.5635 104.873 33.6992 105.117 33.779L105.375 33.8732C105.066 33.9171 104.821 33.9674 104.575 33.9862C104.079 34.0239 103.582 34.0679 103.086 34.0742C101.763 34.1011 100.445 33.9274 99.1774 33.5591C97.7093 33.1374 96.3535 32.4086 95.2047 31.4235L95.1402 31.3733C94.7608 31.0922 94.4958 30.6895 94.3921 30.2364C94.2908 29.8713 94.2154 29.4998 94.1663 29.1247C94.0115 28.0255 93.9341 26.9263 93.8761 25.8208C93.7342 23.2016 93.7278 20.5887 93.7858 17.9695C93.7858 16.82 93.8697 15.6706 93.9535 14.5211C93.9998 13.7404 94.0881 12.9626 94.2179 12.1909C94.2824 11.8454 94.3663 11.5062 94.463 11.167C94.5446 10.9081 94.6909 10.6729 94.8886 10.4824C95.2228 10.1462 95.5829 9.83547 95.9657 9.5528C96.9266 8.83675 97.9005 8.17724 98.9517 7.54285C101.962 5.66658 105.071 3.94326 108.264 2.3798L109.064 2.00293L109.18 2.01549Z" fill="#1C1C1C"/>
<path d="M104.52 33.3946C104.367 33.239 104.236 33.0636 104.133 32.8733C103.998 32.6076 103.905 32.324 103.855 32.0316C103.728 31.4093 103.64 30.78 103.591 30.1473C103.481 28.9727 103.41 27.7982 103.365 26.6173C103.333 25.7945 103.314 24.9654 103.294 24.1426C102.566 26.3284 100.07 32.2515 95.0005 31.2528C95.0598 31.3084 95.1223 31.3608 95.1875 31.4098L95.252 31.46C96.4008 32.4451 97.7567 33.1739 99.2248 33.5956C100.492 33.9639 101.811 34.1376 103.133 34.1107C103.63 34.1107 104.126 34.0604 104.623 34.0227C104.892 34.0022 105.159 33.9645 105.423 33.9097L105.165 33.8155C104.919 33.7262 104.698 33.5821 104.52 33.3946Z" fill="#1C1C1C"/>
<path d="M61.6165 26.2554C61.0283 26.8927 60.3167 27.4109 59.5227 27.7801C58.7286 28.1494 57.8676 28.3626 56.9889 28.4075C56.1102 28.4525 55.231 28.3282 54.4016 28.0419C53.5722 27.7556 52.8089 27.3129 52.1554 26.7391C51.9869 26.5958 51.8275 26.4427 51.6782 26.2805C51.0879 26.9189 50.3738 27.4373 49.5772 27.8061C48.7805 28.1748 47.9168 28.3866 47.0358 28.4292C46.1548 28.4718 45.2738 28.3444 44.4436 28.0543C43.6133 27.7643 42.85 27.3173 42.1977 26.7391C42.03 26.5883 41.8688 26.4313 41.714 26.268C40.5243 27.5424 38.8655 28.3072 37.0992 28.3954C35.333 28.4837 33.6025 27.8883 32.2851 26.7391C32.1165 26.5937 31.9572 26.4385 31.8079 26.2743C30.6164 27.5554 28.9518 28.3238 27.1793 28.4109C25.4067 28.4981 23.6711 27.8968 22.3532 26.7391C22.1846 26.5937 22.0252 26.4385 21.876 26.2743C20.6855 27.5569 19.0205 28.3264 17.2475 28.4135C15.4744 28.5007 13.7384 27.8984 12.4213 26.7391C12.2622 26.5925 12.1075 26.4417 11.957 26.2868L11.6926 26.5381L5.76566 32.3167C5.6816 32.4091 5.57462 32.4789 5.45494 32.5196C5.33527 32.5603 5.20688 32.5704 5.08203 32.5491C4.70008 32.4964 4.32836 32.3884 3.9792 32.2287C3.47758 31.9965 3.0057 31.7077 2.57326 31.3682C2.31529 31.1672 2.30884 31.0228 2.57326 30.7966L9.09349 24.4527C9.44384 24.1362 9.7342 23.7619 9.95125 23.3473C10.3075 22.5837 10.3421 21.7145 10.0475 20.9264C9.75293 20.1383 9.15275 19.4941 8.37586 19.1322C7.59898 18.7704 6.70736 18.7197 5.89252 18.991C5.07768 19.2624 4.40462 19.8342 4.0179 20.5836C3.86543 20.8903 3.76524 21.2191 3.72123 21.5572C3.65373 22.0192 3.69279 22.49 3.83559 22.9355C3.97839 23.381 4.22133 23.7898 4.54674 24.1324C4.78537 24.3962 5.06913 24.6223 5.32066 24.8673L6.61051 26.1235C6.81044 26.3245 6.81044 26.4815 6.61051 26.6511C6.03845 27.1183 5.38245 27.4782 4.67573 27.7126C4.43944 27.7814 4.1979 27.8319 3.95341 27.8634C3.86474 27.879 3.77349 27.8728 3.68791 27.8453C3.60232 27.8179 3.52511 27.7701 3.46326 27.7063C2.85575 27.1652 2.28284 26.5884 1.74775 25.979C0.659991 24.7169 0.131122 23.0858 0.277311 21.4441C0.403198 19.8732 1.11283 18.4009 2.27328 17.303C3.43374 16.2051 4.96538 15.557 6.5813 15.4799C8.19721 15.4029 9.78653 15.9023 11.0515 16.8846C12.3165 17.8668 13.1704 19.2646 13.4532 20.816C13.5113 21.1489 13.5306 21.4881 13.5564 21.821C13.5766 22.4217 13.7423 23.0092 14.0401 23.5357C14.3769 24.0934 14.8792 24.5388 15.4809 24.8131C16.0826 25.0874 16.7555 25.1778 17.411 25.0725C18.0665 24.9671 18.6739 24.6708 19.1531 24.2227C19.6324 23.7746 19.9611 23.1957 20.096 22.5621C20.127 22.4006 20.1421 22.2365 20.1411 22.0722V19.5598C20.1411 19.2834 20.2766 19.1578 20.5345 19.1892C21.1877 19.2464 21.8275 19.4032 22.4306 19.654C22.6868 19.774 22.9346 19.9104 23.1723 20.0623C23.291 20.1265 23.3878 20.2232 23.4508 20.3404C23.5139 20.4576 23.5403 20.5901 23.527 20.7218V21.978C23.5187 22.3766 23.5939 22.7726 23.748 23.142C23.9022 23.5113 24.132 23.8462 24.4235 24.1261C24.8276 24.56 25.3512 24.8718 25.932 25.0244C26.5128 25.1769 27.1263 25.1638 27.6997 24.9866C28.281 24.8451 28.8078 24.5425 29.2164 24.1156C29.625 23.6887 29.8979 23.1557 30.0021 22.581C30.097 22.1758 30.1085 21.7564 30.0357 21.3469C29.963 20.9374 29.8076 20.5461 29.5784 20.1956C29.3493 19.845 29.051 19.5423 28.7008 19.3048C28.3506 19.0674 27.9555 18.9 27.5385 18.8123C27.4047 18.7822 27.2689 18.7612 27.1322 18.7495H20.6571C20.2379 18.7495 20.1605 18.6741 20.2056 18.2721C20.264 17.6447 20.4297 17.0312 20.6958 16.4569C20.8258 16.2112 20.9723 15.9741 21.1343 15.7471C21.1971 15.6512 21.2854 15.5736 21.3899 15.5227C21.4944 15.4718 21.6112 15.4495 21.7277 15.4582H26.8871C27.8549 15.4577 28.8101 15.6725 29.6796 16.0863C30.6828 16.5321 31.5544 17.217 32.2139 18.0777C32.8733 18.9384 33.2993 19.9472 33.4525 21.0107C33.5041 21.3433 33.53 21.6793 33.5299 22.0157C33.5465 22.8173 33.8713 23.5838 34.44 24.1636C35.0087 24.7434 35.78 25.0944 36.6015 25.1472C37.423 25.2001 38.235 24.951 38.8771 24.4491C39.5191 23.9472 39.9446 23.2291 40.0694 22.4365C40.0759 22.3403 40.0759 22.2438 40.0694 22.1476V16.011C40.0694 15.5776 40.1468 15.5022 40.5854 15.5524C41.2059 15.6137 41.8129 15.7684 42.3847 16.011C42.6317 16.1303 42.8708 16.2646 43.1006 16.4129C43.2175 16.4803 43.3124 16.5787 43.374 16.6966C43.4357 16.8145 43.4617 16.947 43.4489 17.0787V21.9466C43.4292 22.3788 43.4996 22.8104 43.6559 23.2153C43.8121 23.6203 44.051 23.9902 44.3581 24.3028C44.6651 24.6154 45.034 24.8642 45.4425 25.0342C45.851 25.2041 46.2906 25.2917 46.7348 25.2917C47.179 25.2917 47.6186 25.2041 48.027 25.0342C48.4355 24.8642 48.8044 24.6154 49.1115 24.3028C49.4185 23.9902 49.6574 23.6203 49.8137 23.2153C49.9699 22.8104 50.0404 22.3788 50.0207 21.9466V7.97744C50.0207 7.73876 50.1368 7.61942 50.3754 7.63826C51.3281 7.6986 52.2473 8.00422 53.039 8.5239C53.1462 8.592 53.2342 8.68514 53.2951 8.79485C53.3559 8.90455 53.3876 9.02733 53.3872 9.15201V21.9089C53.3752 22.72 53.6797 23.5054 54.2391 24.1064C54.7985 24.7075 55.5712 25.0794 56.4013 25.1472C57.2313 25.2149 58.0568 24.9735 58.7112 24.4715C59.3655 23.9696 59.8 23.2445 59.9268 22.4428C59.9332 22.3466 59.9332 22.2501 59.9268 22.1539V15.8728C59.9268 15.5964 60.0429 15.4896 60.3331 15.5147C61.0947 15.5738 61.8372 15.7764 62.5194 16.1115C62.7076 16.2148 62.8886 16.3302 63.0612 16.4569C63.1381 16.5078 63.2012 16.5761 63.245 16.656C63.2888 16.7358 63.312 16.8249 63.3127 16.9154V21.9403C63.3139 22.6238 63.5391 23.2891 63.9555 23.8393C64.372 24.3895 64.9579 24.7959 65.628 24.9992C65.9369 25.0937 66.2587 25.1424 66.5825 25.1437H76.3789C76.9114 25.1632 77.4412 25.0621 77.9268 24.8484C78.5056 24.6024 78.9975 24.1963 79.3415 23.6804C79.6854 23.1645 79.8663 22.5617 79.8616 21.9466C79.8799 21.5272 79.8627 21.107 79.81 20.6904C79.686 19.9553 79.3024 19.2855 78.7253 18.7966C78.1483 18.3077 77.4141 18.0303 76.6495 18.0125C75.8848 17.9946 75.1378 18.2373 74.5373 18.6987C73.9369 19.1601 73.5207 19.8112 73.3607 20.5396C73.3091 20.758 73.2832 20.9813 73.2833 21.2054V23.253C73.2891 23.3832 73.2608 23.5126 73.201 23.6291C73.1412 23.7456 73.0518 23.8453 72.9415 23.9188C72.4252 24.2721 71.8386 24.516 71.2195 24.6349C70.9113 24.7039 70.599 24.7543 70.2844 24.7856C70.0199 24.7856 69.9039 24.7103 69.9039 24.459V20.9039C69.9494 19.4201 70.5424 18.0019 71.5742 16.9092C72.6846 15.6648 74.2528 14.8955 75.9404 14.7673C77.5779 14.6256 79.2111 15.082 80.5222 16.0479C81.8334 17.0137 82.7289 18.42 83.0346 19.9932C83.1066 20.4086 83.1497 20.8283 83.1636 21.2494C83.1948 21.7884 83.171 22.3291 83.0927 22.8636C82.8699 24.2985 82.16 25.6194 81.0764 26.6156C79.9928 27.6117 78.5979 28.2257 77.1142 28.3596C76.7788 28.391 76.4692 28.3596 76.1016 28.3596H66.705C65.778 28.3764 64.8578 28.2027 64.0044 27.8499C63.151 27.4971 62.3835 26.973 61.7519 26.3119L61.6875 26.2491L61.6165 26.2554ZM36.9028 31.475C36.6313 31.1673 36.2824 30.9336 35.8903 30.7966C35.4903 30.6527 35.0571 30.6201 34.6391 30.7024C34.088 30.8034 33.5915 31.0916 33.2382 31.5159C32.885 31.9401 32.6979 32.4727 32.7103 33.0188C32.7226 33.5649 32.9337 34.0889 33.3059 34.4975C33.6781 34.9062 34.1871 35.1728 34.7423 35.2499C35.3565 35.3335 35.9801 35.1848 36.4851 34.8343C36.9901 34.4838 37.3381 33.9582 37.4575 33.3656C37.5405 33.7792 37.729 34.1659 38.0057 34.4899C38.2784 34.7999 38.6324 35.032 39.0299 35.1615C39.4274 35.2909 39.8536 35.3128 40.2629 35.2248C40.8141 35.1239 41.3105 34.8356 41.6638 34.4113C42.0171 33.9871 42.2042 33.4545 42.1918 32.9084C42.1794 32.3623 41.9683 31.8383 41.5961 31.4297C41.224 31.0211 40.7149 30.7544 40.1597 30.6773C39.5456 30.5937 38.9219 30.7425 38.4169 31.0929C37.9119 31.4434 37.5639 31.969 37.4446 32.5616C37.3574 32.1619 37.1715 31.7889 36.9028 31.475ZM60.3911 35.2436C60.9454 35.1537 61.4489 34.8753 61.8121 34.4578C62.1753 34.0403 62.3746 33.5108 62.3746 32.9636C62.3746 32.4164 62.1753 31.887 61.8121 31.4694C61.4489 31.0519 60.9454 30.7735 60.3911 30.6836C59.7745 30.5933 59.146 30.7392 58.6373 31.0905C58.1287 31.4418 57.7796 31.9713 57.6631 32.5679C57.5467 31.9662 57.1938 31.4326 56.6794 31.0807C56.165 30.7287 55.5299 30.5862 54.9093 30.6836C54.355 30.7735 53.8515 31.0519 53.4883 31.4694C53.1251 31.887 52.9258 32.4164 52.9258 32.9636C52.9258 33.5108 53.1251 34.0403 53.4883 34.4578C53.8515 34.8753 54.355 35.1537 54.9093 35.2436C55.5259 35.3339 56.1544 35.1881 56.6631 34.8367C57.1717 34.4854 57.5209 33.9559 57.6373 33.3593C57.7552 33.9602 58.1085 34.4928 58.6225 34.8445C59.1364 35.1962 59.7707 35.3393 60.3911 35.2436ZM76.2371 12.2235C76.7065 12.2247 77.1657 12.0903 77.5567 11.8374C77.9477 11.5844 78.2529 11.2243 78.4337 10.8024C78.6145 10.3805 78.6628 9.91586 78.5725 9.46725C78.4822 9.01863 78.2573 8.60618 77.9263 8.28204C77.5952 7.9579 77.173 7.73664 76.7128 7.64623C76.2527 7.55583 75.7754 7.60034 75.3412 7.77414C74.9071 7.94794 74.5356 8.24322 74.2737 8.62264C74.0119 9.00206 73.8714 9.44858 73.8702 9.90574C73.8693 10.2093 73.9299 10.51 74.0484 10.7908C74.1668 11.0715 74.341 11.3268 74.5607 11.542C74.7805 11.7572 75.0417 11.9282 75.3293 12.0451C75.6169 12.162 75.9254 12.2226 76.2371 12.2235Z" fill="#1C1C1C"/>
</svg>
