<svg width="583" height="526" viewBox="0 0 583 526" fill="none" xmlns="http://www.w3.org/2000/svg">
<rect x="-53" y="37" width="567" height="411" rx="30" fill="#F8F8F8"/>
<g filter="url(#filter0_d_11236_48672)">
<rect width="415" height="40" rx="5" transform="matrix(-1 0 0 1 468 229)" fill="#5E77FE" fill-opacity="0.8"/>
<rect width="330" height="4" transform="matrix(-1 0 0 1 407 243)" fill="white"/>
<rect width="118" height="4" transform="matrix(-1 0 0 1 407 252)" fill="white"/>
<rect width="39" height="40" transform="matrix(-1 0 0 1 468 229)" fill="#5E77FE"/>
<path fill-rule="evenodd" clip-rule="evenodd" d="M443.88 242.221C441.878 242.364 440.263 243.908 440.105 245.909C440.044 246.68 440 247.469 440 248.145C440 248.82 440.044 249.609 440.105 250.38C440.263 252.381 441.878 253.925 443.88 254.068C445.489 254.183 447.383 254.289 448.892 254.289C450.401 254.289 452.294 254.183 453.903 254.068C455.905 253.925 457.52 252.381 457.678 250.38C457.739 249.609 457.783 248.82 457.783 248.145C457.783 247.469 457.739 246.68 457.678 245.909C457.52 243.908 455.905 242.364 453.903 242.221C452.294 242.106 450.401 242 448.892 242C447.383 242 445.489 242.106 443.88 242.221ZM444.916 247.133C444.357 247.133 443.904 247.586 443.904 248.145C443.904 248.704 444.357 249.157 444.916 249.157H446.145C446.704 249.157 447.157 248.704 447.157 248.145C447.157 247.586 446.704 247.133 446.145 247.133H444.916ZM449.109 247.133C448.55 247.133 448.097 247.586 448.097 248.145C448.097 248.704 448.55 249.157 449.109 249.157H452.868C453.427 249.157 453.88 248.704 453.88 248.145C453.88 247.586 453.427 247.133 452.868 247.133H449.109Z" fill="white"/>
<path opacity="0.6" d="M456.482 255.509C456.482 255.828 456.474 256.195 456.461 256.582C456.404 258.303 454.434 259.178 453.128 258.056C452.474 257.494 451.821 256.907 451.289 256.374C450.753 255.839 450.163 255.182 449.598 254.524C448.478 253.22 449.348 251.253 451.066 251.198C451.411 251.187 451.739 251.181 452.031 251.181C452.814 251.181 453.717 251.228 454.485 251.281C455.506 251.352 456.315 252.155 456.387 253.177C456.438 253.903 456.482 254.751 456.482 255.509Z" fill="#7AFF4B"/>
</g>
<rect width="315" height="40" rx="5" transform="matrix(-1 0 0 1 492 289)" fill="white"/>
<rect width="229" height="4" transform="matrix(-1 0 0 1 427 303)" fill="#D1D1D1"/>
<rect width="113" height="4" transform="matrix(-1 0 0 1 427 312)" fill="#D1D1D1"/>
<rect width="40" height="40" transform="matrix(-1 0 0 1 492 289)" fill="#FDCC7C"/>
<path fill-rule="evenodd" clip-rule="evenodd" d="M479.39 296.588C479.654 296.588 479.868 296.802 479.868 297.066L479.868 300.258C479.868 300.384 479.818 300.506 479.728 300.596C479.639 300.685 479.517 300.736 479.39 300.736L476.199 300.736C475.935 300.736 475.721 300.522 475.721 300.258C475.721 299.993 475.935 299.779 476.199 299.779L477.946 299.779C473.685 297.022 467.935 297.511 464.202 301.244C460.378 305.068 459.958 311.009 462.945 315.297C463.096 315.513 463.042 315.811 462.825 315.962C462.609 316.113 462.311 316.06 462.16 315.843C458.914 311.182 459.368 304.725 463.526 300.568C467.716 296.378 474.243 295.948 478.912 299.28L478.912 297.066C478.912 296.802 479.126 296.588 479.39 296.588ZM481.093 302.028C481.309 301.876 481.607 301.928 481.759 302.143C485.048 306.809 484.606 313.3 480.432 317.474C476.242 321.664 469.716 322.094 465.046 318.762V320.892C465.046 321.156 464.832 321.37 464.568 321.37C464.304 321.37 464.09 321.156 464.09 320.892L464.09 317.785C464.09 317.521 464.304 317.306 464.568 317.306L467.676 317.306C467.94 317.306 468.154 317.521 468.154 317.785C468.154 318.049 467.94 318.263 467.676 318.263L466.012 318.263C470.273 321.02 476.023 320.531 479.756 316.798C483.595 312.959 484.003 306.986 480.978 302.694C480.826 302.479 480.877 302.18 481.093 302.028Z" fill="black"/>
<path fill-rule="evenodd" clip-rule="evenodd" d="M466.159 308.48C465.974 308.801 465.974 309.196 466.159 309.517L468.59 313.727C468.775 314.048 469.118 314.246 469.488 314.246H474.35C474.72 314.246 475.062 314.048 475.248 313.727L477.679 309.517C477.864 309.196 477.864 308.801 477.679 308.48L475.248 304.27C475.062 303.949 474.72 303.751 474.35 303.751H469.488C469.118 303.751 468.775 303.949 468.59 304.27L466.159 308.48ZM475.028 308.998C475.028 310.716 473.636 312.108 471.919 312.108C470.202 312.108 468.809 310.716 468.809 308.998C468.809 307.281 470.202 305.889 471.919 305.889C473.636 305.889 475.028 307.281 475.028 308.998ZM465.262 310.035C464.891 309.394 464.891 308.603 465.262 307.962L467.693 303.751C468.063 303.11 468.747 302.715 469.488 302.715H474.35C475.09 302.715 475.775 303.11 476.145 303.751L478.576 307.962C478.946 308.603 478.946 309.394 478.576 310.035L476.145 314.246C475.775 314.887 475.09 315.282 474.35 315.282H469.488C468.747 315.282 468.063 314.887 467.693 314.246L465.262 310.035ZM473.992 308.998C473.992 310.143 473.064 311.072 471.919 311.072C470.774 311.072 469.846 310.143 469.846 308.998C469.846 307.854 470.774 306.925 471.919 306.925C473.064 306.925 473.992 307.854 473.992 308.998Z" fill="black"/>
<g filter="url(#filter1_d_11236_48672)">
<rect width="281" height="40" rx="5" transform="matrix(-1 0 0 1 529 169)" fill="white"/>
<rect width="229" height="4" transform="matrix(-1 0 0 1 498 183)" fill="#D1D1D1"/>
<rect width="113" height="4" transform="matrix(-1 0 0 1 498 192)" fill="#D1D1D1"/>
<rect width="40" height="40" transform="matrix(-1 0 0 1 563 169)" fill="#4ECDC4"/>
<rect width="40" height="40" transform="matrix(-1 0 0 1 563 169)" fill="#4ECDC4"/>
<path d="M553 189C553 194.523 548.523 199 543 199C537.477 199 533 194.523 533 189C533 183.477 537.477 179 543 179C548.523 179 553 183.477 553 189Z" fill="#4ECDC4"/>
<path fill-rule="evenodd" clip-rule="evenodd" d="M543 198.048C547.997 198.048 552.048 193.997 552.048 189C552.048 184.003 547.997 179.952 543 179.952C538.003 179.952 533.952 184.003 533.952 189C533.952 193.997 538.003 198.048 543 198.048ZM543 199C548.523 199 553 194.523 553 189C553 183.477 548.523 179 543 179C537.477 179 533 183.477 533 189C533 194.523 537.477 199 543 199Z" fill="black"/>
<path fill-rule="evenodd" clip-rule="evenodd" d="M538.5 190.956C538.734 190.837 539.021 190.931 539.14 191.166L538.715 191.381C539.14 191.166 539.14 191.166 539.14 191.166L539.139 191.164C539.139 191.165 539.139 191.165 539.14 191.166L539.146 191.178C539.153 191.191 539.165 191.211 539.181 191.239C539.214 191.293 539.265 191.375 539.337 191.474C539.481 191.674 539.703 191.942 540.014 192.211C540.63 192.746 541.594 193.285 543 193.285C544.407 193.285 545.371 192.746 545.987 192.211C546.297 191.942 546.52 191.674 546.664 191.474C546.735 191.375 546.787 191.293 546.82 191.239C546.836 191.211 546.847 191.191 546.854 191.178L546.861 191.166C546.862 191.165 546.862 191.164 546.862 191.164L546.861 191.166C546.98 190.931 547.266 190.837 547.501 190.956C547.736 191.074 547.83 191.361 547.711 191.595L547.286 191.381C547.711 191.595 547.711 191.595 547.711 191.595L547.71 191.596L547.71 191.598L547.708 191.601L547.704 191.609C547.7 191.616 547.695 191.625 547.689 191.636C547.677 191.659 547.66 191.689 547.637 191.727C547.592 191.803 547.525 191.907 547.436 192.031C547.258 192.278 546.987 192.605 546.611 192.931C545.855 193.587 544.676 194.238 543 194.238C541.325 194.238 540.146 193.587 539.39 192.931C539.014 192.605 538.743 192.278 538.565 192.031C538.475 191.907 538.409 191.803 538.364 191.727C538.341 191.689 538.324 191.659 538.311 191.636C538.305 191.625 538.3 191.616 538.297 191.609L538.292 191.601L538.291 191.598L538.29 191.596C538.29 191.596 538.29 191.595 538.715 191.381L538.29 191.595C538.171 191.361 538.265 191.074 538.5 190.956Z" fill="black"/>
</g>
<rect x="53" y="76" width="197" height="30" rx="15" fill="#55A2E7" fill-opacity="0.5"/>
<circle cx="82.5068" cy="89.5068" r="5.00679" stroke="black"/>
<path d="M86.3765 93.376L90.0477 97.0472" stroke="black" stroke-linecap="round"/>
<g filter="url(#filter2_d_11236_48672)">
<path fill-rule="evenodd" clip-rule="evenodd" d="M405 442H385C383.895 442 383 442.895 383 444V455.524C383 456.628 383.895 457.524 385 457.524H401.748C402.55 457.524 403.318 457.844 403.881 458.414L407 461.567V444C407 442.895 406.105 442 405 442ZM385 441H405C406.657 441 408 442.343 408 444V461.567C408 462.461 406.917 462.906 406.289 462.27L403.17 459.117C402.795 458.738 402.283 458.524 401.748 458.524H385C383.343 458.524 382 457.181 382 455.524V444C382 442.343 383.343 441 385 441Z" fill="black"/>
<path fill-rule="evenodd" clip-rule="evenodd" d="M390.5 452C390.5 451.724 390.724 451.5 391 451.5H399C399.276 451.5 399.5 451.724 399.5 452C399.5 452.276 399.276 452.5 399 452.5H391C390.724 452.5 390.5 452.276 390.5 452Z" fill="black"/>
<path fill-rule="evenodd" clip-rule="evenodd" d="M390.5 448C390.5 447.724 390.724 447.5 391 447.5H399C399.276 447.5 399.5 447.724 399.5 448C399.5 448.276 399.276 448.5 399 448.5H391C390.724 448.5 390.5 448.276 390.5 448Z" fill="black"/>
<path fill-rule="evenodd" clip-rule="evenodd" d="M395 501C422.614 501 445 478.614 445 451C445 423.386 422.614 401 395 401C367.386 401 345 423.386 345 451C345 478.614 367.386 501 395 501ZM395 481.621C411.911 481.621 425.62 467.912 425.62 451.001C425.62 434.09 411.911 420.38 395 420.38C378.089 420.38 364.38 434.09 364.38 451.001C364.38 467.912 378.089 481.621 395 481.621Z" fill="#A89ADF"/>
<path fill-rule="evenodd" clip-rule="evenodd" d="M434.927 481.102C441.25 472.728 445 462.302 445 451C445 423.386 422.614 401 395 401C394.852 401 394.705 401.001 394.558 401.002V420.384C394.705 420.381 394.852 420.38 395 420.38C411.911 420.38 425.62 434.09 425.62 451.001C425.62 458.008 423.266 464.465 419.306 469.626L434.927 481.102Z" fill="#4ECDC4"/>
</g>
<g filter="url(#filter3_d_11236_48672)">
<rect x="507.919" y="15" width="21.0811" height="78" fill="#FD8A9C"/>
<rect x="476.298" y="48.7305" width="21.0811" height="44.2703" fill="#FD8A9C"/>
<rect x="444.676" y="66.6484" width="21.0811" height="26.3514" fill="#FD8A9C"/>
</g>
<path d="M147.826 308.023C147.488 307.779 146.832 307.446 145.573 307.145C145.196 307.056 144.764 306.969 144.272 306.892C143.652 306.791 142.932 306.701 142.101 306.626L141.984 306.616C141.816 306.214 141.641 305.804 141.456 305.372C141.358 305.141 141.264 304.908 141.165 304.661C141.154 304.632 141.141 304.601 141.129 304.572C140.766 303.664 140.375 302.732 139.717 301.904C138.981 300.986 138.014 300.48 136.996 300.48C135.977 300.48 135.011 300.987 134.274 301.904C133.611 302.731 133.227 303.663 132.864 304.569L132.826 304.661C132.729 304.908 132.634 305.141 132.535 305.372C132.35 305.804 132.177 306.214 132.008 306.616L131.892 306.626C131.058 306.701 130.339 306.791 129.717 306.893C129.225 306.972 128.795 307.059 128.42 307.147C127.164 307.447 126.503 307.78 126.167 308.024C126.107 308.068 126.061 308.127 126.032 308.195C126.004 308.263 125.994 308.338 126.004 308.412L126.113 309.231C126.279 310.457 126.456 311.897 126.747 313.381C126.962 314.523 127.263 315.648 127.648 316.744C127.802 317.176 127.974 317.6 128.166 318.011C128.988 319.682 130.26 321.086 131.835 322.063C133.411 323.04 135.227 323.551 137.076 323.536C138.926 323.522 140.735 322.984 142.295 321.982C143.856 320.981 145.106 319.557 145.902 317.874C146.05 317.545 146.187 317.208 146.313 316.861C147.209 314.429 147.555 311.746 147.84 309.615L147.998 308.4C148.005 308.328 147.993 308.254 147.963 308.188C147.933 308.121 147.886 308.064 147.826 308.023L147.826 308.023ZM136.988 306.425C135.966 306.425 135.035 306.444 134.19 306.478C134.235 306.37 134.282 306.263 134.329 306.151C134.436 305.898 134.539 305.645 134.638 305.391C134.845 304.84 135.087 304.302 135.363 303.782C135.488 303.556 135.632 303.341 135.792 303.139C135.998 302.885 136.429 302.448 136.988 302.448C137.547 302.448 137.978 302.88 138.185 303.139C138.345 303.341 138.489 303.556 138.614 303.782C138.89 304.302 139.132 304.84 139.339 305.391C139.438 305.645 139.54 305.898 139.648 306.151C139.696 306.263 139.741 306.37 139.787 306.478C138.942 306.444 138.011 306.425 136.988 306.425H136.988Z" fill="#CBCBCB"/>
<path fill-rule="evenodd" clip-rule="evenodd" d="M209.305 177.352C209.046 177.63 208.897 178.058 208.897 178.613V198.381C208.897 198.937 209.046 199.365 209.314 199.633L209.384 199.692L220.461 188.616V188.367L209.375 177.293L209.305 177.352Z" fill="#CBCBCB"/>
<path fill-rule="evenodd" clip-rule="evenodd" d="M224.145 192.323L220.451 188.627V188.369L224.146 184.673L224.226 184.722L228.597 187.206C229.849 187.912 229.849 189.074 228.597 189.789L224.226 192.273C224.225 192.273 224.145 192.323 224.145 192.323Z" fill="#CBCBCB"/>
<path fill-rule="evenodd" clip-rule="evenodd" d="M224.225 192.274L220.451 188.498L209.305 199.644C209.712 200.082 210.397 200.131 211.163 199.704L224.225 192.274Z" fill="#CBCBCB"/>
<path fill-rule="evenodd" clip-rule="evenodd" d="M224.225 184.724L211.163 177.304C210.398 176.866 209.712 176.926 209.305 177.363L220.45 188.498L224.225 184.724Z" fill="#CBCBCB"/>
<path opacity="0.2" fill-rule="evenodd" clip-rule="evenodd" d="M224.146 192.192L211.173 199.563C210.448 199.98 209.801 199.951 209.385 199.573L209.314 199.643L209.385 199.702C209.801 200.079 210.448 200.109 211.173 199.693L224.235 192.272L224.146 192.192Z" fill="#CBCBCB"/>
<path opacity="0.12" fill-rule="evenodd" clip-rule="evenodd" d="M228.597 189.66L224.136 192.194L224.216 192.274L228.587 189.79C229.213 189.432 229.521 188.966 229.521 188.498C229.481 188.926 229.163 189.333 228.597 189.66Z" fill="#CBCBCB"/>
<path opacity="0.25" fill-rule="evenodd" clip-rule="evenodd" d="M211.163 177.432L228.596 187.337C229.163 187.655 229.481 188.071 229.53 188.499C229.53 188.033 229.222 187.565 228.596 187.208L211.163 177.303C209.911 176.588 208.897 177.184 208.897 178.614V178.743C208.897 177.313 209.911 176.727 211.163 177.432Z" fill="#CBCBCB"/>
<g filter="url(#filter4_d_11236_48672)">
<rect x="106" y="385" width="62" height="75" rx="5" fill="#FDCC7C"/>
<path d="M123.462 416.385L133.84 406.01L140.915 413.084L150.231 403.77" stroke="black" stroke-linecap="round"/>
<circle cx="123.462" cy="416.385" r="1.96156" fill="#FDCC7C" stroke="black"/>
<circle cx="133.923" cy="406.539" r="1.96156" fill="#FDCC7C" stroke="black"/>
<circle cx="140.693" cy="412.692" r="1.96156" fill="#FDCC7C" stroke="black"/>
<circle cx="150.538" cy="403.462" r="1.96156" fill="#FDCC7C" stroke="black"/>
<rect x="120" y="436" width="34" height="2" rx="1" fill="white"/>
<rect x="120" y="428" width="34" height="2" rx="1" fill="white"/>
<rect x="120" y="444" width="34" height="2" rx="1" fill="white"/>
</g>
<defs>
<filter id="filter0_d_11236_48672" x="33" y="214" width="455" height="80" filterUnits="userSpaceOnUse" color-interpolation-filters="sRGB">
<feFlood flood-opacity="0" result="BackgroundImageFix"/>
<feColorMatrix in="SourceAlpha" type="matrix" values="0 0 0 0 0 0 0 0 0 0 0 0 0 0 0 0 0 0 127 0" result="hardAlpha"/>
<feOffset dy="5"/>
<feGaussianBlur stdDeviation="10"/>
<feComposite in2="hardAlpha" operator="out"/>
<feColorMatrix type="matrix" values="0 0 0 0 0 0 0 0 0 0 0 0 0 0 0 0 0 0 0.1 0"/>
<feBlend mode="normal" in2="BackgroundImageFix" result="effect1_dropShadow_11236_48672"/>
<feBlend mode="normal" in="SourceGraphic" in2="effect1_dropShadow_11236_48672" result="shape"/>
</filter>
<filter id="filter1_d_11236_48672" x="228" y="154" width="355" height="80" filterUnits="userSpaceOnUse" color-interpolation-filters="sRGB">
<feFlood flood-opacity="0" result="BackgroundImageFix"/>
<feColorMatrix in="SourceAlpha" type="matrix" values="0 0 0 0 0 0 0 0 0 0 0 0 0 0 0 0 0 0 127 0" result="hardAlpha"/>
<feOffset dy="5"/>
<feGaussianBlur stdDeviation="10"/>
<feComposite in2="hardAlpha" operator="out"/>
<feColorMatrix type="matrix" values="0 0 0 0 0 0 0 0 0 0 0 0 0 0 0 0 0 0 0.1 0"/>
<feBlend mode="normal" in2="BackgroundImageFix" result="effect1_dropShadow_11236_48672"/>
<feBlend mode="normal" in="SourceGraphic" in2="effect1_dropShadow_11236_48672" result="shape"/>
</filter>
<filter id="filter2_d_11236_48672" x="325" y="386" width="140" height="140" filterUnits="userSpaceOnUse" color-interpolation-filters="sRGB">
<feFlood flood-opacity="0" result="BackgroundImageFix"/>
<feColorMatrix in="SourceAlpha" type="matrix" values="0 0 0 0 0 0 0 0 0 0 0 0 0 0 0 0 0 0 127 0" result="hardAlpha"/>
<feOffset dy="5"/>
<feGaussianBlur stdDeviation="10"/>
<feComposite in2="hardAlpha" operator="out"/>
<feColorMatrix type="matrix" values="0 0 0 0 0 0 0 0 0 0 0 0 0 0 0 0 0 0 0.1 0"/>
<feBlend mode="normal" in2="BackgroundImageFix" result="effect1_dropShadow_11236_48672"/>
<feBlend mode="normal" in="SourceGraphic" in2="effect1_dropShadow_11236_48672" result="shape"/>
</filter>
<filter id="filter3_d_11236_48672" x="424.676" y="0" width="124.324" height="118.001" filterUnits="userSpaceOnUse" color-interpolation-filters="sRGB">
<feFlood flood-opacity="0" result="BackgroundImageFix"/>
<feColorMatrix in="SourceAlpha" type="matrix" values="0 0 0 0 0 0 0 0 0 0 0 0 0 0 0 0 0 0 127 0" result="hardAlpha"/>
<feOffset dy="5"/>
<feGaussianBlur stdDeviation="10"/>
<feComposite in2="hardAlpha" operator="out"/>
<feColorMatrix type="matrix" values="0 0 0 0 0 0 0 0 0 0 0 0 0 0 0 0 0 0 0.1 0"/>
<feBlend mode="normal" in2="BackgroundImageFix" result="effect1_dropShadow_11236_48672"/>
<feBlend mode="normal" in="SourceGraphic" in2="effect1_dropShadow_11236_48672" result="shape"/>
</filter>
<filter id="filter4_d_11236_48672" x="86" y="370" width="102" height="115" filterUnits="userSpaceOnUse" color-interpolation-filters="sRGB">
<feFlood flood-opacity="0" result="BackgroundImageFix"/>
<feColorMatrix in="SourceAlpha" type="matrix" values="0 0 0 0 0 0 0 0 0 0 0 0 0 0 0 0 0 0 127 0" result="hardAlpha"/>
<feOffset dy="5"/>
<feGaussianBlur stdDeviation="10"/>
<feComposite in2="hardAlpha" operator="out"/>
<feColorMatrix type="matrix" values="0 0 0 0 0 0 0 0 0 0 0 0 0 0 0 0 0 0 0.1 0"/>
<feBlend mode="normal" in2="BackgroundImageFix" result="effect1_dropShadow_11236_48672"/>
<feBlend mode="normal" in="SourceGraphic" in2="effect1_dropShadow_11236_48672" result="shape"/>
</filter>
</defs>
</svg>
