<svg width="519" height="471" viewBox="0 0 519 471" fill="none" xmlns="http://www.w3.org/2000/svg">
<path d="M243.303 470.998C243.234 470.993 243.167 470.974 243.105 470.942C243.043 470.91 242.988 470.866 242.944 470.813C242.9 470.759 242.867 470.697 242.847 470.631C242.827 470.564 242.821 470.494 242.828 470.425L252.605 356.645C252.602 356.569 252.615 356.494 252.643 356.424C252.672 356.354 252.715 356.29 252.77 356.238C252.824 356.186 252.89 356.147 252.961 356.122C253.033 356.097 253.109 356.088 253.184 356.095C253.259 356.102 253.332 356.125 253.398 356.163C253.464 356.2 253.521 356.251 253.565 356.313C253.609 356.374 253.64 356.444 253.655 356.518C253.67 356.592 253.669 356.669 253.652 356.743L243.876 470.509C243.871 470.579 243.852 470.647 243.82 470.709C243.788 470.772 243.744 470.827 243.691 470.873C243.638 470.918 243.576 470.953 243.51 470.974C243.443 470.996 243.373 471.004 243.303 470.998Z" fill="white"/>
<path d="M336.049 469.865L314.542 398.15C314.509 398.041 314.442 397.947 314.352 397.879C314.262 397.811 314.152 397.774 314.039 397.773H300.743C300.618 397.774 300.498 397.82 300.403 397.902C300.309 397.984 300.246 398.096 300.227 398.22L289.221 469.865M397.499 469.865L359.093 345.959L242.156 357.034L232.701 469.865" stroke="#303030"/>
<path d="M464.998 188.746H273.148C269.294 188.746 266.165 185.045 266.165 180.506V75.6219L242.2 68.8624C242.091 68.8344 241.995 68.7712 241.927 68.6826C241.859 68.5941 241.822 68.4854 241.823 68.3736C241.816 68.2612 241.847 68.1498 241.91 68.0566C241.973 67.9633 242.065 67.8932 242.172 67.8568L266.165 59.6448V32.9001C266.165 28.3611 269.307 24.6602 273.148 24.6602H464.998C468.853 24.6602 471.981 28.3611 471.981 32.9001V180.506C471.995 185.045 468.853 188.746 464.998 188.746ZM244.085 68.2758L266.877 74.6862C266.987 74.7215 267.082 74.7905 267.15 74.8833C267.218 74.9762 267.254 75.088 267.255 75.2029V180.506C267.255 184.472 269.922 187.699 273.204 187.699H464.998C468.28 187.699 470.948 184.472 470.948 180.506V32.9001C470.948 28.9337 468.28 25.7076 464.998 25.7076H273.148C269.866 25.7076 267.199 28.9337 267.199 32.9001V59.994C267.199 60.1017 267.165 60.2067 267.102 60.2943C267.04 60.382 266.951 60.4479 266.849 60.4828L244.085 68.2758Z" fill="white"/>
<path d="M460.543 101.096H289.865C289.796 101.097 289.728 101.085 289.663 101.06C289.599 101.035 289.54 100.997 289.491 100.949C289.441 100.901 289.402 100.844 289.375 100.78C289.348 100.716 289.335 100.648 289.335 100.579L289.223 40.8745C289.221 40.8054 289.233 40.7367 289.258 40.6724C289.283 40.6081 289.321 40.5495 289.369 40.5C289.417 40.4505 289.475 40.4112 289.539 40.3844C289.602 40.3575 289.671 40.3437 289.74 40.3438C289.878 40.3437 290.011 40.3977 290.11 40.4942C290.209 40.5907 290.267 40.7222 290.27 40.8605L290.41 100.034H460.543C460.619 100.022 460.697 100.026 460.771 100.047C460.845 100.067 460.914 100.104 460.972 100.153C461.031 100.203 461.078 100.265 461.111 100.335C461.143 100.405 461.16 100.481 461.16 100.558C461.16 100.635 461.143 100.711 461.111 100.781C461.078 100.851 461.031 100.913 460.972 100.962C460.914 101.012 460.845 101.049 460.771 101.069C460.697 101.09 460.619 101.094 460.543 101.082V101.096Z" fill="white"/>
<path d="M136.226 190.41H59.3293C58.6256 190.41 57.9506 190.13 57.453 189.633C56.9553 189.135 56.6758 188.46 56.6758 187.756V159.224C56.6758 158.875 56.7444 158.53 56.8778 158.208C57.0111 157.886 57.2066 157.594 57.453 157.348C57.6994 157.101 57.9919 156.906 58.3139 156.772C58.6358 156.639 58.9808 156.57 59.3293 156.57H136.226C136.574 156.57 136.919 156.639 137.241 156.772C137.563 156.906 137.856 157.101 138.102 157.348C138.349 157.594 138.544 157.886 138.677 158.208C138.811 158.53 138.879 158.875 138.879 159.224V187.756C138.879 188.105 138.811 188.45 138.677 188.772C138.544 189.094 138.349 189.386 138.102 189.633C137.856 189.879 137.563 190.074 137.241 190.208C136.919 190.341 136.574 190.41 136.226 190.41ZM59.3293 157.618C58.9034 157.618 58.4948 157.787 58.1936 158.088C57.8924 158.389 57.7232 158.798 57.7232 159.224V187.756C57.7214 187.968 57.7616 188.177 57.8417 188.373C57.9217 188.569 58.04 188.747 58.1895 188.896C58.339 189.046 58.5168 189.164 58.7125 189.244C58.9082 189.324 59.1179 189.364 59.3293 189.362H136.226C136.437 189.364 136.647 189.324 136.843 189.244C137.038 189.164 137.216 189.046 137.366 188.896C137.515 188.747 137.633 188.569 137.713 188.373C137.793 188.177 137.834 187.968 137.832 187.756V159.224C137.832 158.798 137.663 158.389 137.361 158.088C137.06 157.787 136.652 157.618 136.226 157.618H59.3293Z" fill="white"/>
<path d="M203.22 195.801H56.089C54.4888 195.801 52.9542 195.165 51.8228 194.033C50.6913 192.902 50.0557 191.367 50.0557 189.767V156.347C50.0594 154.748 50.6962 153.215 51.8269 152.085C52.9575 150.954 54.49 150.317 56.089 150.313H203.22C204.819 150.317 206.352 150.954 207.482 152.085C208.613 153.215 209.25 154.748 209.253 156.347V189.767C209.253 190.56 209.097 191.344 208.794 192.076C208.491 192.808 208.047 193.473 207.486 194.033C206.926 194.594 206.261 195.038 205.529 195.341C204.797 195.644 204.012 195.801 203.22 195.801ZM56.089 151.361C54.7666 151.361 53.4985 151.886 52.5634 152.821C51.6284 153.756 51.1031 155.024 51.1031 156.347V189.767C51.1031 191.09 51.6284 192.358 52.5634 193.293C53.4985 194.228 54.7666 194.753 56.089 194.753H203.22C204.542 194.753 205.811 194.228 206.746 193.293C207.681 192.358 208.206 191.09 208.206 189.767V156.347C208.206 155.024 207.681 153.756 206.746 152.821C205.811 151.886 204.542 151.361 203.22 151.361H56.089Z" fill="white"/>
<mask id="path-7-inside-1_11366_48923" fill="white">
<path fill-rule="evenodd" clip-rule="evenodd" d="M460.916 369.792L447.939 366.233L447.852 366.144L447.852 366.185C447.843 366.174 447.838 366.169 447.838 366.169L433.518 374.163C433.518 374.163 450.335 380.049 451.008 383.84C452.935 394.99 455.406 403.8 459.519 408.858C462.306 412.272 463.648 416.586 464.778 420.215C465.138 421.371 465.476 422.458 465.832 423.424C466.32 424.66 467.259 425.665 468.46 426.237C469.66 426.808 471.033 426.903 472.3 426.502C473.334 426.231 474.255 425.641 474.936 424.817C475.616 423.993 476.02 422.976 476.09 421.91C476.09 419.216 476.09 415.229 475.946 410.638C477.639 412.636 479.06 414.305 480.062 415.468C485.133 421.29 490.683 431.199 493.645 436.813C494.861 439.167 498.031 439.594 500.734 437.874C501.458 437.474 502.022 436.839 502.335 436.075C502.648 435.31 502.69 434.461 502.455 433.669C501.807 432.122 500.882 429.953 499.776 427.472C504.095 430.112 508.239 432.655 511.103 434.412L511.393 434.59C513.269 435.741 516.14 434.732 517.499 432.455C518 431.754 518.235 430.896 518.159 430.037C518.083 429.178 517.702 428.375 517.085 427.773C516.127 426.971 514.887 425.934 513.457 424.743C513.464 424.594 513.461 424.443 513.448 424.293C513.379 423.483 513.022 422.725 512.441 422.157C511.327 421.224 509.808 419.955 508.039 418.485C508.204 418.281 508.356 418.065 508.495 417.836C508.983 417.202 509.228 416.413 509.186 415.613C509.143 414.814 508.815 414.056 508.262 413.477C506.694 412.156 504.14 410.278 501.22 408.132C494.961 403.53 487.018 397.69 483.489 393.439C480.255 389.545 460.916 369.792 460.916 369.792Z"/>
</mask>
<path fill-rule="evenodd" clip-rule="evenodd" d="M460.916 369.792L447.939 366.233L447.852 366.144L447.852 366.185C447.843 366.174 447.838 366.169 447.838 366.169L433.518 374.163C433.518 374.163 450.335 380.049 451.008 383.84C452.935 394.99 455.406 403.8 459.519 408.858C462.306 412.272 463.648 416.586 464.778 420.215C465.138 421.371 465.476 422.458 465.832 423.424C466.32 424.66 467.259 425.665 468.46 426.237C469.66 426.808 471.033 426.903 472.3 426.502C473.334 426.231 474.255 425.641 474.936 424.817C475.616 423.993 476.02 422.976 476.09 421.91C476.09 419.216 476.09 415.229 475.946 410.638C477.639 412.636 479.06 414.305 480.062 415.468C485.133 421.29 490.683 431.199 493.645 436.813C494.861 439.167 498.031 439.594 500.734 437.874C501.458 437.474 502.022 436.839 502.335 436.075C502.648 435.31 502.69 434.461 502.455 433.669C501.807 432.122 500.882 429.953 499.776 427.472C504.095 430.112 508.239 432.655 511.103 434.412L511.393 434.59C513.269 435.741 516.14 434.732 517.499 432.455C518 431.754 518.235 430.896 518.159 430.037C518.083 429.178 517.702 428.375 517.085 427.773C516.127 426.971 514.887 425.934 513.457 424.743C513.464 424.594 513.461 424.443 513.448 424.293C513.379 423.483 513.022 422.725 512.441 422.157C511.327 421.224 509.808 419.955 508.039 418.485C508.204 418.281 508.356 418.065 508.495 417.836C508.983 417.202 509.228 416.413 509.186 415.613C509.143 414.814 508.815 414.056 508.262 413.477C506.694 412.156 504.14 410.278 501.22 408.132C494.961 403.53 487.018 397.69 483.489 393.439C480.255 389.545 460.916 369.792 460.916 369.792Z" fill="white"/>
<path d="M447.939 366.233L447.225 366.932L447.414 367.126L447.675 367.197L447.939 366.233ZM460.916 369.792L461.631 369.092L461.441 368.899L461.181 368.827L460.916 369.792ZM447.852 366.144L448.567 365.444L446.818 363.657L446.852 366.157L447.852 366.144ZM447.852 366.185L447.107 366.851L448.889 368.846L448.852 366.171L447.852 366.185ZM447.838 366.169L448.583 365.502L448.049 364.906L447.351 365.296L447.838 366.169ZM433.518 374.163L433.031 373.29L431.091 374.373L433.188 375.107L433.518 374.163ZM451.008 383.84L451.993 383.669L451.992 383.665L451.008 383.84ZM459.519 408.858L458.744 409.489L458.745 409.49L459.519 408.858ZM464.778 420.215L463.823 420.512L464.778 420.215ZM465.832 423.424L464.894 423.77L464.898 423.78L464.902 423.791L465.832 423.424ZM468.46 426.237L468.03 427.14L468.03 427.14L468.46 426.237ZM472.3 426.502L472.046 425.535L472.022 425.542L471.999 425.549L472.3 426.502ZM476.09 421.91L477.088 421.976L477.09 421.943V421.91H476.09ZM475.946 410.638L476.709 409.992L474.856 407.805L474.946 410.67L475.946 410.638ZM480.062 415.468L479.305 416.121L479.308 416.125L480.062 415.468ZM493.645 436.813L494.534 436.354L494.53 436.346L493.645 436.813ZM500.734 437.874L500.251 436.998L500.224 437.013L500.197 437.03L500.734 437.874ZM502.335 436.075L501.41 435.696H501.41L502.335 436.075ZM502.455 433.669L503.413 433.384L503.398 433.333L503.377 433.284L502.455 433.669ZM499.776 427.472L500.297 426.619L497.553 424.942L498.863 427.88L499.776 427.472ZM511.103 434.412L510.58 435.264H510.58L511.103 434.412ZM511.393 434.59L511.916 433.738L511.916 433.737L511.393 434.59ZM517.499 432.455L516.685 431.873L516.661 431.907L516.64 431.943L517.499 432.455ZM518.159 430.037L517.163 430.125V430.125L518.159 430.037ZM517.085 427.773L517.783 427.057L517.756 427.03L517.727 427.006L517.085 427.773ZM513.457 424.743L512.458 424.695L512.434 425.192L512.817 425.511L513.457 424.743ZM513.448 424.293L514.445 424.208L513.448 424.293ZM512.441 422.157L513.14 421.442L513.112 421.415L513.083 421.39L512.441 422.157ZM508.039 418.485L507.261 417.857L506.643 418.624L507.4 419.254L508.039 418.485ZM508.495 417.836L507.702 417.226L507.668 417.27L507.639 417.318L508.495 417.836ZM509.186 415.613L508.187 415.667V415.667L509.186 415.613ZM508.262 413.477L508.985 412.786L508.947 412.747L508.906 412.712L508.262 413.477ZM501.22 408.132L501.813 407.326L501.22 408.132ZM483.489 393.439L484.259 392.8L484.259 392.8L483.489 393.439ZM447.675 367.197L460.652 370.756L461.181 368.827L448.204 365.268L447.675 367.197ZM447.137 366.843L447.225 366.932L448.654 365.533L448.567 365.444L447.137 366.843ZM448.852 366.171L448.852 366.13L446.852 366.157L446.853 366.199L448.852 366.171ZM448.598 365.519C448.593 365.513 448.59 365.509 448.587 365.506C448.586 365.505 448.585 365.504 448.584 365.503C448.584 365.503 448.584 365.502 448.583 365.502C448.583 365.502 448.583 365.502 448.583 365.502C448.583 365.502 448.583 365.502 448.583 365.502C448.583 365.502 448.583 365.502 448.583 365.502C448.583 365.502 448.583 365.502 448.583 365.502C448.583 365.502 448.583 365.502 448.583 365.502C448.583 365.502 448.583 365.502 448.583 365.502C448.583 365.502 448.583 365.502 447.838 366.169C447.093 366.836 447.093 366.836 447.093 366.836C447.093 366.836 447.093 366.836 447.093 366.836C447.093 366.836 447.093 366.836 447.093 366.836C447.093 366.836 447.093 366.836 447.093 366.836C447.093 366.836 447.093 366.836 447.093 366.836C447.093 366.836 447.093 366.836 447.093 366.836C447.093 366.836 447.093 366.836 447.093 366.836C447.094 366.836 447.094 366.837 447.094 366.837C447.095 366.837 447.095 366.838 447.097 366.84C447.099 366.842 447.102 366.846 447.107 366.851L448.598 365.519ZM447.351 365.296L433.031 373.29L434.006 375.037L448.326 367.042L447.351 365.296ZM433.518 374.163C433.188 375.107 433.188 375.107 433.188 375.107C433.188 375.107 433.188 375.107 433.188 375.107C433.189 375.108 433.189 375.108 433.19 375.108C433.192 375.109 433.195 375.11 433.198 375.111C433.206 375.114 433.218 375.118 433.233 375.123C433.264 375.134 433.31 375.151 433.371 375.172C433.492 375.215 433.671 375.28 433.899 375.363C434.356 375.53 435.01 375.772 435.797 376.076C437.373 376.682 439.477 377.529 441.597 378.491C443.725 379.456 445.837 380.523 447.447 381.567C448.253 382.091 448.901 382.588 449.356 383.043C449.832 383.519 449.993 383.845 450.023 384.014L451.992 383.665C451.854 382.887 451.342 382.2 450.77 381.628C450.176 381.035 449.401 380.451 448.535 379.89C446.802 378.765 444.584 377.65 442.424 376.669C440.256 375.686 438.114 374.824 436.515 374.209C435.716 373.901 435.051 373.654 434.585 373.484C434.352 373.399 434.169 373.333 434.043 373.289C433.981 373.266 433.932 373.249 433.9 373.238C433.883 373.232 433.871 373.227 433.862 373.224C433.858 373.223 433.854 373.222 433.852 373.221C433.851 373.22 433.85 373.22 433.85 373.22C433.849 373.22 433.849 373.22 433.849 373.22C433.849 373.22 433.848 373.22 433.518 374.163ZM450.022 384.01C451.947 395.143 454.445 404.203 458.744 409.489L460.295 408.227C456.367 403.396 453.923 394.837 451.993 383.669L450.022 384.01ZM458.745 409.49C461.389 412.73 462.684 416.853 463.823 420.512L465.733 419.918C464.613 416.319 463.223 411.814 460.294 408.225L458.745 409.49ZM463.823 420.512C464.181 421.662 464.527 422.775 464.894 423.77L466.77 423.078C466.425 422.141 466.094 421.081 465.733 419.918L463.823 420.512ZM464.902 423.791C465.483 425.263 466.601 426.46 468.03 427.14L468.89 425.334C467.918 424.871 467.158 424.057 466.762 423.056L464.902 423.791ZM468.03 427.14C469.459 427.82 471.093 427.933 472.602 427.456L471.999 425.549C470.972 425.873 469.861 425.797 468.89 425.334L468.03 427.14ZM472.554 427.47C473.79 427.145 474.893 426.44 475.707 425.454L474.164 424.181C473.618 424.843 472.877 425.317 472.046 425.535L472.554 427.47ZM475.707 425.454C476.52 424.468 477.004 423.252 477.088 421.976L475.093 421.844C475.036 422.701 474.711 423.518 474.164 424.181L475.707 425.454ZM477.09 421.91C477.09 419.215 477.09 415.214 476.945 410.607L474.946 410.67C475.09 415.243 475.09 419.216 475.09 421.91H477.09ZM480.82 414.816C479.821 413.656 478.401 411.989 476.709 409.992L475.183 411.285C476.876 413.283 478.3 414.955 479.305 416.121L480.82 414.816ZM494.53 436.346C491.571 430.739 485.974 420.732 480.817 414.812L479.308 416.125C484.293 421.848 489.795 431.658 492.761 437.28L494.53 436.346ZM500.197 437.03C497.78 438.569 495.378 437.988 494.534 436.354L492.757 437.272C494.345 440.346 498.282 440.62 501.271 438.717L500.197 437.03ZM501.41 435.696C501.183 436.25 500.774 436.709 500.251 436.998L501.218 438.749C502.141 438.239 502.862 437.429 503.261 436.454L501.41 435.696ZM501.496 433.955C501.667 434.528 501.636 435.142 501.41 435.696L503.261 436.454C503.66 435.478 503.714 434.395 503.413 433.384L501.496 433.955ZM498.863 427.88C499.965 430.352 500.887 432.513 501.532 434.055L503.377 433.284C502.727 431.73 501.799 429.554 500.689 427.065L498.863 427.88ZM511.626 433.559C508.762 431.802 504.618 429.259 500.297 426.619L499.254 428.326C503.573 430.965 507.716 433.507 510.58 435.264L511.626 433.559ZM511.916 433.737L511.626 433.559L510.58 435.264L510.87 435.442L511.916 433.737ZM516.64 431.943C516.084 432.876 515.215 433.547 514.309 433.864C513.398 434.183 512.538 434.12 511.916 433.738L510.87 435.442C512.123 436.211 513.637 436.219 514.97 435.752C516.309 435.283 517.555 434.312 518.357 432.968L516.64 431.943ZM517.163 430.125C517.217 430.746 517.048 431.366 516.685 431.873L518.312 433.037C518.953 432.142 519.252 431.046 519.155 429.949L517.163 430.125ZM516.386 428.488C516.832 428.924 517.108 429.504 517.163 430.125L519.155 429.949C519.058 428.852 518.571 427.826 517.783 427.057L516.386 428.488ZM512.817 425.511C514.246 426.702 515.486 427.738 516.443 428.539L517.727 427.006C516.769 426.204 515.528 425.166 514.097 423.974L512.817 425.511ZM512.452 424.378C512.461 424.484 512.463 424.59 512.458 424.695L514.455 424.791C514.465 424.597 514.461 424.403 514.445 424.208L512.452 424.378ZM511.742 422.872C512.151 423.273 512.403 423.807 512.452 424.378L514.445 424.208C514.355 423.16 513.892 422.178 513.14 421.442L511.742 422.872ZM507.4 419.254C509.167 420.723 510.685 421.992 511.799 422.924L513.083 421.39C511.968 420.457 510.448 419.187 508.679 417.716L507.4 419.254ZM507.639 417.318C507.525 417.508 507.398 417.688 507.261 417.857L508.818 419.113C509.01 418.875 509.188 418.621 509.35 418.354L507.639 417.318ZM508.187 415.667C508.217 416.228 508.045 416.781 507.702 417.226L509.287 418.446C509.921 417.622 510.24 416.598 510.184 415.56L508.187 415.667ZM507.539 414.168C507.927 414.574 508.157 415.106 508.187 415.667L510.184 415.56C510.129 414.521 509.703 413.537 508.985 412.786L507.539 414.168ZM500.628 408.937C503.561 411.094 506.081 412.947 507.617 414.241L508.906 412.712C507.306 411.364 504.719 409.463 501.813 407.326L500.628 408.937ZM482.72 394.077C484.554 396.288 487.492 398.864 490.706 401.435C493.934 404.016 497.501 406.639 500.628 408.937L501.813 407.326C498.68 405.023 495.146 402.425 491.955 399.873C488.751 397.311 485.953 394.842 484.259 392.8L482.72 394.077ZM460.916 369.792C460.202 370.491 460.202 370.491 460.202 370.492C460.202 370.492 460.202 370.492 460.202 370.492C460.203 370.493 460.204 370.494 460.205 370.495C460.207 370.497 460.211 370.501 460.215 370.506C460.225 370.515 460.239 370.529 460.257 370.548C460.294 370.585 460.348 370.641 460.419 370.714C460.561 370.859 460.771 371.073 461.038 371.347C461.573 371.894 462.341 372.681 463.272 373.637C465.135 375.549 467.652 378.139 470.271 380.85C475.526 386.292 481.134 392.168 482.72 394.078L484.259 392.8C482.611 390.816 476.932 384.869 471.709 379.46C469.088 376.747 466.569 374.155 464.705 372.241C463.772 371.285 463.004 370.497 462.469 369.949C462.201 369.675 461.992 369.461 461.849 369.315C461.778 369.243 461.723 369.187 461.686 369.149C461.668 369.13 461.654 369.116 461.645 369.107C461.64 369.102 461.637 369.098 461.634 369.096C461.633 369.095 461.632 369.094 461.632 369.093C461.631 369.093 461.631 369.093 461.631 369.092C461.631 369.092 461.631 369.092 460.916 369.792Z" fill="black" mask="url(#path-7-inside-1_11366_48923)"/>
<path d="M225.719 272.542C225.627 272.539 225.536 272.515 225.454 272.473C225.395 272.438 225.343 272.392 225.302 272.337C225.261 272.283 225.231 272.221 225.214 272.154C225.197 272.088 225.194 272.019 225.204 271.952C225.214 271.884 225.237 271.819 225.272 271.76C225.454 271.425 244.126 238.982 228.415 212.028C228.343 211.908 228.321 211.764 228.355 211.627C228.389 211.491 228.476 211.374 228.596 211.302C228.719 211.235 228.863 211.218 228.998 211.254C229.134 211.29 229.25 211.378 229.322 211.497C245.341 238.996 226.362 271.956 226.18 272.277C226.132 272.357 226.065 272.423 225.984 272.47C225.903 272.516 225.812 272.541 225.719 272.542Z" fill="white"/>
<path d="M181.88 246.007H76.9399C74.4643 246.007 72.09 245.025 70.3382 243.276C68.5864 241.526 67.6004 239.154 67.5967 236.678V225.17C67.6004 222.695 68.5864 220.322 70.3382 218.572C72.09 216.823 74.4643 215.841 76.9399 215.841H181.894C184.369 215.841 186.744 216.823 188.496 218.572C190.247 220.322 191.233 222.695 191.237 225.17V236.678C191.235 237.905 190.992 239.12 190.521 240.252C190.049 241.385 189.36 242.414 188.491 243.281C187.622 244.147 186.591 244.834 185.457 245.301C184.322 245.769 183.107 246.009 181.88 246.007ZM76.9399 216.902C74.7421 216.902 72.6342 217.774 71.0788 219.327C69.5235 220.88 68.6478 222.986 68.6441 225.184V236.692C68.6478 238.89 69.5235 240.996 71.0788 242.549C72.6342 244.102 74.7421 244.974 76.9399 244.974H181.894C184.092 244.974 186.2 244.102 187.755 242.549C189.31 240.996 190.186 238.89 190.19 236.692V225.184C190.186 222.986 189.31 220.88 187.755 219.327C186.2 217.774 184.092 216.902 181.894 216.902H76.9399Z" fill="white"/>
<g filter="url(#filter0_d_11366_48923)">
<rect x="50" y="15" width="176" height="30" rx="4" fill="white"/>
<rect x="198" y="20" width="20" height="20" rx="1" fill="#FD8A9C"/>
<circle cx="208" cy="27" r="2" stroke="white"/>
<path d="M204 35C204 32.7909 205.791 31 208 31C210.209 31 212 32.7909 212 35H204Z" stroke="white"/>
<rect x="164" y="24" width="26" height="4" rx="1" fill="#FD8A9C"/>
<rect x="64" y="32" width="126" height="4" rx="1" fill="#FD8A9C"/>
</g>
<g filter="url(#filter1_d_11366_48923)">
<rect x="20" y="55" width="176" height="30" rx="4" fill="white"/>
<rect x="168" y="60" width="20" height="20" rx="1" fill="#4ECDC4"/>
<circle cx="178" cy="67" r="2" stroke="white"/>
<path d="M174 75C174 72.7909 175.791 71 178 71C180.209 71 182 72.7909 182 75H174Z" stroke="white"/>
<rect x="134" y="64" width="26" height="4" rx="1" fill="#4ECDC4"/>
<rect x="34" y="72" width="126" height="4" rx="1" fill="#4ECDC4"/>
</g>
<g filter="url(#filter2_d_11366_48923)">
<rect x="50" y="95" width="176" height="30" rx="4" fill="white"/>
<rect x="198" y="100" width="20" height="20" rx="1" fill="#A89ADF"/>
<circle cx="208" cy="107" r="2" stroke="white"/>
<path d="M204 115C204 112.791 205.791 111 208 111C210.209 111 212 112.791 212 115H204Z" stroke="white"/>
<rect x="164" y="104" width="26" height="4" rx="1" fill="#A89ADF"/>
<rect x="64" y="112" width="126" height="4" rx="1" fill="#A89ADF"/>
</g>
<g filter="url(#filter3_d_11366_48923)">
<rect x="20" y="135" width="176" height="30" rx="4" fill="white"/>
<rect x="168" y="140" width="20" height="20" rx="1" fill="#C4C8DE"/>
<circle cx="178" cy="147" r="2" stroke="white"/>
<path d="M174 155C174 152.791 175.791 151 178 151C180.209 151 182 152.791 182 155H174Z" stroke="white"/>
<rect x="134" y="144" width="26" height="4" rx="1" fill="#C4C8DE"/>
<rect x="34" y="152" width="126" height="4" rx="1" fill="#C4C8DE"/>
</g>
<path d="M260.817 160.457L271.625 200.619L293.203 192.282" stroke="black"/>
<path d="M275.427 159.001C253.744 166.035 244.674 152.242 245.239 143.032C245.865 133.014 257.393 110.483 273.167 106.129C288.941 101.775 305.738 113.117 305.738 113.117L309.048 118.846L311.412 120.265" stroke="#303030" stroke-linecap="round"/>
<path d="M240.146 266.733H240.02C239.885 266.697 239.77 266.609 239.7 266.489C239.629 266.369 239.609 266.226 239.643 266.09C243.658 251.246 243.658 235.601 239.643 220.757C238.077 214.782 235.615 209.08 232.339 203.844C232.289 203.788 232.251 203.722 232.229 203.65C232.206 203.579 232.199 203.503 232.208 203.429C232.217 203.354 232.242 203.282 232.281 203.218C232.319 203.154 232.371 203.098 232.433 203.056C232.495 203.013 232.565 202.984 232.638 202.97C232.712 202.956 232.788 202.958 232.861 202.976C232.934 202.994 233.002 203.027 233.061 203.073C233.121 203.119 233.169 203.177 233.204 203.244C236.542 208.58 239.051 214.39 240.648 220.478C244.715 235.5 244.715 251.333 240.648 266.356C240.616 266.464 240.549 266.559 240.459 266.627C240.368 266.695 240.259 266.732 240.146 266.733Z" fill="white"/>
<path d="M363.089 279.861C362.954 279.861 362.825 279.809 362.728 279.715C362.632 279.621 362.576 279.493 362.572 279.358L359.597 230.966C359.618 230.842 359.681 230.729 359.777 230.648C359.873 230.566 359.995 230.521 360.121 230.521C360.247 230.521 360.369 230.566 360.464 230.648C360.56 230.729 360.624 230.842 360.645 230.966L363.619 279.358C363.623 279.497 363.573 279.631 363.479 279.733C363.385 279.835 363.255 279.896 363.117 279.903L363.089 279.861Z" fill="white"/>
<path d="M130.262 260.505C130.126 260.502 129.996 260.447 129.899 260.351C129.849 260.303 129.81 260.245 129.783 260.182C129.757 260.118 129.743 260.05 129.743 259.981C129.743 259.912 129.757 259.844 129.783 259.78C129.81 259.716 129.849 259.659 129.899 259.611L147.552 242.195C147.651 242.099 147.784 242.045 147.922 242.045C148.06 242.045 148.193 242.099 148.292 242.195C148.341 242.243 148.381 242.301 148.407 242.365C148.434 242.428 148.448 242.496 148.448 242.565C148.448 242.634 148.434 242.703 148.407 242.766C148.381 242.83 148.341 242.887 148.292 242.935L130.639 260.337C130.592 260.39 130.533 260.432 130.468 260.461C130.403 260.49 130.333 260.505 130.262 260.505Z" fill="white"/>
<g opacity="0.35">
<path d="M147.802 157.059C171.358 157.059 190.454 137.963 190.454 114.407C190.454 90.8508 171.358 71.7549 147.802 71.7549C124.246 71.7549 105.15 90.8508 105.15 114.407C105.15 137.963 124.246 157.059 147.802 157.059Z" fill="white"/>
</g>
<path d="M67.1638 183.607L110.221 140.55C103.512 131.404 100.298 120.159 101.161 108.849C102.024 97.5391 106.908 86.9118 114.927 78.8904C121.351 72.4629 129.483 68.0134 138.36 66.0702C147.237 64.1269 156.484 64.7715 165.006 67.9273C173.527 71.0832 180.964 76.6178 186.433 83.8741C191.903 91.1305 195.176 99.8039 195.863 108.865C196.55 117.926 194.623 126.993 190.31 134.992C185.998 142.99 179.481 149.583 171.533 153.988C163.585 158.393 154.54 160.425 145.472 159.843C136.404 159.26 127.693 156.088 120.374 150.703L77.359 193.76C77.0018 194.121 76.5766 194.408 76.1079 194.603C75.6393 194.799 75.1365 194.9 74.6286 194.9C74.1208 194.9 73.618 194.799 73.1493 194.603C72.6806 194.408 72.2554 194.121 71.8983 193.76L67.1638 189.082C66.4406 188.354 66.0347 187.37 66.0347 186.344C66.0347 185.319 66.4406 184.334 67.1638 183.607ZM175.274 139.237C181.451 133.024 185.283 124.861 186.117 116.14C186.951 107.419 184.735 98.678 179.848 91.4066C174.961 84.1352 167.704 78.7829 159.314 76.2614C150.924 73.7398 141.918 74.205 133.832 77.5777C125.747 80.9503 119.08 87.0218 114.968 94.7581C110.856 102.494 109.553 111.417 111.282 120.006C113.01 128.595 117.662 136.319 124.446 141.863C131.23 147.407 139.726 150.427 148.487 150.41C153.477 150.42 158.419 149.438 163.025 147.52C167.631 145.601 171.809 142.786 175.316 139.237H175.274Z" fill="#FD0100"/>
<path d="M67.1643 183.61L110.221 140.553C103.512 131.407 100.298 120.162 101.162 108.852C102.025 97.542 106.908 86.9148 114.928 78.8933C121.351 72.4658 129.484 68.0164 138.36 66.0731C147.237 64.1299 156.485 64.7744 165.006 67.9303C173.527 71.0861 180.964 76.6207 186.434 83.8771C191.903 91.1334 195.176 99.8068 195.863 108.868C196.551 117.928 194.623 126.996 190.311 134.995C185.998 142.993 179.481 149.586 171.534 153.991C163.586 158.396 154.541 160.428 145.473 159.845C136.405 159.263 127.694 156.091 120.375 150.706L77.3594 193.763C77.0023 194.124 76.5771 194.411 76.1084 194.606C75.6398 194.802 75.1369 194.903 74.6291 194.903C74.1213 194.903 73.6185 194.802 73.1498 194.606C72.6811 194.411 72.2559 194.124 71.8988 193.763L67.1643 189.085C66.4411 188.357 66.0352 187.373 66.0352 186.347C66.0352 185.321 66.4411 184.337 67.1643 183.61ZM175.275 139.24C181.451 133.027 185.283 124.864 186.117 116.143C186.951 107.422 184.736 98.6809 179.849 91.4095C174.962 84.1381 167.705 78.7858 159.314 76.2643C150.924 73.7428 141.919 74.2079 133.833 77.5806C125.747 80.9532 119.08 87.0248 114.968 94.761C110.857 102.497 109.554 111.42 111.282 120.009C113.01 128.598 117.663 136.322 124.447 141.866C131.231 147.41 139.727 150.43 148.488 150.413C153.477 150.423 158.419 149.441 163.025 147.523C167.631 145.604 171.809 142.789 175.317 139.24H175.275Z" fill="#303030"/>
<mask id="path-43-inside-2_11366_48923" fill="white">
<path fill-rule="evenodd" clip-rule="evenodd" d="M108.894 142.211L112.418 148.471C113.591 148.485 114.647 148.865 115.541 149.697C123.977 157.546 123.837 180.157 123.837 180.157C123.837 180.157 102.022 199.221 96.6734 193.774C91.763 188.774 85.4756 176.477 84.4776 174.494C83.7842 173.308 83.0641 171.994 82.5563 170.858C81.4206 168.316 80.1463 164.084 80.1463 164.084C79.9067 163.642 79.7613 163.154 79.7193 162.653C79.6773 162.151 79.7396 161.646 79.9022 161.17C80.0649 160.694 80.3245 160.257 80.6645 159.886C81.0046 159.515 81.4178 159.218 81.8781 159.015L83.0093 158.512C83.4233 158.318 83.8717 158.208 84.3285 158.188C84.343 158.188 84.3576 158.187 84.3721 158.187C84.2551 157.91 84.1678 157.62 84.1124 157.323C83.9966 156.701 84.0229 156.062 84.1895 155.452C84.3561 154.842 84.6587 154.277 85.0744 153.801C85.4902 153.324 86.0084 152.948 86.5902 152.701L87.6097 152.309C88.6395 151.959 89.7588 151.977 90.7772 152.359C91.0262 152.452 91.2655 152.566 91.4928 152.698L91.3245 152.435C90.72 151.499 90.4605 150.382 90.5904 149.276C90.7204 148.17 91.2319 147.143 92.0367 146.374L92.3719 146.038C92.9117 145.532 93.5578 145.152 94.2631 144.927C94.9683 144.702 95.7148 144.638 96.4482 144.738C97.1816 144.838 97.8834 145.101 98.5022 145.507C98.7572 145.675 98.9955 145.865 99.2144 146.075C99.1559 145.884 99.1084 145.69 99.0721 145.494C98.9433 144.794 98.9608 144.075 99.1234 143.382C99.2861 142.69 99.5905 142.038 100.017 141.469C100.444 140.899 100.985 140.425 101.604 140.074C102.857 139.404 104.323 139.252 105.686 139.651C107.05 140.051 108.202 140.97 108.894 142.211Z"/>
</mask>
<path fill-rule="evenodd" clip-rule="evenodd" d="M108.894 142.211L112.418 148.471C113.591 148.485 114.647 148.865 115.541 149.697C123.977 157.546 123.837 180.157 123.837 180.157C123.837 180.157 102.022 199.221 96.6734 193.774C91.763 188.774 85.4756 176.477 84.4776 174.494C83.7842 173.308 83.0641 171.994 82.5563 170.858C81.4206 168.316 80.1463 164.084 80.1463 164.084C79.9067 163.642 79.7613 163.154 79.7193 162.653C79.6773 162.151 79.7396 161.646 79.9022 161.17C80.0649 160.694 80.3245 160.257 80.6645 159.886C81.0046 159.515 81.4178 159.218 81.8781 159.015L83.0093 158.512C83.4233 158.318 83.8717 158.208 84.3285 158.188C84.343 158.188 84.3576 158.187 84.3721 158.187C84.2551 157.91 84.1678 157.62 84.1124 157.323C83.9966 156.701 84.0229 156.062 84.1895 155.452C84.3561 154.842 84.6587 154.277 85.0744 153.801C85.4902 153.324 86.0084 152.948 86.5902 152.701L87.6097 152.309C88.6395 151.959 89.7588 151.977 90.7772 152.359C91.0262 152.452 91.2655 152.566 91.4928 152.698L91.3245 152.435C90.72 151.499 90.4605 150.382 90.5904 149.276C90.7204 148.17 91.2319 147.143 92.0367 146.374L92.3719 146.038C92.9117 145.532 93.5578 145.152 94.2631 144.927C94.9683 144.702 95.7148 144.638 96.4482 144.738C97.1816 144.838 97.8834 145.101 98.5022 145.507C98.7572 145.675 98.9955 145.865 99.2144 146.075C99.1559 145.884 99.1084 145.69 99.0721 145.494C98.9433 144.794 98.9608 144.075 99.1234 143.382C99.2861 142.69 99.5905 142.038 100.017 141.469C100.444 140.899 100.985 140.425 101.604 140.074C102.857 139.404 104.323 139.252 105.686 139.651C107.05 140.051 108.202 140.97 108.894 142.211Z" fill="white"/>
<path d="M112.418 148.471L111.547 148.961L111.829 149.464L112.406 149.471L112.418 148.471ZM108.894 142.211L108.021 142.698L108.023 142.702L108.894 142.211ZM115.541 149.697L114.86 150.43V150.43L115.541 149.697ZM123.837 180.157L124.495 180.91L124.834 180.614L124.837 180.163L123.837 180.157ZM96.6734 193.774L97.3869 193.073L96.6734 193.774ZM84.4776 174.494L85.3708 174.044L85.3567 174.016L85.3408 173.989L84.4776 174.494ZM82.5563 170.858L83.4693 170.45H83.4693L82.5563 170.858ZM80.1463 164.084L81.1038 163.796L81.0743 163.698L81.0256 163.608L80.1463 164.084ZM79.7193 162.653L78.7227 162.736V162.736L79.7193 162.653ZM80.6645 159.886L81.4017 160.561H81.4017L80.6645 159.886ZM81.8781 159.015L82.2823 159.929L82.2842 159.928L81.8781 159.015ZM83.0093 158.512L83.4155 159.426L83.4247 159.421L83.4339 159.417L83.0093 158.512ZM84.3285 158.188L84.2863 157.189L84.2863 157.189L84.3285 158.188ZM84.3721 158.187L84.4017 159.186L85.8621 159.143L85.2932 157.797L84.3721 158.187ZM84.1124 157.323L85.0955 157.14H85.0955L84.1124 157.323ZM85.0744 153.801L84.3209 153.143L84.3209 153.143L85.0744 153.801ZM86.5902 152.701L86.232 151.767L86.2151 151.773L86.1985 151.78L86.5902 152.701ZM87.6097 152.309L87.2878 151.363L87.2695 151.369L87.2516 151.376L87.6097 152.309ZM90.7772 152.359L90.4261 153.295H90.4261L90.7772 152.359ZM91.4928 152.698L90.9896 153.562L92.3354 152.16L91.4928 152.698ZM91.3245 152.435L92.1672 151.896L92.1644 151.892L91.3245 152.435ZM90.5904 149.276L91.5836 149.393V149.393L90.5904 149.276ZM92.0367 146.374L92.728 147.096L92.736 147.088L92.7438 147.081L92.0367 146.374ZM92.3719 146.038L91.6876 145.309L91.6761 145.32L91.6648 145.331L92.3719 146.038ZM94.2631 144.927L94.567 145.88L94.567 145.88L94.2631 144.927ZM98.5022 145.507L99.0509 144.671L98.5022 145.507ZM99.2144 146.075L98.5224 146.796L101.301 149.46L100.17 145.781L99.2144 146.075ZM99.0721 145.494L98.0887 145.675V145.675L99.0721 145.494ZM99.1234 143.382L98.1499 143.154V143.154L99.1234 143.382ZM100.017 141.469L99.2174 140.869L99.2174 140.869L100.017 141.469ZM101.604 140.074L101.132 139.193L101.122 139.198L101.112 139.204L101.604 140.074ZM105.686 139.651L105.405 140.611L105.686 139.651ZM113.289 147.98L109.766 141.721L108.023 142.702L111.547 148.961L113.289 147.98ZM116.223 148.965C115.132 147.95 113.832 147.488 112.43 147.471L112.406 149.471C113.35 149.482 114.162 149.78 114.86 150.43L116.223 148.965ZM123.837 180.157C124.837 180.163 124.837 180.163 124.837 180.163C124.837 180.163 124.837 180.162 124.837 180.162C124.837 180.161 124.837 180.159 124.837 180.158C124.837 180.155 124.837 180.15 124.837 180.144C124.837 180.132 124.837 180.115 124.837 180.092C124.837 180.047 124.837 179.981 124.837 179.895C124.836 179.723 124.833 179.472 124.826 179.15C124.814 178.507 124.786 177.582 124.726 176.449C124.606 174.183 124.357 171.077 123.841 167.719C123.325 164.364 122.539 160.732 121.336 157.426C120.137 154.132 118.496 151.081 116.223 148.965L114.86 150.43C116.805 152.239 118.309 154.957 119.457 158.11C120.6 161.251 121.36 164.743 121.864 168.023C122.368 171.298 122.611 174.335 122.729 176.554C122.787 177.663 122.814 178.566 122.827 179.19C122.833 179.502 122.836 179.744 122.837 179.908C122.837 179.989 122.837 180.051 122.837 180.092C122.837 180.112 122.837 180.128 122.837 180.138C122.837 180.143 122.837 180.146 122.837 180.148C122.837 180.149 122.837 180.15 122.837 180.151C122.837 180.151 122.837 180.151 122.837 180.151C122.837 180.151 122.837 180.151 123.837 180.157ZM95.9599 194.475C96.8721 195.403 98.0908 195.753 99.3763 195.753C100.649 195.753 102.064 195.414 103.517 194.884C106.428 193.821 109.735 191.896 112.816 189.84C115.91 187.776 118.828 185.544 120.97 183.832C122.041 182.975 122.921 182.246 123.533 181.731C123.839 181.473 124.079 181.269 124.242 181.129C124.324 181.059 124.387 181.004 124.429 180.967C124.451 180.949 124.467 180.935 124.478 180.925C124.483 180.921 124.488 180.917 124.49 180.914C124.492 180.913 124.493 180.912 124.494 180.911C124.494 180.911 124.495 180.911 124.495 180.911C124.495 180.91 124.495 180.91 123.837 180.157C123.179 179.404 123.179 179.404 123.179 179.404C123.179 179.404 123.179 179.404 123.179 179.405C123.178 179.405 123.177 179.406 123.176 179.407C123.174 179.409 123.17 179.412 123.165 179.417C123.155 179.425 123.14 179.438 123.12 179.456C123.079 179.491 123.019 179.543 122.939 179.611C122.781 179.747 122.546 179.947 122.246 180.2C121.644 180.707 120.777 181.425 119.721 182.27C117.605 183.962 114.735 186.155 111.706 188.176C108.665 190.205 105.516 192.025 102.831 193.005C101.487 193.495 100.321 193.753 99.3763 193.753C98.4451 193.753 97.812 193.506 97.3869 193.073L95.9599 194.475ZM83.5843 174.943C84.0879 175.944 85.9199 179.535 88.2453 183.508C90.5553 187.454 93.4087 191.877 95.9599 194.475L97.3869 193.073C95.0277 190.671 92.2822 186.445 89.9714 182.497C87.676 178.576 85.8652 175.026 85.3708 174.044L83.5843 174.943ZM81.6433 171.266C82.1732 172.452 82.9146 173.802 83.6143 174.998L85.3408 173.989C84.6538 172.814 83.955 171.537 83.4693 170.45L81.6433 171.266ZM80.1463 164.084C79.1888 164.372 79.1888 164.373 79.1888 164.373C79.1888 164.373 79.1888 164.373 79.1889 164.373C79.1889 164.373 79.189 164.373 79.1891 164.374C79.1893 164.374 79.1895 164.375 79.1899 164.376C79.1905 164.378 79.1915 164.382 79.1928 164.386C79.1954 164.394 79.1992 164.407 79.2041 164.423C79.214 164.456 79.2285 164.503 79.2473 164.565C79.285 164.687 79.3398 164.865 79.4092 165.085C79.5478 165.526 79.7445 166.14 79.9771 166.835C80.4395 168.216 81.0546 169.948 81.6433 171.266L83.4693 170.45C82.9224 169.226 82.3325 167.571 81.8737 166.2C81.6458 165.52 81.4529 164.917 81.3171 164.485C81.2492 164.269 81.1957 164.096 81.1592 163.977C81.141 163.918 81.127 163.872 81.1177 163.841C81.113 163.826 81.1095 163.814 81.1071 163.807C81.106 163.803 81.1051 163.8 81.1046 163.798C81.1043 163.797 81.1041 163.797 81.104 163.796C81.1039 163.796 81.1039 163.796 81.1038 163.796C81.1038 163.796 81.1038 163.796 81.1038 163.796C81.1038 163.796 81.1038 163.796 80.1463 164.084ZM78.7227 162.736C78.7763 163.375 78.9615 163.996 79.2669 164.56L81.0256 163.608C80.8518 163.287 80.7463 162.933 80.7158 162.569L78.7227 162.736ZM78.9559 160.847C78.7486 161.454 78.6692 162.097 78.7227 162.736L80.7158 162.569C80.6853 162.205 80.7305 161.839 80.8486 161.493L78.9559 160.847ZM79.9273 159.21C79.494 159.683 79.1632 160.24 78.9559 160.847L80.8486 161.493C80.9666 161.148 81.1549 160.83 81.4017 160.561L79.9273 159.21ZM81.4738 158.1C80.8872 158.359 80.3607 158.737 79.9273 159.21L81.4017 160.561C81.6485 160.292 81.9483 160.077 82.2823 159.929L81.4738 158.1ZM82.6032 157.598L81.4719 158.101L82.2842 159.928L83.4155 159.426L82.6032 157.598ZM84.2863 157.189C83.697 157.214 83.1186 157.356 82.5847 157.606L83.4339 159.417C83.7279 159.279 84.0463 159.201 84.3707 159.188L84.2863 157.189ZM84.3425 157.187C84.3239 157.188 84.3051 157.189 84.2863 157.189L84.3706 159.188C84.3809 159.187 84.3913 159.187 84.4017 159.186L84.3425 157.187ZM83.1293 157.506C83.198 157.875 83.3061 158.233 83.4511 158.576L85.2932 157.797C85.2041 157.587 85.1377 157.366 85.0955 157.14L83.1293 157.506ZM83.2249 155.188C83.0185 155.944 82.9858 156.736 83.1293 157.506L85.0955 157.14C85.0073 156.667 85.0274 156.179 85.1542 155.715L83.2249 155.188ZM84.3209 153.143C83.806 153.733 83.4312 154.433 83.2249 155.188L85.1542 155.715C85.281 155.251 85.5114 154.821 85.8279 154.458L84.3209 153.143ZM86.1985 151.78C85.4778 152.087 84.8359 152.553 84.3209 153.143L85.8279 154.458C86.1444 154.096 86.5389 153.809 86.9819 153.621L86.1985 151.78ZM87.2516 151.376L86.232 151.767L86.9483 153.634L87.9678 153.243L87.2516 151.376ZM91.1283 151.422C89.8935 150.959 88.5364 150.938 87.2878 151.363L87.9316 153.256C88.7426 152.981 89.624 152.994 90.4261 153.295L91.1283 151.422ZM91.9959 151.834C91.7203 151.673 91.4302 151.536 91.1283 151.422L90.4261 153.295C90.6222 153.369 90.8106 153.458 90.9896 153.562L91.9959 151.834ZM90.4818 152.973L90.6501 153.237L92.3354 152.16L92.1671 151.896L90.4818 152.973ZM89.5973 149.159C89.4401 150.496 89.7539 151.847 90.4845 152.977L92.1644 151.892C91.6861 151.152 91.4808 150.268 91.5836 149.393L89.5973 149.159ZM91.3455 145.651C90.3726 146.582 89.7544 147.822 89.5973 149.159L91.5836 149.393C91.6865 148.517 92.0911 147.705 92.728 147.096L91.3455 145.651ZM91.6648 145.331L91.3296 145.666L92.7438 147.081L93.079 146.745L91.6648 145.331ZM93.9591 143.975C93.1121 144.245 92.336 144.701 91.6876 145.309L93.0562 146.768C93.4874 146.363 94.0036 146.06 94.567 145.88L93.9591 143.975ZM96.5838 143.747C95.7029 143.627 94.8062 143.704 93.9591 143.975L94.567 145.88C95.1304 145.7 95.7267 145.649 96.3126 145.729L96.5838 143.747ZM99.0509 144.671C98.3076 144.184 97.4647 143.868 96.5838 143.747L96.3126 145.729C96.8985 145.809 97.4591 146.019 97.9535 146.343L99.0509 144.671ZM99.9063 145.353C99.6434 145.101 99.3572 144.872 99.0509 144.671L97.9535 146.343C98.1572 146.477 98.3475 146.629 98.5224 146.796L99.9063 145.353ZM98.0887 145.675C98.1319 145.91 98.1887 146.141 98.2585 146.368L100.17 145.781C100.123 145.627 100.085 145.471 100.056 145.313L98.0887 145.675ZM98.1499 143.154C97.9557 143.981 97.9348 144.839 98.0887 145.675L100.056 145.313C99.9518 144.749 99.9658 144.169 100.097 143.611L98.1499 143.154ZM99.2174 140.869C98.7076 141.549 98.3442 142.326 98.1499 143.154L100.097 143.611C100.228 143.053 100.473 142.527 100.817 142.069L99.2174 140.869ZM101.112 139.204C100.372 139.622 99.7271 140.189 99.2174 140.869L100.817 142.069C101.162 141.61 101.597 141.227 102.096 140.945L101.112 139.204ZM105.967 138.692C104.352 138.218 102.616 138.398 101.132 139.193L102.076 140.956C103.098 140.409 104.293 140.285 105.405 140.611L105.967 138.692ZM109.767 141.724C108.947 140.254 107.583 139.165 105.967 138.692L105.405 140.611C106.517 140.937 107.456 141.687 108.021 142.698L109.767 141.724Z" fill="black" mask="url(#path-43-inside-2_11366_48923)"/>
<path d="M479.537 377.428L373.577 204.809C368.298 196.192 360.463 188.343 350.561 186.793C332.029 183.888 298.105 183.706 298.105 183.706L294.921 170.704L260.844 176.835L264.084 190.564L236.865 197.435V197.602C231.311 199.307 225.929 201.528 220.79 204.236L147.971 242.573L126.531 177.006L90.7949 193.552C90.7949 193.552 102.233 252.656 107.554 271.454C109.886 279.764 112.903 287.864 119.872 292.948C123.641 295.708 127.995 297.563 132.597 298.37C137.199 299.176 141.924 298.912 146.407 297.599L230.566 271.971L234.756 361.968L367.656 355.837L363.242 279.331L444.468 404.005L479.537 377.428Z" fill="#FFC849"/>
<path d="M356.545 47.7275H344C342.895 47.7275 342 48.623 342 49.7275V69.0003H358.545V49.7275C358.545 48.623 357.65 47.7275 356.545 47.7275Z" fill="#FFC849"/>
<path d="M381.364 26.4541H368.818C367.714 26.4541 366.818 27.3495 366.818 28.4541V68.9996H383.364V28.4541C383.364 27.3495 382.468 26.4541 381.364 26.4541Z" fill="#FFC849"/>
<path d="M406.182 4H393.636C392.532 4 391.636 4.89543 391.636 6V69H408.182V6.00396C408.182 4.89939 407.286 4 406.182 4Z" fill="#FFC849"/>
<path d="M308.995 118.86L315.435 122.703" stroke="black" stroke-linecap="round"/>
<circle cx="317.582" cy="123.985" r="2.5" transform="rotate(30.8231 317.582 123.985)" stroke="black"/>
<path d="M301.973 122.822L311.419 128.459L314.19 139.428L318.913 142.246" stroke="black" stroke-linecap="round" stroke-linejoin="round"/>
<circle cx="321.061" cy="143.527" r="2.5" transform="rotate(30.8231 321.061 143.527)" stroke="black"/>
<path d="M277.646 133.344L285.804 138.211L290.625 145.746L306.512 155.225" stroke="black" stroke-linecap="round" stroke-linejoin="round"/>
<circle cx="309.088" cy="156.762" r="3" transform="rotate(30.8231 309.088 156.762)" stroke="black"/>
<path d="M281.489 126.903L287.929 130.746L297.361 130.551L306.808 136.188L309.752 147.842L317.481 152.454" stroke="black" stroke-linecap="round" stroke-linejoin="round"/>
<circle cx="320.916" cy="154.503" r="4" transform="rotate(30.8231 320.916 154.503)" stroke="black"/>
<path d="M278.021 146.377L289.185 153.038" stroke="black" stroke-linecap="round"/>
<circle cx="292.62" cy="155.088" r="4" transform="rotate(30.8231 292.62 155.088)" stroke="black"/>
<path d="M278.125 154.008L282.849 156.826L285.093 162.823L289.816 165.641L297.357 163.736L300.363 165.529" stroke="black" stroke-linecap="round" stroke-linejoin="round"/>
<circle cx="303.798" cy="167.579" r="4" transform="rotate(30.8231 303.798 167.579)" stroke="black"/>
<path d="M292.147 137.338L299.447 141.693" stroke="black" stroke-linecap="round"/>
<circle cx="301.164" cy="142.718" r="2" transform="rotate(30.8231 301.164 142.718)" stroke="black"/>
<defs>
<filter id="filter0_d_11366_48923" x="30" y="0" width="216" height="70" filterUnits="userSpaceOnUse" color-interpolation-filters="sRGB">
<feFlood flood-opacity="0" result="BackgroundImageFix"/>
<feColorMatrix in="SourceAlpha" type="matrix" values="0 0 0 0 0 0 0 0 0 0 0 0 0 0 0 0 0 0 127 0" result="hardAlpha"/>
<feOffset dy="5"/>
<feGaussianBlur stdDeviation="10"/>
<feComposite in2="hardAlpha" operator="out"/>
<feColorMatrix type="matrix" values="0 0 0 0 0 0 0 0 0 0 0 0 0 0 0 0 0 0 0.1 0"/>
<feBlend mode="normal" in2="BackgroundImageFix" result="effect1_dropShadow_11366_48923"/>
<feBlend mode="normal" in="SourceGraphic" in2="effect1_dropShadow_11366_48923" result="shape"/>
</filter>
<filter id="filter1_d_11366_48923" x="0" y="40" width="216" height="70" filterUnits="userSpaceOnUse" color-interpolation-filters="sRGB">
<feFlood flood-opacity="0" result="BackgroundImageFix"/>
<feColorMatrix in="SourceAlpha" type="matrix" values="0 0 0 0 0 0 0 0 0 0 0 0 0 0 0 0 0 0 127 0" result="hardAlpha"/>
<feOffset dy="5"/>
<feGaussianBlur stdDeviation="10"/>
<feComposite in2="hardAlpha" operator="out"/>
<feColorMatrix type="matrix" values="0 0 0 0 0 0 0 0 0 0 0 0 0 0 0 0 0 0 0.1 0"/>
<feBlend mode="normal" in2="BackgroundImageFix" result="effect1_dropShadow_11366_48923"/>
<feBlend mode="normal" in="SourceGraphic" in2="effect1_dropShadow_11366_48923" result="shape"/>
</filter>
<filter id="filter2_d_11366_48923" x="30" y="80" width="216" height="70" filterUnits="userSpaceOnUse" color-interpolation-filters="sRGB">
<feFlood flood-opacity="0" result="BackgroundImageFix"/>
<feColorMatrix in="SourceAlpha" type="matrix" values="0 0 0 0 0 0 0 0 0 0 0 0 0 0 0 0 0 0 127 0" result="hardAlpha"/>
<feOffset dy="5"/>
<feGaussianBlur stdDeviation="10"/>
<feComposite in2="hardAlpha" operator="out"/>
<feColorMatrix type="matrix" values="0 0 0 0 0 0 0 0 0 0 0 0 0 0 0 0 0 0 0.1 0"/>
<feBlend mode="normal" in2="BackgroundImageFix" result="effect1_dropShadow_11366_48923"/>
<feBlend mode="normal" in="SourceGraphic" in2="effect1_dropShadow_11366_48923" result="shape"/>
</filter>
<filter id="filter3_d_11366_48923" x="0" y="120" width="216" height="70" filterUnits="userSpaceOnUse" color-interpolation-filters="sRGB">
<feFlood flood-opacity="0" result="BackgroundImageFix"/>
<feColorMatrix in="SourceAlpha" type="matrix" values="0 0 0 0 0 0 0 0 0 0 0 0 0 0 0 0 0 0 127 0" result="hardAlpha"/>
<feOffset dy="5"/>
<feGaussianBlur stdDeviation="10"/>
<feComposite in2="hardAlpha" operator="out"/>
<feColorMatrix type="matrix" values="0 0 0 0 0 0 0 0 0 0 0 0 0 0 0 0 0 0 0.1 0"/>
<feBlend mode="normal" in2="BackgroundImageFix" result="effect1_dropShadow_11366_48923"/>
<feBlend mode="normal" in="SourceGraphic" in2="effect1_dropShadow_11366_48923" result="shape"/>
</filter>
</defs>
</svg>
