<svg width="84" height="90" viewBox="0 0 84 90" fill="none" xmlns="http://www.w3.org/2000/svg">
<path fill-rule="evenodd" clip-rule="evenodd" d="M32.639 0.62207C32.5237 0.62353 32.4069 0.624991 32.2901 0.627911C26.0448 0.776843 19.7952 0.667334 13.5486 0.667334H11.7847V61.4738H41.352C41.406 61.103 41.4659 60.8869 41.4659 60.6722C41.4586 57.1665 41.5593 53.6549 41.3987 50.1536C41.1782 45.3366 37.6212 42.596 32.9092 43.6955C30.9 44.1627 28.9696 45.103 27.1079 46.0331C24.2152 47.4816 21.3649 48.9227 17.6502 48.1415C19.3324 50.0222 21.0875 50.8311 23.253 50.85C25.6593 50.8734 27.5999 49.7885 29.5099 48.4978C30.9116 47.5487 32.3397 46.5763 33.8846 45.9148C36.7991 44.6679 39.5691 45.9192 39.9181 49.0088C40.3255 52.6066 40.0144 56.2831 40.0144 59.9787H13.2273V2.19753C13.8917 2.16687 14.4495 2.11869 15.0044 2.11869C21.1386 2.11431 27.2714 2.10555 33.4042 2.12161C37.8227 2.13329 40.3736 4.19497 41.3958 8.45413C41.4834 8.82354 41.9609 9.10388 42.2544 9.42511C42.5143 9.1287 42.9742 8.84836 43.0005 8.53152C43.3393 4.71185 46.9167 2.05444 50.9118 2.09825C55.0909 2.14497 59.2714 2.13475 63.4504 2.12599C65.518 2.12161 67.5857 2.11869 69.6533 2.11869C70.1424 2.11869 70.6316 2.19315 71.1617 2.23696V59.9626H44.0913C44.0913 56.7431 44.065 53.6403 44.1117 50.539C44.1234 49.8207 44.3161 49.0789 44.5571 48.3927C45.3777 46.055 47.4453 44.9512 49.8298 45.6652C50.8446 45.9703 51.8084 46.5077 52.7253 47.0567C54.1826 47.9298 55.5362 48.9869 57.0154 49.8163C60.5227 51.7816 64.6828 50.9858 66.6745 48.0262C63.63 49.0015 60.9798 47.8641 58.3544 46.588C56.6737 45.7703 55.0339 44.8475 53.2992 44.1627C47.6016 41.9141 43.3466 44.5745 42.9655 50.65C42.8048 53.1862 42.9202 55.7385 42.9114 58.285C42.9071 59.3289 42.9114 60.3729 42.9114 61.4184H72.6364V0.819186C72.3721 0.756401 72.213 0.684855 72.0524 0.684855C64.6711 0.681935 57.2855 0.582647 49.9057 0.765162C48.2557 0.804585 46.5079 1.61349 45.0316 2.46036C43.8839 3.11887 43.0867 4.38333 42.0602 5.45651C39.9955 1.86755 36.8137 0.648352 32.899 0.62207H32.639Z" fill="#1C1C1C"/>
<path fill-rule="evenodd" clip-rule="evenodd" d="M39.9526 26.0008C40.7002 29.8467 41.366 33.7102 42.0684 37.5664C42.8554 34.6417 43.3767 31.758 44.0236 28.9035C45.2939 23.3171 44.7537 17.9453 42.1794 12.5225C40.3045 16.9831 39.0414 21.2992 39.9526 26.0008Z" fill="#1C1C1C"/>
<path fill-rule="evenodd" clip-rule="evenodd" d="M43.812 36.6953C45.7847 33.7766 48.1123 30.8403 49.8543 27.5944C51.4371 24.6479 52.4388 21.3831 53.5734 18.2147C53.842 17.4642 53.6128 16.5355 53.6128 15.4434C47.4055 21.5656 44.8444 28.9465 43.812 36.6953Z" fill="#1C1C1C"/>
<path fill-rule="evenodd" clip-rule="evenodd" d="M30.397 15.7193C30.8044 17.6744 31.1767 19.6383 31.6308 21.5817C33.0618 27.7069 38.6748 31.4784 40.5292 37.3758C39.5801 29.1071 37.0715 21.5437 30.9139 15.6025C30.7416 15.6405 30.5693 15.6799 30.397 15.7193Z" fill="#1C1C1C"/>
<path fill-rule="evenodd" clip-rule="evenodd" d="M45.1851 38.4824C47.2352 35.3548 50.1205 33.7867 53.0701 32.2973C56.7001 30.4634 59.565 27.7797 61.7567 24.3864C62.2663 23.598 62.5671 22.6737 63.1351 21.4326C49.6357 28.4631 46.9139 32.6229 45.1851 38.4824Z" fill="#1C1C1C"/>
<path fill-rule="evenodd" clip-rule="evenodd" d="M22.9521 24.8805C25.2066 28.2344 28.1898 30.7794 31.8213 32.5768C34.6336 33.9697 37.3072 35.5394 39.3076 38.2055C39.1996 37.9033 39.0959 37.5996 38.9835 37.2973C35.9565 29.1075 28.7417 25.5711 21.5591 21.9092C21.9212 22.9561 22.3461 23.9811 22.9521 24.8805Z" fill="#1C1C1C"/>
<path fill-rule="evenodd" clip-rule="evenodd" d="M26.1951 37.2835C30.8823 37.7026 35.5111 37.9187 39.2273 41.3616C36.7376 36.3096 32.4067 33.9647 27.1763 32.9265C23.4339 32.1848 19.6856 31.4781 15.873 30.7422C18.1232 34.6115 21.7021 36.8805 26.1951 37.2835Z" fill="#1C1C1C"/>
<path fill-rule="evenodd" clip-rule="evenodd" d="M57.1885 32.9297C52.0428 33.9722 47.7192 36.2471 45.269 41.2261C48.5618 38.319 52.5495 37.4955 56.7578 37.4283C59.5701 37.3831 62.1181 36.5493 64.4238 35.0367C66.0869 33.943 67.6508 32.68 68.3356 30.8271C64.5742 31.5324 60.8726 32.1851 57.1885 32.9297Z" fill="#1C1C1C"/>
<path fill-rule="evenodd" clip-rule="evenodd" d="M43.9932 44.656C45.1599 43.8661 45.9031 43.2645 46.7325 42.8177C49.5886 41.2773 52.3849 42.0337 55.2585 42.9491C57.5466 43.6792 59.9384 44.3538 62.3141 44.4706C65.2885 44.6151 68.3695 42.2395 69.0514 39.807C65.985 41.4876 62.904 41.2306 59.7909 40.1822C59.0418 39.9296 58.2694 39.7442 57.4999 39.5558C56.4266 39.2901 55.3592 39.1572 54.3123 39.1572C50.3771 39.1572 46.7208 41.0218 43.9932 44.656Z" fill="#1C1C1C"/>
<path fill-rule="evenodd" clip-rule="evenodd" d="M28.4466 39.3052C27.2201 39.4877 25.9833 39.7359 24.8108 40.1287C21.5736 41.215 18.3728 41.5114 14.9355 39.6074C17.2061 43.5205 20.7091 45.1836 24.6283 44.3879C26.0607 44.0958 27.4829 43.6447 28.838 43.0927C32.7045 41.5158 36.4017 41.2121 39.8668 44.1236C37.3129 41.0077 34.2173 39.1592 30.3653 39.1592C29.7447 39.1592 29.1066 39.2059 28.4466 39.3052Z" fill="#1C1C1C"/>
<mask id="mask0_11085_50291" style="mask-type:alpha" maskUnits="userSpaceOnUse" x="0" y="71" width="12" height="18">
<path d="M9.44488 71.931C9.26448 72.3931 9.00929 72.8435 8.93449 73.3262C8.56049 75.7221 7.99436 78.0429 6.9589 80.2371C6.44997 81.3174 6.6685 81.8751 7.62916 82.5653C8.27449 83.0304 8.34049 83.5352 7.80076 84.1385C6.5937 85.4895 5.16957 86.1238 3.38318 85.5823C2.51932 85.3203 2.04265 84.6889 1.97225 83.7633C1.88719 82.6713 2.34919 81.7677 2.77452 80.842C3.12505 80.0826 3.48145 79.3262 3.82464 78.5639C3.91118 78.3696 3.96838 78.115 3.76744 77.9855C3.52251 77.8236 3.39051 78.1003 3.30838 78.2607C2.72758 79.3939 1.94145 80.399 1.54106 81.6529C1.29172 82.4299 1.35479 83.3438 0.719727 83.9708V86.1901C0.807726 86.3151 0.935326 86.427 0.976392 86.5653C1.57039 88.6154 3.13091 89.1069 5.03464 88.3107C7.99436 87.0701 8.89195 84.2901 9.45075 81.3409C9.52995 80.9215 9.30995 80.5153 8.97849 80.2239C8.76435 80.0355 8.53995 79.8633 8.33316 79.672C7.82422 79.1996 8.18209 78.7861 8.40062 78.3387C8.62355 77.881 8.88169 77.8884 9.24835 78.1415C9.50208 78.3181 9.80421 78.3004 10.033 78.1018C10.8543 77.385 11.3867 76.4829 11.5011 75.3512C11.5334 75.0407 11.4205 74.7493 11.1183 74.6463C10.8265 74.5477 10.7311 74.8523 10.6285 75.0392C10.3659 75.519 10.1151 75.3041 9.96995 74.998C9.82915 74.7022 9.71768 74.3299 9.75582 74.012C9.83355 73.3865 9.77195 72.7405 10.0007 72.1371C10.0917 71.8942 10.1269 71.6367 9.83502 71.5499C9.80128 71.5396 9.77195 71.5352 9.74408 71.5352C9.55488 71.5352 9.50795 71.7647 9.44488 71.931Z" fill="white"/>
</mask>
<g mask="url(#mask0_11085_50291)">
<path fill-rule="evenodd" clip-rule="evenodd" d="M-0.181152 90.0072H12.4292V70.5664H-0.181152V90.0072Z" fill="#1C1C1C"/>
</g>
<mask id="mask1_11085_50291" style="mask-type:alpha" maskUnits="userSpaceOnUse" x="75" y="75" width="9" height="11">
<path d="M76.2281 78.3636C75.791 80.2473 75.2205 82.106 75.3437 84.0766C75.4112 85.1804 76.1592 85.9309 77.1404 85.9662C78.0174 85.9971 78.343 85.3319 78.7654 84.7712C79.0851 84.3459 79.3506 83.8323 80.0326 84.2135C80.2379 84.3253 80.4917 84.2561 80.6691 84.084C81.5007 83.2701 82.7914 82.9434 83.183 81.6557C83.2065 81.5792 83.3355 81.535 83.4162 81.4762V80.5519C83.2255 80.4813 83.0583 80.5107 82.9703 80.7094C82.6183 81.4982 81.5755 81.5718 81.2558 82.4092C81.2191 82.5019 80.9199 82.5637 80.7689 82.5269C80.0179 82.3547 79.4577 82.6491 78.9135 83.1421C78.5806 83.4438 78.1964 83.6248 77.6816 83.3422C76.8104 82.861 76.4276 81.9839 76.6916 80.7889C77.0054 79.3717 77.3384 77.9574 77.6112 76.5328C77.6948 76.0987 77.8268 75.6012 77.4674 75.1436C76.7825 76.1516 76.4862 77.2451 76.2281 78.3636Z" fill="white"/>
</mask>
<g mask="url(#mask1_11085_50291)">
<path fill-rule="evenodd" clip-rule="evenodd" d="M74.3213 86.8981H84.3122V74.2402H74.3213V86.8981Z" fill="#1C1C1C"/>
</g>
<mask id="mask2_11085_50291" style="mask-type:alpha" maskUnits="userSpaceOnUse" x="25" y="67" width="21" height="19">
<path d="M44.7399 68.2338C42.2201 69.6923 39.6931 71.1404 37.1954 72.6356C36.0528 73.3199 34.8619 73.9586 34.1696 75.2081C33.4084 76.5767 33.1092 78.0381 33.1195 79.5834C33.1254 80.2574 33.1224 80.9285 32.8159 81.5569C32.6942 81.8026 32.5328 82.1029 32.2571 81.9616C31.2994 81.4656 30.8359 82.2721 30.2639 82.7004C29.5086 83.2655 28.7577 83.3921 28.0581 82.9299C27.4054 82.4987 27.0299 81.4215 27.2162 80.6636C27.5389 79.3435 27.8351 78.0146 28.1314 76.6886C28.1857 76.4487 28.3118 76.1264 27.951 76.0396C27.6533 75.9675 27.621 76.2736 27.5227 76.4855C26.5709 78.5488 26.2071 80.7519 25.9182 82.9829C25.7818 84.0366 26.1279 84.8564 26.9097 85.526C27.5814 86.1014 28.2517 86.1235 28.919 85.5348C29.3825 85.1271 29.7814 84.6474 30.2155 84.2074C30.5514 83.8645 30.9151 83.5819 31.4138 83.7158C31.7013 83.7644 31.9755 83.8129 32.1852 83.6216C32.813 83.0462 33.429 82.4664 33.7531 81.6363C34.4263 79.9012 34.5715 78.0808 34.6815 76.2559C34.7108 75.7909 34.8692 75.473 35.2579 75.2405C37.3318 74.0013 39.388 72.7313 41.4809 71.5274C42.82 70.7578 44.2529 70.1426 45.2459 68.8858C45.4438 68.6371 45.8604 68.409 45.5553 68.0558C45.4761 67.9631 45.3955 67.9277 45.3148 67.9277C45.1168 67.9277 44.9173 68.1323 44.7399 68.2338Z" fill="white"/>
</mask>
<g mask="url(#mask2_11085_50291)">
<path fill-rule="evenodd" clip-rule="evenodd" d="M24.9873 86.867H46.5604V67.0244H24.9873V86.867Z" fill="#1C1C1C"/>
</g>
<mask id="mask3_11085_50291" style="mask-type:alpha" maskUnits="userSpaceOnUse" x="16" y="75" width="11" height="11">
<path d="M18.2308 77.2686C17.9037 78.524 17.5165 79.7705 17.276 81.0435C17.1146 81.9015 16.858 82.7565 16.902 83.6469C16.987 85.4291 18.0636 86.2856 19.7502 85.8588C20.5584 85.6542 21.1465 85.0817 21.6686 84.4533C22.4269 83.5365 22.883 82.4327 23.5137 81.4379C23.6427 81.2348 23.6662 80.9993 23.5093 80.8007C23.3582 80.6079 23.1499 80.6903 22.9505 80.733C22.3154 80.8684 21.6833 81.0464 21.0042 80.9051C22.2509 80.2282 23.3421 79.3113 24.7017 78.9007C25.5421 78.6461 26.1683 78.1458 26.6186 77.4099C26.7345 77.2201 26.8899 77.0126 26.6846 76.7948C26.5145 76.6167 26.2901 76.6976 26.1185 76.7786C25.3925 77.12 24.6929 77.5247 23.9507 77.8294C22.3315 78.4931 20.9324 79.4246 19.9497 80.8993C19.7297 81.2289 19.4232 81.6101 19.7429 81.9942C20.0333 82.3386 20.4469 82.4033 20.9177 82.2517C21.3474 82.1134 21.8153 82.0898 22.333 82.006C21.7727 82.9905 20.5496 83.5586 19.5918 83.3525C18.5006 83.1171 18.0753 82.262 18.2894 81.1377C18.6224 79.3687 19.0213 77.6189 19.4701 75.8779C19.5288 75.6586 19.5845 75.3805 19.2838 75.1436C18.8453 75.822 18.4332 76.4887 18.2308 77.2686Z" fill="white"/>
</mask>
<g mask="url(#mask3_11085_50291)">
<path fill-rule="evenodd" clip-rule="evenodd" d="M15.9609 87.1855H27.7895V74.2393H15.9609V87.1855Z" fill="#1C1C1C"/>
</g>
<mask id="mask4_11085_50291" style="mask-type:alpha" maskUnits="userSpaceOnUse" x="54" y="76" width="11" height="13">
<path d="M63.9229 77.4025C63.3172 78.755 62.9638 80.1604 63.0679 81.6748C63.128 82.5563 62.7687 83.2686 62.2686 83.95C61.0776 85.5688 59.4584 85.8661 57.6926 85.6085C56.4195 85.4216 55.9326 84.6902 55.893 83.3569C55.8607 82.2002 56.4709 81.273 56.7759 80.2369C56.8492 79.9926 57.1015 79.6968 56.8111 79.5261C56.5369 79.3628 56.3755 79.7116 56.2509 79.9264C55.3078 81.5467 54.727 83.2951 54.6537 84.5372C54.6155 87.2951 55.8974 88.7977 57.7967 88.6637C59.1152 88.571 60.3678 88.0471 61.3372 87.0155C63.2278 85.0022 64.0065 82.4651 64.3131 79.7263C64.3937 79.011 64.2456 78.2767 64.4128 77.5629C64.4627 77.3481 64.6929 77.0729 64.3732 76.961C64.3424 76.9507 64.3131 76.9463 64.2867 76.9463C64.0945 76.9463 64.0109 77.2053 63.9229 77.4025Z" fill="white"/>
</mask>
<g mask="url(#mask4_11085_50291)">
<path fill-rule="evenodd" clip-rule="evenodd" d="M53.7144 89.697H65.5899V75.9707H53.7144V89.697Z" fill="#1C1C1C"/>
</g>
<mask id="mask5_11085_50291" style="mask-type:alpha" maskUnits="userSpaceOnUse" x="44" y="75" width="11" height="11">
<path d="M46.6474 75.719C46.1282 76.7433 45.9815 77.8779 45.6295 78.9522C45.1661 80.3753 45.1147 81.8691 44.7627 83.1965C44.7598 83.9618 44.9959 84.5593 45.3318 85.092C45.9918 86.1355 47.1989 86.2576 48.0979 85.3982C48.3561 85.1539 48.5423 84.8419 48.7535 84.5564C49.0043 84.2208 49.3402 83.9927 49.7523 84.159C50.3815 84.4151 50.7907 84.1001 51.2073 83.7499C51.4023 83.5851 51.571 83.4129 51.8467 83.3452C52.7443 83.1333 53.4131 82.5858 53.9147 81.8588C54.2594 81.3584 54.582 80.833 54.6451 80.2105C54.6598 80.0678 54.6686 79.8823 54.4735 79.8397C54.4002 79.822 54.2579 79.8956 54.2227 79.9633C53.9792 80.421 53.4894 80.6682 53.2048 81.0773C52.6211 81.9177 51.5299 81.9927 50.8039 82.6093C50.7585 82.6476 50.6338 82.6505 50.5795 82.6182C49.877 82.2105 49.4238 82.6638 48.9266 83.0361C48.1361 83.6248 47.5978 83.5748 46.8513 82.9125C46.0167 82.1678 46.1194 81.2186 46.3057 80.3032C46.6078 78.8286 47.0067 77.3746 47.3558 75.9103C47.4174 75.6498 47.5626 75.2745 47.2385 75.1671C47.1886 75.1509 47.1446 75.1436 47.105 75.1436C46.8293 75.1436 46.7603 75.4982 46.6474 75.719Z" fill="white"/>
</mask>
<g mask="url(#mask5_11085_50291)">
<path fill-rule="evenodd" clip-rule="evenodd" d="M43.8569 87.1561H55.5623V74.1348H43.8569V87.1561Z" fill="#1C1C1C"/>
</g>
<mask id="mask6_11085_50291" style="mask-type:alpha" maskUnits="userSpaceOnUse" x="65" y="76" width="5" height="10">
<path d="M67.0161 76.871C66.2901 78.119 66.2373 79.5495 65.9161 80.9019C65.6184 82.147 65.2649 83.4067 65.5275 84.7253C65.6419 85.3022 65.9044 85.7349 66.4603 85.9012C67.0205 86.0719 67.5251 85.8997 67.8947 85.4244C68.4461 84.718 68.7204 83.8821 68.9873 83.055C69.1222 82.637 68.9389 82.1411 68.5224 81.9704C68.0267 81.7687 67.9563 82.3044 67.7715 82.5988C67.66 82.7754 67.5896 83.0152 67.3153 82.9785C67.0264 82.9387 66.9369 82.7047 66.9017 82.459C66.8753 82.2779 66.8665 82.091 66.8651 81.9056C66.8401 80.5679 67.2567 79.3037 67.5485 78.0175C67.6923 77.3788 67.8228 76.7533 67.5647 76.0439C67.242 76.2956 67.1701 76.6091 67.0161 76.871Z" fill="white"/>
</mask>
<g mask="url(#mask6_11085_50291)">
<path fill-rule="evenodd" clip-rule="evenodd" d="M64.3652 86.9714H70.0192V75.1406H64.3652V86.9714Z" fill="#1C1C1C"/>
</g>
<mask id="mask7_11085_50291" style="mask-type:alpha" maskUnits="userSpaceOnUse" x="33" y="80" width="6" height="7">
<path d="M36.3075 81.5348C36.1212 81.8483 36.0039 82.203 35.8587 82.54C35.5991 83.1478 35.7707 83.6378 36.3397 83.9528C36.8281 84.2221 36.6873 84.4325 36.3691 84.7195C35.7501 85.2729 35.0403 85.6938 34.3304 86.1176C34.128 86.2368 33.8845 86.3957 34.0136 86.6813C34.1529 86.9962 34.4287 86.8314 34.6457 86.7769C36.8839 86.2236 38.3813 84.384 38.4473 82.0293C38.5647 81.3597 38.2567 80.7607 37.5204 80.5812C37.4471 80.5635 37.3781 80.5547 37.3136 80.5547C36.7841 80.5547 36.5553 81.1198 36.3075 81.5348Z" fill="white"/>
</mask>
<g mask="url(#mask7_11085_50291)">
<path fill-rule="evenodd" clip-rule="evenodd" d="M32.9844 87.8968H39.4611V79.5127H32.9844V87.8968Z" fill="#1C1C1C"/>
</g>
<mask id="mask8_11085_50291" style="mask-type:alpha" maskUnits="userSpaceOnUse" x="38" y="79" width="5" height="7">
<path d="M41.5014 79.6773C40.7857 79.9261 40.2973 81.8436 40.8165 82.3617C41.5469 83.0916 41.5102 83.5317 40.6244 84.1277C40.1917 84.4191 39.715 84.659 39.2692 84.9386C39.0389 85.0843 38.8086 85.2447 38.6253 85.4345C38.376 85.6906 38.4126 85.9025 38.8424 85.9599C39.5566 86.0585 41.3826 85.202 41.6481 84.5927C41.8402 84.1586 42.1072 83.7745 42.3946 83.3963C42.776 82.8929 42.9505 82.3396 42.9578 81.6435C43.018 80.9651 42.6968 80.344 42.025 79.8613C41.9018 79.773 41.786 79.6553 41.6246 79.6553C41.5865 79.6553 41.5454 79.6612 41.5014 79.6773Z" fill="white"/>
</mask>
<g mask="url(#mask8_11085_50291)">
<path fill-rule="evenodd" clip-rule="evenodd" d="M37.4775 86.9573H43.9162V78.6924H37.4775V86.9573Z" fill="#1C1C1C"/>
</g>
<mask id="mask9_11085_50291" style="mask-type:alpha" maskUnits="userSpaceOnUse" x="29" y="69" width="5" height="5">
<path d="M32.3649 70.3966C32.2285 70.6615 32.0994 70.9367 31.919 71.3002C31.8149 71.1369 31.7577 71.0471 31.699 70.9559C31.0933 69.9934 30.7295 69.989 30.1663 70.9706C29.9771 71.3017 29.8422 71.6785 29.6779 72.0317C29.5503 72.3083 29.3377 72.6321 29.6354 72.8734C29.9566 73.1354 30.2998 73.5534 30.7515 73.2163C30.9921 73.0353 31.2047 72.7851 31.4086 72.5409C31.5611 72.3569 31.6785 72.2907 31.9102 72.3966C32.953 72.8734 33.4282 72.6218 33.8843 71.4106C34.1175 70.791 33.9093 70.1729 33.3417 69.8389C33.2199 69.7668 33.1129 69.7344 33.019 69.7344C32.7125 69.7344 32.5365 70.0684 32.3649 70.3966Z" fill="white"/>
</mask>
<g mask="url(#mask9_11085_50291)">
<path fill-rule="evenodd" clip-rule="evenodd" d="M28.4385 74.4528H35.0164V68.625H28.4385V74.4528Z" fill="#1C1C1C"/>
</g>
<mask id="mask10_11085_50291" style="mask-type:alpha" maskUnits="userSpaceOnUse" x="10" y="82" width="6" height="4">
<path d="M14.456 82.535C14.1583 83.0457 13.7593 83.209 13.202 82.953C13.1213 82.9162 12.9849 82.9471 12.8984 82.9912C11.8424 83.5416 10.9859 84.2848 10.6353 85.4725C10.518 85.8624 10.7688 86.0729 11.09 85.9125C11.6004 85.6549 12.0829 85.6152 12.5464 85.7741C13.5775 85.7565 15.2392 83.7344 15.0911 82.7543C15.0691 82.5924 15.0397 82.4349 14.8608 82.3775C14.8212 82.3643 14.7816 82.3584 14.7435 82.3584C14.6232 82.3584 14.522 82.4232 14.456 82.535Z" fill="white"/>
</mask>
<g mask="url(#mask10_11085_50291)">
<path fill-rule="evenodd" clip-rule="evenodd" d="M9.62012 86.975H16.135V81.4209H9.62012V86.975Z" fill="#1C1C1C"/>
</g>
<mask id="mask11_11085_50291" style="mask-type:alpha" maskUnits="userSpaceOnUse" x="69" y="80" width="6" height="6">
<path d="M73.808 80.9049C73.6921 81.1228 73.5645 81.3464 73.5044 81.5819C73.192 82.8049 72.466 83.6967 71.4452 84.3751C70.995 84.6709 70.5682 85.0035 70.1414 85.3317C70.002 85.4377 69.8906 85.5834 69.9463 85.7806C69.9874 85.9189 70.1238 85.9969 70.2338 85.9557C71.0492 85.6408 72.051 85.6143 72.6347 84.9403C73.5763 83.8527 74.138 82.515 74.4137 81.0757C74.424 80.8711 74.4753 80.6371 74.226 80.5665C74.1967 80.5591 74.1703 80.5547 74.1453 80.5547C73.962 80.5547 73.8872 80.7563 73.808 80.9049Z" fill="white"/>
</mask>
<g mask="url(#mask11_11085_50291)">
<path fill-rule="evenodd" clip-rule="evenodd" d="M68.9902 86.8972H75.3761V79.5947H68.9902V86.8972Z" fill="#1C1C1C"/>
</g>
<mask id="mask12_11085_50291" style="mask-type:alpha" maskUnits="userSpaceOnUse" x="56" y="72" width="3" height="7">
<path d="M57.7552 72.88C56.7461 74.4429 56.8429 76.3943 56.4719 78.1824C56.4279 78.3899 56.4249 78.6945 56.6801 78.7461C56.9104 78.7917 56.994 78.5371 57.0835 78.3281C57.7493 76.7814 57.9737 75.0904 58.204 73.4009C58.2084 73.2994 58.2201 73.1979 58.2143 73.0948C58.2055 72.877 58.3404 72.5753 58.1204 72.4664C58.0808 72.4473 58.0471 72.4385 58.0192 72.4385C57.8476 72.4385 57.8417 72.7446 57.7552 72.88Z" fill="white"/>
</mask>
<g mask="url(#mask12_11085_50291)">
<path fill-rule="evenodd" clip-rule="evenodd" d="M55.5249 79.6941H59.237V71.4277H55.5249V79.6941Z" fill="#1C1C1C"/>
</g>
<mask id="mask13_11085_50291" style="mask-type:alpha" maskUnits="userSpaceOnUse" x="58" y="79" width="3" height="5">
<path d="M58.6916 80.7237C58.5464 81.0122 58.4393 81.3183 58.3249 81.62C57.9935 82.4853 58.7781 82.6987 59.2489 83.0902C59.7227 83.4831 60.0043 83.1255 60.2815 82.8046C60.6819 82.3425 60.9532 81.8348 60.94 81.4375C60.9459 80.3793 60.5059 79.748 59.7813 79.6641C59.7329 79.6582 59.6875 79.6553 59.6435 79.6553C58.9893 79.6553 58.9145 80.2822 58.6916 80.7237Z" fill="white"/>
</mask>
<g mask="url(#mask13_11085_50291)">
<path fill-rule="evenodd" clip-rule="evenodd" d="M57.0913 84.3839H61.8477V78.668H57.0913V84.3839Z" fill="#1C1C1C"/>
</g>
<mask id="mask14_11085_50291" style="mask-type:alpha" maskUnits="userSpaceOnUse" x="22" y="86" width="3" height="4">
<path d="M23.0418 87.5481C22.879 87.7158 22.766 87.9204 22.615 88.0985C22.307 88.4605 22.1163 88.8402 22.5211 89.2273C22.9098 89.5981 23.4436 89.6629 23.9291 89.4642C24.548 89.2081 24.8736 88.7136 24.9866 88.1367C24.9132 87.5569 24.5803 87.1183 24.0039 86.9153C23.9115 86.8829 23.8308 86.8682 23.7604 86.8682C23.3644 86.8682 23.2676 87.3141 23.0418 87.5481Z" fill="white"/>
</mask>
<g mask="url(#mask14_11085_50291)">
<path fill-rule="evenodd" clip-rule="evenodd" d="M21.2168 90.5621H25.8866V85.7969H21.2168V90.5621Z" fill="#1C1C1C"/>
</g>
<mask id="mask15_11085_50291" style="mask-type:alpha" maskUnits="userSpaceOnUse" x="71" y="73" width="3" height="4">
<path d="M72.2531 73.8088C72.083 74.1355 71.9627 74.5064 71.8351 74.8669C71.577 75.6087 71.7794 75.9957 72.5318 76.034C72.875 76.1076 73.1449 75.8353 73.3282 75.357C73.5291 74.8316 73.6333 74.2886 73.3663 73.7764C73.2153 73.485 73.0202 73.3408 72.8251 73.3408C72.6213 73.3408 72.4145 73.4968 72.2531 73.8088Z" fill="white"/>
</mask>
<g mask="url(#mask15_11085_50291)">
<path fill-rule="evenodd" clip-rule="evenodd" d="M70.6758 77.0088H74.5316V72.2773H70.6758V77.0088Z" fill="#1C1C1C"/>
</g>
<mask id="mask16_11085_50291" style="mask-type:alpha" maskUnits="userSpaceOnUse" x="14" y="71" width="2" height="4">
<path d="M14.591 72.2224C14.4517 72.4991 14.3549 72.8096 14.2537 73.1128C14.0674 73.6602 14.3886 74.2224 14.8888 74.2401C15.4652 74.2607 16.1736 73.0834 15.9594 72.4211C15.8318 72.0252 15.669 71.5999 15.2584 71.541C15.2334 71.5366 15.21 71.5352 15.188 71.5352C14.8477 71.5352 14.7377 71.9325 14.591 72.2224Z" fill="white"/>
</mask>
<g mask="url(#mask16_11085_50291)">
<path fill-rule="evenodd" clip-rule="evenodd" d="M13.1694 75.1599H17.0707V70.5771H13.1694V75.1599Z" fill="#1C1C1C"/>
</g>
<mask id="mask17_11085_50291" style="mask-type:alpha" maskUnits="userSpaceOnUse" x="50" y="75" width="2" height="3">
<path d="M50.8065 75.3216C50.5132 75.7528 50.2492 76.2076 50.1671 76.758C50.1011 77.2113 50.3328 77.5056 50.6437 77.7337C50.8696 77.9029 51.1042 77.8897 51.3037 77.6734C51.6748 77.2657 51.8742 76.7565 51.9534 76.184C51.9725 75.7116 51.71 75.457 51.4005 75.2466C51.3052 75.1818 51.2054 75.1436 51.1116 75.1436C50.9986 75.1436 50.893 75.198 50.8065 75.3216Z" fill="white"/>
</mask>
<g mask="url(#mask17_11085_50291)">
<path fill-rule="evenodd" clip-rule="evenodd" d="M49.2007 78.8036H52.8703V74.1914H49.2007V78.8036Z" fill="#1C1C1C"/>
</g>
<mask id="mask18_11085_50291" style="mask-type:alpha" maskUnits="userSpaceOnUse" x="21" y="70" width="4" height="4">
<path d="M22.1108 71.2033C21.8262 71.5271 21.6018 71.8994 21.4346 72.2747C21.2278 72.7368 21.8218 73.3637 22.3865 73.3387C23.1037 73.3049 24.2579 72.182 24.0673 71.6286C23.9294 71.2225 23.6654 70.806 23.1096 70.6632C23.0304 70.6426 22.96 70.6338 22.894 70.6338C22.4936 70.6338 22.3117 70.9767 22.1108 71.2033Z" fill="white"/>
</mask>
<g mask="url(#mask18_11085_50291)">
<path fill-rule="evenodd" clip-rule="evenodd" d="M20.3262 74.2647H25.1544V69.6143H20.3262V74.2647Z" fill="#1C1C1C"/>
</g>
<mask id="mask19_11085_50291" style="mask-type:alpha" maskUnits="userSpaceOnUse" x="13" y="77" width="3" height="4">
<path d="M14.6004 77.9938C14.222 78.2337 13.9712 78.5766 13.9184 79.0549C13.8935 79.2889 13.8832 79.4773 13.5973 79.5288C13.3157 79.5788 13.2687 79.8437 13.3274 80.1086C13.3875 80.3721 13.5577 80.5236 13.7762 80.5545C14.3188 80.5869 15.0082 79.6745 14.7735 79.2109C14.5814 78.8268 14.6268 78.6222 14.9407 78.4015C15.0874 78.297 15.1666 78.0998 15.039 77.9364C14.9906 77.8732 14.9392 77.8496 14.8879 77.8496C14.7896 77.8496 14.6914 77.9364 14.6004 77.9938Z" fill="white"/>
</mask>
<g mask="url(#mask19_11085_50291)">
<path fill-rule="evenodd" clip-rule="evenodd" d="M12.3677 81.4878H16.0651V76.8477H12.3677V81.4878Z" fill="#1C1C1C"/>
</g>
<mask id="mask20_11085_50291" style="mask-type:alpha" maskUnits="userSpaceOnUse" x="82" y="74" width="2" height="4">
<path d="M82.695 74.6969C82.6012 74.8676 82.5616 75.0943 82.6364 75.2709C82.9561 76.0347 82.827 76.7573 82.5601 77.4769C82.5176 77.5917 82.4765 77.7345 82.5777 77.8125C82.7082 77.9155 82.7977 77.7801 82.8461 77.6462C83.113 76.9059 83.487 76.2069 83.4005 75.3621C83.4005 75.1679 83.4093 75.0148 83.3976 74.8676C83.38 74.6263 83.4152 74.3202 83.1702 74.2525C83.1438 74.2451 83.1189 74.2422 83.0954 74.2422C82.8916 74.2422 82.8006 74.5041 82.695 74.6969Z" fill="white"/>
</mask>
<g mask="url(#mask20_11085_50291)">
<path fill-rule="evenodd" clip-rule="evenodd" d="M81.5771 78.8143H84.311V73.2764H81.5771V78.8143Z" fill="#1C1C1C"/>
</g>
</svg>
