<svg width="97" height="92" viewBox="0 0 97 92" fill="none" xmlns="http://www.w3.org/2000/svg">
<path fill-rule="evenodd" clip-rule="evenodd" d="M36.1627 74.8762C36.2108 75.1776 36.1146 75.5932 35.8721 76.1241C35.5817 76.7428 35.3072 77.0529 35.0483 77.0529C34.8712 76.8935 34.6131 76.6724 34.2738 76.3889C33.9347 76.1061 33.7655 75.912 33.7655 75.8059L33.8136 75.6995C33.9107 75.4691 34.0879 75.0446 34.3468 74.4255C34.4113 74.2838 34.5726 73.9743 34.8307 73.4967L34.9277 73.3643C34.9923 73.4344 35.1055 73.5231 35.2668 73.6295C35.5733 73.8772 35.7589 74.054 35.8234 74.1601C36.0014 74.4079 36.1146 74.6467 36.1627 74.8762ZM33.6682 75.0359C33.7168 75.3364 33.6198 75.7523 33.3781 76.2832C33.0872 76.9025 32.813 77.212 32.5549 77.212C32.3769 77.0529 32.1185 76.8315 31.7795 76.549C31.4408 76.2655 31.271 76.0708 31.271 75.9644L31.3197 75.8589C31.4162 75.6282 31.5944 75.204 31.8522 74.5846C31.9168 74.4432 32.0783 74.1334 32.3367 73.6564L32.4335 73.5231C32.498 73.5941 32.6109 73.6825 32.7722 73.7889C33.079 74.0363 33.2649 74.2134 33.3297 74.3192C33.5069 74.5673 33.6198 74.8061 33.6682 75.0359ZM31.8796 80.6513C34.6401 80.6513 36.9001 80.2534 38.66 79.4577C39.5636 79.0502 40.1612 78.5995 40.4519 78.104C40.4683 78.0863 40.5366 77.9712 40.6575 77.7594C40.7788 77.5467 40.8633 77.4406 40.912 77.4406C40.9601 77.5644 40.9847 77.6614 40.9847 77.7321C40.8879 78.5639 40.5568 79.4133 39.9914 80.2798C38.9905 81.8193 36.7467 82.8182 33.2597 83.2784C32.3236 83.4027 31.4602 83.4645 30.6687 83.4645C29.6839 83.4645 28.9413 83.4204 28.441 83.3317C26.9236 83.0663 26.1652 82.3589 26.1652 81.2086C26.1652 80.8725 26.2614 80.1648 26.4553 79.0855C26.5682 78.4488 26.6814 78.1303 26.7948 78.1303C26.8911 78.1303 26.9641 78.4401 27.0125 79.0589C27.0767 80.1207 28.6994 80.6513 31.8796 80.6513ZM43.8675 73.4865C43.9 73.4155 43.9725 73.2828 44.0856 73.088C44.1015 73.053 44.142 72.9997 44.2065 72.9292C44.2549 73.0176 44.2795 73.088 44.2795 73.1417L44.1584 74.0438L44.0129 75.5296L43.7466 77.8918C43.6334 78.865 43.4399 79.6698 43.1656 80.3065L42.6082 81.5805C42.2689 82.3412 42.0031 82.7217 41.8093 82.7217L41.7371 82.5353C42.2372 80.66 42.5519 79.1212 42.6812 77.9179L42.8507 76.246L43.1173 75.4239L43.8675 73.4865ZM50.0062 85.587C50.0548 85.8878 49.9578 86.3034 49.7156 86.834C49.4247 87.4539 49.1504 87.7631 48.8926 87.7631C48.7149 87.6034 48.4563 87.3826 48.1175 87.0994C47.7782 86.8166 47.6093 86.6219 47.6093 86.5155L47.6577 86.4094C47.7542 86.1799 47.9316 85.7551 48.1902 85.1357C48.2542 84.9946 48.4163 84.6845 48.6744 84.2069L48.7715 84.0745C48.8357 84.1452 48.9487 84.2339 49.1102 84.3394C49.417 84.5874 49.6029 84.7642 49.6674 84.8706C49.8449 85.1184 49.9578 85.3566 50.0062 85.587ZM51.0618 75.4239C50.6905 76.9453 50.246 77.8475 49.7298 78.1303L48.8098 78.6346C48.4062 78.8467 48.0508 79.3066 47.7443 80.0146C47.5185 80.616 47.3 81.2086 47.0906 81.7929C46.7839 82.3939 46.3964 82.8098 45.9281 83.0396C45.6213 83.1987 45.153 83.3224 44.5234 83.4111C44.2975 83.4465 44.1122 83.4645 43.9667 83.4645C43.7729 83.4645 43.6438 83.4111 43.579 83.3057C43.5632 83.1816 43.862 82.8979 44.4747 82.4559C44.6043 82.3676 44.8873 82.1641 45.3225 81.8456C45.6134 81.6332 45.8073 81.4918 45.9038 81.4208C46.3718 81.0495 46.6909 80.731 46.8604 80.4656C47.0299 80.2001 47.2358 79.7447 47.4783 79.099C47.7197 78.453 47.8974 78.0327 48.0106 77.8385C48.2045 77.5197 48.5109 77.2108 48.9309 76.91C49.4315 76.6439 49.7623 76.4501 49.9236 76.326C50.0849 76.2017 50.311 75.9281 50.6019 75.5036C50.8759 75.132 51.0211 74.9454 51.0377 74.9454C51.134 74.964 51.1424 75.1231 51.0618 75.4239ZM57.4135 67.8183C57.4616 68.1198 57.3651 68.5353 57.1229 69.0657C56.8325 69.685 56.5577 69.9948 56.2994 69.9948C56.1219 69.8354 55.8638 69.614 55.5243 69.3311C55.1855 69.0489 55.016 68.8529 55.016 68.7478L55.0644 68.6411C55.1615 68.4113 55.3389 67.9873 55.5975 67.3674C55.6623 67.226 55.8234 66.9162 56.0815 66.4386L56.1782 66.3059C56.243 66.3772 56.3562 66.4653 56.5175 66.5713C56.824 66.8188 57.0097 66.9959 57.0742 67.1025C57.2519 67.35 57.3651 67.5888 57.4135 67.8183ZM56.4164 78.1915C56.7877 77.7849 57.1029 77.5191 57.3613 77.396C57.6516 77.1479 58.5317 76.7233 60.0007 76.1217C60.6301 75.8562 61.1309 75.3879 61.5019 74.7153C61.6313 74.4858 61.6955 74.273 61.6955 74.0783C61.6955 73.6537 61.1066 73.2561 59.928 72.8849C59.8799 72.8486 59.581 73.1938 59.032 73.9195C58.8871 74.1139 58.6933 74.4765 58.4508 75.0071C58.4508 75.0952 58.588 75.2372 58.8625 75.4317L58.015 76.042C57.4996 76.4129 56.9676 76.8633 56.4194 77.393L56.4147 77.3876C55.8015 77.9536 55.4141 78.5639 55.2522 79.218C55.2205 79.36 55.4379 79.4307 55.9059 79.4307H56.3907C57.0362 79.4307 57.5204 79.395 57.8433 79.3246C57.8433 79.6614 57.5045 80.041 56.8262 80.4656C56.3743 80.7484 55.8655 80.8904 55.3009 80.8904C54.1471 80.8904 53.5667 80.1321 53.5574 78.6163L53.558 78.6145C53.558 77.9428 53.6304 77.031 53.7756 75.8814L54.1879 72.644L54.2844 71.9543C54.3167 71.7239 54.3251 71.5825 54.309 71.5291L54.2114 71.5825C53.6796 72.8211 53.3556 73.6789 53.2427 74.1568C52.7793 77.2578 52.545 79.4229 52.5409 80.6495L52.5398 80.6513C52.5398 81.4121 52.6853 82.0491 52.9764 82.5617C53.3149 83.1639 53.8076 83.4645 54.4531 83.4645C55.761 83.4645 56.9875 82.4023 58.1339 80.2798L58.7879 79.3516C59.1105 78.8908 59.2721 78.5995 59.2721 78.4758C59.2721 78.2805 59.1753 78.1834 58.9814 78.1834C58.9333 78.1834 58.7879 78.219 58.5459 78.2894C58.0453 78.4312 57.5685 78.5022 57.1168 78.5022H56.4629C56.3021 78.5022 56.2124 78.4929 56.1968 78.4758L56.4147 78.1834L56.4164 78.1798V78.1915ZM72.8596 74.8762C72.9083 75.1776 72.8112 75.5932 72.5693 76.1241C72.2787 76.7428 72.0042 77.0529 71.7458 77.0529C71.5686 76.8935 71.31 76.6724 70.971 76.3889C70.6322 76.1061 70.4624 75.912 70.4624 75.8059L70.5108 75.6995C70.6079 75.4691 70.7851 75.0446 71.0437 74.4255C71.1079 74.2838 71.2701 73.9743 71.5279 73.4967L71.6247 73.3643C71.6895 73.4344 71.8021 73.5231 71.9642 73.6295C72.2707 73.8772 72.4564 74.054 72.5206 74.1601C72.6983 74.4079 72.8112 74.6467 72.8596 74.8762ZM70.3657 75.0359C70.4141 75.3364 70.3167 75.7523 70.075 76.2832C69.7844 76.9025 69.5099 77.212 69.2515 77.212C69.0738 77.0529 68.8155 76.8315 68.4767 76.549C68.138 76.2655 67.9685 76.0708 67.9685 75.9644L68.0169 75.8589C68.1136 75.6282 68.2914 75.204 68.5495 74.5846C68.6137 74.4432 68.7753 74.1334 69.0336 73.6564L69.1307 73.5231C69.1952 73.5941 69.3079 73.6825 69.4695 73.7889C69.7762 74.0363 69.9618 74.2134 70.0266 74.3192C70.2035 74.5673 70.3167 74.8061 70.3657 75.0359ZM80.2913 78.6643V78.6604L80.0047 78.6346C79.5042 78.5813 78.9959 78.9705 78.4794 79.8022C78.2208 80.2091 78.0114 80.5099 77.8501 80.7044C77.3653 81.2713 76.7764 81.7126 76.082 82.0317C74.9678 82.5443 73.2728 82.9422 70.9967 83.2254C69.7051 83.3845 68.5992 83.4645 67.6792 83.4645H67.2675C66.4284 83.4645 65.7583 83.4204 65.2574 83.3317C63.6755 83.0489 62.8848 82.2528 62.8848 80.9438C62.8848 80.4833 62.9007 79.988 62.9335 79.4577C62.9811 78.6786 63.0702 78.2894 63.1995 78.2894C63.2804 78.2894 63.3365 78.3781 63.369 78.5549C63.4817 79.1032 63.5547 79.4133 63.5869 79.4837C63.9902 80.2798 65.8791 80.6783 69.2532 80.6783C70.8838 80.6783 72.724 80.5189 74.774 80.2001C76.243 79.9706 77.3979 79.5278 78.2367 78.8734C78.3501 78.785 78.495 78.6439 78.673 78.4488C78.8668 78.1486 79.1739 77.7765 79.5933 77.3346C79.8514 77.1575 80.0854 77.0868 80.2954 77.1218L80.297 77.1263L80.6062 77.1775C80.8646 77.1775 81.0341 77.1518 81.1148 77.0984C81.1951 77.0451 81.2843 76.8947 81.3813 76.6478C81.5424 76.205 81.6233 75.5947 81.6233 74.8165L81.5992 71.207L82.1562 69.2961L82.6406 67.943L82.7371 67.8899C82.7533 67.943 82.7617 68.058 82.7617 68.2351C82.7617 68.5536 82.7451 68.9698 82.7125 69.4824C82.6641 70.1194 82.6406 70.526 82.6406 70.7034L82.5436 73.2504C82.511 74.2239 82.4547 74.9313 82.3743 75.3738C82.2447 76.1696 82.035 76.8243 81.7441 77.3372C81.2438 78.2574 80.8405 78.7176 80.5335 78.7176C80.4047 78.6999 80.3238 78.6822 80.2913 78.6643ZM83.8275 65.8349C84.2149 65.3932 84.9654 64.6765 86.0795 63.6857L89.1791 60.952C89.7767 60.4219 90.4865 59.7406 91.31 58.9092C91.5358 58.679 92.1739 58.0067 93.2235 56.8927C94.3371 55.7065 94.9418 55.0528 95.0392 54.9287C95.0392 55.0171 95.023 55.0968 94.9908 55.1675C94.7808 56.2294 93.901 57.6085 92.3513 59.3071C91.6408 60.0864 90.5671 61.1293 89.1301 62.4384C89.0661 62.4914 87.8716 63.5182 85.5466 65.5173L83.8759 66.95C83.1984 67.5334 82.8429 67.7995 82.8107 67.7458C83.0688 66.9674 83.4075 66.3307 83.8275 65.8349ZM94.4062 63.1587C94.4544 63.4592 94.3573 63.875 94.1159 64.4063C93.8247 65.025 93.5505 65.3345 93.2924 65.3345C93.2437 65.3345 92.9856 65.1221 92.5176 64.6975C92.1783 64.397 92.0088 64.1938 92.0088 64.0872L92.0574 63.9817C92.1539 63.7513 92.3319 63.3267 92.59 62.7077C92.6545 62.566 92.8159 62.2559 93.0745 61.7789L93.171 61.6459C93.2355 61.7166 93.349 61.8053 93.5103 61.9116C93.8168 62.1594 94.0027 62.3359 94.0672 62.442C94.2447 62.6901 94.3573 62.9288 94.4062 63.1587ZM95.6655 66.4494C95.7136 66.7496 95.6171 67.1661 95.3749 67.6961C95.0843 68.3157 94.8101 68.6249 94.5514 68.6249C94.374 68.4658 94.1159 68.2447 93.7766 67.9622C93.4378 67.6787 93.2683 67.484 93.2683 67.3782L93.3165 67.2715C93.4132 67.042 93.591 66.6175 93.8496 65.9979C93.9141 65.8564 94.0754 65.5469 94.3335 65.0693L94.4306 64.9363C94.4948 65.0073 94.608 65.0957 94.7696 65.2021C95.0761 65.4492 95.262 65.6269 95.3262 65.7324C95.5039 65.9808 95.6171 66.2193 95.6655 66.4494ZM93.171 66.6085C93.2199 66.9096 93.1226 67.3255 92.8812 67.8555C92.59 68.4751 92.3155 68.784 92.0574 68.784C91.8797 68.6249 91.6214 68.4038 91.2826 68.121C90.9436 67.8381 90.7738 67.6431 90.7738 67.5376L90.8225 67.4309C90.9193 67.2014 91.097 66.7769 91.3553 66.1569C91.4193 66.0161 91.5814 65.7063 91.8395 65.2284L91.9366 65.0957C92.0006 65.167 92.1132 65.2554 92.2753 65.3609C92.5821 65.6086 92.7677 65.7857 92.8323 65.8924C93.0094 66.1396 93.1226 66.3784 93.171 66.6085ZM95.8553 74.096C95.6773 74.3797 95.4679 74.5478 95.2256 74.6011C94.8702 74.6889 94.6446 74.7599 94.5476 74.8133C94.3382 74.9367 94.1276 75.1677 93.9179 75.5036L93.0945 76.83C92.4973 77.8035 92.1179 78.2721 91.9566 78.2364L91.1331 78.1834C90.6163 78.1486 90.06 78.2894 89.4626 78.6079C88.8649 78.9267 88.3971 79.3156 88.0578 79.7753C87.9936 79.8636 87.3883 80.8017 86.2413 82.5887C85.3703 83.951 84.0383 85.181 82.2467 86.2773C81.4721 86.7549 80.971 86.994 80.7449 86.994C80.6967 86.994 80.6642 86.9763 80.6481 86.9407C80.6317 86.9053 81.3584 86.2866 82.8276 85.0833C83.6828 84.3756 84.4022 83.6499 84.9826 82.9069C85.2571 82.5539 85.8463 81.6155 86.7499 80.0943C88.5748 77.0158 90.4717 75.5036 92.4408 75.5566C92.6021 75.5566 92.6991 75.5653 92.7314 75.5827H92.8768C93.022 75.5827 93.3288 75.2378 93.7968 74.5478C94.0552 74.1763 94.2493 73.9111 94.3783 73.7517C94.6039 73.4865 94.8218 73.3184 95.0321 73.2477C95.1286 73.2121 95.3869 73.1594 95.8066 73.088C95.9523 72.8229 96.1298 72.5487 96.3395 72.2656C96.4204 72.2482 96.4606 72.3099 96.4606 72.4517C96.4606 72.9113 96.2588 73.4599 95.8553 74.096ZM21.4657 73.6274C21.0947 75.1488 20.6504 76.0516 20.1342 76.3341L19.2137 76.8387C18.8104 77.0505 18.4552 77.511 18.1485 78.2181C17.9226 78.8204 17.7042 79.413 17.4945 79.997C17.1877 80.5983 16.8006 81.0142 16.332 81.2437C16.0258 81.4034 15.5577 81.5268 14.9281 81.6152C14.7017 81.6509 14.5163 81.6682 14.3709 81.6682C14.1773 81.6682 14.048 81.6152 13.9835 81.5091C13.9671 81.3851 14.2659 81.1023 14.8791 80.6597C15.0084 80.5713 15.2911 80.3676 15.7267 80.05C16.0176 79.8376 16.2111 79.6959 16.3079 79.6254C16.7763 79.2533 17.0948 78.9351 17.2646 78.67C17.4341 78.4039 17.6397 77.9491 17.8825 77.3031C18.1239 76.6574 18.3019 76.237 18.4148 76.042C18.6086 75.7244 18.9151 75.4146 19.3348 75.1135C19.8356 74.848 20.1665 74.6539 20.3278 74.5298C20.4891 74.4061 20.7152 74.1316 21.0058 73.7074C21.2806 73.3355 21.4252 73.1495 21.4419 73.1495C21.5387 73.1674 21.5466 73.3268 21.4657 73.6274ZM21.2953 88.9238C21.344 89.2243 21.247 89.6399 21.005 90.1706C20.7141 90.7902 20.4396 91.0994 20.1815 91.0994C20.0041 90.9403 19.7457 90.7192 19.4067 90.4363C19.0679 90.1532 18.8984 89.9584 18.8984 89.8524L18.9468 89.746C19.0436 89.5162 19.2213 89.0919 19.4791 88.4723C19.5439 88.3309 19.7052 88.0211 19.9639 87.5432L20.0607 87.4107C20.1252 87.4818 20.2384 87.5705 20.3994 87.6762C20.7062 87.924 20.8921 88.1008 20.9566 88.2068C21.134 88.4546 21.247 88.6931 21.2953 88.9238ZM18.8014 89.0829C18.8498 89.3837 18.753 89.7993 18.5107 90.3299C18.2204 90.9493 17.9462 91.2588 17.6875 91.2588C17.5093 91.0994 17.2514 90.8783 16.9127 90.5951C16.5734 90.3126 16.4039 90.1169 16.4039 90.0118L16.4526 89.9054C16.5493 89.6759 16.7268 89.251 16.9851 88.6314C17.0497 88.4903 17.2113 88.1799 17.4696 87.7029L17.5664 87.5705C17.6309 87.6412 17.7438 87.7293 17.9057 87.8353C18.2119 88.0825 18.3978 88.2602 18.4623 88.3662C18.6401 88.614 18.753 88.8525 18.8014 89.0829ZM14.2946 71.6906C14.3269 71.6199 14.3996 71.4869 14.5125 71.2924C14.5284 71.2571 14.5688 71.2037 14.6333 71.1333C14.682 71.2217 14.7061 71.2924 14.7061 71.3455L14.5849 72.2479L14.4395 73.7337L14.1735 76.0959C14.0606 77.0685 13.8667 77.8736 13.5922 78.5106L13.0353 79.7842C12.696 80.5453 12.43 80.9252 12.2361 80.9252L12.1637 80.7391C12.664 78.8647 12.979 77.3253 13.1075 76.1217L13.2775 74.4504L13.5436 73.6274L14.2946 71.6906ZM7.72746 78.6963C7.74414 78.7673 7.75234 78.8647 7.75234 78.9884C7.75234 79.3063 7.65501 79.6165 7.46144 79.917C7.07403 80.5186 6.79133 80.8371 6.61362 80.8725C6.58163 80.8725 6.5089 80.8278 6.39599 80.7391C6.02471 80.4566 5.83087 80.2975 5.81501 80.2621C5.5725 80.0848 5.43553 79.997 5.40299 79.997C5.24168 79.8732 5.1531 79.7489 5.1367 79.6254L5.69362 78.2454C5.87106 77.9086 6.02471 77.6348 6.15348 77.4223L6.2992 77.1835C6.41185 77.2369 6.58163 77.3342 6.80773 77.4754C7.08196 77.7055 7.2758 77.8826 7.38844 78.0063C7.59896 78.2358 7.71188 78.4662 7.72746 78.6963ZM10.8273 80.0761C10.6824 80.7838 10.5607 81.297 10.4642 81.6152C9.67299 84.2692 8.36531 86.1446 6.54117 87.2412C5.83087 87.6663 5.02351 87.8782 4.11991 87.8782C3.11871 87.8782 2.34389 87.5375 1.79517 86.8562C1.24645 86.1748 0.97168 85.2775 0.97168 84.1629C0.97168 82.4113 1.65792 80.2442 3.03013 77.6611C3.19171 77.3603 3.31228 77.2186 3.39321 77.2369C3.42574 77.2543 3.43367 77.3516 3.41754 77.5284C3.38528 77.7055 3.35274 77.8556 3.32021 77.9793L2.5216 79.89C2.13419 80.8107 1.94062 81.6068 1.94062 82.2789C1.94062 84.1359 2.87675 85.0647 4.74928 85.0647C6.75141 85.0647 8.33305 84.0745 9.49556 82.0928C9.86656 81.4741 10.0607 80.7574 10.0768 79.943L10.1249 78.0324C10.1416 77.5026 10.2783 76.874 10.5369 76.149L11.0209 75.1135C11.1502 74.8306 11.2546 74.6449 11.3356 74.5565C11.4165 74.6449 11.4485 74.7596 11.4326 74.9013L11.3118 75.8302L11.1909 77.1569C11.1909 77.9356 11.0698 78.9087 10.8273 80.0761ZM24.4389 71.6906C24.4709 71.6199 24.5436 71.4869 24.6571 71.2924C24.673 71.2571 24.7134 71.2037 24.7777 71.1333C24.8263 71.2217 24.8504 71.2924 24.8504 71.3455L24.7293 72.2479L24.5838 73.7337L24.3178 76.0959C24.2049 77.0685 24.0116 77.8736 23.7368 78.5106L23.1794 79.7842C22.8403 80.5453 22.5743 80.9252 22.3805 80.9252L22.308 80.7391C22.8084 78.8647 23.1233 77.3253 23.2524 76.1217L23.4216 74.4504L23.6882 73.6274L24.4389 71.6906Z" fill="#1C1C1C"/>
<path fill-rule="evenodd" clip-rule="evenodd" d="M29.8939 6.64999L32.5791 4.45228C42.6799 15.4549 32.3805 29.7686 19.708 26.2963L20.0916 22.4729C29.4783 25.1979 36.5317 15.8873 29.8939 6.64999ZM22.0097 16.7585L20.7312 19.7919C26.9984 22.6248 34.2968 15.4939 27.8916 8.4522L25.675 10.8249C28.96 15.0561 25.103 18.5934 22.0097 16.7585ZM46.6157 0.45805L47.9139 3.85993C52.3291 3.90098 55.4718 6.59336 55.3634 11.0154H42.0402C41.2959 7.07095 39.8697 4.06367 37.7622 1.9945L35.2077 3.42129C44.3443 16.4814 35.267 32.0742 19.5654 28.6618V31.7785H34.1015L38.4217 22.9771L51.7877 23.3505L48.0416 31.6685H55.8317L59.7899 22.999L75.3686 23.2186C73.0706 8.81923 58.9151 -0.174147 46.6157 0.45805Z" fill="#1C1C1C"/>
<path fill-rule="evenodd" clip-rule="evenodd" d="M65.6359 50.6018L62.951 52.7995C52.8508 41.7969 63.1502 27.4829 75.822 30.9555L75.4385 34.7792C66.0517 32.0539 58.9987 41.3651 65.6359 50.6018ZM73.521 40.493L74.7997 37.4599C68.5326 34.6267 61.2342 41.7582 67.6394 48.7999L69.8557 46.4266C66.5701 42.1963 70.4274 38.6578 73.521 40.493ZM48.9147 56.7934L47.6165 53.3919C43.2019 53.3511 40.0586 50.6584 40.1676 46.2364H53.4905C54.2342 50.1814 55.6606 53.1887 57.7679 55.2573L60.3224 53.8308C51.1861 40.771 60.2634 25.1776 75.9659 28.5903V25.4736H61.4286L57.1084 34.2744L43.743 33.9019L47.4885 25.583H39.6996L35.7404 34.2531L20.1611 34.0329C22.4601 48.4329 36.615 57.4259 48.9147 56.7934Z" fill="#1C1C1C"/>
</svg>
