<svg width="96" height="86" viewBox="0 0 96 86" fill="none" xmlns="http://www.w3.org/2000/svg">
<path d="M94.8077 71.4221C94.8735 71.4221 94.9763 71.3008 95.1161 71.0583C95.256 70.8157 95.3259 70.6246 95.3259 70.4848C95.3259 70.341 95.2498 70.1889 95.0976 70.0286C94.9496 69.8847 94.8138 69.8128 94.6904 69.8128C94.6411 69.8128 94.5331 69.9772 94.3665 70.306C94.2 70.6349 94.1167 70.8219 94.1167 70.8671C94.1167 70.9082 94.1537 70.9534 94.2277 71.0028C94.3018 71.0521 94.4066 71.1343 94.5424 71.2494C94.6781 71.3645 94.7665 71.4221 94.8077 71.4221ZM94.1784 72.9327C94.3141 72.9327 94.5033 72.6984 94.746 72.2298C94.8447 72.2956 94.966 72.4024 95.11 72.5504C95.2169 72.6573 95.2992 72.7107 95.3568 72.7107C95.4308 72.7107 95.548 72.5977 95.7084 72.3716C95.8688 72.1414 95.949 71.9503 95.949 71.7982C95.949 71.6625 95.8688 71.5145 95.7084 71.3542C95.548 71.2104 95.4143 71.1384 95.3074 71.1384C95.2745 71.1384 95.1943 71.2391 95.0668 71.4405C94.9763 71.5844 94.8838 71.7324 94.7891 71.8845C94.7357 71.7735 94.6329 71.6574 94.4807 71.5361C94.3285 71.4149 94.2154 71.3542 94.1413 71.3542C94.1002 71.3542 93.9851 71.5197 93.7959 71.8506C93.6067 72.1815 93.5121 72.3737 93.5121 72.4271C93.5121 72.4559 93.6149 72.5473 93.8205 72.7015C94.0262 72.8556 94.1455 72.9327 94.1784 72.9327ZM92.8643 77.5633C93.0863 77.5797 93.2622 77.5211 93.3917 77.3876C93.5213 77.254 93.7629 76.8891 94.1167 76.2931C94.2236 76.1451 94.3151 76.0444 94.3912 75.991C94.4673 75.9375 94.5465 75.8995 94.6287 75.8769C94.711 75.8543 94.7994 75.8409 94.894 75.8368C95.0339 75.8286 95.1922 75.6066 95.3691 75.1709C95.4267 75.0147 95.4555 74.9058 95.4555 74.8441C95.4472 74.7578 95.4184 74.727 95.3691 74.7516C95.3362 74.7681 95.2961 74.8164 95.2488 74.8965C95.2015 74.9767 95.149 75.0599 95.0915 75.1463C94.9886 75.1463 94.8673 75.1627 94.7275 75.1956C94.5876 75.2285 94.4519 75.3251 94.3203 75.4854C94.1886 75.6457 94.0961 75.7628 94.0426 75.8368C93.9521 75.9643 93.8884 76.0526 93.8514 76.102C93.7609 76.2253 93.6725 76.2869 93.5861 76.2869L93.557 76.2865C93.5204 76.286 93.451 76.2851 93.3486 76.2839C93.1779 76.2818 93.0164 76.2952 92.8643 76.3239C92.7409 76.7391 92.7409 77.1522 92.8643 77.5633ZM87.3569 81.8123L87.4227 81.7931C87.4597 81.7808 87.4926 81.7684 87.5214 81.7561C87.5461 81.7479 87.5667 81.7396 87.5831 81.7314C87.7723 81.6533 87.9492 81.566 88.1137 81.4694C88.2782 81.3728 88.4571 81.2546 88.6504 81.1148C88.8438 80.9751 89.0885 80.7603 89.3846 80.4705C89.6808 80.1807 89.9718 79.8354 90.2576 79.4346C90.5435 79.0338 90.7882 78.704 90.9918 78.445C91.1954 78.186 91.4494 77.9723 91.7537 77.8038C91.9635 77.7051 92.128 77.6393 92.2473 77.6064C92.383 77.5694 92.5054 77.551 92.6144 77.551C92.7234 77.551 92.8067 77.5551 92.8643 77.5633C92.9054 77.4811 92.9434 77.3896 92.9784 77.2889C93.0133 77.1882 93.0349 77.0844 93.0432 76.9775C93.0514 76.8706 93.0432 76.7617 93.0185 76.6507C92.9938 76.5397 92.9424 76.4308 92.8643 76.3239C92.819 76.3322 92.7748 76.3404 92.7316 76.3486C92.6884 76.3568 92.6442 76.3712 92.599 76.3918C92.3357 76.4904 92.0581 76.6425 91.7661 76.848C91.474 77.0536 91.1717 77.3495 90.8591 77.7359C90.7522 77.8634 90.5157 78.1922 90.1496 78.7225C90.0509 78.8828 89.946 79.0369 89.835 79.1849C89.6006 79.5549 89.3527 79.8806 89.0916 80.1622C88.8304 80.4438 88.5754 80.6843 88.3265 80.8836C88.0777 81.083 87.8546 81.2464 87.6571 81.3738C87.4844 81.5095 87.3672 81.6102 87.3055 81.6759C87.2561 81.7335 87.2376 81.7725 87.25 81.7931C87.2952 81.8219 87.3528 81.8219 87.4227 81.7931L87.3569 81.8123ZM89.4957 72.5072C89.5121 72.536 89.5779 72.5031 89.6931 72.4086C89.7466 72.3675 89.8041 72.3233 89.8658 72.276C89.9275 72.2288 89.9892 72.1784 90.0509 72.125L90.9208 71.4467C91.2458 71.2083 91.583 70.9514 91.9326 70.676C92.1959 70.4746 92.4817 70.2423 92.7902 69.9792C93.0164 69.7901 93.2149 69.6216 93.3856 69.4736C93.5563 69.3256 93.6992 69.2003 93.8144 69.0975C94.1352 68.8098 94.3491 68.6125 94.456 68.5056C94.493 68.4686 94.6185 68.335 94.8323 68.1048C95.0133 67.8993 95.1573 67.7246 95.2642 67.5807C95.367 67.4492 95.4822 67.2745 95.6097 67.0566C95.7331 66.8346 95.8133 66.6579 95.8503 66.5263C95.8668 66.477 95.875 66.438 95.875 66.4092C95.875 66.4123 95.8552 66.4341 95.8156 66.4747L95.6375 66.6527C95.4791 66.8089 95.2416 67.0402 94.9249 67.3464C94.4601 67.7945 94.127 68.113 93.9254 68.3021C93.5511 68.6474 93.181 68.9721 92.8149 69.2763C92.2267 69.7573 91.6879 70.1889 91.1985 70.5712C90.5692 71.085 90.1743 71.4303 90.0139 71.607C89.907 71.7139 89.8103 71.8454 89.7239 72.0016C89.6293 72.1784 89.5533 72.3469 89.4957 72.5072ZM88.3111 77.7236C88.4057 77.7236 88.5085 77.6558 88.6196 77.5201C88.7306 77.3886 88.8376 77.2385 88.9404 77.07C89.0432 76.8974 89.1234 76.7186 89.181 76.5336C89.2386 76.3527 89.2839 76.1307 89.3167 75.8677C89.3455 75.6334 89.3764 74.9818 89.4093 73.9131C89.4216 73.7281 89.434 73.5246 89.4463 73.3026C89.4628 73.1053 89.471 72.9183 89.471 72.7416C89.471 72.647 89.4669 72.5915 89.4587 72.5751C89.4299 72.5257 89.4011 72.534 89.3723 72.5997L89.1563 73.2472L88.8664 74.1535L88.8787 75.8677C88.8787 75.9828 88.8664 76.139 88.8417 76.3363C88.817 76.5254 88.7882 76.659 88.7553 76.7371C88.6936 76.9056 88.6103 76.9734 88.5055 76.9405C88.4006 76.9076 88.2947 76.8912 88.1877 76.8912C88.1384 77.0268 88.1157 77.1615 88.1199 77.2951C88.124 77.4287 88.1466 77.5633 88.1877 77.6989C88.2083 77.7113 88.2494 77.7195 88.3111 77.7236ZM83.1349 76.811C83.2665 76.811 83.4433 76.587 83.6654 76.139C83.7559 76.2047 83.8608 76.2972 83.9801 76.4164C84.0994 76.5356 84.1816 76.5952 84.2269 76.5952C84.2968 76.5952 84.4058 76.4904 84.5539 76.2808C84.706 76.067 84.7821 75.882 84.7821 75.7258C84.7739 75.5943 84.6988 75.4535 84.5569 75.3035C84.415 75.1534 84.2927 75.0784 84.1898 75.0784C84.1569 75.0784 84.0901 75.1627 83.9893 75.3312L83.8001 75.6464L83.7148 75.7875C83.6449 75.6889 83.5431 75.5748 83.4094 75.4453C83.2757 75.3158 83.1739 75.2655 83.104 75.2942C83.067 75.2942 82.9642 75.4525 82.7955 75.769C82.6269 76.0855 82.5426 76.2705 82.5426 76.3239C82.5426 76.3486 82.6032 76.4103 82.7246 76.5089C82.8459 76.6076 82.9354 76.6816 82.993 76.7309C83.0547 76.7843 83.102 76.811 83.1349 76.811ZM82.3822 79.9926C83.2788 79.9926 84.0911 79.9125 84.8191 79.7522C85.5554 79.5919 86.1189 79.3658 86.5096 79.0739C86.67 78.9671 86.8078 78.8355 86.923 78.6793C86.9723 78.6053 87.0227 78.5324 87.0741 78.4604C87.1255 78.3885 87.1759 78.3155 87.2253 78.2415C87.3281 78.0935 87.4289 77.9785 87.5276 77.8962C87.6304 77.8058 87.7291 77.7503 87.8237 77.7298C87.9265 77.7092 88.0479 77.6989 88.1877 77.6989C88.2576 77.6126 88.3152 77.4811 88.3605 77.3043C88.381 77.1193 88.3235 76.9816 88.1877 76.8912C87.9903 76.9323 87.8278 77.0207 87.7003 77.1563C87.6386 77.218 87.5584 77.3156 87.4597 77.4492C87.361 77.5828 87.3055 77.6537 87.2931 77.6619C87.1821 77.777 87.0299 77.8849 86.8366 77.9856C86.6433 78.0864 86.4006 78.1799 86.1086 78.2662C85.6644 78.4018 85.2891 78.4902 84.9826 78.5313C84.6762 78.5724 84.2773 78.6043 83.7857 78.6269C83.2942 78.6495 82.8511 78.6567 82.4562 78.6485C81.975 78.6444 81.6079 78.6094 81.3549 78.5437C81.102 78.4779 80.919 78.3916 80.8059 78.2847C80.6927 78.1778 80.6259 78.0298 80.6053 77.8407C80.5766 77.6517 80.5457 77.5571 80.5128 77.5571C80.4593 77.5571 80.412 77.7113 80.3709 78.0196C80.3257 78.3032 80.303 78.5827 80.303 78.8581C80.303 79.2856 80.4326 79.5795 80.6917 79.7398C80.8521 79.8467 81.101 79.9145 81.4382 79.9433C81.7344 79.9762 82.049 79.9926 82.3822 79.9926ZM78.2979 77.2242C78.6105 77.2242 78.8594 77.0268 79.0444 76.6322C79.1761 76.3322 79.2419 76.028 79.2419 75.7197C79.2337 75.6375 79.1987 75.5306 79.137 75.3991C79.0712 75.2757 78.9889 75.2326 78.8902 75.2696C78.8491 75.3107 78.7977 75.4299 78.736 75.6272C78.6784 75.8286 78.6373 75.9314 78.6126 75.9355C78.4727 75.9355 78.3514 75.8656 78.2486 75.7258C78.1375 75.5902 78.082 75.3867 78.082 75.1154V74.9058C78.0326 74.8893 77.9761 74.9099 77.9123 74.9674C77.8486 75.025 77.79 75.1031 77.7365 75.2017C77.683 75.3004 77.6388 75.4114 77.6039 75.5347C77.5689 75.658 77.5514 75.7752 77.5514 75.8862C77.5514 76.1533 77.5679 76.3753 77.6008 76.5521C77.6337 76.7206 77.7139 76.8748 77.8414 77.0145C77.9689 77.1543 78.1211 77.2242 78.2979 77.2242ZM77.1751 77.2704C77.2327 77.2683 77.2841 77.2529 77.3293 77.2242C77.3375 77.1502 77.4116 76.996 77.5514 76.7617C77.6213 76.6425 77.6728 76.5829 77.7057 76.5829C77.7509 76.5829 77.7941 76.4945 77.8352 76.3178C77.8805 76.1657 77.9257 75.9396 77.9709 75.6395L78.082 74.9119C78.082 74.7557 78.1252 74.4002 78.2116 73.8452C78.2239 73.7548 78.2414 73.6428 78.264 73.5092C78.2866 73.3756 78.3134 73.2389 78.3442 73.0992C78.3751 72.9594 78.3781 72.8834 78.3535 72.871C78.3329 72.8587 78.3062 72.8649 78.2733 72.8895C78.1458 73.1074 78.045 73.3047 77.9709 73.4815C77.938 73.5637 77.8866 73.7158 77.8167 73.9377C77.7715 74.1227 77.7324 74.2995 77.6995 74.468C77.6584 74.6612 77.6234 74.8914 77.5946 75.1586L77.5514 75.8122L77.5391 76.0896C77.5308 76.1801 77.4774 76.3198 77.3787 76.5089C77.3663 76.5377 77.2923 76.6795 77.1566 76.9344L77.0023 77.2242C77.0599 77.257 77.1175 77.2725 77.1751 77.2704ZM75.1083 81.9657C75.3345 81.9657 75.5463 81.9328 75.7437 81.8671C75.9247 81.8054 76.1098 81.715 76.299 81.5958C76.8131 81.2217 77.2203 80.7202 77.5206 80.0913C77.7098 79.6843 77.8393 79.3432 77.9092 79.0678C77.9792 78.7841 78.0141 78.5067 78.0141 78.2354C78.0141 78.0504 77.9936 77.9106 77.9524 77.8161C77.9113 77.7298 77.8434 77.6527 77.7488 77.5849C77.6542 77.517 77.5607 77.4544 77.4681 77.3968C77.3756 77.3393 77.3293 77.2817 77.3293 77.2242C77.3252 77.1954 77.3087 77.1748 77.28 77.1625C77.2512 77.1502 77.2193 77.144 77.1843 77.144C77.1494 77.144 77.1144 77.1502 77.0794 77.1625C77.0445 77.1748 77.0188 77.1954 77.0023 77.2242C76.9118 77.3886 76.8347 77.5623 76.771 77.7452C76.7072 77.9281 76.6753 78.0915 76.6753 78.2354C76.6753 78.4368 76.8255 78.6074 77.1257 78.7471C77.4219 78.8828 77.5699 78.9855 77.5699 79.0554C77.5699 79.4048 77.3807 79.7378 77.0023 80.0543C76.5581 80.4243 76.007 80.6092 75.3489 80.6092C74.9828 80.6092 74.6846 80.5332 74.4543 80.3811C74.1417 80.1632 73.9854 79.8015 73.9854 79.2959C73.9854 79.0287 74.0821 78.6505 74.2754 78.1614C74.3864 77.8942 74.588 77.4235 74.88 76.7494C74.9129 76.6754 74.9396 76.587 74.9602 76.4843C74.9808 76.3979 74.9684 76.3507 74.9232 76.3424C74.8903 76.3383 74.843 76.3918 74.7813 76.5027C74.7566 76.5603 74.7247 76.6261 74.6857 76.7001C74.6466 76.774 74.6024 76.8563 74.553 76.9467C74.4831 77.0947 74.4255 77.2149 74.3803 77.3074C74.335 77.3999 74.3001 77.4687 74.2754 77.514C74.1931 77.703 74.0944 77.9353 73.9792 78.2107C73.8723 78.4779 73.7695 78.7944 73.6708 79.1602C73.5721 79.5384 73.5227 79.8447 73.5227 80.079C73.5227 80.6051 73.644 81.0367 73.8867 81.3738C74.1705 81.7684 74.5777 81.9657 75.1083 81.9657ZM71.9248 79.9063C72.1428 79.894 72.3279 79.7809 72.48 79.5672C72.6322 79.3534 72.7525 79.0801 72.841 78.7471C72.9294 78.4142 72.9757 78.1737 72.9798 78.0257C72.988 77.9394 72.9695 77.8962 72.9242 77.8962C72.8872 77.8962 72.8482 77.9569 72.807 78.0781C72.7659 78.1994 72.7155 78.3052 72.6559 78.3957C72.5962 78.4861 72.5109 78.5437 72.3998 78.5683C72.2888 78.593 72.1777 78.5683 72.0667 78.4943C71.8816 78.3587 71.789 78.1182 71.789 77.7729V77.5016C71.7232 77.5181 71.6379 77.6106 71.533 77.7791C71.4281 77.9476 71.3346 78.2086 71.2523 78.5622V78.6053C71.2441 78.9835 71.2955 79.2918 71.4065 79.5302C71.5299 79.7727 71.7027 79.8981 71.9248 79.9063ZM71.5978 84.7096C71.7212 84.7096 71.8898 84.4794 72.1037 84.019C72.1901 84.0847 72.2991 84.1896 72.4307 84.3334C72.5253 84.4362 72.5973 84.4876 72.6466 84.4876C72.7124 84.4876 72.8153 84.3787 72.9551 84.1608C73.0991 83.9347 73.171 83.7456 73.171 83.5935C73.171 83.462 73.0991 83.3161 72.9551 83.1557C72.8153 83.016 72.698 82.9461 72.6034 82.9461C72.5746 82.9461 72.5027 83.0468 72.3875 83.2482C72.3093 83.388 72.2271 83.5298 72.1407 83.6737C72.0955 83.5709 72.005 83.4589 71.8693 83.3376C71.7335 83.2164 71.6328 83.1557 71.5669 83.1557C71.5299 83.1557 71.4281 83.3191 71.2616 83.6459C71.095 83.9727 71.0117 84.1608 71.0117 84.2101C71.0117 84.2389 71.1022 84.3293 71.2831 84.4814C71.4641 84.6335 71.569 84.7096 71.5978 84.7096ZM72.1469 85.9242C72.1962 85.9242 72.2867 85.8235 72.4183 85.6221C72.5458 85.4125 72.6137 85.2357 72.6219 85.0918C72.6302 84.9603 72.5757 84.8226 72.4584 84.6787C72.3412 84.5349 72.2333 84.4588 72.1345 84.4506C72.0975 84.4465 71.9988 84.5873 71.8384 84.8729C71.678 85.1586 71.5957 85.322 71.5916 85.3631C71.5916 85.4001 71.6194 85.4433 71.6749 85.4926C71.7304 85.5419 71.7849 85.5892 71.8384 85.6344C71.9042 85.7043 71.968 85.7701 72.0297 85.8317C72.0749 85.8893 72.114 85.9201 72.1469 85.9242ZM71.2523 78.5683C71.3428 78.5807 71.4199 78.5652 71.4837 78.5221C71.5474 78.4789 71.5998 78.4131 71.641 78.3248C71.6821 78.2364 71.715 78.1295 71.7397 78.0041C71.7644 77.8788 71.7808 77.738 71.789 77.5818C71.789 77.5571 71.7993 77.4132 71.8199 77.1502C71.8405 76.8871 71.896 76.402 71.9865 75.695C72.077 74.988 72.1284 74.5091 72.1407 74.2584C72.1407 74.2255 72.1294 74.2049 72.1068 74.1967C72.0842 74.1885 72.0626 74.209 72.042 74.2584C71.8405 74.7681 71.7068 75.1236 71.641 75.3251C71.5135 76.0198 71.4178 76.6538 71.3541 77.2272C71.2903 77.8007 71.2564 78.2477 71.2523 78.5683ZM68.8338 79.9063C69.0477 79.9104 69.2492 79.8303 69.4384 79.6659C69.5659 79.5508 69.7058 79.3781 69.858 79.1479C69.9485 79.0082 70.0328 78.8376 70.1109 78.6361C70.1644 78.5005 70.2117 78.371 70.2528 78.2477C70.294 78.1244 70.3443 77.9538 70.404 77.7359C70.4636 77.5181 70.4976 77.2468 70.5058 76.922C70.5099 76.8275 70.5161 76.6641 70.5243 76.4318C70.5325 76.1996 70.5387 76.0033 70.5428 75.843C70.5716 75.2141 70.6189 74.6591 70.6847 74.1782C70.7053 74.0713 70.7217 73.9603 70.7341 73.8452C70.7546 73.7178 70.7546 73.649 70.7341 73.6387C70.7135 73.6284 70.6888 73.6438 70.66 73.6849C70.4297 74.0878 70.2631 74.4598 70.1603 74.801C70.0575 75.1421 70.0009 75.4422 69.9906 75.7012C69.9803 75.9601 69.9773 76.2489 69.9814 76.5675C69.9855 76.8861 69.9834 77.144 69.9752 77.3413V77.7236C69.9752 77.851 69.9372 78.0319 69.8611 78.2662C69.785 78.5005 69.6338 78.7091 69.4076 78.892C69.1814 79.075 68.9552 79.1623 68.729 79.1541C68.6878 79.1541 68.6385 79.1531 68.5809 79.151C68.5233 79.1489 68.4904 79.1397 68.4822 79.1233C68.6467 78.8848 68.7824 78.5992 68.8894 78.2662C68.9675 78.0401 69.0261 77.8058 69.0652 77.5633C69.1043 77.3208 69.1546 76.7884 69.2163 75.9663C69.2332 75.7421 69.2477 75.5457 69.2599 75.3771L69.2814 75.0771C69.2997 74.8142 69.3089 74.6625 69.3089 74.6222C69.313 74.4701 69.3007 74.394 69.2719 74.394C69.2636 74.394 69.2534 74.4022 69.241 74.4187C69.2287 74.4351 69.2184 74.4557 69.2102 74.4803C69.021 74.99 68.8852 75.3949 68.803 75.695C68.6796 76.139 68.6117 76.55 68.5994 76.9282C68.6035 77.0762 68.6045 77.2139 68.6025 77.3413C68.6004 77.4687 68.5973 77.5962 68.5932 77.7236C68.5891 77.851 68.5788 78.0031 68.5624 78.1799C68.5459 78.3566 68.5212 78.4995 68.4883 78.6084C68.4554 78.7173 68.4184 78.8047 68.3773 78.8705C68.3362 78.9362 68.3032 78.9855 68.2786 79.0184C68.2292 79.0842 68.184 79.1438 68.1428 79.1972C68.1017 79.2507 68.0811 79.298 68.0811 79.3391C68.077 79.3966 68.1058 79.4542 68.1675 79.5117C68.184 79.5281 68.223 79.561 68.2847 79.6104C68.3629 79.6967 68.4452 79.7666 68.5315 79.82C68.6179 79.8734 68.7187 79.9022 68.8338 79.9063ZM67.2051 76.5151C67.349 76.3794 67.5053 76.1657 67.674 75.8738C67.8344 75.5902 67.9187 75.3353 67.9269 75.1093C67.9351 74.8133 67.9392 74.6468 67.9392 74.6098C67.9392 74.4618 67.9413 74.3467 67.9454 74.2645C67.9495 74.1453 67.9434 74.0796 67.9269 74.0672C67.8981 74.0549 67.8673 74.0775 67.8344 74.135C67.711 74.3899 67.6143 74.581 67.5444 74.7085C67.4375 74.8893 67.384 75.0332 67.384 75.1401V75.6704C67.384 75.7238 67.3737 75.7813 67.3531 75.843C67.3243 75.9047 67.275 75.956 67.2051 75.9971C67.1681 76.0835 67.1537 76.1698 67.1619 76.2561C67.1701 76.3424 67.1845 76.4288 67.2051 76.5151ZM66.3228 83.2976C66.4544 83.2976 66.6313 83.0735 66.8534 82.6255C66.9439 82.6912 67.0488 82.7837 67.1681 82.9029C67.2873 83.0222 67.3696 83.0818 67.4148 83.0818C67.4848 83.0818 67.5938 82.9769 67.7418 82.7673C67.894 82.5535 67.9701 82.3686 67.9701 82.2124C67.9619 82.0808 67.8868 81.94 67.7449 81.79C67.603 81.64 67.4806 81.5649 67.3778 81.5649C67.3449 81.5649 67.2781 81.6492 67.1773 81.8177C67.0765 81.9863 66.985 82.1384 66.9028 82.274C66.8328 82.1754 66.731 82.0613 66.5974 81.9318C66.4637 81.8023 66.3619 81.752 66.292 81.7808C66.255 81.7808 66.1521 81.939 65.9835 82.2555C65.8149 82.572 65.7305 82.757 65.7305 82.8105C65.7305 82.8351 65.7912 82.8968 65.9125 82.9954C66.0339 83.0941 66.1233 83.1681 66.1809 83.2174C66.2426 83.2708 66.2899 83.2976 66.3228 83.2976ZM64.6817 72.6182C64.7434 72.6182 64.839 72.499 64.9686 72.2606C65.0982 72.0222 65.1629 71.8352 65.1629 71.6995C65.1629 71.5556 65.093 71.4056 64.9532 71.2494C64.8133 71.1096 64.6858 71.0398 64.5707 71.0398C64.5254 71.0398 64.4257 71.2011 64.2714 71.5238C64.1172 71.8465 64.0401 72.0284 64.0401 72.0695C64.0401 72.1106 64.074 72.1558 64.1419 72.2051C64.2097 72.2544 64.3074 72.3356 64.4349 72.4487C64.5624 72.5617 64.6447 72.6182 64.6817 72.6182ZM64.0956 74.098C64.2231 74.098 64.4 73.8679 64.6262 73.4075C64.7167 73.4732 64.8298 73.5781 64.9655 73.7219C65.0642 73.8247 65.1403 73.8761 65.1938 73.8761C65.2596 73.8761 65.3686 73.7671 65.5208 73.5493C65.6688 73.3232 65.7429 73.1341 65.7429 72.982C65.7429 72.8505 65.6688 72.7066 65.5208 72.5504C65.3686 72.4106 65.2431 72.3408 65.1444 72.3408C65.1156 72.3408 65.0416 72.4394 64.9223 72.6367C64.8401 72.7765 64.7537 72.9204 64.6632 73.0683C64.6139 72.9615 64.5182 72.8484 64.3763 72.7292C64.2344 72.61 64.1306 72.5504 64.0648 72.5504C64.0236 72.5504 63.9157 72.7128 63.7409 73.0375C63.5661 73.3623 63.4787 73.5493 63.4787 73.5986C63.4787 73.6274 63.5743 73.7178 63.7655 73.8699C63.9568 74.022 64.0668 74.098 64.0956 74.098ZM61.8561 82.0212C62.7897 82.013 63.5897 81.5588 64.256 80.6586C64.5398 80.2557 64.7722 79.8241 64.9532 79.3637C65.1876 78.7636 65.348 78.0894 65.4344 77.3413C65.4509 77.2755 65.4632 77.2427 65.4714 77.2427C65.6359 77.2221 65.7768 77.1841 65.894 77.1286C66.0113 77.0731 66.1254 77.0022 66.2365 76.9159C66.3352 76.9693 66.4935 76.922 66.7115 76.774C66.876 76.7617 67.0406 76.6774 67.2051 76.5212C67.2133 76.5007 67.2297 76.4658 67.2544 76.4164C67.2709 76.3835 67.2791 76.3301 67.2791 76.2561C67.2791 76.1862 67.2709 76.1348 67.2544 76.102L67.2051 76.0033C67.1681 76.0321 67.1146 76.0526 67.0447 76.065C66.9706 76.0691 66.9069 76.0567 66.8534 76.028C66.8246 76.0033 66.7835 76.0413 66.73 76.142C66.6765 76.2428 66.6148 76.2931 66.5449 76.2931C66.4709 76.2931 66.4113 76.2705 66.366 76.2253C66.3208 76.1801 66.2837 76.1636 66.255 76.176C66.1233 76.3486 66.0123 76.4534 65.9218 76.4904C65.8313 76.5274 65.7398 76.5315 65.6473 76.5027C65.5547 76.474 65.4776 76.4596 65.4159 76.4596C65.1938 76.4637 65.0745 76.5952 65.0581 76.8542L65.0585 77.5356C65.0427 78.2976 64.8903 78.907 64.6015 79.3637C64.3794 79.7296 64.0853 80.0358 63.7193 80.2824C63.2257 80.5661 62.7116 80.7079 62.1769 80.7079C61.7738 80.6997 61.4334 80.5928 61.1558 80.3873C60.8782 80.1817 60.727 79.8775 60.7024 79.4747C60.7106 78.9486 60.8977 78.3237 61.2638 77.6003C61.2885 77.5263 61.2905 77.4544 61.27 77.3845C61.2494 77.3105 61.1856 77.3721 61.0787 77.5694C60.5234 78.5519 60.2479 79.4624 60.2519 80.3009C60.2684 80.8312 60.4186 81.2443 60.7024 81.5403C60.9862 81.8404 61.3707 82.0007 61.8561 82.0212ZM57.3955 79.9063C57.4489 79.9063 57.6186 79.8601 57.9045 79.7676C58.1903 79.6751 58.4032 79.6032 58.543 79.5518C58.6829 79.5004 58.7877 79.4521 58.8577 79.4069C58.9276 79.3617 59.0242 79.2445 59.1476 79.0554C59.271 78.8663 59.4047 78.5724 59.5486 78.1737C59.5816 78.0833 59.6114 77.9856 59.6381 77.8808C59.6648 77.776 59.6854 77.6897 59.6998 77.6219C59.7142 77.554 59.7276 77.4698 59.7399 77.3691C59.7522 77.2683 59.7584 77.1666 59.7584 77.0638C59.7584 76.8624 59.7019 76.6898 59.5888 76.5459C59.4756 76.402 59.3348 76.3301 59.1661 76.3301C59.0674 76.3301 58.9677 76.3959 58.8669 76.5274C58.7661 76.659 58.6664 76.8254 58.5677 77.0268C58.469 77.2283 58.4042 77.3752 58.3733 77.4677C58.3425 77.5602 58.3189 77.6414 58.3024 77.7113C58.2859 77.8264 58.3291 77.9312 58.432 78.0257C58.5348 78.1203 58.6623 78.1696 58.8145 78.1737C58.8721 78.1737 58.9307 78.1583 58.9903 78.1275C59.0499 78.0966 59.1086 78.0853 59.1661 78.0935C59.1127 78.2826 59.0294 78.4522 58.9163 78.6022C58.8032 78.7523 58.6921 78.8663 58.5831 78.9444C58.4741 79.0225 58.2325 79.187 57.8582 79.4377C57.4839 79.6885 57.3132 79.8364 57.3461 79.8817C57.3461 79.8981 57.3626 79.9063 57.3955 79.9063ZM53.7986 74.801C54.0742 74.5338 54.5205 74.2522 55.1374 73.9562C55.7544 73.6603 56.0814 73.4979 56.1184 73.4691C56.2006 73.428 56.2788 73.3643 56.3528 73.278C56.4022 73.2245 56.4927 73.094 56.6243 72.8865C56.7559 72.6789 56.8299 72.5525 56.8464 72.5072C56.8587 72.4661 56.8423 72.4456 56.797 72.4456L56.7107 72.4764C56.4392 72.5956 56.1585 72.7405 55.8685 72.9111C55.5785 73.0817 55.3009 73.2574 55.0356 73.4383C54.7703 73.6192 54.5297 73.7969 54.3138 73.9716C54.0978 74.1463 53.9261 74.2954 53.7986 74.4187C53.7575 74.5132 53.7421 74.5923 53.7523 74.6561C53.7626 74.7198 53.7781 74.7681 53.7986 74.801ZM55.9641 81.7006C56.0875 81.7006 56.2562 81.4704 56.47 81.01C56.5564 81.0758 56.6654 81.1806 56.797 81.3245C56.8916 81.4272 56.9636 81.4786 57.013 81.4786C57.0788 81.4786 57.1816 81.3697 57.3214 81.1518C57.4654 80.9257 57.5374 80.7367 57.5374 80.5846C57.5374 80.453 57.4654 80.3071 57.3214 80.1468C57.1816 80.007 57.0644 79.9372 56.9698 79.9372C56.941 79.9372 56.869 80.0379 56.7538 80.2393C56.6757 80.379 56.5934 80.5209 56.5071 80.6647C56.4618 80.562 56.3713 80.4499 56.2356 80.3287C56.0999 80.2074 55.9991 80.1468 55.9333 80.1468C55.8963 80.1468 55.7945 80.3102 55.6279 80.637C55.4613 80.9638 55.378 81.1518 55.378 81.2012C55.378 81.2299 55.4685 81.3204 55.6495 81.4725C55.8305 81.6246 55.9353 81.7006 55.9641 81.7006ZM56.5132 82.9153C56.5626 82.9153 56.6531 82.8146 56.7847 82.6131C56.9122 82.4035 56.9801 82.2268 56.9883 82.0829C56.9965 81.9513 56.942 81.8136 56.8248 81.6698C56.7076 81.5259 56.5996 81.4499 56.5009 81.4416C56.4639 81.4375 56.3652 81.5783 56.2048 81.864C56.0443 82.1497 55.9621 82.3131 55.958 82.3542C55.958 82.3912 55.9857 82.4343 56.0413 82.4837C56.0968 82.533 56.1513 82.5803 56.2048 82.6255C56.2706 82.6954 56.3343 82.7611 56.396 82.8228C56.4412 82.8803 56.4803 82.9112 56.5132 82.9153ZM54.5636 70.713C54.6295 70.713 54.7343 70.5897 54.8783 70.343C55.0223 70.0964 55.0942 69.9073 55.0942 69.7758C55.0819 69.6771 54.9893 69.5404 54.8166 69.3657C54.6439 69.191 54.5122 69.1222 54.4217 69.1592C54.3765 69.1592 54.2768 69.3102 54.1225 69.6124C53.9683 69.9145 53.8912 70.1108 53.8912 70.2012C53.8912 70.2464 53.922 70.2896 53.9837 70.3307C54.0536 70.38 54.1616 70.453 54.3076 70.5496L54.3879 70.6025C54.4853 70.6663 54.5439 70.7031 54.5636 70.713ZM53.7986 76.5151C53.9467 76.3671 54.1009 76.1986 54.2613 76.0095C54.3477 75.9067 54.432 75.8019 54.5143 75.695C54.6171 75.5635 54.7405 75.4545 54.8845 75.3682C54.9174 75.3518 54.9585 75.2963 55.0079 75.2017C55.0613 75.0949 55.0942 75.0127 55.1066 74.9551C55.1189 74.8934 55.1148 74.8544 55.0942 74.838C55.0737 74.8215 55.0449 74.8215 55.0079 74.838C54.9174 74.8791 54.7888 74.9089 54.6223 74.9274C54.4557 74.9459 54.2737 74.9572 54.0763 74.9613C53.8788 74.9654 53.7369 74.9551 53.6506 74.9304C53.6958 74.8852 53.7452 74.8421 53.7986 74.801C53.8356 74.7722 53.8613 74.7352 53.8757 74.69C53.8901 74.6448 53.8963 74.6026 53.8942 74.5636C53.8922 74.5245 53.8819 74.4906 53.8634 74.4618C53.8449 74.4331 53.8233 74.4187 53.7986 74.4187C53.6547 74.5543 53.5302 74.69 53.4254 74.8256C53.3205 74.9613 53.2454 75.0928 53.2002 75.2202C53.1837 75.2655 53.1919 75.3025 53.2249 75.3312C53.2619 75.3641 53.338 75.3806 53.4531 75.3806C53.5144 75.3797 53.5725 75.3791 53.6273 75.3788L53.9175 75.3793C54.2109 75.383 54.3461 75.3978 54.323 75.4237C54.212 75.5923 54.1133 75.7217 54.0269 75.8122C53.9405 75.9026 53.8644 75.9643 53.7986 75.9971C53.7534 76.0424 53.7236 76.0937 53.7092 76.1513C53.6948 76.2088 53.6896 76.2654 53.6937 76.3209C53.6979 76.3763 53.7102 76.4226 53.7308 76.4596C53.7513 76.4966 53.7739 76.5151 53.7986 76.5151ZM51.2753 72.6182C51.337 72.6182 51.4326 72.499 51.5622 72.2606C51.6917 72.0222 51.7565 71.8352 51.7565 71.6995C51.7565 71.5556 51.6866 71.4056 51.5467 71.2494C51.4069 71.1096 51.2794 71.0398 51.1642 71.0398C51.119 71.0398 51.0192 71.2011 50.865 71.5238C50.7108 71.8465 50.6336 72.0284 50.6336 72.0695C50.6336 72.1106 50.6676 72.1558 50.7354 72.2051C50.8033 72.2544 50.901 72.3356 51.0285 72.4487C51.156 72.5617 51.2383 72.6182 51.2753 72.6182ZM50.6892 74.098C50.8167 74.098 50.9935 73.8679 51.2197 73.4075C51.3102 73.4732 51.4233 73.5781 51.5591 73.7219C51.6578 73.8247 51.7339 73.8761 51.7873 73.8761C51.8532 73.8761 51.9622 73.7671 52.1143 73.5493C52.2624 73.3232 52.3364 73.1341 52.3364 72.982C52.3364 72.8505 52.2624 72.7066 52.1143 72.5504C51.9622 72.4106 51.8367 72.3408 51.738 72.3408C51.7092 72.3408 51.6352 72.4394 51.5159 72.6367C51.4336 72.7765 51.3473 72.9204 51.2568 73.0683C51.2074 72.9615 51.1118 72.8484 50.9699 72.7292C50.828 72.61 50.7241 72.5504 50.6583 72.5504C50.6172 72.5504 50.5092 72.7128 50.3344 73.0375C50.1596 73.3623 50.0722 73.5493 50.0722 73.5986C50.0722 73.6274 50.1678 73.7178 50.3591 73.8699C50.5504 74.022 50.6604 74.098 50.6892 74.098ZM48.4496 82.0212C49.3833 82.013 50.1833 81.5588 50.8496 80.6586C51.1334 80.2557 51.3658 79.8241 51.5467 79.3637C51.7812 78.7636 51.9416 78.0894 52.028 77.3413C52.0444 77.2755 52.0568 77.2427 52.065 77.2427C52.2295 77.2221 52.3704 77.1841 52.4876 77.1286C52.6048 77.0731 52.7189 77.0022 52.83 76.9159C52.9287 76.9693 53.0871 76.922 53.3051 76.774C53.4696 76.7617 53.6341 76.6774 53.7986 76.5212C53.8068 76.5007 53.8233 76.4658 53.848 76.4164C53.8644 76.3835 53.8727 76.3301 53.8727 76.2561C53.8727 76.1862 53.8644 76.1348 53.848 76.102L53.7986 76.0033C53.7616 76.0321 53.7081 76.0526 53.6382 76.065C53.5642 76.0691 53.5004 76.0567 53.447 76.028C53.4182 76.0033 53.377 76.0413 53.3236 76.142C53.2701 76.2428 53.2084 76.2931 53.1385 76.2931C53.0644 76.2931 53.0048 76.2705 52.9596 76.2253C52.9143 76.1801 52.8773 76.1636 52.8485 76.176C52.7169 76.3486 52.6058 76.4534 52.5154 76.4904C52.4249 76.5274 52.3334 76.5315 52.2408 76.5027C52.1483 76.474 52.0711 76.4596 52.0095 76.4596C51.7873 76.4637 51.6681 76.5952 51.6516 76.8542L51.6521 77.5356C51.6362 78.2976 51.4839 78.907 51.1951 79.3637C50.973 79.7296 50.6789 80.0358 50.3128 80.2824C49.8193 80.5661 49.3051 80.7079 48.7704 80.7079C48.3674 80.6997 48.027 80.5928 47.7494 80.3873C47.4717 80.1817 47.3206 79.8775 47.2959 79.4747C47.3041 78.9486 47.4913 78.3237 47.8573 77.6003C47.882 77.5263 47.8841 77.4544 47.8635 77.3845C47.8429 77.3105 47.7792 77.3721 47.6723 77.5694C47.117 78.5519 46.8414 79.4624 46.8455 80.3009C46.862 80.8312 47.0121 81.2443 47.2959 81.5403C47.5797 81.8404 47.9643 82.0007 48.4496 82.0212ZM45.9509 73.2163C46.0168 73.2163 46.1216 73.093 46.2656 72.8464C46.4095 72.5997 46.4815 72.4106 46.4815 72.2791C46.4692 72.1805 46.3766 72.0438 46.2039 71.8691C46.0312 71.6944 45.8995 71.6255 45.809 71.6625C45.7638 71.6625 45.6641 71.8136 45.5098 72.1157C45.3556 72.4178 45.2785 72.6141 45.2785 72.7046C45.2785 72.7498 45.3093 72.7929 45.371 72.834C45.4409 72.8834 45.5489 72.9563 45.6949 73.0529C45.8409 73.1495 45.9263 73.204 45.9509 73.2163ZM45.445 78.3833C45.6055 78.2189 45.7381 78.0617 45.843 77.9117C45.9479 77.7616 46.0476 77.5623 46.1422 77.3136C46.2368 77.0649 46.2841 76.8069 46.2841 76.5397C46.2841 76.1945 46.2039 75.919 46.0435 75.7135C45.8872 75.508 45.6939 75.4052 45.4636 75.4052C45.3772 75.4052 45.2887 75.4874 45.1983 75.6519C45.1078 75.8163 45.044 75.9314 45.007 75.9971C44.9494 76.1205 44.8918 76.2458 44.8343 76.3733C44.7561 76.55 44.717 76.659 44.717 76.7001C44.717 76.8193 44.7561 76.9118 44.8343 76.9775C44.9124 77.0474 45.0008 77.0823 45.0995 77.0823C45.153 77.0823 45.2127 77.0782 45.2785 77.07C45.336 77.0577 45.3854 77.0392 45.4265 77.0145C45.4759 77.0145 45.5314 77.0597 45.5931 77.1502C45.6507 77.2406 45.6795 77.3105 45.6795 77.3598C45.6795 77.4256 45.6013 77.514 45.445 77.6249C45.3957 77.6948 45.3628 77.7698 45.3463 77.85C45.3299 77.9302 45.3237 78.0062 45.3278 78.0781C45.3319 78.1501 45.3443 78.2148 45.3648 78.2724C45.3854 78.3299 45.4121 78.3669 45.445 78.3833ZM40.713 81.9966C40.7582 82.0212 40.8261 82.0109 40.9166 81.9657C41.0235 81.9164 41.1839 81.8383 41.3978 81.7314C41.5459 81.6574 41.6796 81.5855 41.7988 81.5156C42.3171 81.1703 42.7839 80.7326 43.1993 80.2023C43.4009 79.9556 43.6404 79.6617 43.9181 79.3206C44.1957 78.9794 44.4435 78.7656 44.6615 78.6793C44.715 78.6546 44.8528 78.6012 45.0749 78.519L45.1963 78.4741C45.3424 78.4202 45.4253 78.3899 45.445 78.3833C45.4903 78.2559 45.515 78.1264 45.5191 77.9949C45.5232 77.8634 45.4985 77.7318 45.445 77.6003C45.3998 77.6167 45.3525 77.6352 45.3031 77.6558C45.0358 77.7626 44.8733 77.8305 44.8158 77.8592C44.6636 77.9291 44.5114 78.0175 44.3592 78.1244C44.2111 78.2436 44.0569 78.3936 43.8965 78.5745C43.7854 78.7101 43.6374 78.9074 43.4523 79.1664C43.1273 79.6391 42.9135 79.9372 42.8106 80.0605C42.6667 80.2413 42.5515 80.3688 42.4651 80.4428C42.387 80.5414 42.2533 80.6791 42.0641 80.8559C41.9983 80.9257 41.7968 81.0943 41.4595 81.3615L40.9413 81.7314C40.9001 81.7643 40.8631 81.7931 40.8302 81.8177C40.7973 81.8465 40.7685 81.8691 40.7438 81.8856C40.7027 81.9267 40.6924 81.9637 40.713 81.9966ZM40.2564 74.172C40.2935 74.1967 40.348 74.1792 40.4199 74.1196C40.4919 74.06 40.5701 74.0015 40.6544 73.9439C40.7387 73.8864 40.8415 73.8391 40.9629 73.8021C41.0842 73.7651 41.224 73.7579 41.3824 73.7805C41.5407 73.8031 41.6744 73.8309 41.7834 73.8637C41.8924 73.8966 42.0189 73.9192 42.1628 73.9316C42.5207 73.9439 42.8189 73.909 43.0574 73.8267C43.296 73.7445 43.5654 73.6068 43.8656 73.4136C44.0589 73.2862 44.2266 73.1454 44.3685 72.9913C44.5104 72.8371 44.6183 72.6922 44.6924 72.5566C44.7294 72.499 44.7489 72.4487 44.751 72.4055C44.753 72.3623 44.7417 72.3408 44.717 72.3408C44.6882 72.3408 44.6523 72.3541 44.6091 72.3808C44.5659 72.4076 44.4805 72.4641 44.353 72.5504C44.2255 72.6367 44.0857 72.7128 43.9335 72.7785C43.6744 72.8895 43.3926 72.945 43.0883 72.945C42.9114 72.945 42.7387 72.9306 42.57 72.9019C42.2245 72.8361 42.0168 72.8032 41.9469 72.8032C41.7371 72.8032 41.4883 72.8957 41.2004 73.0807C40.9495 73.241 40.7253 73.4404 40.5279 73.6788C40.4374 73.7815 40.3644 73.8822 40.3089 73.9809C40.2534 74.0796 40.2359 74.1433 40.2564 74.172ZM41.2066 79.5641C41.2312 79.5785 41.2662 79.5651 41.3114 79.524C41.3485 79.4829 41.3968 79.4172 41.4564 79.3267C41.5161 79.2363 41.5973 79.0544 41.7001 78.781C41.8029 78.5077 41.8708 78.1943 41.9037 77.8407C41.9243 77.6763 41.9366 77.4749 41.9407 77.2365C41.9448 76.9981 41.951 76.7309 41.9592 76.4349C41.9592 76.365 41.9623 76.2582 41.9685 76.1143C41.9747 75.9704 41.9819 75.8235 41.9901 75.6734C41.9983 75.5234 42.0076 75.3877 42.0179 75.2665C42.0281 75.1452 42.0374 75.0681 42.0456 75.0353C42.0497 75.0024 42.0374 74.9798 42.0086 74.9674C41.9798 74.9551 41.9469 74.9777 41.9099 75.0353C41.8646 75.1257 41.8143 75.2295 41.7587 75.3466C41.7032 75.4638 41.6508 75.5881 41.6014 75.7197C41.5521 75.8512 41.5078 75.9848 41.4688 76.1205C41.4297 76.2561 41.4019 76.3877 41.3855 76.5151C41.3567 76.7329 41.3464 77.0484 41.3546 77.4615C41.3629 77.8747 41.3608 78.1943 41.3485 78.4203C41.3361 78.6464 41.3053 78.8797 41.2559 79.1202C41.2066 79.3606 41.1819 79.485 41.1819 79.4932C41.1737 79.5261 41.1819 79.5497 41.2066 79.5641ZM37.3382 79.9063C37.3917 79.9063 37.5614 79.8601 37.8472 79.7676C38.1331 79.6751 38.3459 79.6032 38.4858 79.5518C38.6256 79.5004 38.7305 79.4521 38.8004 79.4069C38.8703 79.3617 38.967 79.2445 39.0904 79.0554C39.2138 78.8663 39.3475 78.5724 39.4914 78.1737C39.5243 78.0833 39.5541 77.9856 39.5809 77.8808C39.6076 77.776 39.6282 77.6897 39.6426 77.6219C39.657 77.554 39.6703 77.4698 39.6827 77.3691C39.695 77.2683 39.7012 77.1666 39.7012 77.0638C39.7012 76.8624 39.6446 76.6898 39.5315 76.5459C39.4184 76.402 39.2775 76.3301 39.1089 76.3301C39.0102 76.3301 38.9105 76.3959 38.8097 76.5274C38.7089 76.659 38.6092 76.8254 38.5105 77.0268C38.4117 77.2283 38.347 77.3752 38.3161 77.4677C38.2853 77.5602 38.2616 77.6414 38.2452 77.7113C38.2287 77.8264 38.2719 77.9312 38.3747 78.0257C38.4776 78.1203 38.6051 78.1696 38.7572 78.1737C38.8148 78.1737 38.8734 78.1583 38.9331 78.1275C38.9927 78.0966 39.0513 78.0853 39.1089 78.0935C39.0554 78.2826 38.9721 78.4522 38.859 78.6022C38.7459 78.7523 38.6349 78.8663 38.5259 78.9444C38.4169 79.0225 38.1752 79.187 37.801 79.4377C37.4267 79.6885 37.256 79.8364 37.2889 79.8817C37.2889 79.8981 37.3053 79.9063 37.3382 79.9063ZM34.6853 79.9002C34.7265 79.9002 34.8262 79.8868 34.9846 79.8601C35.1429 79.8334 35.3527 79.782 35.6139 79.7059C35.875 79.6299 36.0642 79.5456 36.1815 79.4531C36.2987 79.3606 36.4066 79.226 36.5054 79.0493C36.6041 78.8725 36.7182 78.6115 36.8478 78.2662C36.9773 77.9209 37.0822 77.6023 37.1624 77.3105C37.2426 77.0186 37.2848 76.8172 37.2889 76.7062C37.2889 76.6322 37.2663 76.5911 37.221 76.5829C37.1676 76.5788 37.1182 76.624 37.073 76.7186C37.0277 76.8131 36.9526 76.9899 36.8478 77.2488C36.7429 77.5078 36.6257 77.7647 36.4961 78.0196C36.3665 78.2744 36.2503 78.4656 36.1475 78.593C36.0447 78.7204 35.8719 78.8694 35.6293 79.04C35.3866 79.2106 35.1738 79.3524 34.9907 79.4655C34.8077 79.5785 34.6936 79.67 34.6483 79.7398C34.6154 79.7851 34.6031 79.8221 34.6113 79.8508C34.6195 79.8796 34.6442 79.896 34.6853 79.9002ZM32.6185 79.9187C32.6556 79.9187 32.7049 79.9125 32.7666 79.9002C33.2725 79.7727 33.6591 79.5734 33.9265 79.3021C34.0828 79.1459 34.236 78.9167 34.3861 78.6146C34.5362 78.3124 34.6216 77.96 34.6421 77.5571C34.6421 77.0186 34.3769 76.5891 33.8463 76.2684C33.7517 76.2109 33.69 76.2253 33.6612 76.3116C33.472 76.7309 33.3157 77.0597 33.1923 77.2981C33.1594 77.4009 33.1861 77.4872 33.2725 77.5571C33.7414 77.9394 33.9758 78.2374 33.9758 78.4512C33.9758 78.5334 33.8504 78.6999 33.5995 78.9506C33.3404 79.2137 33.0627 79.448 32.7666 79.6535C32.6185 79.7604 32.5445 79.8364 32.5445 79.8817C32.5445 79.9063 32.5692 79.9187 32.6185 79.9187ZM30.8972 79.9063C31.0905 79.9063 31.2653 79.8323 31.4216 79.6843C31.5779 79.5364 31.7301 79.3206 31.8782 79.0369C31.9728 78.8602 32.0499 78.6618 32.1095 78.4419C32.1692 78.222 32.199 78.0237 32.199 77.8469C32.199 77.6044 32.1712 77.4256 32.1157 77.3105C32.0602 77.1954 31.9646 77.0762 31.8288 76.9529C31.7712 76.9118 31.7003 76.8655 31.616 76.8141C31.5317 76.7627 31.4689 76.7371 31.4278 76.7371C31.3743 76.7371 31.327 76.7884 31.2859 76.8912L30.8479 77.8839C30.7862 78.0278 30.7594 78.1162 30.7677 78.149C30.7759 78.149 30.7862 78.1511 30.7985 78.1552C30.8109 78.1593 30.8438 78.1696 30.8972 78.186C30.8438 78.2765 30.7779 78.3875 30.6998 78.519C30.6217 78.6505 30.5558 78.7923 30.5024 78.9444C30.4612 79.0883 30.4407 79.224 30.4407 79.3514C30.4407 79.7213 30.5929 79.9063 30.8972 79.9063ZM31.1132 79.1726C30.8911 79.1726 30.78 79.0801 30.78 78.8951C30.78 78.7965 30.8263 78.6752 30.9188 78.5313C31.0114 78.3875 31.0761 78.3155 31.1132 78.3155C31.1625 78.3237 31.2252 78.3515 31.3013 78.3988C31.3774 78.446 31.436 78.4902 31.4772 78.5313C31.5594 78.6053 31.6006 78.7019 31.6006 78.8211C31.6006 78.9116 31.544 78.9927 31.4309 79.0647C31.3178 79.1366 31.2119 79.1726 31.1132 79.1726ZM28.3122 79.9063C28.5754 79.9063 28.8078 79.7419 29.0093 79.413C29.1862 79.1376 29.2746 78.8602 29.2746 78.5807C29.2746 78.4779 29.25 78.3813 29.2006 78.2909C29.1225 78.1552 29.0422 78.0874 28.96 78.0874C28.9518 78.0874 28.9271 78.1388 28.886 78.2415C28.8078 78.4347 28.7482 78.5313 28.707 78.5313C28.6659 78.5313 28.6217 78.4871 28.5744 78.3988C28.5271 78.3104 28.5034 78.1984 28.5034 78.0627C28.5034 77.7585 28.6515 77.3968 28.9476 76.9775C28.9723 76.9446 28.9929 76.9159 29.0093 76.8912C29.1039 76.7473 29.2006 76.5911 29.2993 76.4226C29.435 76.1677 29.5214 75.9879 29.5584 75.8831C29.5955 75.7783 29.614 75.6847 29.614 75.6025C29.614 75.5491 29.5934 75.5224 29.5523 75.5224H29.4165C29.1368 75.4977 28.9579 75.4165 28.8798 75.2788C28.8016 75.1411 28.7646 74.9757 28.7687 74.7825C28.7811 74.5605 28.8109 74.3488 28.8582 74.1474C28.9055 73.946 28.9435 73.7856 28.9723 73.6664C29.0299 73.465 29.0937 73.2595 29.1636 73.0498C29.2006 72.9265 29.1965 72.8628 29.1512 72.8587C29.0895 72.8587 28.9662 73.0694 28.7811 73.4907C28.596 73.912 28.4541 74.2789 28.3554 74.5913C28.3307 74.6735 28.2875 74.8338 28.2258 75.0723C28.1435 75.434 28.1024 75.7197 28.1024 75.9293C28.1024 76.2171 28.1693 76.438 28.3029 76.5922C28.4366 76.7463 28.5878 76.8583 28.7564 76.9282C28.4438 77.3393 28.2032 77.7133 28.0346 78.0504C27.8248 78.4697 27.7199 78.8355 27.7199 79.1479C27.7199 79.3411 27.7765 79.5158 27.8896 79.672C28.0027 79.8282 28.1435 79.9063 28.3122 79.9063ZM23.284 82.2247C23.7447 82.2247 24.1518 82.1075 24.5056 81.8732C24.6907 81.754 24.8634 81.6102 25.0238 81.4416C25.1842 81.2731 25.3241 81.1046 25.4433 80.936C25.6778 80.5743 25.867 80.1478 26.0109 79.6566C26.1549 79.1654 26.2269 78.7286 26.2269 78.3464C26.2269 78.0709 26.159 77.886 26.0233 77.7914C25.9821 77.7585 25.8978 77.7174 25.7703 77.6681C25.6428 77.6188 25.5544 77.5756 25.505 77.5386C25.4475 77.4893 25.4187 77.4194 25.4187 77.329C25.4187 77.2673 25.4752 77.1563 25.5883 76.996C25.7014 76.8357 25.8588 76.6631 26.0603 76.4781C26.2618 76.2931 26.4469 76.1585 26.6156 76.0742C26.7842 75.99 26.9199 75.9478 27.0227 75.9478C27.0474 75.9478 27.0742 75.9591 27.1029 75.9817C27.1317 76.0043 27.1646 76.028 27.2017 76.0526C27.251 76.0526 27.3086 76.0013 27.3744 75.8985C27.3909 75.8738 27.4392 75.7752 27.5194 75.6025C27.5996 75.4299 27.6572 75.2953 27.6921 75.1987C27.7271 75.1021 27.7528 75.0024 27.7693 74.8996C27.7775 74.8667 27.7734 74.8318 27.7569 74.7948C27.7405 74.7578 27.7096 74.7393 27.6644 74.7393C27.5574 74.7557 27.4114 74.8174 27.2263 74.9243C27.0742 75.0106 26.9179 75.1144 26.7575 75.2357C26.597 75.3569 26.4654 75.4648 26.3626 75.5594C26.1693 75.7443 25.9554 75.9848 25.721 76.2808C25.4331 76.6425 25.2099 77.0104 25.0516 77.3845C24.8932 77.7585 24.814 78.0668 24.814 78.3094C24.814 78.4697 24.8469 78.5961 24.9128 78.6886C24.9786 78.781 25.0752 78.8581 25.2027 78.9198C25.2685 78.9527 25.3271 78.9753 25.3786 78.9876C25.43 78.9999 25.5143 79.0246 25.6315 79.0616C25.7487 79.0986 25.8073 79.1561 25.8073 79.2342C25.8073 79.3617 25.7631 79.5045 25.6747 79.6628C25.5863 79.821 25.4577 79.9906 25.2891 80.1715C25.1205 80.3523 24.9107 80.5065 24.6598 80.6339C24.3225 80.8024 23.9729 80.8867 23.611 80.8867C23.175 80.8867 22.8367 80.788 22.5961 80.5907C22.3555 80.3934 22.2352 80.1262 22.2352 79.7892C22.2352 79.4685 22.3565 78.9876 22.5992 78.3464C22.6485 78.2313 22.7113 78.0853 22.7873 77.9086C22.8634 77.7318 22.9344 77.5674 23.0002 77.4153C23.066 77.2632 23.1154 77.1471 23.1483 77.0669C23.1812 76.9868 23.2202 76.8871 23.2655 76.7679C23.2819 76.735 23.2891 76.6857 23.2871 76.6199C23.285 76.5541 23.2634 76.5212 23.2223 76.5212C23.1935 76.5212 23.1606 76.5541 23.1236 76.6199C23.0866 76.6857 23.0516 76.7535 23.0187 76.8234L22.7287 77.44C22.6341 77.6414 22.5107 77.9065 22.3586 78.2354C22.2064 78.5642 22.0768 78.9054 21.9699 79.2589C21.9 79.4768 21.8485 79.6936 21.8156 79.9094C21.7827 80.1252 21.7663 80.3462 21.7663 80.5722C21.7663 80.749 21.7899 80.936 21.8372 81.1333C21.8845 81.3306 21.9699 81.5177 22.0933 81.6944C22.3647 82.0397 22.7616 82.2165 23.284 82.2247ZM21.3406 70.3554C21.4064 70.3554 21.5113 70.232 21.6552 69.9854C21.7992 69.7388 21.8712 69.5497 21.8712 69.4181C21.8588 69.3195 21.7663 69.1828 21.5935 69.0081C21.4208 68.8334 21.2892 68.7646 21.1987 68.8015C21.1534 68.8015 21.0537 68.9526 20.8995 69.2547C20.7452 69.5569 20.6681 69.7531 20.6681 69.8436C20.6681 69.8888 20.6989 69.932 20.7606 69.9731C20.8306 70.0224 20.9385 70.0954 21.0845 70.192L21.1649 70.2449C21.2623 70.3087 21.3208 70.3455 21.3406 70.3554ZM20.1992 75.8677C20.372 75.7238 20.5427 75.5141 20.7113 75.2387C20.8223 75.0579 20.9128 74.8503 20.9827 74.616C21.0568 74.3817 21.0938 74.172 21.0938 73.9871L21.1185 73.4568L21.1308 73.019C21.1308 72.9327 21.1226 72.8895 21.1061 72.8895C21.0691 72.9265 21.0486 72.9594 21.0444 72.9882L20.7915 73.5986C20.7298 73.7343 20.6702 73.8843 20.6126 74.0487C20.5797 74.1679 20.5632 74.2769 20.5632 74.3755V74.7825C20.5632 74.8852 20.5262 74.988 20.4522 75.0908C20.3822 75.1935 20.2979 75.2798 20.1992 75.3497C20.1622 75.4319 20.1478 75.5162 20.156 75.6025C20.1643 75.6888 20.1787 75.7772 20.1992 75.8677ZM18.3545 72.2421C18.4203 72.2421 18.5252 72.1188 18.6692 71.8722C18.8131 71.6255 18.8851 71.4364 18.8851 71.3049C18.8728 71.2062 18.7802 71.0696 18.6075 70.8949C18.4347 70.7202 18.3031 70.6513 18.2126 70.6883C18.1674 70.6883 18.0676 70.8394 17.9134 71.1415C17.7592 71.4436 17.682 71.6399 17.682 71.7303C17.682 71.7756 17.7129 71.8187 17.7746 71.8598C17.8445 71.9092 17.9525 71.9821 18.0985 72.0787C18.2445 72.1753 18.3298 72.2298 18.3545 72.2421ZM17.9103 76.7617C17.9473 76.7617 17.9854 76.7586 18.0244 76.7525C18.0635 76.7463 18.1098 76.7247 18.1633 76.6877L18.4039 76.4966C18.589 76.3527 18.6897 76.2726 18.7062 76.2561C18.8296 76.1739 18.9571 76.1328 19.0887 76.1328C19.1216 76.1328 19.1668 76.1369 19.2244 76.1451C19.3396 76.1533 19.4116 76.1575 19.4404 76.1575C19.5144 76.1575 19.5884 76.1513 19.6625 76.139C19.7406 76.1266 19.8229 76.0999 19.9092 76.0588C19.9956 76.0259 20.0923 75.9622 20.1992 75.8677C20.2074 75.8389 20.2239 75.7957 20.2486 75.7382C20.265 75.7012 20.2733 75.6601 20.2733 75.6149C20.2733 75.5614 20.265 75.5141 20.2486 75.473C20.2198 75.4073 20.2033 75.3662 20.1992 75.3497C20.0224 75.4402 19.8866 75.4854 19.792 75.4854C19.7838 75.4525 19.7797 75.4319 19.7797 75.4237C19.7879 75.3991 19.8033 75.3497 19.826 75.2757C19.8486 75.2017 19.8805 75.1093 19.9216 74.9983C19.9298 74.9489 19.9339 74.8976 19.9339 74.8441C19.9339 74.6756 19.8907 74.5358 19.8044 74.4248C19.7221 74.318 19.6172 74.2645 19.4897 74.2645C19.3581 74.2645 19.2162 74.357 19.064 74.542C18.9982 74.6078 18.9036 74.7372 18.7802 74.9304C18.6651 75.1236 18.5848 75.2757 18.5396 75.3867C18.4779 75.5265 18.4368 75.6313 18.4162 75.7012C18.408 75.7382 18.408 75.7813 18.4162 75.8307C18.4162 75.843 18.4368 75.8718 18.4779 75.917C18.4779 75.954 18.4512 75.9807 18.3977 75.9971C18.3442 76.0136 18.2877 76.0136 18.228 75.9971C18.1684 75.9807 18.1119 75.9684 18.0584 75.9601C18.0049 75.9519 17.9556 75.9499 17.9103 75.954V76.7617ZM19.2121 75.5347C19.1093 75.5347 19.0167 75.508 18.9345 75.4545C18.8522 75.4052 18.8111 75.3579 18.8111 75.3127C18.844 75.2182 18.881 75.1463 18.9221 75.0969C19.0208 74.9613 19.1463 74.8934 19.2985 74.8934C19.4054 74.8934 19.4897 74.9325 19.5514 75.0106C19.6131 75.0969 19.644 75.1791 19.644 75.2572C19.644 75.3066 19.5967 75.3641 19.5021 75.4299C19.4116 75.4998 19.3149 75.5347 19.2121 75.5347ZM15.7695 73.8391C15.9011 73.8391 16.078 73.6151 16.3001 73.167C16.3905 73.2328 16.4954 73.3253 16.6147 73.4445C16.734 73.5637 16.8162 73.6233 16.8615 73.6233C16.9314 73.6233 17.0404 73.5185 17.1885 73.3088C17.3407 73.0951 17.4167 72.9101 17.4167 72.7539C17.4085 72.6223 17.3335 72.4816 17.1916 72.3315C17.0497 72.1815 16.9273 72.1065 16.8245 72.1065C16.7916 72.1065 16.7247 72.1907 16.624 72.3593C16.5232 72.5278 16.4317 72.6799 16.3494 72.8155C16.2795 72.7169 16.1777 72.6028 16.044 72.4733C15.9103 72.3439 15.8085 72.2935 15.7386 72.3223C15.7016 72.3223 15.5988 72.4805 15.4301 72.797C15.2615 73.1136 15.1772 73.2985 15.1772 73.352C15.1772 73.3766 15.2379 73.4383 15.3592 73.537C15.4805 73.6356 15.57 73.7096 15.6276 73.7589C15.6893 73.8124 15.7366 73.8391 15.7695 73.8391ZM16.2985 77.3567L16.3556 77.3506C16.3926 77.3444 16.4193 77.331 16.4358 77.3105C16.588 77.0638 16.7617 76.8758 16.9571 76.7463C17.1525 76.6168 17.3509 76.5726 17.5525 76.6137C17.5977 76.6261 17.6553 76.6548 17.7252 76.7001C17.7581 76.7206 17.789 76.7371 17.8178 76.7494C17.8466 76.7617 17.8774 76.7658 17.9103 76.7617C17.9144 76.7453 17.937 76.6733 17.9782 76.5459C17.9987 76.4637 18.009 76.3856 18.009 76.3116C18.009 76.2458 17.9987 76.1821 17.9782 76.1205L17.9103 75.954C17.6101 75.9869 17.3653 76.0516 17.1761 76.1482C16.9869 76.2448 16.7926 76.4041 16.5931 76.6261C16.3936 76.848 16.2199 77.0762 16.0718 77.3105C16.0759 77.3187 16.0944 77.328 16.1273 77.3382C16.1602 77.3485 16.1972 77.3547 16.2384 77.3567C16.2795 77.3588 16.3186 77.3567 16.3556 77.3506L16.2985 77.3567ZM14.2147 81.9657C14.441 81.9657 14.6528 81.9328 14.8502 81.8671C15.0312 81.8054 15.2163 81.715 15.4055 81.5958C15.9196 81.2217 16.3268 80.7202 16.627 80.0913C16.8162 79.6843 16.9458 79.3432 17.0157 79.0678C17.0856 78.7841 17.1206 78.5067 17.1206 78.2354C17.1206 78.0504 17.1 77.9106 17.0589 77.8161C17.0178 77.7298 16.9499 77.6527 16.8553 77.5849C16.7607 77.517 16.6671 77.4544 16.5746 77.3968C16.4821 77.3393 16.4358 77.2817 16.4358 77.2242C16.4317 77.1954 16.4152 77.1748 16.3864 77.1625C16.3576 77.1502 16.3258 77.144 16.2908 77.144C16.2558 77.144 16.2209 77.1502 16.1859 77.1625C16.151 77.1748 16.1253 77.1954 16.1088 77.2242C16.0183 77.3886 15.9412 77.5623 15.8774 77.7452C15.8137 77.9281 15.7818 78.0915 15.7818 78.2354C15.7818 78.4368 15.9319 78.6074 16.2322 78.7471C16.5283 78.8828 16.6764 78.9855 16.6764 79.0554C16.6764 79.4048 16.4872 79.7378 16.1088 80.0543C15.6646 80.4243 15.1134 80.6092 14.4554 80.6092C14.0893 80.6092 13.7911 80.5332 13.5608 80.3811C13.2482 80.1632 13.0919 79.8015 13.0919 79.2959C13.0919 79.0287 13.1885 78.6505 13.3819 78.1614C13.4929 77.8942 13.6944 77.4235 13.9865 76.7494C14.0194 76.6754 14.0461 76.587 14.0667 76.4843C14.0872 76.3979 14.0749 76.3507 14.0297 76.3424C13.9968 76.3383 13.9495 76.3918 13.8878 76.5027C13.8631 76.5603 13.8312 76.6261 13.7921 76.7001C13.7531 76.774 13.7088 76.8563 13.6595 76.9467C13.5896 77.0947 13.532 77.2149 13.4867 77.3074C13.4415 77.3999 13.4065 77.4687 13.3819 77.514C13.2996 77.703 13.2009 77.9353 13.0857 78.2107C12.9788 78.4779 12.876 78.7944 12.7772 79.1602C12.6785 79.5384 12.6292 79.8447 12.6292 80.079C12.6292 80.6051 12.7505 81.0367 12.9932 81.3738C13.277 81.7684 13.6842 81.9657 14.2147 81.9657ZM10.9634 79.5641C10.9881 79.5785 11.023 79.5651 11.0683 79.524C11.1053 79.4829 11.1536 79.4172 11.2133 79.3267C11.2729 79.2363 11.3541 79.0544 11.457 78.781C11.5598 78.5077 11.6276 78.1943 11.6606 77.8407C11.6811 77.6763 11.6935 77.4749 11.6976 77.2365C11.7017 76.9981 11.7079 76.7309 11.7161 76.4349C11.7161 76.365 11.7192 76.2582 11.7253 76.1143C11.7315 75.9704 11.7387 75.8235 11.7469 75.6734C11.7552 75.5234 11.7644 75.3877 11.7747 75.2665C11.785 75.1452 11.7942 75.0681 11.8025 75.0353C11.8066 75.0024 11.7942 74.9798 11.7654 74.9674C11.7366 74.9551 11.7037 74.9777 11.6667 75.0353C11.6215 75.1257 11.5711 75.2295 11.5156 75.3466C11.46 75.4638 11.4076 75.5881 11.3582 75.7197C11.3089 75.8512 11.2647 75.9848 11.2256 76.1205C11.1865 76.2561 11.1588 76.3877 11.1423 76.5151C11.1135 76.7329 11.1032 77.0484 11.1115 77.4615C11.1197 77.8747 11.1176 78.1943 11.1053 78.4203C11.093 78.6464 11.0621 78.8797 11.0127 79.1202C10.9634 79.3606 10.9387 79.485 10.9387 79.4932C10.9305 79.5261 10.9387 79.5497 10.9634 79.5641ZM6.84328 79.9025L6.91616 79.9002C7.03955 79.9002 7.21024 79.8775 7.42824 79.8323C7.638 79.7953 7.80663 79.7522 7.93414 79.7028C8.20149 79.5836 8.40303 79.3822 8.53876 79.0986C8.62102 78.9136 8.73001 78.6485 8.86574 78.3032C8.94389 78.1223 9.02409 77.9743 9.10635 77.8592C9.13103 77.8264 9.18245 77.7791 9.26059 77.7174C9.33874 77.6599 9.55673 77.5448 9.91457 77.3721C10.1696 77.2447 10.3999 76.8152 10.6056 76.0835C10.6343 75.9437 10.6302 75.8677 10.5932 75.8553C10.5562 75.8512 10.4924 75.9293 10.402 76.0896C10.3115 76.2541 10.2374 76.3609 10.1799 76.4103C10.1182 76.4637 10.0112 76.5274 9.85904 76.6014C9.68629 76.6918 9.56496 76.7555 9.49504 76.7925C9.30995 76.9118 9.17422 77.0289 9.08785 77.144C9.00147 77.255 8.87397 77.4975 8.70533 77.8716C8.54081 78.2456 8.44416 78.4512 8.41536 78.4882C8.32488 78.6115 8.16036 78.7595 7.9218 78.9321C7.93414 78.9239 7.83337 78.9917 7.61949 79.1356C7.34392 79.3082 7.15266 79.4346 7.04572 79.5148C6.93878 79.5949 6.86886 79.6474 6.83596 79.672C6.74547 79.7378 6.70434 79.7892 6.71257 79.8262C6.74136 79.8878 6.80922 79.9125 6.91616 79.9002L6.84328 79.9025ZM9.06317 84.5492C9.19479 84.5492 9.37165 84.3252 9.59375 83.8772C9.68424 83.9429 9.78912 84.0354 9.9084 84.1546C10.0277 84.2738 10.1099 84.3334 10.1552 84.3334C10.2251 84.3334 10.3341 84.2286 10.4822 84.019C10.6343 83.8052 10.7104 83.6202 10.7104 83.464C10.7022 83.3325 10.6271 83.1917 10.4853 83.0417C10.3434 82.8916 10.221 82.8166 10.1182 82.8166C10.0853 82.8166 10.0184 82.9009 9.91765 83.0694L9.72845 83.3846C9.69897 83.4334 9.67053 83.4805 9.64311 83.5257C9.57318 83.427 9.47139 83.313 9.33771 83.1835C9.20404 83.054 9.10224 83.0037 9.03232 83.0324C8.9953 83.0324 8.89248 83.1907 8.72384 83.5072C8.55521 83.8237 8.47089 84.0087 8.47089 84.0621C8.47089 84.0868 8.53156 84.1485 8.65289 84.2471C8.77423 84.3458 8.86369 84.4198 8.92127 84.4691C8.98296 84.5225 9.03026 84.5492 9.06317 84.5492ZM5.88585 79.5641C5.91052 79.5785 5.94549 79.5651 5.99073 79.524C6.02775 79.4829 6.07607 79.4172 6.13571 79.3267C6.19535 79.2363 6.27659 79.0544 6.37941 78.781C6.48224 78.5077 6.5501 78.1943 6.58301 77.8407C6.60357 77.6763 6.61591 77.4749 6.62002 77.2365C6.62414 76.9981 6.63031 76.7309 6.63853 76.4349C6.63853 76.365 6.64162 76.2582 6.64779 76.1143C6.65396 75.9704 6.66115 75.8235 6.66938 75.6734C6.67761 75.5234 6.68686 75.3877 6.69714 75.2665C6.70743 75.1452 6.71668 75.0681 6.72491 75.0353C6.72902 75.0024 6.71668 74.9798 6.68789 74.9674C6.6591 74.9551 6.62619 74.9777 6.58918 75.0353C6.54393 75.1257 6.49355 75.2295 6.43802 75.3466C6.3825 75.4638 6.33005 75.5881 6.2807 75.7197C6.23134 75.8512 6.18713 75.9848 6.14805 76.1205C6.10898 76.2561 6.08122 76.3877 6.06476 76.5151C6.03597 76.7329 6.02569 77.0484 6.03392 77.4615C6.04214 77.8747 6.04009 78.1943 6.02775 78.4203C6.01541 78.6464 5.98456 78.8797 5.9352 79.1202C5.88585 79.3606 5.86117 79.485 5.86117 79.4932C5.85294 79.5261 5.86117 79.5497 5.88585 79.5641ZM1.60417 82.0582C2.53783 82.05 3.33782 81.5958 4.00413 80.6956C4.67867 79.7666 5.05296 78.6567 5.12699 77.366C5.13522 76.8727 5.14344 76.5356 5.15167 76.3548C5.1599 76.1739 5.16606 76.0516 5.17018 75.9879C5.17429 75.9242 5.16195 75.8923 5.13316 75.8923C5.09203 75.8923 5.04165 75.954 4.98201 76.0773C4.92237 76.2006 4.8473 76.399 4.75682 76.6723C4.66633 76.9457 4.61286 77.1954 4.59641 77.4215C4.59641 77.4996 4.59744 77.6301 4.59949 77.813C4.60155 77.9959 4.60258 78.147 4.60258 78.2662C4.60258 78.5786 4.56556 78.8293 4.49153 79.0184C4.29821 79.561 3.95683 79.9947 3.46738 80.3194C2.97382 80.6031 2.45969 80.7449 1.92499 80.7449C1.48901 80.7284 1.13837 80.6175 0.873082 80.4119C0.607791 80.2064 0.466919 79.9063 0.450467 79.5117C0.458693 78.9855 0.645837 78.3607 1.0119 77.6373C1.03658 77.5633 1.03863 77.4903 1.01807 77.4184C0.997501 77.3464 0.933749 77.4091 0.82681 77.6064C0.27155 78.5889 -0.0040233 79.4994 4.43764e-05 80.3379C0.0165419 80.8682 0.166668 81.2823 0.450467 81.5804C0.734267 81.8784 1.11884 82.0377 1.60417 82.0582ZM2.68385 79.0061C2.72498 79.0061 2.7805 78.9732 2.85042 78.9074C2.95736 78.8047 3.04271 78.6927 3.10646 78.5714C3.17021 78.4501 3.21649 78.3402 3.24528 78.2415C3.27407 78.1429 3.28024 78.0524 3.26379 77.9702C3.24733 77.8675 3.20929 77.7791 3.14965 77.7051C3.09001 77.6311 3.00569 77.552 2.8967 77.4677C2.7877 77.3834 2.69619 77.3105 2.62215 77.2488C2.49465 77.4585 2.40108 77.6167 2.34144 77.7236C2.2818 77.8305 2.21085 77.9764 2.12859 78.1614C2.10391 78.2189 2.06483 78.3032 2.01137 78.4142C2.01137 78.4471 2.03707 78.4882 2.08848 78.5375C2.1399 78.5868 2.20159 78.6413 2.27357 78.7009C2.34555 78.7605 2.42575 78.8263 2.51418 78.8982C2.60261 78.9701 2.65917 79.0061 2.68385 79.0061Z" fill="#1C1C1C"/>
<path fill-rule="evenodd" clip-rule="evenodd" d="M34.1283 36.3252C30.5327 36.3289 27.2627 37.8547 25.3075 39.7684C25.0148 40.055 24.7867 40.1904 24.533 40.5051C24.3001 40.7929 24.0976 41.0552 23.8585 41.343C23.3548 41.9382 23.0755 42.5054 22.6498 43.1933C22.4205 43.5604 20.9032 47.4195 21.3326 47.8684C21.3435 47.8757 22.2973 48.1562 22.4181 48.1903C22.5364 48.2294 23.2731 48.5892 23.3646 48.6514C23.9695 49.0588 24.4452 49.3503 24.905 49.9174C25.8393 51.0737 26.304 52.2836 26.1943 54.2193C26.0357 57.0282 22.8425 59.7372 19.6896 58.5272L19.7982 57.7405C19.8421 57.6966 20.0677 57.7113 20.4019 57.7247C21.4167 57.7674 23.4414 57.8088 24.4916 56.1988C24.9477 55.4951 25.2795 54.9145 25.2868 53.8522C25.2941 52.8801 25.0441 51.997 24.6635 51.3262C23.8646 49.9113 22.823 49.0697 20.9496 48.6855C19.9982 48.488 18.8859 48.6233 18.0723 48.8624C15.5976 49.0429 13.5509 52.6129 13.4656 53.468C13.3814 54.323 13.4204 55.8171 13.4656 56.3855C13.5412 57.3051 13.8607 58.2113 14.2388 58.9041C14.9877 60.2811 16.2233 61.3606 17.7052 62.0082C19.2274 62.6766 21.3435 63.1633 23.2255 62.5364C24.455 62.129 25.4868 61.6204 26.3882 60.7422C26.5577 60.58 27.1176 60.0043 27.2371 59.9213C27.4603 59.9079 29.3386 60.8276 29.6996 60.9861C32.0232 62.0082 34.454 61.2569 35.9274 61.8241C37.0251 62.2473 36.6921 63.3084 36.5641 64.3756C38.4826 64.2671 40.3353 60.658 38.296 58.5724C37.9265 58.1955 38.2582 57.882 38.368 57.4124C38.4558 57.0343 38.5753 56.5538 38.5814 56.0878C38.5997 53.9144 38.0753 52.8313 36.8958 51.6018C36.3567 51.042 35.7371 50.7407 35.0041 50.3821C34.6772 50.2211 32.7489 49.7259 32.322 50.0077C32.3683 50.0833 33.5673 50.4187 34.0893 51.5811C34.5162 52.53 34.304 53.485 33.8149 54.2083C33.4636 54.7303 32.533 55.3109 31.5889 55.3194C30.3327 55.3292 29.818 55.0462 29.0008 54.5218C27.9018 53.8241 26.8285 51.7482 26.7456 50.115C26.6102 47.5085 26.6772 46.6072 27.9323 44.7996C28.7873 43.5653 30.2546 42.4529 31.8109 41.9858C33.5624 41.4601 35.9932 41.4808 37.4483 42.3395C39.423 43.5055 39.7194 43.6714 40.9086 45.5668C41.255 46.1132 41.666 47.3366 41.738 48.0635C41.7831 48.5294 41.9197 48.9551 42.0844 49.3527C42.2612 49.782 42.7333 50.1906 42.7833 50.3358C42.7479 50.437 42.3003 50.8383 42.1551 51.0969C42.0283 51.3323 41.716 51.686 41.5611 51.9385C41.3184 52.3373 40.8037 53.4362 40.733 53.9278C40.4805 55.6646 40.4805 57.4429 41.2367 58.7907C42.6235 61.2569 44.575 63.1486 48.3146 63.1486C51.5882 63.1486 54.2337 60.9861 55.1985 58.5931C55.8767 56.9038 56.0425 55.8354 55.5925 53.8339C55.0887 51.5994 53.6275 50.5614 53.5105 50.2211C54.4057 49.3527 54.2606 48.9417 54.5679 47.65C54.8411 46.5023 55.0009 45.9242 55.623 45.0618C56.5987 43.7202 58.0001 42.3846 59.8028 41.9272C62.0288 41.3637 64.1559 41.5223 65.8305 42.5603C66.6124 43.0457 67.2991 43.547 67.8479 44.1983C68.1126 44.513 68.3797 44.8789 68.6127 45.2387C68.7224 45.4095 69.253 46.4291 69.2603 46.4364L69.5945 47.1121L69.6031 47.1329C69.2957 46.7853 69.4652 47.2878 69.5604 47.6647C69.6653 48.0842 69.6262 48.6197 69.6201 49.1002C69.6055 50.1455 69.3628 50.7871 69.1481 51.6616C68.7895 53.1216 67.704 54.5023 66.3733 55.0255C64.7292 55.6683 62.6972 55.2048 62.1617 53.7241C61.9056 53.0142 61.7568 51.908 62.3032 51.3115C62.5459 51.0493 62.7045 50.7517 63.0253 50.5236C63.1241 50.4541 64.0181 50.0248 64.0254 49.9796C63.5205 49.6991 61.6909 50.2016 61.3482 50.3431C60.6017 50.6578 59.976 50.9969 59.4186 51.5567C58.2746 52.713 57.6586 53.8656 57.6696 56.0183C57.6733 56.7611 58.2746 58.2504 58.0428 58.5126C57.5001 59.1249 57.0951 59.5993 57.0878 60.7032C57.0854 61.7277 57.3208 62.479 57.7855 63.1084C58.0977 63.5304 59.0039 64.3781 59.6833 64.3781C59.5077 63.2706 59.2223 62.3705 60.3212 61.8558C61.6238 61.2471 64.334 62.029 66.5075 61.0154C66.8319 60.8629 68.8029 59.9445 68.9871 59.9494C69.1786 60.0531 69.8665 60.7788 70.1373 60.9983C70.613 61.374 70.9118 61.5899 71.4399 61.8765C72.3559 62.3741 73.5244 62.7864 74.905 62.7998C77.2981 62.8279 79.9058 61.6374 81.0877 60.2263C82.3037 58.7797 83.4782 56.1635 82.6757 53.6021C82.2049 52.0946 81.3133 50.5883 80.0351 49.7308C79.6789 49.493 78.941 49.1942 78.6507 49.0222L80.3766 50.1492L78.5775 48.9771C78.208 48.6892 76.8236 48.6136 76.1686 48.616C74.7538 48.6258 73.1511 49.271 72.3169 50.2919C72.1059 50.5505 71.2289 51.6299 71.3338 52.0519C71.0094 52.2324 70.8984 53.99 71.035 54.4705C71.2679 55.2987 71.3765 55.8768 71.9473 56.4647C72.9682 57.5234 75.0636 57.6795 76.0003 57.6966C76.0101 57.6966 76.0211 57.6978 76.032 57.6978L76.0699 57.693L76.032 57.6978C76.1662 57.7015 76.304 57.7076 76.4406 57.7247L76.4821 58.5236C74.9429 58.9529 73.339 58.8004 72.04 57.8076C71.113 57.1002 70.1092 55.7097 70.0775 54.1912C70.0397 52.3568 70.3763 50.9347 71.3618 49.9004C72.5852 48.6197 73.0743 48.4538 74.9319 47.8793L75.0136 47.8659L74.5989 45.7546C73.6573 42.3785 71.9619 40.4978 69.5067 38.6268C68.2785 37.6888 66.9258 37.2558 65.3207 36.7094C63.718 36.1666 61.4823 36.2984 59.7358 36.5362C58.7185 36.674 55.8205 37.6852 55.2814 38.1901C54.857 38.5877 53.9129 39.0097 53.5007 39.4732C53.0457 39.983 52.4688 40.4282 51.9834 41.021C49.4611 44.0824 49.5574 46.4498 49.1196 47.2878C48.7219 48.0452 47.8804 48.4221 47.3254 47.5817C47.0327 47.139 46.7997 45.8803 46.6033 45.2911C46.0362 43.5848 45.5422 42.703 44.4762 41.3052C43.9371 40.599 43.5468 40.3258 42.987 39.7294C41.2111 37.8388 37.6252 36.3252 34.1393 36.3252C34.1357 36.3252 34.132 36.3252 34.1283 36.3252ZM48.2463 58.7102C46.6765 58.6712 45.2044 57.388 45.1848 55.8C45.1373 51.7482 51.1869 51.797 51.1943 55.689L51.1918 55.6854C51.1869 56.6135 50.804 57.2563 50.3075 57.7905C49.9941 58.132 48.8732 58.7102 48.2682 58.7102C48.2609 58.7102 48.2536 58.7102 48.2463 58.7102Z" fill="#1C1C1C"/>
<path fill-rule="evenodd" clip-rule="evenodd" d="M41.9217 31.4473C39.7812 31.4473 39.9019 33.8281 41.1362 34.3209C41.9144 34.6294 42.3267 34.5624 42.9999 35.132C44.1208 36.0809 44.7392 36.7358 45.5222 38.0141C45.6198 38.1739 46.0089 38.7325 46.0528 38.8349C46.2004 39.1886 46.3285 39.4631 46.5187 39.7302C46.8017 40.1315 47.2005 41.0706 47.4103 41.5475C47.6494 42.0903 47.8921 43.149 48.1251 43.5734C48.3007 43.8967 48.4666 43.0112 48.5398 42.8075C48.8788 41.9073 49.3448 40.7999 49.7643 39.9522C50.3876 38.68 51.0914 37.7482 51.8781 36.648C52.5635 35.6869 53.8125 34.7026 54.9883 34.3867C56.68 33.9293 56.3519 31.4509 54.6809 31.4509L54.6772 31.4473H41.9217Z" fill="#1C1C1C"/>
<path fill-rule="evenodd" clip-rule="evenodd" d="M56.5076 26.594H39.4539C39.2868 26.5952 39.127 26.5928 38.9733 26.5891C37.8426 26.572 37.073 26.5525 36.6949 27.7502C36.2705 29.0992 37.2157 30.2311 38.2354 30.2274V30.2226H57.92C59.1287 30.2226 60.1666 29.1041 59.6117 27.6527C59.2494 26.7086 58.5701 26.5684 57.6931 26.5684C57.3284 26.5684 56.9308 26.5928 56.5076 26.594Z" fill="#1C1C1C"/>
<path fill-rule="evenodd" clip-rule="evenodd" d="M46.7155 4.40485C46.3082 5.73187 45.8715 7.06865 45.8752 8.68718L45.8788 8.68231C45.8788 9.89712 46.002 11.2839 46.3948 12.3536C46.5155 12.678 47.462 14.8698 47.462 14.8722C46.6936 14.7344 45.1751 12.5792 44.7933 11.7767C44.0432 10.1801 44.3493 8.58351 44.2566 6.61371C44.0151 6.67226 42.9979 8.57375 42.8198 8.97991C42.3612 10.013 42.2112 10.7143 41.91 11.8572C41.544 13.2488 41.7599 15.4394 42.2442 16.8616C42.3332 17.1213 42.7515 18.1361 42.7637 18.2813C42.1515 18.0544 41.0489 16.4761 40.8098 15.8065C40.6012 15.2198 40.4585 14.8271 40.2512 14.1587C40.1463 13.8111 40.0036 12.4585 39.8828 12.3182C39.623 12.3633 38.2631 15.0918 38.0874 15.4674C37.6313 16.4115 37.1971 18.2874 37.2007 19.5802C37.2044 21.4061 37.9508 23.3162 39.0973 24.5554C39.8511 25.3689 39.4206 25.3445 41.0489 25.3482H55.4961C56.456 25.3482 57.6928 23.8906 58.2014 23.2113C58.9271 22.2453 59.2906 20.8707 59.1088 19.3851C58.8027 16.9042 57.0012 14.5893 55.5803 13.1671L53.2299 10.6789C52.6286 9.91175 51.5053 8.70182 51.1064 7.92976C50.5624 6.87106 49.8831 6.03924 49.4062 4.75124C49.1793 4.13896 49.0293 3.55473 48.8049 2.90463C48.6427 2.42651 48.5012 1.28366 48.3475 0.953125C47.9767 1.0507 46.8961 3.82062 46.7155 4.40485Z" fill="#1C1C1C"/>
</svg>
