<svg width="26" height="22" viewBox="0 0 26 22" fill="none" xmlns="http://www.w3.org/2000/svg">
<path fill-rule="evenodd" clip-rule="evenodd" d="M23 1H3C1.89543 1 1 1.89543 1 3V14.5238C1 15.6284 1.89543 16.5238 3 16.5238H19.7485C20.5498 16.5238 21.3179 16.8444 21.8814 17.4141L25 20.567V3C25 1.89543 24.1046 1 23 1ZM3 0H23C24.6569 0 26 1.34315 26 3V20.567C26 21.4605 24.9174 21.9055 24.289 21.2702L21.1704 18.1173C20.7947 17.7375 20.2827 17.5238 19.7485 17.5238H3C1.34315 17.5238 0 16.1807 0 14.5238V3C0 1.34315 1.34315 0 3 0Z" fill="#404040"/>
<path fill-rule="evenodd" clip-rule="evenodd" d="M8.5 11C8.5 10.7239 8.72386 10.5 9 10.5H17C17.2761 10.5 17.5 10.7239 17.5 11C17.5 11.2761 17.2761 11.5 17 11.5H9C8.72386 11.5 8.5 11.2761 8.5 11Z" fill="#404040"/>
<path fill-rule="evenodd" clip-rule="evenodd" d="M8.5 7C8.5 6.72386 8.72386 6.5 9 6.5H17C17.2761 6.5 17.5 6.72386 17.5 7C17.5 7.27614 17.2761 7.5 17 7.5H9C8.72386 7.5 8.5 7.27614 8.5 7Z" fill="#404040"/>
</svg>
