<svg width="66" height="23" viewBox="0 0 66 23" fill="none" xmlns="http://www.w3.org/2000/svg">
<path d="M50.6979 22.745C49.7543 22.739 48.8141 22.631 47.8938 22.4227L46.7414 22.162L47.2601 19.8579L48.4126 20.1186C50.0642 20.4914 52.2682 20.5671 53.5048 19.6589C54.1357 19.1964 54.4806 18.4957 54.5619 17.5118C53.3341 17.9138 52.0453 18.0978 50.754 18.0556C49.0491 17.9771 48.0901 17.3661 47.6695 17.0073C46.7161 16.1916 46.189 14.7649 46.2254 13.0523C46.3516 7.23047 50.1511 7.23047 51.3793 7.23047C54.6797 7.23047 56.4995 8.91226 56.7912 12.1974C56.9902 14.4902 57.0323 16.5028 56.9033 17.7165C56.7211 19.4459 56.0621 20.7044 54.89 21.5622C53.8385 22.347 52.4196 22.745 50.6979 22.745ZM51.3905 9.59058C49.1136 9.59058 48.693 10.7118 48.5696 13.3522C48.5332 14.109 48.6986 14.6836 49.0603 15.0648C49.6015 15.6254 50.5044 15.7095 51.2279 15.7123C52.3928 15.7053 53.5418 15.4411 54.5928 14.9387C54.5928 14.2884 54.5395 12.999 54.4498 12.3908C54.1721 10.5352 53.6226 9.59058 51.3905 9.59058Z" fill="#404040"/>
<path d="M7.91614 22.6163C5.30555 22.6163 3.19128 21.7922 1.80607 20.2337C0.375988 18.6192 -0.2353 16.2591 0.0843646 13.5878C0.255413 12.1583 0.443286 10.7708 0.561057 9.85986L0.619943 9.51789L2.95293 9.86827L2.90526 10.213C2.77908 11.1128 2.59401 12.4779 2.42857 13.8765C2.19022 15.8695 2.59681 17.5737 3.57263 18.6725C4.54845 19.7712 5.97011 20.2646 7.91614 20.2646C11.8839 20.2646 14.1608 18.2716 14.1608 14.7959C14.1608 13.5626 14.1608 12.29 13.8271 7.90337L13.8019 7.5558L16.1629 7.34277L16.1825 7.70716C16.2386 8.78071 16.4489 11.5136 16.5415 12.29C16.7854 14.311 17.1752 14.8604 19.6568 15.1519C22.5955 15.4967 36.3747 15.4827 43.8279 15.1295L44.1784 15.1099L44.285 17.47H43.9344C36.4756 17.7979 24.5864 17.8904 19.4633 17.5008C18.1286 17.3999 17.1219 17.1364 16.3312 16.6795C15.5544 20.4075 12.4307 22.6163 7.91614 22.6163Z" fill="#404040"/>
<path d="M59.954 22.6328C59.4912 22.6327 59.029 22.597 58.5716 22.5263L57.4023 22.3525L57.7641 20.0177L58.9306 20.1914C59.7718 20.3204 61.3533 20.4045 62.4048 19.558C63.0834 19.0114 63.4703 18.1088 63.5489 16.8755C63.6907 14.8385 63.6729 12.7936 63.4956 10.7594L63.4002 9.35789L65.7557 9.19531L65.851 10.5968C66.0331 12.7367 66.0481 14.8875 65.8959 17.0297C65.7697 18.9469 65.0911 20.4185 63.8741 21.3967C62.8703 22.2068 61.5159 22.6328 59.954 22.6328Z" fill="#404040"/>
<path d="M8.44584 13.8851C8.18562 13.8856 7.93108 13.809 7.71445 13.6649C7.49781 13.5208 7.32881 13.3156 7.22884 13.0755C7.12888 12.8353 7.10243 12.5709 7.15286 12.3157C7.20329 12.0605 7.32832 11.826 7.51213 11.6419C7.69593 11.4578 7.93026 11.3323 8.18544 11.2813C8.44062 11.2304 8.70519 11.2562 8.94566 11.3557C9.18613 11.4551 9.39169 11.6236 9.53632 11.8398C9.68095 12.0561 9.75815 12.3103 9.75815 12.5705C9.75815 12.9186 9.61998 13.2526 9.37395 13.499C9.12793 13.7455 8.79415 13.8843 8.44584 13.8851Z" fill="#404040"/>
<path d="M30.5252 3.98495C29.9952 3.98421 29.4871 3.77341 29.1123 3.39878C28.7375 3.02414 28.5266 2.51624 28.5259 1.98642C28.5255 1.7256 28.5771 1.46732 28.6777 1.22668C28.7784 0.986041 28.926 0.76787 29.1119 0.584925V0.584925C29.3909 0.306277 29.746 0.116305 30.1327 0.0389051C30.5193 -0.0384944 30.9202 0.000135996 31.285 0.149937C31.6498 0.299738 31.962 0.554019 32.1826 0.880792C32.4031 1.20757 32.5221 1.59224 32.5245 1.98642C32.5237 2.51624 32.3129 3.02414 31.9381 3.39878C31.5633 3.77341 31.0552 3.98421 30.5252 3.98495V3.98495Z" fill="#F8BC45"/>
<path d="M24.9007 6.04784C24.5052 6.04784 24.1187 5.93063 23.7899 5.71103C23.4611 5.49143 23.2049 5.1793 23.0536 4.81412C22.9022 4.44893 22.8626 4.0471 22.9398 3.65942C23.0169 3.27174 23.2073 2.91564 23.487 2.63614C23.7666 2.35664 24.1228 2.1663 24.5106 2.08918C24.8985 2.01207 25.3004 2.05165 25.6658 2.20291C26.0311 2.35418 26.3433 2.61033 26.563 2.93899C26.7827 3.26764 26.9 3.65404 26.9 4.04931C26.8992 4.57913 26.6884 5.08703 26.3136 5.46167C25.9388 5.8363 25.4307 6.0471 24.9007 6.04784Z" fill="#F8BC45"/>
<path d="M22.1527 11.0319C21.6889 11.035 21.2384 10.8771 20.8782 10.585C20.518 10.293 20.2704 9.88503 20.1776 9.43078C20.0849 8.97653 20.1528 8.50419 20.3698 8.09443C20.5867 7.68468 20.9393 7.36292 21.3672 7.18412C21.7951 7.00532 22.2718 6.98058 22.716 7.1141C23.1601 7.24763 23.5441 7.53116 23.8023 7.91625C24.0606 8.30134 24.1771 8.76411 24.1319 9.22551C24.0868 9.68692 23.8827 10.1183 23.5547 10.4461C23.371 10.631 23.1526 10.7779 22.912 10.8784C22.6714 10.9789 22.4134 11.0311 22.1527 11.0319V11.0319Z" fill="#F8BC45"/>
<path d="M38.8981 11.0322C38.5688 11.0342 38.2441 10.9548 37.9528 10.8012C37.6616 10.6475 37.4128 10.4243 37.2286 10.1514C37.0445 9.87853 36.9306 9.56438 36.8971 9.23688C36.8636 8.90939 36.9116 8.5787 37.0367 8.2742C37.1619 7.9697 37.3603 7.70082 37.6145 7.49144C37.8686 7.28207 38.1705 7.1387 38.4935 7.07406C38.8164 7.00942 39.1503 7.02552 39.4654 7.12093C39.7806 7.21634 40.0674 7.38809 40.3002 7.62094V7.62094C40.5789 7.89976 40.769 8.25476 40.8464 8.64127C40.9238 9.02779 40.8852 9.42856 40.7353 9.79318C40.5855 10.1578 40.3311 10.47 40.0042 10.6904C39.6773 10.9109 39.2925 11.0298 38.8981 11.0322V11.0322Z" fill="#F8BC45"/>
<path d="M36.1502 6.04784C35.7548 6.04784 35.3682 5.93063 35.0394 5.71103C34.7106 5.49143 34.4544 5.1793 34.3031 4.81412C34.1517 4.44893 34.1122 4.0471 34.1893 3.65942C34.2664 3.27174 34.4569 2.91564 34.7365 2.63614C35.0161 2.35664 35.3723 2.1663 35.7601 2.08918C36.148 2.01207 36.55 2.05165 36.9153 2.20291C37.2806 2.35418 37.5929 2.61033 37.8125 2.93899C38.0322 3.26764 38.1495 3.65404 38.1495 4.04931C38.1488 4.57913 37.9379 5.08703 37.5631 5.46167C37.1883 5.8363 36.6802 6.0471 36.1502 6.04784Z" fill="#F8BC45"/>
</svg>
