<svg width="21" height="21" viewBox="0 0 21 21" fill="none" xmlns="http://www.w3.org/2000/svg">
<path fill-rule="evenodd" clip-rule="evenodd" d="M10.5 20C15.7467 20 20 15.7467 20 10.5C20 5.25329 15.7467 1 10.5 1C5.25329 1 1 5.25329 1 10.5C1 15.7467 5.25329 20 10.5 20ZM10.5 21C16.299 21 21 16.299 21 10.5C21 4.70101 16.299 0 10.5 0C4.70101 0 0 4.70101 0 10.5C0 16.299 4.70101 21 10.5 21Z" fill="#404040"/>
<path fill-rule="evenodd" clip-rule="evenodd" d="M5.77444 12.5538C6.02089 12.4292 6.32166 12.528 6.44623 12.7744L6 13C6.44623 12.7744 6.44623 12.7744 6.44623 12.7744L6.44555 12.7731L6.44623 12.7744L6.45334 12.7876C6.46056 12.8007 6.47264 12.8222 6.48976 12.8508C6.52401 12.9081 6.57821 12.9937 6.65355 13.0981C6.80458 13.3076 7.03833 13.5898 7.36402 13.8723C8.01069 14.4333 9.02312 15 10.5 15C11.9769 15 12.9893 14.4333 13.636 13.8723C13.9617 13.5898 14.1954 13.3076 14.3465 13.0981C14.4218 12.9937 14.476 12.9081 14.5102 12.8508C14.5274 12.8222 14.5394 12.8007 14.5467 12.7876L14.5538 12.7743L14.5547 12.7726L14.5538 12.7743C14.6786 12.5283 14.9793 12.4293 15.2256 12.5538C15.472 12.6783 15.5708 12.9791 15.4462 13.2256L15 13C15.4462 13.2256 15.4462 13.2256 15.4462 13.2256L15.4457 13.2266L15.4451 13.2278L15.4435 13.231L15.4387 13.2401C15.4349 13.2473 15.4298 13.2568 15.4234 13.2686C15.4105 13.292 15.3923 13.3243 15.3685 13.364C15.321 13.4434 15.2512 13.5532 15.1575 13.6831C14.9705 13.9424 14.686 14.2852 14.2913 14.6277C13.497 15.3167 12.2594 16 10.5 16C8.74056 16 7.50299 15.3167 6.70873 14.6277C6.31396 14.2852 6.02953 13.9424 5.84249 13.6831C5.74879 13.5532 5.67897 13.4434 5.63148 13.364C5.60772 13.3243 5.5895 13.292 5.57662 13.2686C5.57018 13.2568 5.56507 13.2473 5.56127 13.2401L5.55655 13.231L5.55492 13.2278L5.55428 13.2266C5.55428 13.2266 5.55377 13.2256 6 13L5.55377 13.2256C5.42919 12.9791 5.52799 12.6783 5.77444 12.5538Z" fill="#404040"/>
</svg>
