<svg width="34" height="30" viewBox="0 0 34 30" fill="none" xmlns="http://www.w3.org/2000/svg">
<path fill-rule="evenodd" clip-rule="evenodd" d="M9 17.1C13.4735 17.1 17.1 13.4735 17.1 9C17.1 4.52649 13.4735 0.9 9 0.9C4.52649 0.9 0.9 4.52649 0.9 9C0.9 13.4735 4.52649 17.1 9 17.1ZM9 18C13.9706 18 18 13.9706 18 9C18 4.02944 13.9706 0 9 0C4.02944 0 0 4.02944 0 9C0 13.9706 4.02944 18 9 18Z" fill="#404040"/>
<path d="M9.6309 3V4.92632H8.66524V3H9.6309ZM9.51502 13.3137V15H8.55579V13.3137H9.51502ZM10.8026 11.3179C10.8026 11.0653 10.7446 10.8379 10.6288 10.6358C10.5129 10.4337 10.3219 10.2484 10.0558 10.08C9.7897 9.91158 9.43348 9.75579 8.98712 9.61263C8.44635 9.44842 7.97854 9.24842 7.58369 9.01263C7.19313 8.77684 6.89056 8.48421 6.67597 8.13474C6.46567 7.78526 6.36052 7.36211 6.36052 6.86526C6.36052 6.34737 6.47425 5.90105 6.70172 5.52632C6.92918 5.15158 7.25107 4.86316 7.66738 4.66105C8.08369 4.45895 8.57296 4.35789 9.13519 4.35789C9.57296 4.35789 9.96352 4.42316 10.3069 4.55368C10.6502 4.68 10.9399 4.86947 11.176 5.12211C11.4163 5.37474 11.5987 5.68421 11.7232 6.05053C11.8519 6.41684 11.9163 6.84 11.9163 7.32H10.7318C10.7318 7.03789 10.6974 6.77895 10.6288 6.54316C10.5601 6.30737 10.4571 6.10316 10.3197 5.93053C10.1824 5.75368 10.015 5.61895 9.8176 5.52632C9.62017 5.42947 9.3927 5.38105 9.13519 5.38105C8.77468 5.38105 8.47639 5.44211 8.24034 5.56421C8.00858 5.68632 7.83691 5.85895 7.72532 6.08211C7.61373 6.30105 7.55794 6.55579 7.55794 6.84632C7.55794 7.11579 7.61373 7.35158 7.72532 7.55368C7.83691 7.75579 8.02575 7.93895 8.29185 8.10316C8.56223 8.26316 8.93348 8.42105 9.40558 8.57684C9.95923 8.74947 10.4292 8.95368 10.8155 9.18947C11.2017 9.42105 11.4957 9.70737 11.6974 10.0484C11.8991 10.3853 12 10.8042 12 11.3053C12 11.8484 11.8755 12.3074 11.6266 12.6821C11.3777 13.0526 11.0279 13.3347 10.5773 13.5284C10.1266 13.7221 9.59871 13.8189 8.99356 13.8189C8.62876 13.8189 8.26824 13.7705 7.91202 13.6737C7.55579 13.5768 7.23391 13.4189 6.94635 13.2C6.6588 12.9768 6.42918 12.6842 6.25751 12.3221C6.08584 11.9558 6 11.5074 6 10.9768H7.19742C7.19742 11.3347 7.24893 11.6316 7.35193 11.8674C7.45923 12.0989 7.60086 12.2842 7.77682 12.4232C7.95279 12.5579 8.14592 12.6547 8.35622 12.7137C8.57082 12.7684 8.78326 12.7958 8.99356 12.7958C9.37983 12.7958 9.70601 12.7368 9.9721 12.6189C10.2425 12.4968 10.4485 12.3242 10.5901 12.1011C10.7318 11.8779 10.8026 11.6168 10.8026 11.3179Z" fill="#404040"/>
<path d="M16.515 10.0996H28.8203V21.6496H26.8763C26.7791 21.6496 26.6885 21.6991 26.6359 21.7809L22.4922 28.2267C22.1825 28.7084 21.6491 28.9996 21.0765 28.9996C19.9583 28.9996 19.1511 27.9294 19.4582 26.8543L20.9078 21.7809C20.9266 21.7151 20.8772 21.6496 20.8088 21.6496H14.0008C12.7174 21.6496 11.7661 20.4579 12.0506 19.2064L13.5896 12.4347C13.9 11.0689 15.1143 10.0996 16.515 10.0996Z" fill="#FD8A9C"/>
<path fill-rule="evenodd" clip-rule="evenodd" d="M13.1022 12.3239C13.4644 10.7304 14.881 9.59961 16.5152 9.59961H28.8205C29.0966 9.59961 29.3205 9.82347 29.3205 10.0996V21.6496C29.3205 21.9258 29.0966 22.1496 28.8205 22.1496H26.9935L22.913 28.4971C22.5113 29.1219 21.8195 29.4996 21.0767 29.4996C19.6264 29.4996 18.5793 28.1114 18.9777 26.7169L20.2826 22.1496H14.0011C12.3968 22.1496 11.2077 20.66 11.5632 19.0956L13.1022 12.3239ZM16.5152 10.5996C15.3479 10.5996 14.336 11.4073 14.0774 12.5456L12.5384 19.3172C12.325 20.2558 13.0385 21.1496 14.0011 21.1496H20.809C21.2096 21.1496 21.4988 21.533 21.3888 21.9182L19.9392 26.9916C19.7233 27.7473 20.2907 28.4996 21.0767 28.4996C21.4792 28.4996 21.8541 28.2949 22.0718 27.9563L26.2155 21.5105C26.3601 21.2856 26.6092 21.1496 26.8765 21.1496H28.3205V10.5996H16.5152Z" fill="#404040"/>
<path fill-rule="evenodd" clip-rule="evenodd" d="M32.0454 9H29.7954C29.5193 9 29.2954 9.22386 29.2954 9.5V22.25C29.2954 22.5261 29.5193 22.75 29.7954 22.75H32.0454C32.3216 22.75 32.5454 22.5261 32.5454 22.25V9.5C32.5454 9.22386 32.3216 9 32.0454 9ZM29.7954 8C28.967 8 28.2954 8.67157 28.2954 9.5V22.25C28.2954 23.0784 28.967 23.75 29.7954 23.75H32.0454C32.8738 23.75 33.5454 23.0784 33.5454 22.25V9.5C33.5454 8.67157 32.8738 8 32.0454 8H29.7954Z" fill="#404040"/>
</svg>
