<svg width="43" height="39" viewBox="0 0 43 39" fill="none" xmlns="http://www.w3.org/2000/svg">
<path d="M0.412879 9.20768C0.785586 4.49472 4.58911 0.8582 9.30475 0.521004C13.0947 0.250001 17.5541 2.35148e-08 21.1084 0C24.6627 -2.35148e-08 29.1221 0.250001 32.9121 0.521004C37.6277 0.8582 41.4313 4.49472 41.804 9.20769C41.9475 11.0225 42.0508 12.8816 42.0508 14.4724C42.0508 16.0632 41.9475 17.9223 41.804 19.7371C41.4313 24.4501 37.6277 28.0866 32.9121 28.4238C29.1221 28.6948 24.6627 28.9448 21.1084 28.9448C17.5541 28.9448 13.0947 28.6948 9.30475 28.4238C4.58911 28.0866 0.785586 24.4501 0.412879 19.7371C0.269363 17.9223 0.166016 16.0632 0.166016 14.4724C0.166016 12.8816 0.269363 11.0225 0.412879 9.20768Z" fill="#4E69FE"/>
<path d="M19.2356 14.4726C19.2356 13.1561 20.3028 12.0889 21.6193 12.0889H30.473C31.7895 12.0889 32.8567 13.1561 32.8567 14.4726C32.8567 15.789 31.7895 16.8562 30.473 16.8562H21.6193C20.3028 16.8562 19.2356 15.789 19.2356 14.4726Z" fill="#7AFF4B"/>
<path d="M9.36035 14.4726C9.36035 13.1561 10.4276 12.0889 11.744 12.0889H14.6385C15.955 12.0889 17.0222 13.1561 17.0222 14.4726C17.0222 15.789 15.955 16.8562 14.6385 16.8562H11.744C10.4276 16.8562 9.36035 15.789 9.36035 14.4726Z" fill="#7AFF4B"/>
<path opacity="0.6" d="M38.9861 31.8165C38.9861 32.5689 38.9675 33.4333 38.937 34.3458C38.8015 38.3992 34.1625 40.46 31.0866 37.8167C29.5453 36.4923 28.0082 35.1094 26.754 33.8551C25.493 32.5941 24.1019 31.0472 22.7709 29.4976C20.1328 26.4261 22.1827 21.7936 26.2296 21.6644C27.0417 21.6385 27.8144 21.623 28.5014 21.623C30.3464 21.623 32.4736 21.7347 34.2825 21.8602C36.6882 22.0271 38.5915 23.9189 38.7611 26.3244C38.8816 28.0339 38.9861 30.0312 38.9861 31.8165Z" fill="#7AFF4B"/>
</svg>
