<svg width="60" height="23" viewBox="0 0 60 23" fill="none" xmlns="http://www.w3.org/2000/svg">
<path d="M14.7952 5.69597C15.7654 5.77538 16.2926 6.76954 16.0461 7.71128L15.9735 7.98825C15.7549 8.82335 14.9017 9.29878 14.04 9.24733C13.9891 9.24006 13.9164 9.23642 13.8218 9.23642C12.8982 9.23642 12.12 9.52369 11.4873 10.0982C11.0404 10.5096 10.7495 10.99 10.6147 11.5396C10.5079 11.975 10.8259 12.3745 11.2573 12.4965C12.4538 12.835 13.3777 13.1046 14.0291 13.3055C14.5891 13.4801 14.9964 13.6473 15.2509 13.8073C15.6873 14.0764 16 14.411 16.1891 14.811C16.2618 14.9637 16.3127 15.1237 16.3418 15.291C16.3709 15.4146 16.3855 15.5455 16.3855 15.6837C16.3927 15.8146 16.3964 15.9455 16.3964 16.0764C16.3964 20.0473 14.2436 22.0328 9.93818 22.0328H6.68727C4.87636 22.0328 3.34909 21.4619 2.10545 20.3201C0.701818 19.0328 0 17.2728 0 15.0401C0 13.4948 0.331087 11.8653 0.99326 10.1514C1.34905 9.23044 2.43057 8.86802 3.31719 9.30228C4.20316 9.73622 4.55636 10.8004 4.20852 11.7235C3.78829 12.8388 3.57818 13.7952 3.57818 14.5928C3.57818 15.0801 3.60364 15.4946 3.65455 15.8364C3.72727 16.331 3.85455 16.7491 4.03636 17.091C4.52364 18.0001 5.40727 18.4546 6.68727 18.4546H9.93818C10.5127 18.4546 11.0036 18.4073 11.4109 18.3128C11.9418 18.1891 12.2982 17.9855 12.48 17.7019C12.5444 17.6026 12.5989 17.4904 12.6435 17.3654C12.796 16.9379 12.482 16.5268 12.0434 16.4098C11.3311 16.2197 10.1083 15.8959 8.37496 15.4383C7.83518 15.2958 7.35912 14.9387 7.20328 14.4027C7.03382 13.8197 6.94909 13.1376 6.94909 12.3564C6.94909 10.8001 7.46909 9.38551 8.50909 8.11278C9.83273 6.48369 11.7055 5.66915 14.1273 5.66915C14.3541 5.66915 14.5768 5.67809 14.7952 5.69597Z" fill="#404040"/>
<path d="M29.9826 10.8946C29.9826 11.5782 30.099 12.0401 30.3317 12.2801C30.5281 12.4837 30.8808 12.5855 31.3899 12.5855H31.7499V16.1637H31.3899C30.5826 16.1637 29.8517 16.0182 29.1972 15.7273C28.6808 15.4946 28.2262 15.1819 27.8335 14.7891C27.4772 15.0873 27.0372 15.3455 26.5135 15.5637C25.539 15.9637 24.3463 16.1637 22.9353 16.1637H20.0226C19.0345 16.1637 18.2335 15.3627 18.2335 14.3746C18.2335 13.3865 19.0345 12.5855 20.0226 12.5855H22.9353C24.4772 12.5855 25.4663 12.3237 25.9026 11.8001C26.2372 11.3928 26.4044 10.491 26.4044 9.0946V2.21097C26.4044 1.22288 27.2054 0.421875 28.1935 0.421875C29.1816 0.421875 29.9826 1.22288 29.9826 2.21097V10.8946Z" fill="#404040"/>
<path d="M40.0827 11.5928C40.0827 11.9419 40.1664 12.1891 40.3336 12.3346C40.5227 12.5019 40.8573 12.5855 41.3373 12.5855H42.93V16.1637H41.3373C40.8645 16.1637 40.4173 16.1128 39.9955 16.011C39.6609 15.931 39.3482 15.8182 39.0573 15.6728C38.7227 15.5128 38.4718 15.3528 38.3045 15.1928C38.1373 15.3528 37.8682 15.5128 37.4973 15.6728C36.7627 16.0001 35.89 16.1637 34.8791 16.1637H31.2136V12.5855H35.13C35.6536 12.5855 36.0209 12.4982 36.2318 12.3237C36.4209 12.171 36.5155 11.9273 36.5155 11.5928V10.4091C36.5155 9.42407 37.314 8.62551 38.2991 8.62551C39.2842 8.62551 40.0827 9.42407 40.0827 10.4091V11.5928Z" fill="#404040"/>
<path d="M51.8624 10.6219C51.9206 10.971 51.9497 11.3055 51.9497 11.6255C51.9497 12.6146 51.666 13.5019 51.0988 14.2873C50.1897 15.5382 48.7097 16.1637 46.6588 16.1637H42.3933V12.5855H46.5824C47.237 12.5855 47.6988 12.4982 47.9679 12.3237C48.2442 12.1564 48.3824 11.891 48.3824 11.5273C48.3824 11.4182 48.3679 11.2982 48.3388 11.1673C48.266 10.7964 48.1933 10.4182 48.1206 10.0328C48.0915 9.88733 48.0624 9.73097 48.0333 9.56369L47.9897 9.35642L47.957 9.14915C47.8251 8.4284 48.2497 7.70777 48.9509 7.49497L49.2811 7.39472C50.2707 7.09437 51.3049 7.70511 51.5026 8.72021C51.6165 9.30497 51.7364 9.93886 51.8624 10.6219Z" fill="#404040"/>
<path d="M59.3567 14.5055C59.3567 16.7746 58.7858 18.5564 57.644 19.851C56.3713 21.2982 54.5095 22.0219 52.0586 22.0219C51.4621 22.0219 50.9785 21.5383 50.9785 20.9419V19.5237C50.9785 18.9272 51.4621 18.4437 52.0586 18.4437C53.3967 18.4437 54.3495 18.1419 54.9167 17.5382C55.4913 16.9346 55.7785 15.9237 55.7785 14.5055V10.4146C55.7785 9.42651 56.5796 8.62551 57.5676 8.62551C58.5557 8.62551 59.3567 9.42651 59.3567 10.4146V14.5055Z" fill="#404040"/>
<path d="M19.5859 2.56997L19.7482 10.085C19.7697 11.0777 20.5958 11.8628 21.5883 11.8338C22.5701 11.8051 23.345 10.9898 23.3237 10.0078L23.1614 2.49272C23.1399 1.50004 22.3138 0.714923 21.3214 0.743943C20.3395 0.772652 19.5647 1.58795 19.5859 2.56997Z" fill="#404040"/>
<path d="M30.291 22C29.3019 22 28.5 21.1981 28.5 20.209C28.5 19.2198 29.3019 18.418 30.291 18.418L37.709 18.418C38.6981 18.418 39.5 19.2198 39.5 20.209C39.5 21.1981 38.6981 22 37.709 22L30.291 22Z" fill="#404040"/>
<path d="M42.791 22C41.8019 22 41 21.1981 41 20.209C41 19.2198 41.8019 18.418 42.791 18.418L46.209 18.418C47.1981 18.418 48 19.2198 48 20.209C48 21.1981 47.1981 22 46.209 22L42.791 22Z" fill="#404040"/>
</svg>
