<svg width="39" height="30" viewBox="0 0 39 30" fill="none" xmlns="http://www.w3.org/2000/svg">
<rect x="23.5806" y="22.0732" width="10.5419" height="6.93544" rx="3.46772" fill="#4E69FE"/>
<path fill-rule="evenodd" clip-rule="evenodd" d="M0 10.5612C0 5.12213 4.40925 0.712891 9.84832 0.712891H28.8514C34.2905 0.712891 38.6997 5.12213 38.6997 10.5612C38.6997 16.0003 34.2905 20.4095 28.8514 20.4095H9.84833C4.40925 20.4095 0 16.0003 0 10.5612ZM9.01596 9.03512C9.01596 7.96263 9.88538 7.0932 10.9579 7.0932C12.0304 7.0932 12.8998 7.96263 12.8998 9.03512V12.0867C12.8998 13.1592 12.0304 14.0286 10.9579 14.0286C9.88538 14.0286 9.01596 13.1592 9.01596 12.0867V9.03512ZM16.9224 7.0932C15.85 7.0932 14.9805 7.96263 14.9805 9.03512V12.0867C14.9805 13.1592 15.85 14.0286 16.9224 14.0286C17.9949 14.0286 18.8644 13.1592 18.8644 12.0867V9.03512C18.8644 7.96263 17.9949 7.0932 16.9224 7.0932Z" fill="#4E69FE"/>
</svg>
