<svg width="28" height="30" viewBox="0 0 28 30" fill="none" xmlns="http://www.w3.org/2000/svg">
<path fill-rule="evenodd" clip-rule="evenodd" d="M22 21V14C22 9.58172 18.4183 6 14 6C9.58172 6 6 9.58172 6 14V21C6 25.4183 9.58172 29 14 29C18.4183 29 22 25.4183 22 21ZM14 5C9.02944 5 5 9.02944 5 14V21C5 25.9706 9.02944 30 14 30C18.9706 30 23 25.9706 23 21V14C23 9.02944 18.9706 5 14 5Z" fill="#404040"/>
<path fill-rule="evenodd" clip-rule="evenodd" d="M22.9602 1.5C20.0221 1.5 17.4117 3.37519 16.4738 6.15961L15.5262 5.84039C16.6011 2.64916 19.5928 0.5 22.9602 0.5H24C24.2761 0.5 24.5 0.723858 24.5 1C24.5 1.27614 24.2761 1.5 24 1.5H22.9602Z" fill="#404040"/>
<path fill-rule="evenodd" clip-rule="evenodd" d="M5.03975 1.5C7.97789 1.5 10.5883 3.37519 11.5262 6.15961L12.4738 5.84039C11.3989 2.64916 8.40716 0.5 5.03975 0.5H4C3.72386 0.5 3.5 0.723858 3.5 1C3.5 1.27614 3.72386 1.5 4 1.5H5.03975Z" fill="#404040"/>
<path fill-rule="evenodd" clip-rule="evenodd" d="M22.5 17.5C22.5 17.2239 22.7239 17 23 17H27C27.2761 17 27.5 17.2239 27.5 17.5C27.5 17.7761 27.2761 18 27 18H23C22.7239 18 22.5 17.7761 22.5 17.5Z" fill="#404040"/>
<path fill-rule="evenodd" clip-rule="evenodd" d="M5.5 17.5C5.5 17.2239 5.27614 17 5 17H1C0.723857 17 0.5 17.2239 0.5 17.5C0.5 17.7761 0.723857 18 1 18H5C5.27614 18 5.5 17.7761 5.5 17.5Z" fill="#404040"/>
<path fill-rule="evenodd" clip-rule="evenodd" d="M21.8351 22.75C21.9731 22.5109 22.2789 22.4289 22.5181 22.567L25.9822 24.567C26.2213 24.7051 26.3033 25.0109 26.1652 25.25C26.0271 25.4891 25.7213 25.5711 25.4822 25.433L22.0181 23.433C21.7789 23.2949 21.697 22.9891 21.8351 22.75Z" fill="#404040"/>
<path fill-rule="evenodd" clip-rule="evenodd" d="M6.16495 22.75C6.02688 22.5109 5.72108 22.4289 5.48193 22.567L2.01783 24.567C1.77869 24.7051 1.69675 25.0109 1.83482 25.25C1.97289 25.4891 2.27869 25.5711 2.51783 25.433L5.98193 23.433C6.22108 23.2949 6.30302 22.9891 6.16495 22.75Z" fill="#404040"/>
<path fill-rule="evenodd" clip-rule="evenodd" d="M21.8351 12.25C21.697 12.0109 21.7789 11.7051 22.0181 11.567L25.4822 9.56699C25.7213 9.42892 26.0271 9.51085 26.1652 9.75C26.3033 9.98915 26.2213 10.2949 25.9822 10.433L22.5181 12.433C22.2789 12.5711 21.9731 12.4891 21.8351 12.25Z" fill="#404040"/>
<path fill-rule="evenodd" clip-rule="evenodd" d="M6.16495 12.25C6.30302 12.0109 6.22108 11.7051 5.98193 11.567L2.51783 9.56699C2.27869 9.42892 1.97289 9.51085 1.83482 9.75C1.69675 9.98915 1.77869 10.2949 2.01783 10.433L5.48193 12.433C5.72108 12.5711 6.02688 12.4891 6.16495 12.25Z" fill="#404040"/>
</svg>
